<?xml version="1.0" encoding="UTF-8" standalone="no"?>
<svg width="361px" height="103px" viewBox="0 0 361 103" version="1.1" xmlns="http://www.w3.org/2000/svg" xmlns:xlink="http://www.w3.org/1999/xlink" xmlns:sketch="http://www.bohemiancoding.com/sketch/ns">
    <title>White logo pink tip</title>
    <description>Created with Sketch (http://www.bohemiancoding.com/sketch)</description>
    <defs></defs>
    <g id="Page-1-Copy-Copy-Copy-Copy-Copy" stroke="none" stroke-width="1" fill="none" fill-rule="evenodd" sketch:type="MSPage">
        <path d="M38.5341952,74.72 C45.2768407,74.7199999 49.8224457,73.7249692 54.97413,68.8402781 C55.5044504,68.3222048 55.6559705,67.3600687 55.04989,66.8419954 L52.3225266,60.8060314 C51.8679662,60.3619686 51.0346055,60.2879581 50.428525,60.8060314 C47.2466024,63.3223874 43.3828392,65.0246276 38.8372354,65.0246283 C31.8252209,65.0246292 28.1803196,58.8817583 28.1803199,51.0119791 C28.1803204,43.1421998 31.8252207,36.9746597 38.7614753,36.8513089 C43.0035922,36.7758693 47.2466024,38.4795393 50.428525,41.2179267 C51.0346055,41.8100105 51.7922061,41.8100105 52.3225266,41.2179267 L55.04989,35.9631831 C55.6559705,35.3710994 55.6559705,34.4829737 54.97413,33.8908899 C49.8224457,29.3762512 46.1859615,27.6 38.5341952,27.6 C27.1280973,27.6 17.4981511,36.9746596 17.4981511,51.2340105 C17.4981511,64.7285853 27.1280973,74.7200002 38.5341952,74.72 Z M60.696,59.528 C60.696,67.808 67.32,74.72 75.456,74.72 C83.592,74.72 90.216,67.808 90.216,59.528 C90.216,51.392 83.592,44.48 75.456,44.48 C67.32,44.48 60.696,51.392 60.696,59.528 C60.696,59.528 60.696,51.392 60.696,59.528 Z M68.544,59.528 C68.544,55.496 71.568,52.256 75.456,52.256 C79.272,52.256 82.368,55.496 82.368,59.528 C82.368,63.632 79.272,66.944 75.456,66.944 C71.568,66.944 68.544,63.632 68.544,59.528 C68.544,59.528 68.544,63.632 68.544,59.528 Z M96.624,72.632 C96.624,73.352 97.272,74 97.992,74 L103.32,74 C104.688,74 105.12,73.64 105.12,72.632 L105.12,56.792 C105.84,54.848 108.144,52.256 111.888,52.256 C115.344,52.256 117.288,54.632 117.288,58.376 L117.288,72.632 C117.288,73.352 117.864,74 118.656,74 L124.56,74 C125.28,74 125.928,73.352 125.928,72.632 L125.928,58.808 C125.928,51.32 122.256,44.48 113.112,44.48 C107.568,44.48 104.04,47.576 102.96,48.728 L101.952,46.064 C101.736,45.56 101.376,45.2 100.728,45.2 L97.992,45.2 C97.272,45.2 96.624,45.776 96.624,46.568 C96.624,46.568 96.624,45.776 96.624,46.568 L96.624,72.632 Z M132.84,72.056 C134.352,73.208 137.664,74.72 142.416,74.72 C149.688,74.72 153.864,70.688 153.864,65.936 C153.864,60.32 149.688,57.944 144.144,55.784 C141.48,54.704 140.184,54.272 140.184,52.976 C140.184,52.04 140.904,51.32 142.632,51.32 C145.368,51.32 148.608,52.832 148.608,52.832 C149.184,53.048 149.976,52.976 150.336,52.328 L152.136,48.656 C152.496,47.936 152.136,47.144 151.488,46.712 C149.976,45.704 146.88,44.48 142.632,44.48 C135.288,44.48 132.048,48.584 132.048,52.976 C132.048,57.368 134.64,60.32 140.184,62.48 C144,63.992 145.008,64.784 145.008,66.08 C145.008,67.304 144,67.88 142.56,67.88 C139.248,67.88 136.008,66.152 136.008,66.152 C135.36,65.792 134.64,65.936 134.352,66.656 L132.408,70.544 C132.12,71.12 132.408,71.696 132.84,72.056 C132.84,72.056 132.408,71.696 132.84,72.056 Z M160.2,72.632 C160.2,73.352 160.848,74 161.568,74 L167.544,74 C168.264,74 168.912,73.352 168.912,72.632 L168.912,46.568 C168.912,45.776 168.264,45.2 167.544,45.2 L161.568,45.2 C160.848,45.2 160.2,45.776 160.2,46.568 C160.2,46.568 160.2,45.776 160.2,46.568 L160.2,72.632 Z M189.216,74.72 C195.264,74.72 198.648,70.4 198.648,70.4 L199.368,72.632 C199.584,73.424 200.088,74 200.736,74 L203.544,74 C204.264,74 204.912,73.352 204.912,72.632 L204.912,28.968 C204.912,28.248 204.264,27.6 203.544,27.6 L197.424,27.6 C196.704,27.6 196.056,28.248 196.056,28.968 L196.056,45.776 C194.76,45.272 192.528,44.48 189.648,44.48 C181.08,44.48 175.392,51.176 175.392,59.6 C175.392,67.88 181.368,74.72 189.216,74.72 Z M183.744,59.6 C183.744,55.568 186.696,52.256 190.728,52.256 C194.328,52.256 196.344,53.912 196.344,53.912 L196.344,62.264 C195.84,63.992 194.112,66.944 190.296,66.944 C186.48,66.944 183.744,63.632 183.744,59.6 C183.744,59.6 183.744,63.632 183.744,59.6 Z M211.392,59.6 C211.392,67.88 217.512,74.72 226.152,74.72 C230.832,74.72 234.504,72.992 236.88,70.76 C237.6,70.184 237.456,69.392 236.952,68.888 L234,65.504 C233.496,64.928 232.848,65.072 232.128,65.504 C230.832,66.44 228.744,67.304 226.512,67.304 C222.336,67.304 219.816,63.992 219.6,61.04 L238.032,61.04 C238.68,61.04 239.328,60.536 239.4,59.816 C239.472,59.312 239.544,58.376 239.544,57.872 C239.544,50.096 233.496,44.48 226.08,44.48 C217.512,44.48 211.392,51.464 211.392,59.6 C211.392,59.6 211.392,51.464 211.392,59.6 Z M220.248,56 C220.608,53.264 222.984,51.104 225.864,51.104 C228.6,51.104 230.904,53.336 231.12,56 C231.12,56 230.904,53.336 231.12,56 L220.248,56 Z M245.592,72.632 C245.592,73.352 246.24,74 246.96,74 L252.504,74 C253.512,74 254.16,73.64 254.16,72.632 L254.16,55.208 C254.664,54.2 256.392,52.256 259.272,52.256 C260.064,52.256 261.144,52.616 261.36,52.688 C261.936,52.976 262.656,52.688 263.016,52.04 L265.68,47.36 C266.544,45.56 263.52,44.48 260.136,44.48 C255.672,44.48 253.008,47.504 252,48.944 L250.992,46.136 C250.776,45.56 250.344,45.2 249.696,45.2 L246.96,45.2 C246.24,45.2 245.592,45.776 245.592,46.568 C245.592,46.568 245.592,45.776 245.592,46.568 L245.592,72.632 Z M270.144,72.632 C270.144,73.352 270.792,74 271.512,74 L277.488,74 C278.208,74 278.856,73.352 278.856,72.632 L278.856,46.568 C278.856,45.776 278.208,45.2 277.488,45.2 L271.512,45.2 C270.792,45.2 270.144,45.776 270.144,46.568 C270.144,46.568 270.144,45.776 270.144,46.568 L270.144,72.632 Z M289.008,65.432 C289.008,71.264 291.456,74.72 297,74.72 C300.528,74.72 305.208,73.064 305.568,72.848 C306.288,72.56 306.648,71.84 306.36,71.12 L304.92,66.584 C304.704,65.864 304.128,65.504 303.336,65.792 C302.544,66.08 301.032,66.584 299.808,66.584 C298.656,66.584 297.576,66.296 297.576,64.28 L297.576,52.76 L303.912,52.76 C304.704,52.76 305.28,52.112 305.28,51.392 L305.28,46.568 C305.28,45.776 304.704,45.2 303.912,45.2 L297.576,45.2 L297.576,37.136 C297.576,36.416 297,35.768 296.28,35.768 L290.376,35.84 C289.656,35.84 289.008,36.488 289.008,37.208 L289.008,45.2 L286.56,45.2 C285.84,45.2 285.264,45.776 285.264,46.568 L285.264,51.392 C285.264,52.112 285.84,52.76 286.56,52.76 L289.008,52.76 L289.008,65.432 Z M289.008,65.432" id="Considerit" fill="#FFFFFF" sketch:type="MSShapeGroup"></path>
        <path d="M270,81.6931819 L274.5,86 L279,81.6931819 L279,77.3863636 L270,77.3863636 L270,81.6931819 Z M270,81.6931819" id="Path-14" fill="#B03B42" sketch:type="MSShapeGroup"></path>
    </g>
</svg>