<?xml version="1.0" encoding="UTF-8" standalone="no"?>
<svg width="149px" height="39px" viewBox="0 0 149 39" version="1.1" xmlns="http://www.w3.org/2000/svg" xmlns:xlink="http://www.w3.org/1999/xlink" xmlns:sketch="http://www.bohemiancoding.com/sketch/ns">
    <!-- Generator: Sketch 3.3.2 (12043) - http://www.bohemiancoding.com/sketch -->
    <title>cityclub copy 8</title>
    <desc>Created with Sketch.</desc>
    <defs>
        <path id="path-1" d="M0.974488013,38.2334623 L149.533694,38.2334623 L149.533694,0.249498675 L0.974488013,0.249498675 L0.974488013,38.2334623 L0.974488013,38.2334623 Z"></path>
        <path id="path-3" d="M0.974488013,38.2334623 L149.533694,38.2334623 L149.533694,0.249498675 L0.974488013,0.249498675 L0.974488013,38.2334623 L0.974488013,38.2334623 Z"></path>
        <path id="path-5" d="M0.974488013,38.2334623 L149.533694,38.2334623 L149.533694,0.249498675 L0.974488013,0.249498675 L0.974488013,38.2334623 L0.974488013,38.2334623 Z"></path>
        <path id="path-7" d="M0.974488013,38.2334623 L149.533694,38.2334623 L149.533694,0.249498675 L0.974488013,0.249498675 L0.974488013,38.2334623 L0.974488013,38.2334623 Z"></path>
        <path id="path-9" d="M0.974488013,38.2334623 L149.533694,38.2334623 L149.533694,0.249498675 L0.974488013,0.249498675 L0.974488013,38.2334623 L0.974488013,38.2334623 Z"></path>
        <path id="path-11" d="M0.974488013,38.2334623 L149.533694,38.2334623 L149.533694,0.249498675 L0.974488013,0.249498675 L0.974488013,38.2334623 L0.974488013,38.2334623 Z"></path>
        <path id="path-13" d="M0.974488013,38.2334623 L149.533694,38.2334623 L149.533694,0.249498675 L0.974488013,0.249498675 L0.974488013,38.2334623 L0.974488013,38.2334623 Z"></path>
        <path id="path-15" d="M0.228219357,38.2334623 L148.787425,38.2334623 L148.787425,0.249498675 L0.228219357,0.249498675 L0.228219357,38.2334623 L0.228219357,38.2334623 Z"></path>
        <path id="path-17" d="M0.974488013,38.2334623 L149.533694,38.2334623 L149.533694,0.249498675 L0.974488013,0.249498675 L0.974488013,38.2334623 L0.974488013,38.2334623 Z"></path>
        <path id="path-19" d="M0.974488013,38.2334623 L149.533694,38.2334623 L149.533694,0.249498675 L0.974488013,0.249498675 L0.974488013,38.2334623 L0.974488013,38.2334623 Z"></path>
        <path id="path-21" d="M0.974488013,38.2334623 L149.533694,38.2334623 L149.533694,0.249498675 L0.974488013,0.249498675 L0.974488013,38.2334623 L0.974488013,38.2334623 Z"></path>
        <path id="path-23" d="M0.228219357,38.2334623 L148.787425,38.2334623 L148.787425,0.249498675 L0.228219357,0.249498675 L0.228219357,38.2334623 L0.228219357,38.2334623 Z"></path>
        <path id="path-25" d="M0.228219357,38.2334623 L148.787425,38.2334623 L148.787425,0.249498675 L0.228219357,0.249498675 L0.228219357,38.2334623 L0.228219357,38.2334623 Z"></path>
        <path id="path-27" d="M0.228219357,38.2334623 L148.787425,38.2334623 L148.787425,0.249498675 L0.228219357,0.249498675 L0.228219357,38.2334623 L0.228219357,38.2334623 Z"></path>
        <path id="path-29" d="M0.228219357,38.2334623 L148.787425,38.2334623 L148.787425,0.249498675 L0.228219357,0.249498675 L0.228219357,38.2334623 L0.228219357,38.2334623 Z"></path>
        <path id="path-31" d="M0.974488013,38.2334623 L149.533694,38.2334623 L149.533694,0.249498675 L0.974488013,0.249498675 L0.974488013,38.2334623 L0.974488013,38.2334623 Z"></path>
        <path id="path-33" d="M0.228219357,38.2334623 L148.787425,38.2334623 L148.787425,0.249498675 L0.228219357,0.249498675 L0.228219357,38.2334623 L0.228219357,38.2334623 Z"></path>
    </defs>
    <g id="Page-1" stroke="none" stroke-width="1" fill="none" fill-rule="evenodd" sketch:type="MSPage">
        <g id="trim,general" sketch:type="MSLayerGroup" transform="translate(-418.000000, -344.000000)">
            <g id="cityclub-copy-8-+-brought-to-you-by-copy-copy-copy-copy" transform="translate(273.187500, 344.000000)">
                <g id="cityclub-copy-8" transform="translate(143.875000, 0.000000)">
                    <g id="Page-1">
                        <g id="Imported-Layers">
                            <g id="Group-513">
                                <g id="Clip-496" transform="translate(0.993377, 0.000000)"></g>
                                <g id="Fill-495-Clipped">
                                    <mask id="mask-2" sketch:name="path-1" fill="white">
                                        <use xlink:href="#path-1"></use>
                                    </mask>
                                    <g id="path-1"></g>
                                    <path d="M82.0247483,9.28836755 C81.7692219,8.93992053 81.4406821,8.72089073 80.9926788,8.72089073 C80.5629338,8.72089073 80.1514371,9.0510894 80.1514371,9.49909272 C80.1514371,10.6572616 82.8825894,10.1744106 82.8825894,12.4857715 C82.8825894,13.8646192 82.0247483,14.8419338 80.6176887,14.8419338 C79.6685861,14.8419338 78.973351,14.2943742 78.4988046,13.4979238 L79.3665993,12.6483775 C79.5491225,13.1776887 80.0336225,13.655553 80.609394,13.655553 C81.1569536,13.655553 81.4954371,13.1876424 81.4954371,12.6583411 C81.4954371,11.9465066 80.8367086,11.7457351 80.2974437,11.5350099 C79.4114007,11.1699735 78.7642848,10.7219702 78.7642848,9.65340397 C78.7642848,8.5118245 79.6138311,7.58927483 80.7736589,7.58927483 C81.3859272,7.58927483 82.2338146,7.88960265 82.6552649,8.3558543 L82.0247483,9.28836755 L82.0247483,9.28836755 Z" id="Fill-495" fill="#FFFFFF" sketch:type="MSShapeGroup" mask="url(#mask-2)"></path>
                                </g>
                                <g id="Fill-497-Clipped">
                                    <mask id="mask-4" sketch:name="path-1" fill="white">
                                        <use xlink:href="#path-3"></use>
                                    </mask>
                                    <g id="path-1"></g>
                                    <path d="M89.4909536,8.94091391 L89.4909536,10.4574834 L91.628096,10.4574834 L91.628096,11.6272649 L89.4909536,11.6272649 L89.4909536,13.4889636 L91.711053,13.4889636 L91.711053,14.658745 L88.1486026,14.658745 L88.1486026,7.77113245 L91.711053,7.77113245 L91.711053,8.94091391 L89.4909536,8.94091391 L89.4909536,8.94091391 Z" id="Fill-497" fill="#FFFFFF" sketch:type="MSShapeGroup" mask="url(#mask-4)"></path>
                                </g>
                                <g id="Fill-498-Clipped">
                                    <mask id="mask-6" sketch:name="path-1" fill="white">
                                        <use xlink:href="#path-5"></use>
                                    </mask>
                                    <g id="path-1"></g>
                                    <path d="M99.7349007,9.60810596 L99.7167219,9.60810596 L98.9584073,12.1102848 L100.592781,12.1102848 L99.7349007,9.60810596 L99.7349007,9.60810596 Z M98.5751126,13.207053 L98.0076457,14.6589139 L96.5939503,14.6589139 L99.2786424,7.58877815 L100.319007,7.58877815 L102.932384,14.6589139 L101.498742,14.6589139 L100.967781,13.207053 L98.5751126,13.207053 L98.5751126,13.207053 Z" id="Fill-498" fill="#FFFFFF" sketch:type="MSShapeGroup" mask="url(#mask-6)"></path>
                                </g>
                                <g id="Fill-499-Clipped">
                                    <mask id="mask-8" sketch:name="path-1" fill="white">
                                        <use xlink:href="#path-7"></use>
                                    </mask>
                                    <g id="path-1"></g>
                                    <path d="M109.413974,14.658745 L108.069934,14.658745 L108.069934,8.94091391 L106.682781,8.94091391 L106.682781,7.77113245 L110.802715,7.77113245 L110.802715,8.94091391 L109.413974,8.94091391 L109.413974,14.658745 L109.413974,14.658745 Z" id="Fill-499" fill="#FFFFFF" sketch:type="MSShapeGroup" mask="url(#mask-8)"></path>
                                </g>
                                <g id="Fill-500-Clipped">
                                    <mask id="mask-10" sketch:name="path-1" fill="white">
                                        <use xlink:href="#path-9"></use>
                                    </mask>
                                    <g id="path-1"></g>
                                    <path d="M118.095695,14.658745 L116.753344,14.658745 L116.753344,8.94091391 L115.364603,8.94091391 L115.364603,7.77113245 L119.484536,7.77113245 L119.484536,8.94091391 L118.095695,8.94091391 L118.095695,14.658745 L118.095695,14.658745 Z" id="Fill-500" fill="#FFFFFF" sketch:type="MSShapeGroup" mask="url(#mask-10)"></path>
                                </g>
                                <g id="Fill-501-Clipped">
                                    <mask id="mask-12" sketch:name="path-1" fill="white">
                                        <use xlink:href="#path-11"></use>
                                    </mask>
                                    <g id="path-1"></g>
                                    <path d="M125.88298,13.4893013 L127.782914,13.4893013 L127.782914,14.6590828 L124.540629,14.6590828 L124.540629,7.77146026 L125.88298,7.77146026 L125.88298,13.4893013 L125.88298,13.4893013 Z" id="Fill-501" fill="#FFFFFF" sketch:type="MSShapeGroup" mask="url(#mask-12)"></path>
                                </g>
                                <g id="Fill-502-Clipped">
                                    <mask id="mask-14" sketch:name="path-1" fill="white">
                                        <use xlink:href="#path-13"></use>
                                    </mask>
                                    <g id="path-1"></g>
                                    <path d="M134.117781,8.94091391 L134.117781,10.4574834 L136.254934,10.4574834 L136.254934,11.6272649 L134.117781,11.6272649 L134.117781,13.4889636 L136.337881,13.4889636 L136.337881,14.658745 L132.77543,14.658745 L132.77543,7.77113245 L136.337881,7.77113245 L136.337881,8.94091391 L134.117781,8.94091391 L134.117781,8.94091391 Z" id="Fill-502" fill="#FFFFFF" sketch:type="MSShapeGroup" mask="url(#mask-14)"></path>
                                </g>
                                <g id="Fill-503-Clipped" transform="translate(0.746269, 0.000000)">
                                    <mask id="mask-16" sketch:name="path-1" fill="white">
                                        <use xlink:href="#path-15"></use>
                                    </mask>
                                    <g id="path-1"></g>
                                    <path d="M72.8301519,22.364553 C72.2062611,21.6029503 71.2621453,21.1483113 70.303089,21.1483113 C68.1576519,21.1483113 66.9248108,23.1261556 66.9248108,25.1056689 C66.9248108,27.037053 68.2024532,28.970106 70.2881486,28.970106 C71.2472049,28.970106 72.2062611,28.4690066 72.8301519,27.7521954 L72.8301519,30.4169831 C71.9922181,30.8118884 71.1559433,31.1006007 70.2267578,31.1006007 C67.0011419,31.1006007 64.6117909,28.3146854 64.6117909,25.1504702 C64.6117909,21.8933245 66.9098803,19.0161556 70.2732181,19.0161556 C71.1708837,19.0161556 72.0536088,19.2600695 72.8301519,19.6864967 L72.8301519,22.364553 L72.8301519,22.364553 Z" id="Fill-503" fill="#A5CE39" sketch:type="MSShapeGroup" mask="url(#mask-16)"></path>
                                </g>
                                <g id="Fill-504-Clipped">
                                    <mask id="mask-18" sketch:name="path-1" fill="white">
                                        <use xlink:href="#path-17"></use>
                                    </mask>
                                    <g id="path-1"></g>
                                    <path d="M80.3306325,30.7966232 L78.0939437,30.7966232 L78.0939437,19.3211225 L80.3306325,19.3211225 L80.3306325,30.7966232 L80.3306325,30.7966232 Z" id="Fill-504" fill="#A5CE39" sketch:type="MSShapeGroup" mask="url(#mask-18)"></path>
                                </g>
                                <g id="Fill-505-Clipped">
                                    <mask id="mask-20" sketch:name="path-1" fill="white">
                                        <use xlink:href="#path-19"></use>
                                    </mask>
                                    <g id="path-1"></g>
                                    <path d="M88.7303444,30.796955 L86.4936556,30.796955 L86.4936556,21.2694437 L84.1789768,21.2694437 L84.1789768,19.3214603 L91.0433642,19.3214603 L91.0433642,21.2694437 L88.7303444,21.2694437 L88.7303444,30.796955 L88.7303444,30.796955 Z" id="Fill-505" fill="#A5CE39" sketch:type="MSShapeGroup" mask="url(#mask-20)"></path>
                                </g>
                                <g id="Fill-506-Clipped">
                                    <mask id="mask-22" sketch:name="path-1" fill="white">
                                        <use xlink:href="#path-21"></use>
                                    </mask>
                                    <g id="path-1"></g>
                                    <path d="M93.8412219,19.3207947 L96.442957,19.3207947 L98.4523311,23.3080132 L100.644238,19.3207947 L103.262583,19.3207947 L99.6403311,25.5314305 L99.6403311,30.7962914 L97.4020132,30.7962914 L97.4020132,25.5314305 L93.8412219,19.3207947 L93.8412219,19.3207947 Z" id="Fill-506" fill="#A5CE39" sketch:type="MSShapeGroup" mask="url(#mask-22)"></path>
                                </g>
                                <g id="Fill-507-Clipped" transform="translate(0.746269, 0.000000)">
                                    <mask id="mask-24" sketch:name="path-1" fill="white">
                                        <use xlink:href="#path-23"></use>
                                    </mask>
                                    <g id="path-1"></g>
                                    <path d="M114.84095,22.364553 C114.217109,21.6029503 113.273003,21.1466523 112.313897,21.1466523 C110.1685,21.1466523 108.935619,23.1261556 108.935619,25.1056689 C108.935619,27.037053 110.213301,28.970106 112.298996,28.970106 C113.258003,28.970106 114.217109,28.4690066 114.84095,27.7521954 L114.84095,30.4169831 C114.003036,30.8118884 113.166811,31.1006007 112.239294,31.1006007 C109.012009,31.1006007 106.622639,28.3146854 106.622639,25.1504702 C106.622639,21.8933245 108.920718,19.0161556 112.284096,19.0161556 C113.1834,19.0161556 114.066115,19.2600695 114.84095,19.6864967 L114.84095,22.364553 L114.84095,22.364553 Z" id="Fill-507" fill="#A5CE39" sketch:type="MSShapeGroup" mask="url(#mask-24)"></path>
                                </g>
                                <g id="Fill-508-Clipped" transform="translate(0.746269, 0.000000)">
                                    <mask id="mask-26" sketch:name="path-1" fill="white">
                                        <use xlink:href="#path-25"></use>
                                    </mask>
                                    <g id="path-1"></g>
                                    <path d="M121.595221,28.8484768 L124.761115,28.8484768 L124.761115,30.7964573 L119.356844,30.7964573 L119.356844,19.3209636 L121.595221,19.3209636 L121.595221,28.8484768 L121.595221,28.8484768 Z" id="Fill-508" fill="#A5CE39" sketch:type="MSShapeGroup" mask="url(#mask-26)"></path>
                                </g>
                                <g id="Fill-509-Clipped" transform="translate(0.746269, 0.000000)">
                                    <mask id="mask-28" sketch:name="path-1" fill="white">
                                        <use xlink:href="#path-27"></use>
                                    </mask>
                                    <g id="path-1"></g>
                                    <path d="M128.456976,19.3207947 L130.693665,19.3207947 L130.693665,25.7438245 C130.693665,27.1591788 130.814758,29.1536126 132.71797,29.1536126 C134.621082,29.1536126 134.742274,27.1591788 134.742274,25.7438245 L134.742274,19.3207947 L136.980553,19.3207947 L136.980553,26.1851821 C136.980553,28.9860298 135.792572,31.101597 132.71797,31.101597 C129.644957,31.101597 128.456976,28.9860298 128.456976,26.1851821 L128.456976,19.3207947 L128.456976,19.3207947 Z" id="Fill-509" fill="#A5CE39" sketch:type="MSShapeGroup" mask="url(#mask-28)"></path>
                                </g>
                                <g id="Fill-510-Clipped" transform="translate(0.746269, 0.000000)">
                                    <mask id="mask-30" sketch:name="path-1" fill="white">
                                        <use xlink:href="#path-29"></use>
                                    </mask>
                                    <g id="path-1"></g>
                                    <path d="M143.840519,29.0016258 L144.313367,29.0016258 C145.514758,29.0016258 146.550056,28.8489735 146.550056,27.3572881 C146.550056,25.8656126 145.332175,25.8042219 144.205586,25.8042219 L143.840519,25.8042219 L143.840519,29.0016258 L143.840519,29.0016258 Z M143.840519,24.1001523 L144.114294,24.1001523 C145.211082,24.1001523 145.743731,23.7799073 145.743731,22.5935364 C145.743731,21.422096 145.073301,21.1167815 144.130884,21.1167815 L143.840519,21.1167815 L143.840519,24.1001523 L143.840519,24.1001523 Z M141.602142,19.3214603 L144.388069,19.3214603 C146.520255,19.3214603 147.829427,20.1577252 147.829427,22.4408841 C147.829427,23.2638775 147.539062,24.2063444 146.823831,24.6643013 C148.177804,24.9065563 148.788433,26.2771093 148.788433,27.5398113 C148.788433,29.7930993 147.203798,30.796955 145.119791,30.796955 L141.602142,30.796955 L141.602142,19.3214603 L141.602142,19.3214603 Z" id="Fill-510" fill="#A5CE39" sketch:type="MSShapeGroup" mask="url(#mask-30)"></path>
                                </g>
                                <g id="Fill-511-Clipped">
                                    <mask id="mask-32" sketch:name="path-1" fill="white">
                                        <use xlink:href="#path-31"></use>
                                    </mask>
                                    <g id="path-1"></g>
                                    <path d="M28.233606,30.4619483 C30.3226192,33.9845742 33.6195894,36.4933877 37.5553709,37.5486825 C38.7749305,37.8738983 40.0343146,38.0514397 41.3036623,38.0763288 C49.8737781,38.2339599 56.9771026,31.3911387 57.1347318,22.8193609 C57.2674768,15.6612815 52.5302682,9.36601987 45.6144338,7.51427483 C44.4031689,7.18905298 43.1437848,7.0131755 41.8777649,6.98828146 C36.0437781,6.8820894 30.6893245,10.0147947 27.9050662,15.1701358 L27.2629371,16.3581755 L32.529447,19.5306954 L33.2263411,18.1933212 C34.8955629,14.9909305 38.1676391,13.041298 41.7649371,13.1076656 C42.5315166,13.122596 43.2947781,13.2271291 44.0314967,13.4245828 C48.2228046,14.5512318 51.0966556,18.3658907 51.0170166,22.7081921 C50.9705563,25.2203245 49.9434636,27.5681821 48.1298841,29.317053 C46.3146457,31.0659219 43.9302815,32.0050679 41.4164901,31.9569497 C40.6432649,31.9420162 39.8733675,31.8358222 39.1316722,31.6350517 C36.4751921,30.9248841 34.2650464,29.074798 33.0720298,26.5576887 L32.5891788,25.5438775 C31.4758113,27.4736026 30.0139967,29.1262351 28.233606,30.4619483" id="Fill-511" fill="#FFFFFF" sketch:type="MSShapeGroup" mask="url(#mask-32)"></path>
                                </g>
                                <g id="Fill-512-Clipped" transform="translate(0.746269, 0.000000)">
                                    <mask id="mask-34" sketch:name="path-1" fill="white">
                                        <use xlink:href="#path-33"></use>
                                    </mask>
                                    <g id="path-1"></g>
                                    <path d="M19.9378373,0.852149007 C18.7199267,0.526927152 17.4605426,0.349390728 16.1912049,0.324496689 C12.0463572,0.249834437 8.11554956,1.79627483 5.12057108,4.68007947 C2.12891048,7.56554305 0.436457502,11.4366159 0.361790284,15.5814636 C0.227389787,22.739553 4.96625883,29.0314967 11.8820923,30.8882146 L11.8837512,30.8882146 C13.0950161,31.2134315 14.3510823,31.3909728 15.6171022,31.412543 C21.451089,31.520396 26.8055426,28.3860397 29.5897909,23.2340166 L30.23193,22.0426589 L24.9654102,18.8701391 L24.268526,20.2091623 C22.5992943,23.411553 19.3272181,25.3611954 15.72993,25.2931589 C14.9633505,25.2798874 14.19843,25.1736954 13.4633704,24.9745828 C9.27040353,23.8512616 6.39820651,20.0366026 6.47951148,15.6959603 C6.52597075,13.1821689 7.55139856,10.8343013 9.36497307,9.08543046 C11.1802214,7.3349106 13.5645856,6.39742053 16.078377,6.44388079 C16.8532512,6.45715232 17.6198406,6.56666225 18.361526,6.76577483 C21.0196751,7.47759934 23.2298207,9.32602649 24.4228373,11.8414768 L24.8973837,12.8436755 C26.0124102,10.9404934 27.5107313,9.26463576 29.2695558,7.95547351 C27.1838605,4.42455298 23.8819135,1.91076159 19.9378373,0.852149007" id="Fill-512" fill="#A5CE39" sketch:type="MSShapeGroup" mask="url(#mask-34)"></path>
                                </g>
                            </g>
                        </g>
                    </g>
                </g>
            </g>
        </g>
    </g>
</svg>