<?xml version="1.0" encoding="UTF-8" standalone="no"?>
<svg width="150px" height="39px" viewBox="0 0 150 39" version="1.1" xmlns="http://www.w3.org/2000/svg" xmlns:xlink="http://www.w3.org/1999/xlink" xmlns:sketch="http://www.bohemiancoding.com/sketch/ns">
    <!-- Generator: Sketch 3.0.4 (8053) - http://www.bohemiancoding.com/sketch -->
    <title>Group 513</title>
    <desc>Created with Sketch.</desc>
    <defs>
        <path id="path-1" d="M-0.0190154,38.488352 L149.530585,38.488352 L149.530585,0.251162 L-0.0190154,0.251162 L-0.0190154,38.488352 L-0.0190154,38.488352 Z"></path>
    </defs>
    <g id="Page-1" stroke="none" stroke-width="1" fill="none" fill-rule="evenodd" sketch:type="MSPage">
        <g id="Imported-Layers" sketch:type="MSLayerGroup" transform="translate(-34.000000, -539.000000)">
            <g id="Group-513" transform="translate(34.000000, 539.000000)">
                <mask id="mask-2" sketch:name="Clip 496" fill="white">
                    <use xlink:href="#path-1"></use>
                </mask>
                <g id="Clip-496"></g>
                <path d="M81.57158,9.35029 C81.31435,8.99952 80.98362,8.77903 80.53263,8.77903 C80.10002,8.77903 79.68578,9.11143 79.68578,9.56242 C79.68578,10.72831 82.43514,10.24224 82.43514,12.56901 C82.43514,13.95705 81.57158,14.94088 80.15514,14.94088 C79.19971,14.94088 78.49984,14.38967 78.02213,13.58791 L78.89571,12.7327 C79.07945,13.26554 79.56718,13.74659 80.14679,13.74659 C80.698,13.74659 81.03874,13.27556 81.03874,12.74273 C81.03874,12.02615 80.37562,11.82404 79.83276,11.61191 C78.94081,11.24444 78.28938,10.79345 78.28938,9.71776 C78.28938,8.56857 79.14459,7.63987 80.31215,7.63987 C80.9285,7.63987 81.78204,7.9422 82.2063,8.41156 L81.57158,9.35029 Z" id="Fill-495" fill="#063D72" sketch:type="MSShapeGroup" mask="url(#mask-2)"></path>
                <path d="M89.08756,9.00052 L89.08756,10.5272 L91.23895,10.5272 L91.23895,11.70478 L89.08756,11.70478 L89.08756,13.57889 L91.32246,13.57889 L91.32246,14.75647 L87.73626,14.75647 L87.73626,7.82294 L91.32246,7.82294 L91.32246,9.00052 L89.08756,9.00052 Z" id="Fill-497" fill="#063D72" sketch:type="MSShapeGroup" mask="url(#mask-2)"></path>
                <path d="M99.3998,9.67216 L99.3815,9.67216 L98.61813,12.19102 L100.2634,12.19102 L99.3998,9.67216 Z M98.23228,13.2951 L97.66103,14.75664 L96.23791,14.75664 L98.9405,7.63937 L99.9878,7.63937 L102.6186,14.75664 L101.1754,14.75664 L100.6409,13.2951 L98.23228,13.2951 Z" id="Fill-498" fill="#063D72" sketch:type="MSShapeGroup" mask="url(#mask-2)"></path>
                <path d="M109.1434,14.75647 L107.7904,14.75647 L107.7904,9.00052 L106.394,9.00052 L106.394,7.82294 L110.5414,7.82294 L110.5414,9.00052 L109.1434,9.00052 L109.1434,14.75647 Z" id="Fill-499" fill="#063D72" sketch:type="MSShapeGroup" mask="url(#mask-2)"></path>
                <path d="M117.883,14.75647 L116.5317,14.75647 L116.5317,9.00052 L115.1337,9.00052 L115.1337,7.82294 L119.2811,7.82294 L119.2811,9.00052 L117.883,9.00052 L117.883,14.75647 Z" id="Fill-500" fill="#063D72" sketch:type="MSShapeGroup" mask="url(#mask-2)"></path>
                <path d="M125.7222,13.57923 L127.6348,13.57923 L127.6348,14.75681 L124.3709,14.75681 L124.3709,7.82327 L125.7222,7.82327 L125.7222,13.57923 Z" id="Fill-501" fill="#063D72" sketch:type="MSShapeGroup" mask="url(#mask-2)"></path>
                <path d="M134.0119,9.00052 L134.0119,10.5272 L136.1633,10.5272 L136.1633,11.70478 L134.0119,11.70478 L134.0119,13.57889 L136.2468,13.57889 L136.2468,14.75647 L132.6606,14.75647 L132.6606,7.82294 L136.2468,7.82294 L136.2468,9.00052 L134.0119,9.00052 Z" id="Fill-502" fill="#063D72" sketch:type="MSShapeGroup" mask="url(#mask-2)"></path>
                <path d="M73.06693,22.51365 C72.43888,21.74697 71.48847,21.2893 70.52302,21.2893 C68.36328,21.2893 67.12222,23.28033 67.12222,25.27304 C67.12222,27.2173 68.40838,29.16324 70.50798,29.16324 C71.47343,29.16324 72.43888,28.6588 73.06693,27.93721 L73.06693,30.619763 C72.22341,31.017301 71.38156,31.307938 70.44618,31.307938 C67.19906,31.307938 64.79378,28.50345 64.79378,25.31814 C64.79378,22.03928 67.10719,19.14293 70.49295,19.14293 C71.3966,19.14293 72.28521,19.38847 73.06693,19.81774 L73.06693,22.51365 Z" id="Fill-503" fill="#ABCD4E" sketch:type="MSShapeGroup" mask="url(#mask-2)"></path>
                <path d="M79.86617,31.001934 L77.61457,31.001934 L77.61457,19.44993 L79.86617,19.44993 L79.86617,31.001934 Z" id="Fill-504" fill="#ABCD4E" sketch:type="MSShapeGroup" mask="url(#mask-2)"></path>
                <path d="M88.32188,31.002268 L86.07028,31.002268 L86.07028,21.41124 L83.74017,21.41124 L83.74017,19.45027 L90.65032,19.45027 L90.65032,21.41124 L88.32188,21.41124 L88.32188,31.002268 Z" id="Fill-505" fill="#ABCD4E" sketch:type="MSShapeGroup" mask="url(#mask-2)"></path>
                <path d="M93.46683,19.4496 L96.08591,19.4496 L98.10868,23.4634 L100.3152,19.4496 L102.951,19.4496 L99.3046,25.70164 L99.3046,31.0016 L97.05136,31.0016 L97.05136,25.70164 L93.46683,19.4496 Z" id="Fill-506" fill="#ABCD4E" sketch:type="MSShapeGroup" mask="url(#mask-2)"></path>
                <path d="M115.3578,22.51365 C114.7298,21.74697 113.7794,21.28763 112.8139,21.28763 C110.6542,21.28763 109.4131,23.28033 109.4131,25.27304 C109.4131,27.2173 110.6993,29.16324 112.7989,29.16324 C113.7643,29.16324 114.7298,28.6588 115.3578,27.93721 L115.3578,30.619763 C114.5143,31.017301 113.6725,31.307938 112.7388,31.307938 C109.49,31.307938 107.0847,28.50345 107.0847,25.31814 C107.0847,22.03928 109.3981,19.14293 112.7839,19.14293 C113.6892,19.14293 114.5778,19.38847 115.3578,19.81774 L115.3578,22.51365 Z" id="Fill-507" fill="#ABCD4E" sketch:type="MSShapeGroup" mask="url(#mask-2)"></path>
                <path d="M122.1571,29.0408 L125.3441,29.0408 L125.3441,31.001767 L119.9038,31.001767 L119.9038,19.44977 L122.1571,19.44977 L122.1571,29.0408 Z" id="Fill-508" fill="#ABCD4E" sketch:type="MSShapeGroup" mask="url(#mask-2)"></path>
                <path d="M129.0646,19.4496 L131.3162,19.4496 L131.3162,25.91545 C131.3162,27.34024 131.4381,29.34797 133.354,29.34797 C135.2698,29.34797 135.3918,27.34024 135.3918,25.91545 L135.3918,19.4496 L137.645,19.4496 L137.645,26.35975 C137.645,29.17927 136.4491,31.308941 133.354,31.308941 C130.2605,31.308941 129.0646,29.17927 129.0646,26.35975 L129.0646,19.4496 Z" id="Fill-509" fill="#ABCD4E" sketch:type="MSShapeGroup" mask="url(#mask-2)"></path>
                <path d="M144.5507,29.19497 L145.0267,29.19497 C146.2361,29.19497 147.2783,29.0413 147.2783,27.53967 C147.2783,26.03805 146.0523,25.97625 144.9182,25.97625 L144.5507,25.97625 L144.5507,29.19497 Z M144.5507,24.26082 L144.8263,24.26082 C145.9304,24.26082 146.4666,23.93844 146.4666,22.74416 C146.4666,21.56491 145.7917,21.25756 144.843,21.25756 L144.5507,21.25756 L144.5507,24.26082 Z M142.2974,19.45027 L145.1019,19.45027 C147.2483,19.45027 148.5662,20.29211 148.5662,22.59049 C148.5662,23.41897 148.2739,24.36772 147.5539,24.82873 C148.9169,25.0726 149.5316,26.45229 149.5316,27.72341 C149.5316,29.99172 147.9364,31.002268 145.8385,31.002268 L142.2974,31.002268 L142.2974,19.45027 Z" id="Fill-510" fill="#ABCD4E" sketch:type="MSShapeGroup" mask="url(#mask-2)"></path>
                <path d="M27.42183,30.665028 C29.52477,34.211138 32.84372,36.736677 36.80574,37.799007 C38.03343,38.126391 39.30121,38.305116 40.57902,38.330171 C49.20627,38.488853 56.35695,31.600413 56.51563,22.97149 C56.64926,15.76569 51.88047,9.42846 44.91853,7.56437 C43.69919,7.23698 42.43141,7.05993 41.15695,7.03487 C35.28407,6.92797 29.89392,10.08156 27.0911,15.27127 L26.44469,16.46723 L31.74631,19.6609 L32.44785,18.31461 C34.1282,15.09087 37.42209,13.12824 41.04337,13.19505 C41.81506,13.21008 42.58341,13.31531 43.32504,13.51408 C47.54429,14.64824 50.4373,18.48833 50.35713,22.85958 C50.31036,25.38846 49.27642,27.75197 47.45075,29.5125 C45.62341,31.273028 43.22315,32.218435 40.6926,32.169996 C39.91422,32.154963 39.13919,32.048061 38.39255,31.845952 C35.71836,31.13105 33.49348,29.26863 32.29251,26.73474 L31.80644,25.71417 C30.68565,27.65676 29.21409,29.32041 27.42183,30.665028" id="Fill-511" fill="#063D72" sketch:type="MSShapeGroup" mask="url(#mask-2)"></path>
                <path d="M19.822,0.85783 C18.59597,0.53044 17.32819,0.35172 16.05039,0.32666 C11.87791,0.2515 7.920897,1.80825 4.905952,4.71128 C1.894347,7.61598 0.190611,11.51286 0.115446,15.68534 C-0.0198505,22.89115 4.750611,29.22504 11.71255,31.094136 L11.71422,31.094136 C12.93356,31.421521 14.198,31.600246 15.47246,31.62196 C21.34534,31.730532 26.73549,28.57528 29.5383,23.38891 L30.18472,22.18961 L24.88309,18.99594 L24.18156,20.34389 C22.5012,23.56763 19.20731,25.53027 15.58604,25.46178 C14.81435,25.44842 14.04433,25.34152 13.30437,25.14108 C9.08345,24.01027 6.192105,20.17018 6.273952,15.8006 C6.320721,13.27005 7.352985,10.90653 9.17865,9.146 C11.006,7.38381 13.40626,6.44007 15.93681,6.48684 C16.71685,6.5002 17.48855,6.61044 18.23518,6.81088 C20.91105,7.52745 23.13593,9.3882 24.3369,11.92042 L24.81461,12.9293 C25.93707,11.01343 27.44538,9.3264 29.21593,8.00851 C27.11633,4.45405 23.79237,1.9235 19.822,0.85783" id="Fill-512" fill="#ABCD4E" sketch:type="MSShapeGroup" mask="url(#mask-2)"></path>
            </g>
        </g>
    </g>
</svg>