<?xml version="1.0" encoding="UTF-8" standalone="no"?>
<svg width="201px" height="201px" viewBox="0 0 201 201" version="1.1" xmlns="http://www.w3.org/2000/svg" xmlns:xlink="http://www.w3.org/1999/xlink" xmlns:sketch="http://www.bohemiancoding.com/sketch/ns">
    <!-- Generator: Sketch 3.3.2 (12043) - http://www.bohemiancoding.com/sketch -->
    <title>logo copy 12</title>
    <desc>Created with Sketch.</desc>
    <defs>
        <filter x="-50%" y="-50%" width="200%" height="200%" filterUnits="objectBoundingBox" id="filter-1">
            <feOffset dx="0" dy="-1" in="SourceAlpha" result="shadowOffsetInner1"></feOffset>
            <feGaussianBlur stdDeviation="2" in="shadowOffsetInner1" result="shadowBlurInner1"></feGaussianBlur>
            <feComposite in="shadowBlurInner1" in2="SourceAlpha" operator="arithmetic" k2="-1" k3="1" result="shadowInnerInner1"></feComposite>
            <feColorMatrix values="0 0 0 0 0   0 0 0 0 0   0 0 0 0 0  0 0 0 0.42 0" in="shadowInnerInner1" type="matrix" result="shadowMatrixInner1"></feColorMatrix>
            <feMerge>
                <feMergeNode in="SourceGraphic"></feMergeNode>
                <feMergeNode in="shadowMatrixInner1"></feMergeNode>
            </feMerge>
        </filter>
        <filter x="-50%" y="-50%" width="200%" height="200%" filterUnits="objectBoundingBox" id="filter-2">
            <feOffset dx="0" dy="1" in="SourceAlpha" result="shadowOffsetOuter1"></feOffset>
            <feGaussianBlur stdDeviation="0.5" in="shadowOffsetOuter1" result="shadowBlurOuter1"></feGaussianBlur>
            <feColorMatrix values="0 0 0 0 1   0 0 0 0 1   0 0 0 0 1  0 0 0 0.469 0" in="shadowBlurOuter1" type="matrix" result="shadowMatrixOuter1"></feColorMatrix>
            <feMerge>
                <feMergeNode in="shadowMatrixOuter1"></feMergeNode>
                <feMergeNode in="SourceGraphic"></feMergeNode>
            </feMerge>
        </filter>
        <filter x="-50%" y="-50%" width="200%" height="200%" filterUnits="objectBoundingBox" id="filter-3">
            <feOffset dx="0" dy="-1" in="SourceAlpha" result="shadowOffsetOuter1"></feOffset>
            <feGaussianBlur stdDeviation="0.5" in="shadowOffsetOuter1" result="shadowBlurOuter1"></feGaussianBlur>
            <feColorMatrix values="0 0 0 0 1   0 0 0 0 1   0 0 0 0 1  0 0 0 0.466706295 0" in="shadowBlurOuter1" type="matrix" result="shadowMatrixOuter1"></feColorMatrix>
            <feMerge>
                <feMergeNode in="shadowMatrixOuter1"></feMergeNode>
                <feMergeNode in="SourceGraphic"></feMergeNode>
            </feMerge>
        </filter>
        <filter x="-50%" y="-50%" width="200%" height="200%" filterUnits="objectBoundingBox" id="filter-4">
            <feOffset dx="0" dy="-1" in="SourceAlpha" result="shadowOffsetOuter1"></feOffset>
            <feGaussianBlur stdDeviation="0.5" in="shadowOffsetOuter1" result="shadowBlurOuter1"></feGaussianBlur>
            <feColorMatrix values="0 0 0 0 1   0 0 0 0 1   0 0 0 0 1  0 0 0 0.49 0" in="shadowBlurOuter1" type="matrix" result="shadowMatrixOuter1"></feColorMatrix>
            <feMerge>
                <feMergeNode in="shadowMatrixOuter1"></feMergeNode>
                <feMergeNode in="SourceGraphic"></feMergeNode>
            </feMerge>
        </filter>
    </defs>
    <g id="Page-1" stroke="none" stroke-width="1" fill="none" fill-rule="evenodd" sketch:type="MSPage">
        <g id="trim,general" sketch:type="MSLayerGroup" transform="translate(-512.000000, -35.000000)">
            <g id="logo-copy-12" transform="translate(513.000000, 36.000000)" sketch:type="MSShapeGroup">
                <ellipse id="Oval-1" fill="#FFFFFF" filter="url(#filter-1)" cx="99.3666322" cy="99.7926783" rx="85.4252933" ry="85.7502034"></ellipse>
                <g id="g10" transform="translate(99.527126, 99.292678) scale(1, -1) translate(-99.527126, -99.292678) translate(0.027126, 0.792678)">
                    <path d="M99.5002859,196.707198 C96.8079227,196.709039 93.1042044,191.172078 90.42614,190.910779 C87.747892,190.64396 83.0740653,195.3455 80.4354135,194.821062 C77.7930955,194.294784 75.2222708,188.15242 72.6444801,187.368523 C70.0701724,186.584626 64.5463089,190.288814 62.0579764,189.254659 C59.573127,188.222345 58.2448187,181.647549 55.8710587,180.376017 C53.4972988,179.104485 47.3389784,181.645709 45.101239,180.146 C42.8634996,178.644452 42.827753,171.970289 40.7474821,170.255285 C38.6637283,168.540281 32.1574739,169.865177 30.2526366,167.955118 C28.3477992,166.04506 29.6231291,159.462904 27.9153565,157.374353 C26.2074008,155.287642 19.5587097,155.295003 18.0621172,153.05004 C16.5655253,150.805078 19.1040858,144.62223 17.8329721,142.239258 C16.561859,139.858126 10.0191248,138.570033 8.98797188,136.074812 C8.33261689,134.490457 9.61087992,131.640091 10.4086715,129.12831 L19.2078427,129.12831 C31.4829406,161.487142 62.633347,184.516317 99.1794827,184.516317 C135.722927,184.516317 166.876157,161.487142 179.15113,129.12831 L188.591914,129.12831 C189.389338,131.61801 190.612058,134.413172 189.966785,135.982805 C188.93838,138.481706 182.436159,139.810282 181.167607,142.193255 C179.904559,144.578067 182.436159,150.713071 180.938462,152.958033 C179.446269,155.208516 172.790062,155.239799 171.085223,157.32835 C169.376717,159.415061 170.65443,165.953054 168.747943,167.863112 C166.846955,169.77501 160.333735,168.492437 158.253097,170.209281 C156.17246,171.922445 156.178326,178.598448 153.945169,180.099997 C151.703765,181.603386 145.549096,179.056642 143.175342,180.330014 C140.801399,181.607066 139.476757,188.170821 136.988424,189.208656 C134.503582,190.240971 128.976221,186.540463 126.401921,187.32252 C123.82762,188.110096 121.253305,194.292944 118.610987,194.821062 C115.972152,195.34918 111.25268,190.64396 108.574432,190.910779 C105.896367,191.175758 102.189166,196.705358 99.5002858,196.707198 L99.5002859,196.707198 L99.5002859,196.707198 Z" id="path98" fill="#00447C" filter="url(#filter-2)"></path>
                    <path d="M10.4086715,67.8978892 C9.61307971,65.3454404 8.31978478,62.4341658 8.9879719,60.8133767 C10.0191248,58.315396 16.5196963,56.9849798 17.7871431,54.6029274 C19.0545905,52.2157227 16.5196963,46.0383885 18.0162882,43.7921453 C19.5092144,41.5459022 26.1617551,41.5560156 27.8695275,39.4678325 C29.5738173,37.3761605 28.3056366,30.7998781 30.2068075,28.8870671 C32.1116449,26.9751687 38.6213822,28.3004326 40.7016531,26.5869007 C42.7817407,24.8718966 42.7718416,18.1524665 45.0095811,16.6501818 C47.2473205,15.1506646 53.4093072,17.6968495 55.7794008,16.4201652 C58.1533439,15.147897 59.4816523,8.62332968 61.9663184,7.58752611 C64.4546509,6.55319464 69.974848,10.259208 72.5528222,9.47366255 C75.1271297,8.69013387 77.7051038,2.50267705 80.3437554,1.97511825 C82.9860736,1.44663201 87.7020629,6.15202906 90.3803108,5.88540113 C93.0620419,5.62024531 96.7620937,0.0889817965 99.4544569,0.0889817965 C102.147004,0.0889817965 105.846872,5.6237342 108.528603,5.88540113 C111.206667,6.14854016 115.92284,1.44829549 118.565158,1.97511825 C121.20381,2.49918816 123.735962,8.64432192 126.310263,9.42765923 C128.888053,10.211924 134.408434,6.50939763 136.896766,7.54152278 C139.385099,8.57585424 140.709931,15.1486331 143.083684,16.4201652 C145.457438,17.6924332 151.615773,15.1046613 153.853511,16.6041785 C156.094,18.1020468 156.126631,24.8266293 158.207268,26.5408973 C160.287906,28.2516617 166.801126,26.932669 168.702114,28.8410637 C170.606768,30.7538747 169.330888,37.291323 171.039394,39.3758258 C172.746067,41.4632729 179.394941,41.4991628 180.892633,43.746142 C182.388498,45.9923852 179.853231,52.178368 181.121778,54.5569241 C182.392165,56.9404485 188.936549,58.2279897 189.966785,60.7213701 C190.643221,62.3611127 189.292182,65.323727 188.500256,67.8978892 L179.105301,67.8978892 C166.794637,35.6103982 135.67176,12.6938955 99.1794828,12.6938955 C62.6845197,12.6938955 31.5644703,35.6103982 19.2536719,67.8978892 L10.4086715,67.8978892 L10.4086715,67.8978892 Z" id="path98-copy" fill="#00447C" filter="url(#filter-3)"></path>
                    <path d="M95.7309388,161.676584 L96.7692411,165.665993 L93.589807,168.275302 L97.6893045,168.520039 L99.1824139,172.362237 L100.679006,168.52372 L104.778504,168.288183 L101.602736,165.671513 L102.648188,161.683945 L99.185897,163.904985 L95.7309388,161.676584" id="path102" fill="#00447C"></path>
                    <path d="M102.633889,33.6710469 L101.59907,29.6888148 L104.778504,27.0767459 L100.679006,26.8323762 L99.1895633,22.9903622 L97.6929708,26.8279599 L93.589807,27.065153 L96.7655747,29.6823744 L95.7201231,33.6710469 L99.1824139,31.447062 L102.633889,33.6710469" id="path104" fill="#00447C"></path>
                    <g id="g3018" transform="translate(46.105072, 132.976470)" fill="#F15E5E">
                        <path d="M3.74368465,3.52893369 L8.56728067,3.52893369 L8.56728067,0.818417607 L0.335288777,0.818417607 L0.335288777,16.7815724 L3.74368465,16.7815724 L3.74368465,3.52893369" id="path106"></path>
                        <path d="M18.6912778,0.818417607 L22.0998204,0.818417607 L22.0998204,16.7808548 L18.6912778,16.7808548 L18.6912778,0.818417607 L18.6912778,0.818417607 Z" id="path108"></path>
                        <path d="M37.2419485,6.02599434 L37.2877776,6.02599434 L41.1839775,16.7815724 L44.8473661,16.7815724 L38.0533055,0.395186989 L36.0590099,0.395186989 L29.3800718,16.7815724 L33.0434604,16.7815724 L37.2419485,6.02599434" id="path110"></path>
                        <path d="M52.3840401,0.818417607 L55.7925826,0.818417607 L55.7925826,16.7808548 L52.3840401,16.7808548 L52.3840401,0.818417607 L52.3840401,0.818417607 Z" id="path112"></path>
                        <path d="M66.3892053,17.2048031 L68.8489404,17.2048031 L78.0541574,6.04807594 L78.1007197,6.04807594 L78.1007197,16.7815724 L81.5091156,16.7815724 L81.5091156,0.50191471 L79.0508469,0.50191471 L69.8441634,11.6586418 L69.7977845,11.6586418 L69.7977845,0.818417607 L66.3892053,0.818417607 L66.3892053,17.2048031" id="path114"></path>
                        <path d="M106.632768,9.30879183 L106.632768,8.90580267 C106.632768,4.39563639 104.106489,0.395186989 98.6806994,0.395186989 C93.5786463,0.395186989 90.3563162,4.33307187 90.3563162,8.73651043 C90.3563162,13.2871596 93.6717708,17.2048031 98.8883965,17.2048031 C101.856467,17.2048031 104.453689,15.8283835 105.798496,13.3938874 L102.783863,11.9125802 C102.089279,13.3515643 100.604785,14.4519639 98.795272,14.4519639 C95.5049316,14.4519639 93.879468,11.3826219 93.879468,8.73651043 C93.879468,6.090399 95.5263796,3.14802614 98.8203863,3.14802614 C100.952169,3.14802614 102.737301,4.84094861 102.808978,6.76756799 L99.0975602,6.76756799 L99.0975602,9.30879183 L106.632768,9.30879183" id="path116"></path>
                    </g>
                    <path d="M0.248925813,70.8654737 L198.708761,70.8654737 L198.708761,126.17013 L0.248925813,126.17013 L0.248925813,70.8654737 L0.248925813,70.8654737 Z" id="path118" fill="#00447C" filter="url(#filter-4)"></path>
                    <path d="M45.5208478,95.7107671 L53.490881,115.735839 L62.7675912,115.735839 L48.7439111,82.7724231 L42.1245508,82.7724231 L28.3177336,115.735839 L37.5953604,115.735839 L45.5208478,95.7107671" id="path120" fill="#A5CE39"></path>
                    <path d="M67.7358236,93.9648488 C67.7358236,91.1220271 69.6089473,88.936869 72.8314607,88.936869 C76.054524,88.936869 77.9269145,91.1220271 77.9269145,93.9648488 C77.9269145,96.718608 76.054524,99.0345995 72.8314607,99.0345995 C69.6089473,99.0345995 67.7358236,96.718608 67.7358236,93.9648488 L67.7358236,93.9648488 L67.7358236,93.9648488 Z M86.2894274,93.9648488 C86.2894274,86.3555303 80.0172677,82.0284572 72.8314607,82.0284572 C65.6892829,82.0284572 59.3733107,86.3132072 59.3733107,93.9648488 C59.3733107,101.61281 65.6454704,105.942651 72.8314607,105.942651 C80.0172677,105.942651 86.2894274,101.61281 86.2894274,93.9648488 L86.2894274,93.9648488 L86.2894274,93.9648488 Z" id="path122" fill="#A5CE39"></path>
                    <path d="M98.5307253,82.7724231 L90.6045046,82.7724231 L90.6045046,98.6413631 L88.0344132,98.6413631 L88.0344132,105.201077 L90.6045046,105.201077 L90.6045046,111.932284 L98.5307253,111.932284 L98.5307253,105.201077 L103.01702,105.201077 L103.01702,98.6413631 L98.5307253,98.6413631 L98.5307253,82.7724231" id="path124" fill="#A5CE39"></path>
                    <path d="M121.135248,97.2432299 C120.743501,99.3853289 118.784952,100.783278 116.651153,100.783278 C114.341737,100.783278 112.426267,99.5592215 111.946529,97.2432299 L121.135248,97.2432299 L121.135248,97.2432299 Z M111.815458,92.6522818 C111.815458,89.4184319 113.514615,87.6673612 116.780024,87.6673612 C118.478448,87.6673612 119.69805,88.2352263 120.569534,89.7231579 L128.190717,89.7231579 C126.928219,84.4327752 121.919291,82.0284572 116.82292,82.0284572 C109.420067,82.0284572 103.888504,86.2261689 103.888504,93.9648488 C103.888504,101.438917 108.985425,105.942651 116.257207,105.942651 C124.010194,105.942651 128.495022,101.133455 128.495022,93.4832859 L128.495022,92.6522818 L111.815458,92.6522818 Z" id="path126" fill="#A5CE39"></path>
                    <path d="M139.123138,101.528164 L139.21113,101.528164 C140.734303,104.28101 143.346557,105.506539 146.440016,105.506539 L147.965205,105.506539 L147.965205,97.8543381 C146.876675,98.4667344 145.831223,98.598304 144.610338,98.598304 C140.211486,98.598304 139.123138,95.668444 139.123138,91.8220137 L139.123138,82.7724231 L131.196001,82.7724231 L131.196001,105.201077 L139.123138,105.201077 L139.123138,101.528164" id="path128" fill="#A5CE39"></path>
                    <path d="M164.430849,99.428388 C163.209964,100.084027 161.512457,100.521059 160.163251,100.521059 C159.24667,100.521059 157.679318,100.129295 157.679318,98.9898843 C157.679318,97.4603656 160.163251,97.2432299 161.252148,97.0240701 C164.9533,96.2786321 167.739704,94.5327138 167.739704,90.3780613 C167.739704,84.4758343 162.383209,82.0284572 157.200863,82.0284572 C154.021062,82.0284572 150.886715,82.9448435 148.185003,84.6088759 L151.058666,90.1579814 C152.671297,89.0222512 155.371368,87.886705 157.331017,87.886705 C158.333756,87.886705 159.813117,88.3690039 159.813117,89.5901163 C159.813117,91.3404509 157.331017,91.4274892 154.848918,92.0844167 C152.365526,92.7393201 149.884343,93.9648488 149.884343,97.9849876 C149.884343,103.493426 154.848918,105.942651 159.726959,105.942651 C162.253054,105.942651 164.77915,105.548862 167.087099,104.499986 L164.430849,99.428388" id="path130" fill="#A5CE39"></path>
                    <g id="g3011" transform="translate(51.138026, 42.809947)" fill="#F15E5E">
                        <path d="M18.6111542,10.8455293 L18.6111542,10.3972214 C18.6111542,5.33528013 15.7742298,0.846085849 9.68058144,0.846085849 C3.95253505,0.846085849 0.334146933,5.2618809 0.334146933,10.2063057 C0.334146933,15.3147415 4.05797845,19.7119403 9.91689236,19.7119403 C13.2504861,19.7119403 16.1644712,18.1648299 17.6733972,15.4320612 L14.2897435,13.7666394 C13.5068995,15.3865565 11.8438487,16.6246422 9.80908601,16.6246422 C6.11363365,16.6246422 4.29133249,13.1754948 4.29133249,10.2063057 C4.29133249,7.23632718 6.14063611,3.93259266 9.83845141,3.93259266 C12.2327097,3.93259266 14.2359384,5.8338366 14.3151694,7.99385846 L10.1478835,7.99385846 L10.1478835,10.8455293 L18.6111542,10.8455293" id="path132"></path>
                        <path d="M25.9403199,19.2383103 L29.766638,19.2383103 L29.766638,9.20701407 C29.766638,7.00069997 29.9783148,3.88708984 33.2310992,3.88708984 C36.4838837,3.88708984 36.6955586,7.00069997 36.6955586,9.20701407 L36.6955586,19.2383103 L40.5197099,19.2383103 L40.5197099,8.52011445 C40.5197099,4.14903095 38.4932222,0.846085849 33.2310992,0.846085849 C27.9689745,0.846085849 25.94032,4.14903095 25.94032,8.52011445 L25.94032,19.2383103" id="path134"></path>
                        <path d="M48.7594322,1.31674958 L52.5873102,1.31674958 L52.5873102,19.23829 L48.7594322,19.23829 L48.7594322,1.31674958 L48.7594322,1.31674958 Z" id="path136"></path>
                        <path d="M64.735953,4.35992677 L65.3595484,4.35992677 C70.0711989,4.35992677 71.8942864,6.73875886 71.8942864,10.2775281 C71.8942864,14.176369 69.7079598,16.1971094 65.3595484,16.1971094 L64.735953,16.1971094 L64.735953,4.35992677 L64.735953,4.35992677 Z M60.9080565,19.2383102 L66.3743679,19.2383102 C72.0537329,19.2383102 75.855415,15.3610356 75.855415,10.2528004 C75.855415,5.21558683 71.9459246,1.31674958 66.3489437,1.31674958 L60.9080565,1.31674958 L60.9080565,19.2383102 L60.9080565,19.2383102 Z" id="path138"></path>
                        <path d="M87.0877651,16.1971094 L87.0877651,12.248215 L93.1792466,12.248215 L93.1792466,9.20701407 L87.0877651,9.20701407 L87.0877651,4.35992677 L93.413981,4.35992677 L93.413981,1.31674958 L83.2614452,1.31674958 L83.2614452,19.2383102 L93.413981,19.2383102 L93.413981,16.1971094 L87.0877651,16.1971094" id="path140"></path>
                    </g>
                </g>
            </g>
        </g>
    </g>
</svg>