<?xml version="1.0" encoding="UTF-8" standalone="no"?>
<svg width="208px" height="41px" viewBox="0 0 208 41" version="1.1" xmlns="http://www.w3.org/2000/svg" xmlns:xlink="http://www.w3.org/1999/xlink" xmlns:sketch="http://www.bohemiancoding.com/sketch/ns">
    <!-- Generator: Sketch 3.3.2 (12043) - http://www.bohemiancoding.com/sketch -->
    <title>DPD Logo</title>
    <desc>Created with Sketch.</desc>
    <defs>
        <path id="path-1" d="M0.06,0.327 L212.978,0.327 L212.978,41.94 L0.06,41.94 L0.06,0.327 Z"></path>
    </defs>
    <g id="Page-1" stroke="none" stroke-width="1" fill="none" fill-rule="evenodd" sketch:type="MSPage">
        <g id="DPD-Logo" sketch:type="MSLayerGroup">
            <g id="Group-3">
                <mask id="mask-2" sketch:name="Clip 2" fill="white">
                    <use xlink:href="#path-1"></use>
                </mask>
                <g id="Clip-2"></g>
                <path d="M20.003,33.383 C27.2,33.383 32.996,27.587 32.996,20.437 C32.996,17.552 32.052,14.888 30.457,12.736 L40.105,21.943 C39.334,32.347 30.65,40.548 20.051,40.548 C13.881,40.548 8.361,37.769 4.672,33.397 L20.001,33.397 L20.003,33.383 L20.003,33.383 Z M0,18.79 C0.836,8.452 9.496,0.327 20.051,0.327 C26.251,0.327 31.794,3.081 35.483,7.491 C35.483,7.491 20.043,7.544 20.051,7.491 C12.9,7.491 7.104,13.287 7.104,20.437 C7.104,23.206 7.974,25.773 9.455,27.879 L0,18.789 C0,18.789 0.099,18.789 0,18.79 L0,18.79 Z" id="Fill-1" fill="#0072AD" sketch:type="MSShapeGroup" mask="url(#mask-2)"></path>
            </g>
            <path d="M23.1,31.679 C22.68,31.79 22.251,31.877 21.814,31.94 L21.814,21.194 C22.261,21.484 22.706,21.738 23.1,21.926 L23.1,31.679" id="Fill-4" fill="#1A1918" sketch:type="MSShapeGroup"></path>
            <path d="M29.523,27.294 C28.869,28.187 28.091,28.984 27.214,29.658 L27.214,19.637 C28.068,21.325 29.039,24.406 29.523,27.294" id="Fill-5" fill="#1A1918" sketch:type="MSShapeGroup"></path>
            <path d="M31.598,22.382 C31.429,23.386 31.131,24.346 30.723,25.244 C29.878,22.005 28.709,19.525 27.214,17.805 L27.214,15.275 C28.569,16.026 30.372,18.797 31.598,22.382" id="Fill-6" fill="#1A1918" sketch:type="MSShapeGroup"></path>
            <path d="M27.214,11.214 C29.581,13.034 31.227,15.744 31.652,18.843 C30.391,16.567 28.572,14.65 27.214,13.742 L27.214,11.214" id="Fill-7" fill="#1A1918" sketch:type="MSShapeGroup"></path>
            <path d="M24.394,9.616 C24.923,9.824 25.432,10.07 25.918,10.35 L25.918,30.521 C25.432,30.802 24.923,31.047 24.394,31.255 L24.394,9.616" id="Fill-8" fill="#1A1918" sketch:type="MSShapeGroup"></path>
            <path d="M20.097,8.812 C21.16,8.812 22.153,8.944 23.1,9.193 L23.1,15.234 C21.098,14.217 20.098,12.068 20.097,8.812" id="Fill-9" fill="#1A1918" sketch:type="MSShapeGroup"></path>
            <path d="M18.792,8.889 C18.714,12.488 19.988,15.409 23.1,16.726 L23.1,20.446 C18.059,17.756 18.478,10.912 17.514,10.855 C15.403,10.887 13.824,13.498 13.09,14.02 C12.299,14.583 13.722,14.665 14.063,15.128 C14.747,16.06 16.36,16.102 15.961,16.456 C15.547,16.828 14.821,16.558 14.556,16.654 C13.888,16.662 13.771,17.764 13.445,17.788 C13.067,17.543 13.555,16.878 13.28,16.279 C13.102,15.887 12.56,15.543 12.179,16.201 C11.182,17.93 10.383,19.059 10.459,19.607 C10.545,20.217 11.771,19.94 11.793,20.248 C11.699,20.697 11.472,20.631 11.37,20.832 C11.37,20.832 11.339,20.95 11.559,21.321 C11.342,21.49 11.403,21.648 11.362,21.897 C11.771,22.685 11.679,23.039 11.439,23.48 C10.994,24.3 11.379,25.509 12.899,25.375 C14.959,25.192 18.515,25.729 18.766,23.251 C18.85,22.426 18.387,20.996 19.137,18.563 C19.609,19.395 20.674,20.367 20.674,20.367 L20.674,27.597 C20.749,29.939 20.556,31.222 20.074,31.921 C19.013,31.921 18.456,31.815 17.541,31.645 C18.954,29.954 19.056,28.352 18.094,26.339 C16.649,26.021 15.303,25.986 14.142,26.383 C14.653,27.056 14.336,27.503 14.498,27.686 C15.542,28.839 16.222,30.293 15.772,31.214 C11.919,29.78 8.75,25.721 8.522,21.052 C8.196,14.415 13.275,9.392 18.762,8.889 L18.792,8.889" id="Fill-10" fill="#1A1918" sketch:type="MSShapeGroup"></path>
            <text id="Department-of-Planni" sketch:type="MSTextLayer" font-family="Myriad Pro" font-size="16" font-weight="normal" letter-spacing="-0.0002" fill="#5C1517">
                <tspan x="46.6445" y="16.1362676">Depa</tspan>
                <tspan x="82.1957" y="16.1362676" letter-spacing="0.387">r</tspan>
                <tspan x="88.1987" y="16.1362676">tment of Planning</tspan>
            </text>
            <text id="and-Development" sketch:type="MSTextLayer" font-family="Myriad Pro" font-size="16" font-weight="normal" fill="#5C1517">
                <tspan x="46.6445" y="35.3362676">and De</tspan>
                <tspan x="94.3885" y="35.3362676" letter-spacing="-0.16">v</tspan>
                <tspan x="101.7645" y="35.3362676">elopment</tspan>
            </text>
        </g>
    </g>
</svg>