<?xml version="1.0" encoding="UTF-8" standalone="no"?>
<svg width="82px" height="79px" viewBox="0 0 82 79" version="1.1" xmlns="http://www.w3.org/2000/svg" xmlns:xlink="http://www.w3.org/1999/xlink" xmlns:sketch="http://www.bohemiancoding.com/sketch/ns">
    <!-- Generator: Sketch 3.3 (11970) - http://www.bohemiancoding.com/sketch -->
    <title>noun_56376_cc</title>
    <desc>Created with Sketch.</desc>
    <defs></defs>
    <g id="Page-1" stroke="none" stroke-width="1" fill="none" fill-rule="evenodd" sketch:type="MSPage">
        <g id="You-are-leading-a-vi-+-noun_56376_cc" sketch:type="MSLayerGroup" transform="translate(0.000000, -7.000000)" fill="#000000">
            <g id="noun_56376_cc" transform="translate(0.000000, 6.620129)" sketch:type="MSShapeGroup">
                <g id="Group" transform="translate(0.000000, 31.000000)">
                    <path d="M22,2.8 L21.4,9.8 L21.4,9.8 L21.3,10.2 L20.2,14.8 L18.6,15.6 C18.1,15.4 17.8,15.4 17.8,15.4 C16.6,15.1 15.5,15.3 14.5,15.9 C12.7,16.9 11.9,18.7 11.9,18.7 L7.4,29.4 L4.1,37.1 L4.1,37.1 L1.2,44 C-0.5,47.8 5.2,50.1 6.8,46.4 L9.7,39.5 L9.7,39.5 L11.6,35.1 L11.6,35.1 L15.3,38.4 L14.5,44.7 C14,48.9 20,49.5 20.5,45.4 L21.4,37.7 L21.4,37.6 C21.6,36.6 21.2,35.5 20.1,34.7 L17.3,32.1 C18.6,29.2 20.3,25.4 20.8,24.4 C21.4,23.3 21.7,22.3 21.9,21.5 C22.8,20.7 23.5,19.6 23.8,18.3 L23.9,18 L25.6,11.2 L25.7,10.8 L25.7,10.8 C25.8,10.6 25.8,10.4 25.8,10.1 L26.5,2.9 C26.8,0.1 22.3,-0.3 22,2.8 L22,2.8 Z" id="Shape"></path>
                    <circle id="Oval" cx="15.1" cy="9.2" r="5.4"></circle>
                </g>
                <g id="Group" transform="translate(47.000000, 33.000000)">
                    <path d="M33.8,40.6 L29.5,35.9 L27.2,31.5 L23.8,17.2 C23.8,17.2 23.4,15.4 22,14.1 C19.7,11.6 15.8,11.4 13,13.6 L12.8,13.8 L9,16.8 L3,15.5 C-0.1,14.8 -1,19.2 2,19.9 L8.8,21.4 C9.1,21.5 9.4,21.5 9.8,21.5 C10.5,21.5 11,21.2 11.3,20.7 L11.3,20.7 L13.6,18.9 C13.7,19.6 13.9,20.5 14.2,21.4 C14.5,22.4 15.6,26.4 16.4,29.8 L12.2,32.6 C11,33.2 10.5,34.2 10.5,35.2 C10.5,35.5 10.5,35.9 10.6,36.3 L12.2,43.9 C13.1,47.9 19,46.7 18.1,42.6 L16.9,36.8 L21.6,33.6 L24,38.3 C24.1,38.7 24.3,39.1 24.6,39.4 C24.8,39.7 25,39.9 25.3,40.1 L29.9,45.1 C33,47.8 37,43.3 33.8,40.6 L33.8,40.6 Z" id="Shape"></path>
                    <circle id="Oval" cx="14.1" cy="6.1" r="5.4"></circle>
                </g>
                <g id="Group" transform="translate(24.000000, 39.000000)">
                    <circle id="Oval" cx="12.1" cy="6.8" r="5.3"></circle>
                    <path d="M25.4,34.4 L21.3,34.4 L21.3,20.1 C22.1,19.8 22.8,19.1 22.8,17.9 L22.8,8.3 L22.8,8.2 L22.8,8.1 C22.8,7.8 22.7,7.5 22.6,7.2 L21.7,2.6 C21.1,-0.5 16.6,0.4 17.2,3.5 L18.2,8.5 L18.2,12.9 L7,13.9 L5,11.9 L5.7,6.5 C6.1,3.4 1.6,2.8 1.2,5.9 L0.4,12.3 L0.4,12.6 L0.4,12.8 L0.4,13 C0.4,13.1 0.4,13.2 0.5,13.4 L0.5,13.5 C0.5,13.6 0.6,13.7 0.6,13.8 C0.6,13.8 0.6,13.9 0.7,13.9 C0.8,14.1 1,14.3 1.2,14.5 L8.1,21.4 C8.2,21.5 8.4,21.6 8.5,21.7 L8.5,26.8 L3.2,26.8 L3.2,26.8 L2.9,26.8 L2.7,26.8 L2.7,26.8 C2.1,26.9 1.6,27.2 1.2,27.5 L1.2,27.5 C1.2,27.6 1.1,27.6 1.1,27.7 C0.8,28 0.6,28.4 0.5,28.9 L0.5,28.9 C0.5,29 0.5,29.1 0.4,29.1 C0.4,29.3 0.3,29.5 0.3,29.7 L0.3,29.7 L0.3,37.2 C0.3,41.2 6.2,41.3 6.2,37.2 L6.2,32.6 L15.4,32.6 L15.3,37.2 L15.3,37.2 L15.3,37.5 L15.3,37.8 L15.3,37.8 C15.4,38.4 15.7,38.9 16,39.3 L16,39.3 C16,39.4 16.1,39.4 16.1,39.4 C16.5,39.7 16.9,40 17.5,40.1 L17.8,40.1 L17.8,40.1 L18.1,40.1 L18.1,40.1 L25.1,40.1 C29.3,40.3 29.5,34.4 25.4,34.4 L25.4,34.4 Z M9.6,16.2 C9.6,16.2 9.6,16.3 9.5,16.3 L9.4,16.2 L9.6,16.2 L9.6,16.2 Z" id="Shape"></path>
                </g>
                <g id="Group" transform="translate(26.000000, 0.000000)">
                    <circle id="Oval" cx="22.5" cy="6.4" r="5.2"></circle>
                    <path d="M33.7,14.7 L30.8,17.7 L24.3,13.5 C24.1,13.4 24,13.3 23.8,13.2 C23.6,13.1 23.5,13.1 23.3,13.1 L23.2,13.1 L16.7,11.7 L12.1,2.2 C10.6,-1 6,1.2 7.5,4.4 L13.3,16.2 L11.3,26.3 L7,25.8 C5.4,25.4 4.1,26.1 3.5,27.2 C3.2,27.6 2.9,28.1 2.8,28.7 L0.7,38.2 C-0.2,42.5 6.2,44 7.2,39.6 L8.7,32.6 L18.5,33.7 L21.1,45.9 C22,50.3 28.6,49 27.6,44.5 L24.1,28.2 L25.7,20.4 L29.7,22.9 C30,23.1 30.2,23.2 30.5,23.3 C30.6,23.3 30.7,23.4 30.8,23.4 L31,23.4 L31.3,23.4 L31.6,23.4 L31.8,23.4 C31.9,23.4 32,23.3 32.1,23.3 C32.2,23.3 32.2,23.3 32.3,23.2 C32.4,23.2 32.5,23.1 32.6,23.1 C32.8,23 33,22.8 33.3,22.6 L37.5,18.3 C39.8,15.8 36.2,12.2 33.7,14.7 L33.7,14.7 Z" id="Shape"></path>
                </g>
            </g>
        </g>
    </g>
</svg>