<?xml version="1.0" encoding="UTF-8" standalone="no"?>
<svg width="196px" height="198px" viewBox="0 0 196 198" version="1.1" xmlns="http://www.w3.org/2000/svg" xmlns:xlink="http://www.w3.org/1999/xlink" xmlns:sketch="http://www.bohemiancoding.com/sketch/ns">
    <!-- Generator: Sketch 3.3 (11970) - http://www.bohemiancoding.com/sketch -->
    <title>noun_135215_cc</title>
    <desc>Created with Sketch.</desc>
    <defs></defs>
    <g id="Page-1" stroke="none" stroke-width="1" fill="none" fill-rule="evenodd" sketch:type="MSPage">
        <g id="noun_135215_cc" sketch:type="MSLayerGroup" fill="#FFFFFF">
            <g id="Group" sketch:type="MSShapeGroup">
                <path d="M144.93617,181.255319 C144.93617,199.12766 103.234043,192.744681 89.6170213,192.744681 C67.4893617,192.744681 45.787234,191.893617 23.6595745,189.340426 C-2.72340426,186.361702 7.06382979,138.702128 7.06382979,120.829787 C7.4893617,96.5744681 7.4893617,71.893617 7.91489362,47.6382979 C7.91489362,36.5744681 7.91489362,25.9361702 8.34042553,14.8723404 C7.91489362,5.5106383 33.4468085,8.4893617 38.5531915,8.4893617 C60.6808511,8.06382979 82.8085106,7.21276596 104.93617,6.78723404 C116,6.36170213 127.06383,6.36170213 138.12766,5.93617021 C153.446809,5.5106383 148.765957,12.3191489 147.489362,25.0851064 C144.93617,49.3404255 144.510638,73.5957447 145.361702,97.8510638 C145.361702,101.255319 150.893617,101.255319 150.893617,97.8510638 C150.042553,73.5957447 150.893617,49.3404255 153.021277,25.0851064 C153.446809,19.1276596 159.404255,3.38297872 150.042553,0.829787234 C144.085106,-0.872340426 136,0.829787234 129.617021,0.829787234 C116,0.829787234 102.382979,1.25531915 88.3404255,1.68085106 L5.36170213,4.23404255 C4.08510638,4.23404255 2.80851064,5.5106383 2.80851064,6.78723404 C2.38297872,36.5744681 2.38297872,66.3617021 1.95744681,96.1489362 C1.95744681,112.319149 1.53191489,128.914894 1.53191489,145.085106 C1.53191489,157.851064 -1.44680851,174.021277 1.10638298,186.361702 C3.65957447,198.702128 38.9787234,196.148936 47.9148936,196.574468 C80.6808511,199.12766 114.297872,197.425532 147.06383,196.574468 C148.340426,196.574468 149.617021,195.297872 149.617021,194.021277 L149.617021,181.255319 C150.042553,177.851064 144.93617,177.851064 144.93617,181.255319 L144.93617,181.255319 L144.93617,181.255319 Z" id="Shape"></path>
                <path d="M142.382979,120.404255 C145.361702,120.829787 148.340426,120.404255 151.319149,120.404255 C158.978723,119.978723 159.404255,126.361702 156.851064,131.468085 C153.87234,137 148.340426,139.978723 147.06383,146.787234 C146.638298,150.191489 151.744681,151.468085 152.170213,148.06383 C153.446809,142.531915 158.553191,138.702128 161.531915,134.021277 C163.659574,130.617021 164.085106,126.787234 163.659574,122.957447 C161.957447,112.319149 149.617021,116.148936 142.808511,114.87234 C138.978723,114.87234 138.978723,119.978723 142.382979,120.404255 L142.382979,120.404255 L142.382979,120.404255 Z" id="Shape"></path>
                <path d="M146.212766,159.978723 C146.212766,160.404255 146.638298,160.829787 146.638298,161.255319 C147.914894,164.659574 153.021277,162.957447 151.744681,159.978723 C151.744681,159.553191 151.319149,159.12766 151.319149,158.702128 C150.042553,155.297872 144.93617,156.574468 146.212766,159.978723 L146.212766,159.978723 L146.212766,159.978723 Z" id="Shape"></path>
                <path d="M146.638298,102.106383 C170.468085,100.404255 188.765957,112.319149 189.617021,137.851064 C190.042553,150.617021 188.765957,163.382979 177.702128,171.468085 C170.893617,176.574468 161.106383,177.851064 153.021277,178.276596 C134.297872,179.553191 118.553191,160.404255 113.446809,144.234043 C106.638298,122.531915 130.042553,106.787234 147.489362,103.382979 C150.893617,102.531915 149.617021,97.4255319 146.212766,98.2765957 C126.638298,102.106383 104.510638,118.276596 107.914894,141.255319 C111.319149,165.510638 133.446809,185.510638 158.12766,183.382979 C185.787234,181.255319 195.148936,163.382979 195.574468,137.851064 C195.574468,110.191489 173.446809,94.8723404 147.06383,97 C143.234043,97 143.234043,102.106383 146.638298,102.106383 L146.638298,102.106383 L146.638298,102.106383 Z" id="Shape"></path>
                <path d="M64.5106383,39.9787234 C64.5106383,52.7446809 65.3617021,65.5106383 67.0638298,77.8510638 C68.3404255,85.5106383 30.0425532,86.787234 29.6170213,85.0851064 C25.3617021,73.1702128 24.5106383,57 25.3617021,44.6595745 C26.212766,33.5957447 30.893617,37.4255319 39.8297872,38.2765957 C48.3404255,39.1276596 56.4255319,39.9787234 64.9361702,40.8297872 C68.3404255,41.2553191 68.3404255,35.7234043 64.9361702,35.2978723 C53.8723404,34.0212766 42.8085106,33.1702128 31.7446809,31.893617 C26.212766,31.4680851 22.8085106,31.0425532 21.106383,36.5744681 C18.5531915,45.0851064 19.8297872,55.2978723 20.6808511,63.8085106 C21.5319149,70.6170213 21.5319149,82.5319149 25.3617021,88.4893617 C27.4893617,92.3191489 35.1489362,90.1914894 38.1276596,90.1914894 C48.3404255,89.7659574 58.9787234,89.7659574 69.1914894,87.6382979 C72.5957447,87.212766 73.0212766,82.9574468 72.5957447,80.4042553 C70.4680851,66.787234 69.6170213,53.5957447 69.6170213,39.5531915 C70.0425532,36.5744681 64.5106383,36.5744681 64.5106383,39.9787234 L64.5106383,39.9787234 L64.5106383,39.9787234 Z" id="Shape"></path>
                <path d="M92.1702128,41.2553191 C104.510638,41.2553191 116.851064,40.8297872 129.191489,39.9787234 C132.595745,39.5531915 132.595745,34.4468085 129.191489,34.4468085 C116.851064,35.2978723 104.510638,35.7234043 92.1702128,35.7234043 C88.7659574,36.1489362 88.7659574,41.2553191 92.1702128,41.2553191 L92.1702128,41.2553191 L92.1702128,41.2553191 Z" id="Shape"></path>
                <path d="M95.1489362,66.787234 C106.212766,66.3617021 116.851064,66.3617021 127.914894,66.3617021 C131.319149,66.3617021 131.319149,61.2553191 127.914894,61.2553191 C116.851064,60.8297872 106.212766,61.2553191 95.1489362,61.6808511 C91.7446809,61.6808511 91.7446809,67.212766 95.1489362,66.787234 L95.1489362,66.787234 L95.1489362,66.787234 Z" id="Shape"></path>
                <path d="M92.1702128,90.1914894 C104.085106,89.3404255 116,88.9148936 127.489362,89.3404255 C130.893617,89.3404255 130.893617,84.2340426 127.489362,83.8085106 C115.574468,83.8085106 103.659574,83.8085106 92.1702128,84.6595745 C88.7659574,85.0851064 88.7659574,90.1914894 92.1702128,90.1914894 L92.1702128,90.1914894 L92.1702128,90.1914894 Z" id="Shape"></path>
                <path d="M30.0425532,114.87234 L91.7446809,114.87234 C95.1489362,114.87234 95.1489362,109.340426 91.7446809,109.340426 L30.0425532,109.340426 C26.6382979,109.340426 26.6382979,114.87234 30.0425532,114.87234 L30.0425532,114.87234 L30.0425532,114.87234 Z" id="Shape"></path>
                <path d="M27.4893617,140.404255 L91.7446809,140.404255 C95.1489362,140.404255 95.1489362,135.297872 91.7446809,134.87234 C70.4680851,134.446809 48.7659574,134.446809 27.4893617,134.87234 C24.0851064,135.297872 24.0851064,140.829787 27.4893617,140.404255 L27.4893617,140.404255 L27.4893617,140.404255 Z" id="Shape"></path>
                <path d="M28.3404255,164.659574 C49.6170213,163.808511 70.893617,163.382979 92.1702128,163.808511 C95.5744681,163.808511 95.5744681,158.702128 92.1702128,158.276596 C70.893617,157.851064 49.6170213,158.276596 28.3404255,159.12766 C24.9361702,159.553191 24.9361702,165.085106 28.3404255,164.659574 L28.3404255,164.659574 L28.3404255,164.659574 Z" id="Shape"></path>
            </g>
        </g>
    </g>
</svg>