<?xml version="1.0" encoding="UTF-8" standalone="no"?>
<svg width="92px" height="82px" viewBox="0 0 92 82" version="1.1" xmlns="http://www.w3.org/2000/svg" xmlns:xlink="http://www.w3.org/1999/xlink" xmlns:sketch="http://www.bohemiancoding.com/sketch/ns">
    <!-- Generator: Sketch 3.3 (11970) - http://www.bohemiancoding.com/sketch -->
    <title>noun_41789_cc</title>
    <desc>Created with Sketch.</desc>
    <defs></defs>
    <g id="Page-1" stroke="none" stroke-width="1" fill="none" fill-rule="evenodd" sketch:type="MSPage">
        <g id="We-don’t-advertise-a-+-noun_41789_cc" sketch:type="MSLayerGroup" fill="#000000">
            <g id="noun_41789_cc" transform="translate(0.000000, 0.761227)" sketch:type="MSShapeGroup">
                <g id="Group">
                    <path d="M30.683,25.911 C33.791,25.552 36.813,25.1 39.852,24.893 C41.543,24.779 42.302,26.236 41.595,27.835 C40.892,29.425 41.173,30.537 42.672,31.446 C44.743,32.702 47.026,32.97 49.383,32.572 C50.472,32.389 50.85,31.586 50.737,30.579 C50.621,29.54 50.425,28.508 50.214,27.484 C50.021,26.534 50.287,25.931 51.318,25.863 C53.728,25.703 56.142,25.565 58.808,25.403 C58.523,26.609 58.207,27.487 58.127,28.386 C58.015,29.63 57.858,30.94 58.123,32.131 C58.479,33.738 59.863,34.095 61.098,33.02 C61.993,32.24 62.659,32.375 63.544,33.062 C65.241,34.377 66.053,35.979 65.682,38.129 C65.401,39.768 64.728,40.395 63.036,40.413 C62.18,40.421 61.321,40.311 60.465,40.233 C58.812,40.085 57.951,40.534 57.531,42.144 C57.185,43.467 57.11,44.865 56.953,46.233 C56.894,46.741 56.943,47.26 56.943,47.694 C52.854,48.734 48.932,49.84 44.96,50.705 C41.753,51.401 38.556,50.714 35.397,50.082 C34.3,49.863 32.892,49.857 32.238,49.172 C31.67,48.576 32.002,47.153 31.868,46.105 C31.744,45.145 31.625,44.167 31.334,43.251 C30.834,41.679 29.873,41.112 28.25,41.322 C27.511,41.421 26.787,41.626 26.058,41.785 C25.276,41.954 24.632,41.762 24.255,41.02 C23.441,39.418 23.002,37.729 23.34,35.929 C23.597,34.56 24.307,34.035 25.701,34.06 C26.635,34.078 27.571,34.157 28.503,34.117 C31.001,34.008 32.121,32.67 31.706,30.215 C31.48,28.866 31.079,27.545 30.683,25.911 L30.683,25.911 Z" id="Shape"></path>
                    <path d="M83.31,49.29 C80.094,47.666 76.706,47.174 73.24,47.138 C72.238,47.127 71.213,47.216 70.238,47.438 C68.409,47.857 67.634,49.047 67.851,50.912 C67.944,51.692 68.151,52.458 68.214,53.238 C68.33,54.631 67.749,55.716 66.747,56.14 C65.738,56.57 64.345,56.318 63.607,55.574 C62.753,54.712 62.486,53.246 62.979,52.138 C64,49.859 63.241,48.347 60.763,47.804 C60.075,47.654 59.355,47.652 58.454,47.563 C58.434,45.821 58.348,44.035 59.079,42.362 C59.222,42.036 59.895,41.79 60.333,41.774 C61.298,41.737 62.274,41.958 63.24,41.92 C65.521,41.835 66.733,40.742 67.147,38.5 C67.838,34.758 65.86,32.55 63.271,31.163 C62.668,30.84 61.65,31.205 60.849,31.371 C60.487,31.447 60.185,31.809 59.61,32.214 C59.494,31.409 59.258,30.758 59.341,30.154 C59.525,28.863 59.829,27.582 60.195,26.329 C60.266,26.09 60.88,25.839 61.208,25.878 C62.842,26.072 64.457,26.415 66.092,26.6 C67.238,26.729 68.409,26.798 69.555,26.695 C71.018,26.564 71.655,25.811 71.818,24.365 C71.844,24.143 71.868,23.917 71.86,23.694 C71.758,20.674 73.786,20.172 76.368,20.471 C77.312,20.581 77.682,21.292 77.577,22.189 C77.479,23.041 77.252,23.879 77.143,24.73 C76.838,27.092 77.695,28.154 80.061,28.164 C81.778,28.171 83.497,27.922 85.213,27.901 C87.004,27.878 88.796,27.991 90.589,28.041 C91.522,28.067 91.723,28.516 91.616,29.421 C90.803,36.316 87.959,42.386 84.166,48.083 C83.903,48.482 83.612,48.864 83.31,49.29 L83.31,49.29 Z" id="Shape"></path>
                    <path d="M11.556,52.645 C13.838,51.108 15.855,49.582 18.409,49.186 C19.017,49.091 19.779,49.351 20.301,49.699 C20.475,49.815 20.121,50.726 20,51.273 C19.776,52.271 19.329,53.274 19.363,54.263 C19.424,56.049 20.764,57.303 22.501,57.544 C24.272,57.791 25.943,56.889 26.542,55.22 C26.813,54.465 26.861,53.617 26.922,52.806 C26.961,52.29 26.831,51.764 26.785,51.244 C26.619,49.326 26.809,49.253 28.627,49.752 C31.721,50.606 34.833,51.429 37.978,52.059 C41.352,52.737 44.749,52.697 48.227,51.418 C49.092,54.906 50.06,58.247 48.913,61.729 C48.439,63.165 47.813,63.275 46.556,62.417 C45.909,61.978 45.253,61.526 44.543,61.21 C43.44,60.717 42.469,60.962 41.952,62.034 C40.618,64.804 40.164,67.68 41.637,70.553 C42.555,72.344 43.651,72.684 45.524,71.972 C48.307,70.914 48.584,71.067 49.05,74.027 C49.19,74.913 49.175,75.826 49.358,76.701 C49.658,78.114 49.106,79.004 47.823,79.486 C46.513,79.98 45.216,80.608 43.854,80.837 C42.175,81.122 40.679,80.53 39.36,79.315 C33.338,73.761 27.186,68.347 21.233,62.721 C17.893,59.564 14.852,56.098 11.556,52.645 L11.556,52.645 Z" id="Shape"></path>
                    <path d="M61.516,1.543 C61.906,4.3 61.633,6.801 59.675,8.809 C59.25,9.246 58.283,9.502 57.686,9.355 C55.806,8.892 54.256,9.221 53.075,10.765 C52.102,12.035 51.707,13.462 52.558,14.951 C53.548,16.683 55.077,17.576 57.096,17.499 C57.69,17.477 58.28,17.333 58.871,17.239 C59.762,17.097 60.328,17.441 60.188,18.373 C59.925,20.145 59.585,21.908 59.194,23.656 C59.15,23.856 58.571,24.037 58.232,24.053 C55.994,24.159 53.74,24.088 51.519,24.325 C48.885,24.606 48.354,25.475 48.802,28.107 C48.927,28.844 49.139,29.574 49.177,30.315 C49.192,30.591 48.849,31.113 48.627,31.136 C46.851,31.328 45.11,31.149 43.535,30.212 C42.798,29.776 42.566,29.244 42.987,28.347 C44.143,25.882 42.671,23.313 39.966,23.403 C37.143,23.496 34.326,23.994 31.528,24.447 C30.478,24.617 29.957,24.494 29.709,23.377 C29.385,21.921 28.846,20.514 28.498,19.063 C28.219,17.899 28.657,17.37 29.849,17.273 C30.291,17.237 30.75,17.263 31.188,17.336 C33.082,17.653 34.654,16.962 36.027,15.759 C37.292,14.651 37.553,13.162 36.852,11.688 C36.081,10.07 34.724,9.264 33.065,9.509 C32.328,9.618 31.602,9.82 30.885,10.028 C30.15,10.242 29.765,9.923 29.729,9.245 C29.564,6.135 30.564,3.431 32.729,1.195 C32.924,0.993 33.494,1.037 33.851,1.126 C37.872,2.132 41.622,3.783 45.11,6.008 C45.907,6.516 46.502,6.563 47.339,6.078 C51.259,3.807 55.493,2.389 59.963,1.677 C60.434,1.604 60.916,1.593 61.516,1.543 L61.516,1.543 Z" id="Shape"></path>
                    <path d="M63.102,1.517 C76.528,0.069 92.338,12.435 91.627,26.305 C87.961,26.428 84.32,26.557 80.678,26.669 C78.631,26.731 78.333,26.353 78.729,24.294 C78.862,23.597 79.047,22.901 79.09,22.197 C79.199,20.489 78.295,19.303 76.624,18.968 C75.108,18.664 73.631,18.896 72.263,19.6 C70.866,20.321 70.506,21.645 70.398,23.086 C70.236,25.238 70.111,25.439 68.001,25.251 C65.589,25.037 63.195,24.624 60.716,24.287 C60.783,23.88 60.821,23.595 60.877,23.314 C61.105,22.177 61.353,21.043 61.567,19.905 C62.242,16.328 60.671,15.091 57.571,15.928 C56.44,16.233 55.424,15.874 54.561,15.1 C53.592,14.23 53.396,13.264 53.946,12.183 C54.552,10.992 55.544,10.49 56.8,10.737 C59.384,11.245 60.678,10.654 61.95,8.349 C62.937,6.563 63.284,4.633 63.168,2.61 C63.146,2.245 63.123,1.879 63.102,1.517 L63.102,1.517 Z" id="Shape"></path>
                    <path d="M31.172,0.561 C29.554,2.579 28.563,4.733 28.292,7.161 C28.194,8.041 28.181,8.964 28.333,9.832 C28.581,11.247 29.561,11.832 30.967,11.547 C31.698,11.399 32.412,11.149 33.147,11.03 C34.292,10.844 35.071,11.335 35.531,12.431 C35.943,13.413 35.621,14.2 34.838,14.809 C33.836,15.589 32.735,16.059 31.405,15.85 C30.748,15.747 30.054,15.713 29.399,15.803 C27.587,16.05 26.602,17.351 26.991,19.14 C27.401,21.031 27.993,22.882 28.556,24.932 C25.052,25.542 21.548,26.153 17.709,26.821 C18.096,25.729 18.364,24.944 18.652,24.165 C19.889,20.82 19.138,19.508 15.659,18.946 C12.59,18.451 10.763,20.15 11.036,23.27 C11.091,23.9 11.224,24.526 11.346,25.15 C11.491,25.876 11.162,26.285 10.473,26.229 C9.288,26.134 8.045,26.117 6.948,25.726 C4.843,24.976 2.826,23.982 0.767,23.104 C0.12,22.828 0.049,22.396 0.184,21.751 C1.718,14.411 5.85,8.886 11.976,4.726 C17.32,1.097 23.166,-0.498 29.615,0.298 C30.083,0.357 30.546,0.454 31.172,0.561 L31.172,0.561 Z" id="Shape"></path>
                    <path d="M51.069,77.438 C50.746,75.527 50.56,73.814 50.15,72.155 C49.619,70.003 48.537,69.467 46.382,70.075 C45.952,70.197 45.533,70.36 45.113,70.518 C43.841,70.997 43.387,70.859 42.821,69.596 C41.832,67.389 42.267,65.203 43.077,63.057 C43.3,62.461 43.766,62.416 44.262,62.721 C44.866,63.093 45.446,63.503 46.042,63.888 C47.728,64.979 49.271,64.714 49.991,62.854 C50.581,61.333 50.904,59.592 50.852,57.966 C50.78,55.708 50.247,53.465 49.887,51.048 C50.807,50.798 51.86,50.441 52.94,50.236 C55.163,49.814 57.292,48.782 59.64,49.161 C60.079,49.232 60.538,49.281 60.943,49.45 C62.081,49.922 62.199,50.296 61.664,51.41 C60.854,53.098 61.21,55.273 62.51,56.611 C63.706,57.838 65.793,58.219 67.401,57.502 C68.986,56.795 69.906,55.056 69.718,53.025 C69.65,52.283 69.485,51.549 69.354,50.814 C69.16,49.725 69.633,49.092 70.684,48.854 C70.938,48.796 71.198,48.737 71.457,48.72 C74.776,48.496 78.03,48.818 81.17,49.981 C81.544,50.12 81.898,50.312 82.507,50.593 C80.865,52.446 79.43,54.257 77.8,55.872 C71.303,62.31 64.105,67.92 56.761,73.343 C54.905,74.716 53.015,76.041 51.069,77.438 L51.069,77.438 Z" id="Shape"></path>
                </g>
            </g>
        </g>
    </g>
</svg>