<?xml version="1.0" encoding="UTF-8" standalone="no"?>
<svg width="224px" height="250px" viewBox="0 0 224 250" version="1.1" xmlns="http://www.w3.org/2000/svg" xmlns:xlink="http://www.w3.org/1999/xlink" xmlns:sketch="http://www.bohemiancoding.com/sketch/ns">
    <!-- Generator: Sketch 3.3 (11970) - http://www.bohemiancoding.com/sketch -->
    <title>noun_54119_cc</title>
    <desc>Created with Sketch.</desc>
    <defs></defs>
    <g id="Page-1" stroke="none" stroke-width="1" fill="none" fill-rule="evenodd" sketch:type="MSPage">
        <g id="noun_54119_cc" sketch:type="MSLayerGroup" transform="translate(-1.359536, 0.439998)" fill="#FFFFFF">
            <g id="Group" sketch:type="MSShapeGroup">
                <circle id="Oval" cx="110.748789" cy="112.66203" r="2.91968644"></circle>
                <path d="M111.299344,143.911643 C111.299344,144.810967 112.029265,145.548362 112.941045,145.548362 C113.840368,145.548362 114.572781,144.810967 114.572781,143.911643 L114.577763,120.222822 L115.29772,120.222822 L115.29772,128.954478 C115.29772,130.705792 117.587133,130.705792 117.58215,128.954478 L117.58215,120.035982 C117.58215,118.097829 116.443672,116.194552 114.17668,116.194552 L107.627315,116.194552 C105.557128,116.194552 104.261704,117.873621 104.261704,119.981176 L104.261704,128.954478 C104.261704,130.695827 106.561081,130.695827 106.561081,128.954478 L106.561081,120.222822 L107.295985,120.222822 L107.293494,143.911643 C107.293494,144.810967 108.025907,145.548362 108.932704,145.548362 C109.834518,145.548362 110.569422,144.810967 110.569422,143.911643 L110.571913,130.167693 L111.301835,130.167693 L111.299344,143.911643 L111.299344,143.911643 Z" id="Shape"></path>
                <circle id="Oval" cx="79.7258746" cy="183.028466" r="1.08865441"></circle>
                <path d="M81.0038603,184.341329 L78.5674666,184.341329 C77.7951946,184.341329 77.314393,184.969111 77.314393,185.751348 L77.314393,189.092047 C77.314393,189.739759 78.173857,189.739759 78.173857,189.092047 L78.173857,185.843522 L78.4453978,185.843522 L78.4429066,194.662371 C78.4429066,194.998683 78.721921,195.270223 79.0532506,195.270223 C79.3920538,195.270223 79.6660858,194.998683 79.6660858,194.662371 L79.6660858,189.542954 L79.9376266,189.542954 L79.9376266,194.662371 C79.9376266,194.998683 80.204185,195.270223 80.5454794,195.270223 C80.8817915,195.270223 81.1533323,194.998683 81.1533323,194.662371 L81.1583147,185.843522 L81.4273643,185.843522 L81.4273643,189.094538 C81.4273643,189.747233 82.2818459,189.747233 82.2768635,189.094538 L82.2768635,185.77626 C82.2718811,185.053812 81.8483771,184.341329 81.0038603,184.341329 L81.0038603,184.341329 Z" id="Shape"></path>
                <circle id="Oval" cx="208.535864" cy="172.121993" r="1.09114561"></circle>
                <path d="M206.983846,178.185574 L206.983846,174.934557 L207.255387,174.934557 L207.250404,183.753406 C207.250404,184.089718 207.521945,184.361258 207.86324,184.361258 C208.199552,184.361258 208.471092,184.089718 208.471092,183.753406 L208.471092,178.636481 L208.742633,178.636481 L208.742633,183.753406 C208.742633,184.089718 209.014174,184.361258 209.350486,184.361258 C209.686798,184.361258 209.958339,184.089718 209.958339,183.753406 L209.963321,174.934557 L210.224897,174.934557 L210.224897,178.185574 C210.224897,178.840759 211.08187,178.840759 211.08187,178.185574 L211.08187,174.867295 C211.08187,174.147338 210.653384,173.437346 209.806376,173.437346 L207.372473,173.437346 C206.59771,173.437346 206.116908,174.065129 206.116908,174.847365 L206.116908,178.185574 C206.121891,178.835777 206.983846,178.835777 206.983846,178.185574 L206.983846,178.185574 Z" id="Shape"></path>
                <circle id="Oval" cx="113.626125" cy="31.9521316" r="1.08616321"></circle>
                <path d="M112.069125,38.0182037 L112.069125,34.7671877 L112.340665,34.7671877 L112.338174,43.5835446 C112.338174,43.9198566 112.609715,44.1938886 112.951009,44.1938886 C113.289813,44.1938886 113.561353,43.9223478 113.561353,43.5835446 L113.563845,38.4691109 L113.830403,38.4691109 L113.830403,43.5835446 C113.830403,43.9198566 114.104435,44.1938886 114.438256,44.1938886 C114.777059,44.1938886 115.0486,43.9223478 115.0486,43.5835446 L115.053582,34.7671877 L115.320141,34.7671877 L115.320141,38.0182037 C115.320141,38.6684069 116.16964,38.6684069 116.164658,38.0182037 L116.164658,34.6949429 C116.164658,33.9724948 115.743645,33.264994 114.901619,33.264994 L112.462734,33.264994 C111.690462,33.264994 111.207169,33.8902852 111.207169,34.6750133 L111.207169,38.0182037 C111.207169,38.6659157 112.069125,38.6659157 112.069125,38.0182037 L112.069125,38.0182037 Z" id="Shape"></path>
                <circle id="Oval" cx="12.1645298" cy="60.1350776" r="1.08616321"></circle>
                <path d="M12.3712994,71.7714729 C12.3712994,72.1052937 12.6428402,72.3818169 12.9791522,72.3818169 C13.3179554,72.3818169 13.5894962,72.1052937 13.5894962,71.7714729 L13.5894962,62.9476424 L13.8585458,62.9476424 L13.8585458,66.1986585 C13.8585458,66.8588265 14.7105362,66.8588265 14.708045,66.1986585 L14.708045,62.88038 C14.708045,62.157932 14.284541,61.44794 13.4425154,61.44794 L11.0061217,61.44794 C10.2338497,61.44794 9.75055693,62.0782136 9.75055693,62.8604504 L9.75055693,66.1961673 C9.75055693,66.8463705 10.6075297,66.8463705 10.6075297,66.1961673 L10.6075297,62.9451512 L10.8840529,62.9451512 L10.8790705,71.7714729 C10.8790705,72.1052937 11.1531025,72.3818169 11.4894145,72.3818169 C11.8257266,72.3818169 12.0997586,72.1052937 12.0997586,71.7714729 L12.0997586,66.6545481 L12.3712994,66.6545481 L12.3712994,71.7714729 L12.3712994,71.7714729 Z" id="Shape"></path>
                <circle id="Oval" cx="42.2482613" cy="144.512023" r="1.08865441"></circle>
                <path d="M42.4525398,156.145927 C42.4525398,156.482239 42.7240806,156.756271 43.0628838,156.756271 C43.3991958,156.756271 43.6732278,156.482239 43.6732278,156.145927 L43.6732278,147.32957 L43.9422774,147.32957 L43.9422774,150.578095 C43.9422774,151.230789 44.796759,151.230789 44.7917766,150.578095 L44.7917766,147.259816 C44.7917766,146.537368 44.3707638,145.827376 43.526247,145.827376 L41.0873621,145.827376 C40.3175813,145.827376 39.8317973,146.455159 39.8317973,147.237396 L39.8317973,150.578095 C39.8317973,151.225807 40.6912613,151.225807 40.6912613,150.578095 L40.6912613,147.32957 L40.9652933,147.32957 L40.9628021,156.145927 C40.9628021,156.482239 41.2393253,156.756271 41.5731461,156.756271 C41.9119493,156.756271 42.1859813,156.482239 42.1859813,156.145927 L42.1859813,151.029002 L42.455031,151.029002 L42.455031,156.145927 L42.4525398,156.145927 Z" id="Shape"></path>
                <circle id="Oval" cx="214.190888" cy="4.45924806" r="1.08616321"></circle>
                <path d="M212.636379,10.5253201 L212.636379,7.27430409 L212.902937,7.27430409 L212.902937,16.0931522 C212.902937,16.4294642 213.174478,16.7034962 213.515772,16.7034962 C213.852084,16.7034962 214.123625,16.4319554 214.123625,16.0931522 L214.123625,10.9787185 L214.395166,10.9787185 L214.395166,16.0931522 C214.395166,16.4294642 214.666707,16.7034962 215.003019,16.7034962 C215.344313,16.7034962 215.615854,16.4319554 215.615854,16.0931522 L215.615854,7.27430409 L215.887395,7.27430409 L215.887395,10.5253201 C215.887395,11.1805057 216.734403,11.1805057 216.734403,10.5253201 L216.734403,7.20704169 C216.734403,6.48459368 216.310899,5.77460168 215.468873,5.77460168 L213.027497,5.77460168 C212.257716,5.77460168 211.776915,6.40238408 211.776915,7.18711209 L211.776915,10.5253201 C211.776915,11.1755233 212.636379,11.1755233 212.636379,10.5253201 L212.636379,10.5253201 Z" id="Shape"></path>
                <ellipse id="Oval" cx="131.425749" cy="187.445364" rx="1.51963202" ry="1.51963202"></ellipse>
                <path d="M133.211939,189.28387 L129.806469,189.28387 C128.73027,189.28387 128.055155,190.160772 128.055155,191.251918 L128.055155,195.917935 C128.055155,196.827223 129.250931,196.827223 129.250931,195.917935 L129.250931,191.378969 L129.629594,191.378969 L129.629594,203.705427 C129.629594,204.173772 130.013238,204.552435 130.486566,204.552435 C130.959895,204.552435 131.333575,204.173772 131.333575,203.705427 L131.333575,196.553191 L131.717219,196.553191 L131.717219,203.705427 C131.717219,204.173772 132.090899,204.552435 132.564227,204.552435 C133.037555,204.552435 133.416218,204.173772 133.416218,203.705427 L133.4212,191.378969 L133.79488,191.378969 L133.79488,195.917935 C133.79488,196.834697 134.990656,196.834697 134.983183,195.917935 L134.983183,191.279321 C134.983183,190.275367 134.387786,189.28387 133.211939,189.28387 L133.211939,189.28387 Z" id="Shape"></path>
                <ellipse id="Oval" cx="30.0563284" cy="201.338787" rx="1.51963202" ry="1.51963202"></ellipse>
                <path d="M31.8425188,203.179783 L28.4345572,203.179783 C27.3558676,203.179783 26.6807523,204.054195 26.6807523,205.14534 L26.6807523,209.813849 C26.6807523,210.720646 27.8815108,210.720646 27.8815108,209.813849 L27.8815108,205.274883 L28.2601732,205.274883 L28.2601732,217.598849 C28.2601732,218.069686 28.643818,218.448348 29.1121636,218.448348 C29.5854916,218.448348 29.964154,218.072177 29.964154,217.598849 L29.964154,210.446614 L30.3428164,210.446614 L30.3428164,217.598849 C30.3428164,218.069686 30.7264612,218.448348 31.1948068,218.448348 C31.6656436,218.448348 32.0492884,218.072177 32.0492884,217.598849 L32.0517796,205.274883 L32.4279508,205.274883 L32.4279508,209.813849 C32.4279508,210.72812 33.6187444,210.72812 33.6162532,209.813849 L33.6162532,205.175235 C33.613762,204.166299 33.015874,203.179783 31.8425188,203.179783 L31.8425188,203.179783 Z" id="Shape"></path>
                <circle id="Oval" cx="69.5044809" cy="67.6809225" r="1.60682402"></circle>
                <path d="M67.1976297,76.654225 L67.1976297,71.8437177 L67.5987129,71.8437177 L67.5987129,84.8976059 C67.5987129,85.3933547 68.0022873,85.7944379 68.5030185,85.7944379 C69.0012585,85.7944379 69.3998505,85.3908635 69.3998505,84.8976059 L69.4023417,77.3243578 L69.8084073,77.3243578 L69.8034249,84.8976059 C69.8034249,85.3933547 70.2094905,85.7944379 70.7077305,85.7944379 C71.2059705,85.7944379 71.6045625,85.3908635 71.6045625,84.8976059 L71.6095449,71.8437177 L72.0081369,71.8437177 L72.0081369,76.654225 C72.0081369,77.6208106 73.2686842,77.6208106 73.266193,76.654225 L73.266193,71.7415785 C73.266193,70.6728537 72.6384105,69.6240585 71.3903193,69.6240585 L67.7805705,69.6240585 C66.6396009,69.6240585 65.9271177,70.5532761 65.9271177,71.7116841 L65.9271177,76.654225 C65.9271177,77.613337 67.1976297,77.613337 67.1976297,76.654225 L67.1976297,76.654225 Z" id="Shape"></path>
                <circle id="Oval" cx="180.205937" cy="128.194662" r="1.60931522"></circle>
                <path d="M176.631065,132.225424 L176.631065,137.165474 C176.631065,138.129568 177.901577,138.129568 177.901577,137.165474 L177.901577,132.352475 L178.300169,132.352475 L178.300169,145.403872 C178.300169,145.899621 178.703743,146.308178 179.204474,146.308178 C179.700223,146.308178 180.098815,145.899621 180.098815,145.403872 L180.103798,137.833115 L180.507372,137.833115 L180.50239,145.403872 C180.50239,145.899621 180.905964,146.308178 181.406695,146.308178 C181.902444,146.308178 182.306018,145.899621 182.306018,145.403872 L182.311001,132.352475 L182.709593,132.352475 L182.709593,137.165474 C182.709593,138.137042 183.97014,138.137042 183.965158,137.165474 L183.965158,132.252827 C183.965158,131.184103 183.337375,130.135307 182.091775,130.135307 L178.482026,130.135307 C177.343548,130.137798 176.631065,131.067016 176.631065,132.225424 L176.631065,132.225424 Z" id="Shape"></path>
                <circle id="Oval" cx="189.966458" cy="63.5106536" r="2.21218563"></circle>
                <path d="M185.058794,69.0461001 L185.058794,75.832129 C185.058794,77.1549562 186.800143,77.1549562 186.800143,75.832129 L186.800143,69.2279577 L187.355681,69.2279577 L187.350698,87.1546331 C187.350698,87.8397131 187.911218,88.3952508 188.591316,88.3952508 C189.276396,88.3952508 189.831934,87.8422043 189.831934,87.1546331 L189.836916,76.7563642 L190.387471,76.7563642 L190.382489,87.1546331 C190.382489,87.8397131 190.938026,88.3952508 191.623106,88.3952508 C192.308187,88.3952508 192.863724,87.8422043 192.863724,87.1546331 L192.863724,69.2279577 L193.409297,69.2279577 L193.409297,75.832129 C193.409297,77.1674122 195.140681,77.1674122 195.140681,75.832129 L195.140681,69.0884505 C195.140681,67.6161513 194.273743,66.1812201 192.557307,66.1812201 L187.604801,66.1812201 C186.037836,66.1812201 185.058794,67.4542233 185.058794,69.0461001 L185.058794,69.0461001 Z" id="Shape"></path>
                <path d="M203.431395,219.457284 C204.652083,219.457284 205.641089,218.470769 205.641089,217.250081 C205.641089,216.02192 204.654574,215.032913 203.431395,215.032913 C202.208215,215.032913 201.2217,216.019428 201.2217,217.250081 C201.2217,218.468278 202.210707,219.457284 203.431395,219.457284 L203.431395,219.457284 Z" id="Shape"></path>
                <path d="M206.019751,219.920648 L201.067246,219.920648 C199.505263,219.920648 198.523731,221.19116 198.523731,222.783036 L198.523731,229.569065 C198.523731,230.889401 200.265079,230.889401 200.265079,229.569065 L200.265079,222.967385 L200.820617,222.967385 L200.815635,240.894061 C200.815635,241.57665 201.376155,242.132187 202.056252,242.132187 C202.741332,242.132187 203.29687,241.57665 203.29687,240.894061 L203.301852,230.493301 L203.852407,230.493301 L203.847425,240.894061 C203.847425,241.57665 204.402963,242.132187 205.08306,242.132187 C205.773123,242.132187 206.32866,241.57665 206.32866,240.894061 L206.333643,222.967385 L206.879215,222.967385 L206.879215,229.569065 C206.879215,230.901857 208.6106,230.901857 208.605617,229.569065 L208.605617,222.825387 C208.603126,221.353088 207.73868,219.920648 206.019751,219.920648 L206.019751,219.920648 Z" id="Shape"></path>
                <path d="M208.73516,210.267248 L209.806376,188.294863 C214.94323,187.691993 218.959044,183.359796 218.959044,178.063505 C218.959044,172.351183 214.312956,167.705095 208.605617,167.705095 C206.859286,167.705095 205.232532,168.178423 203.787636,168.948204 L188.937593,148.879096 C192.622078,146.198565 195.023595,141.871351 195.023595,136.981125 C195.023595,129.400403 189.26394,123.140018 181.887497,122.345325 L188.708402,95.2684716 C189.171766,95.3008572 189.632638,95.3382252 190.105966,95.3382252 C200.995001,95.3382252 209.861182,86.4745355 209.861182,75.5780266 C209.861182,68.0645673 205.64358,61.522676 199.452948,58.1819768 L215.125088,20.6645043 C220.42387,20.2135971 224.614069,15.8091554 224.614069,10.4007601 C224.614069,4.69092966 219.96798,0.0423504006 214.255659,0.0423504006 C208.54832,0.0423504006 203.902231,4.68843846 203.902231,10.4007601 C203.902231,10.6150033 203.954547,10.8167905 203.964511,11.0260513 L123.204789,33.8055844 C121.612912,30.1210996 117.95583,27.5277604 113.693387,27.5277604 C107.983557,27.5277604 103.337469,32.1763396 103.337469,37.8886613 C103.337469,40.1706005 104.102267,42.2632085 105.357832,43.974663 L78.3930826,64.6815176 C75.9367594,62.8455032 72.8999865,61.7419016 69.6016377,61.7419016 C63.3836024,61.7419016 58.0648904,65.6231913 55.9075111,71.0839017 L22.5378867,66.5748297 C22.5478515,66.4054281 22.5902019,66.2459913 22.5902019,66.0716073 C22.5902019,60.3617768 17.9441138,55.7131975 12.2317922,55.7131975 C6.51947048,55.7131975 1.87587362,60.3592856 1.87587362,66.0716073 C1.87587362,71.4800025 6.05361608,75.881953 11.3474161,76.3403338 L37.3978949,141.388058 C34.1767732,143.146845 31.957114,146.524912 31.957114,150.448552 C31.957114,154.334824 34.1294404,157.680506 37.2982469,159.45424 L29.1345844,195.716148 C21.9001395,196.236809 16.1728706,202.275478 16.1728706,209.636974 C16.1728706,217.342256 22.4432211,223.607624 30.1460116,223.607624 C37.8488021,223.607624 44.1191526,217.339764 44.1191526,209.636974 C44.1191526,208.074992 43.8476118,206.575289 43.3717926,205.167761 L72.3070809,196.084846 C74.1954106,198.070332 76.8435562,199.320915 79.7906458,199.320915 C84.0829835,199.320915 87.7749419,196.692699 89.3394156,192.963372 L117.579659,194.986227 C117.564712,195.240329 117.5398,195.489449 117.5398,195.746043 C117.5398,203.451324 123.812642,209.719184 131.512941,209.719184 C135.939803,209.719184 139.885864,207.644014 142.446818,204.425383 L184.525678,224.09839 C184.067297,225.762512 183.805721,227.506352 183.805721,229.314963 C183.805721,240.211472 192.666919,249.075162 203.560937,249.075162 C214.454955,249.075162 223.321136,240.211472 223.321136,229.314963 C223.323627,220.212118 217.12303,212.549187 208.73516,210.267248 L208.73516,210.267248 Z M216.452897,178.063505 C216.452897,182.388228 212.93034,185.908294 208.605617,185.908294 C204.275911,185.908294 200.758337,182.388228 200.758337,178.063505 C200.758337,173.733799 204.275911,170.211242 208.605617,170.211242 C212.93034,170.208751 216.452897,173.731308 216.452897,178.063505 L216.452897,178.063505 Z M201.724923,170.378153 C199.607403,172.276447 198.247207,175.00182 198.247207,178.063505 C198.247207,179.21693 198.48138,180.303094 198.825166,181.336942 L145.401381,194.174095 C144.619144,187.206209 138.692579,181.77041 131.520415,181.77041 C129.686891,181.77041 127.943051,182.134126 126.338718,182.776855 L121.294038,152.110183 C127.385022,149.412213 132.232898,144.424831 134.741536,138.234199 L165.63989,138.234199 C166.277637,145.765096 172.607777,151.701626 180.300602,151.701626 C182.627383,151.701626 184.824622,151.141106 186.782705,150.179503 L201.724923,170.378153 L201.724923,170.378153 Z M85.3734251,180.270708 C83.7591275,179.231878 81.8483771,178.611569 79.793137,178.611569 C77.0602906,178.611569 74.5890202,179.695241 72.7355673,181.431607 L49.8190182,157.545981 C51.5753143,155.690037 52.6714423,153.20382 52.6714423,150.448552 C52.6714423,149.985189 52.5942151,149.541756 52.5344263,149.095831 L86.6414459,136.958704 C88.5571788,142.511589 92.3114172,147.197536 97.1891869,150.296589 L96.4169149,150.015084 L85.3734251,180.270708 L85.3734251,180.270708 Z M69.5991465,91.1928684 C73.0992826,91.1928684 76.3154218,89.9572332 78.8439898,87.9119579 L92.1270684,111.142398 C87.8546603,115.731189 85.2214619,121.864523 85.2214619,128.610693 C85.2214619,130.655968 85.4855291,132.638963 85.9414187,134.547223 L51.9265735,146.649472 C51.0994951,144.566829 49.617231,142.830463 47.7313926,141.664581 L64.12598,90.1241436 C65.8175049,90.8067324 67.6609929,91.1928684 69.5991465,91.1928684 L69.5991465,91.1928684 Z M112.383016,48.1150374 L109.727397,102.973753 C103.706166,103.252768 98.2305085,105.599478 93.9805212,109.336278 L80.6999339,86.1083291 C82.9445051,83.5224635 84.3196475,80.154361 84.3196475,76.467385 C84.3196475,72.5661657 82.7825771,69.0236793 80.2938682,66.3830073 L107.091707,45.8081862 C108.57148,47.038839 110.382582,47.8584438 112.383016,48.1150374 L112.383016,48.1150374 Z M128.393958,109.814589 C124.101621,105.826177 118.464035,103.295118 112.238526,102.976245 L114.894145,48.122511 C118.424176,47.7064806 121.393686,45.5391366 122.920792,42.4849254 L172.682513,66.2659209 C171.192775,69.0411177 170.345767,72.2099241 170.345767,75.5730442 C170.345767,80.2639738 171.989959,84.5737499 174.735261,87.9667643 L128.393958,109.814589 L128.393958,109.814589 Z M87.7276091,128.610693 C87.7276091,115.823363 98.1333517,105.420112 110.925664,105.420112 C123.712994,105.420112 134.116245,115.823363 134.116245,128.610693 C134.116245,141.400514 123.712994,151.806256 110.925664,151.806256 C98.1358429,151.806256 87.7276091,141.400514 87.7276091,128.610693 L87.7276091,128.610693 Z M192.517447,136.978634 C192.517447,143.712347 187.034316,149.192988 180.300602,149.192988 C173.566889,149.192988 168.083757,143.712347 168.083757,136.978634 C168.083757,130.24492 173.566889,124.766771 180.300602,124.766771 C187.034316,124.766771 192.517447,130.24492 192.517447,136.978634 L192.517447,136.978634 Z M179.314087,122.307957 C172.069677,122.79125 166.255217,128.52101 165.642381,135.728051 L135.601,135.728051 C136.258677,133.466042 136.627375,131.084455 136.627375,128.613184 C136.627375,122.143538 134.203437,116.241885 130.24492,111.717865 L176.526434,89.8999356 C179.172089,92.4110652 182.49535,94.2072204 186.204746,94.949598 L179.314087,122.307957 L179.314087,122.307957 Z M207.347561,75.5780266 C207.347561,85.0894283 199.612385,92.8295868 190.103474,92.8295868 C180.592073,92.8295868 172.849423,85.0894283 172.849423,75.5780266 C172.849423,66.0666249 180.589582,58.3289576 190.103474,58.3289576 C199.612385,58.3289576 207.347561,66.0666249 207.347561,75.5780266 L207.347561,75.5780266 Z M214.253168,2.55098883 C218.582873,2.55098883 222.10543,6.07105448 222.10543,10.4007601 C222.10543,14.7254834 218.582873,18.2430578 214.253168,18.2430578 C209.933427,18.2430578 206.41087,14.7254834 206.41087,10.4007601 C206.408379,6.07105448 209.933427,2.55098883 214.253168,2.55098883 L214.253168,2.55098883 Z M204.430366,13.5072866 C205.578809,17.1294914 208.638003,19.8922323 212.449539,20.5698387 L197.166027,57.1506199 C194.971279,56.3036119 192.597166,55.8203191 190.105966,55.8203191 C183.479374,55.8203191 177.615089,59.1111944 174.030252,64.1309624 L123.792712,40.1182853 C123.947166,39.3983285 124.046814,38.6559509 124.046814,37.8886613 C124.046814,37.3181765 123.969587,36.7701125 123.882395,36.2245397 L204.430366,13.5072866 L204.430366,13.5072866 Z M113.690896,30.03889 C118.015619,30.03889 121.533194,33.5614468 121.533194,37.8911525 C121.533194,42.2158757 118.015619,45.7359414 113.690896,45.7359414 C109.363681,45.7359414 105.843616,42.2158757 105.843616,37.8911525 C105.843616,33.5614468 109.363681,30.03889 113.690896,30.03889 L113.690896,30.03889 Z M69.5991465,64.2530312 C76.3328602,64.2530312 81.8135003,69.7336713 81.8135003,76.467385 C81.8135003,83.2060811 76.3328602,88.68423 69.5991465,88.68423 C62.8629416,88.68423 57.3847927,83.2060811 57.3847927,76.467385 C57.3847927,69.7336713 62.8629416,64.2530312 69.5991465,64.2530312 L69.5991465,64.2530312 Z M4.38451206,66.0740985 C4.38451206,61.7443928 7.9045777,58.2243272 12.2317922,58.2243272 C16.5590066,58.2243272 20.0790723,61.7443928 20.0790723,66.0740985 C20.0790723,70.4013129 16.5590066,73.9238698 12.2317922,73.9238698 C7.9045777,73.9238698 4.38451206,70.4013129 4.38451206,66.0740985 L4.38451206,66.0740985 Z M14.0130002,76.2506506 C17.8818338,75.5755354 20.9808867,72.7480233 22.1019267,69.0461001 L55.1726071,73.515313 C54.9758023,74.4694426 54.8736631,75.4534666 54.8736631,76.4648938 C54.8736631,81.7412555 57.673772,86.3674139 61.8564968,88.9682268 L45.4295238,140.625751 C44.4405174,140.309368 43.4066694,140.092634 42.3155238,140.092634 C41.4186917,140.092634 40.5592277,140.244597 39.7271669,140.45884 L14.0130002,76.2506506 L14.0130002,76.2506506 Z M34.4657524,150.451044 C34.4657524,146.12632 37.9858181,142.603763 42.3130326,142.603763 C46.6377558,142.603763 50.1578215,146.12632 50.1578215,150.451044 C50.1578215,154.775767 46.6377558,158.298324 42.3130326,158.298324 C37.9858181,158.298324 34.4657524,154.775767 34.4657524,150.451044 L34.4657524,150.451044 Z M30.1460116,221.101476 C23.8233459,221.101476 18.6790178,215.95964 18.6790178,209.636974 C18.6790178,203.314308 23.8208547,198.172471 30.1460116,198.172471 C36.4711685,198.172471 41.6105141,203.311817 41.6105141,209.636974 C41.6105141,215.957148 36.4686773,221.101476 30.1460116,221.101476 L30.1460116,221.101476 Z M42.355383,202.865892 C40.2054773,199.004532 36.2818373,196.266703 31.6930468,195.756007 L39.6549221,160.415844 C40.5094037,160.645034 41.3887973,160.804471 42.3130326,160.804471 C44.3682726,160.804471 46.2715494,160.184162 47.8808646,159.150314 L71.1088137,183.354814 C70.0575273,184.974094 69.4322361,186.894809 69.4322361,188.962505 C69.4322361,190.776098 69.9429321,192.455167 70.7650281,193.942414 L42.355383,202.865892 L42.355383,202.865892 Z M79.7906458,196.812276 C75.4659226,196.812276 71.9458569,193.292211 71.9458569,188.964996 C71.9458569,184.642764 75.4659226,181.122698 79.7906458,181.122698 C84.1203515,181.122698 87.6404171,184.642764 87.6404171,188.964996 C87.6404171,193.292211 84.1203515,196.812276 79.7906458,196.812276 L79.7906458,196.812276 Z M89.9946012,190.494593 C90.066846,189.993862 90.1490556,189.490639 90.1490556,188.964996 C90.1490556,186.279482 89.095278,183.850562 87.4087355,182.009566 L98.6614861,151.195912 C102.308603,153.186381 106.486345,154.317386 110.925664,154.317386 C113.708334,154.317386 116.381392,153.856514 118.897504,153.034418 L123.99699,183.99007 C121.000077,185.910785 118.795365,188.937593 117.943374,192.495027 L89.9946012,190.494593 L89.9946012,190.494593 Z M131.517923,207.213036 C125.197749,207.213036 120.053421,202.068708 120.053421,195.743551 C120.053421,189.418394 125.195258,184.276558 131.517923,184.276558 C137.840589,184.276558 142.982426,189.418394 142.982426,195.743551 C142.982426,202.068708 137.838098,207.213036 131.517923,207.213036 L131.517923,207.213036 Z M143.846872,202.305372 C144.746195,200.626303 145.301733,198.740465 145.443731,196.745014 L199.91382,183.656249 C201.5331,186.162396 204.201175,187.886306 207.295246,188.284898 L206.248942,209.764025 C205.367057,209.639465 204.477699,209.557256 203.563428,209.557256 C195.364889,209.557256 188.319775,214.579515 185.332826,221.706838 L143.846872,202.305372 L143.846872,202.305372 Z M203.563428,246.566523 C194.052027,246.566523 186.314359,238.828856 186.314359,229.314963 C186.314359,219.808544 194.049535,212.065894 203.563428,212.065894 C213.069848,212.065894 220.812497,219.806052 220.812497,229.314963 C220.812497,238.826365 213.069848,246.566523 203.563428,246.566523 L203.563428,246.566523 Z" id="Shape"></path>
            </g>
        </g>
    </g>
</svg>