<?xml version="1.0" encoding="UTF-8" standalone="no"?>
<svg width="70px" height="81px" viewBox="0 0 70 81" version="1.1" xmlns="http://www.w3.org/2000/svg" xmlns:xlink="http://www.w3.org/1999/xlink" xmlns:sketch="http://www.bohemiancoding.com/sketch/ns">
    <!-- Generator: Sketch 3.3 (11970) - http://www.bohemiancoding.com/sketch -->
    <title>noun_36793_cc</title>
    <desc>Created with Sketch.</desc>
    <defs></defs>
    <g id="Page-1" stroke="none" stroke-width="1" fill="none" fill-rule="evenodd" sketch:type="MSPage">
        <g id="You-have-special-hos-+-noun_36793_cc" sketch:type="MSLayerGroup" fill="#000000">
            <g id="noun_36793_cc" transform="translate(0.600000, 0.581079)" sketch:type="MSShapeGroup">
                <g id="Group">
                    <g transform="translate(0.000000, 16.000000)">
                        <path d="M68.8,19.2 L0,19.2 L0,0 L68.8,0 L68.8,19.2 L68.8,19.2 Z M4.8,14.4 L64,14.4 L64,4.8 L4.8,4.8 L4.8,14.4 L4.8,14.4 Z" id="Shape"></path>
                        <circle id="Oval" cx="15.7536" cy="9.2768" r="3.3792"></circle>
                        <ellipse id="Oval" cx="26.4528" cy="9.2768" rx="3.3776" ry="3.3776"></ellipse>
                        <rect id="Rectangle-path" x="46.4" y="6.4" width="4.8" height="6.4"></rect>
                    </g>
                    <g transform="translate(0.000000, 36.800000)">
                        <path d="M68.8,20.8 L0,20.8 L0,0 L68.8,0 L68.8,20.8 L68.8,20.8 Z M4.8,16 L64,16 L64,4.8 L4.8,4.8 L4.8,16 L4.8,16 Z" id="Shape"></path>
                        <ellipse id="Oval" cx="15.7536" cy="10.3968" rx="3.3792" ry="3.3792"></ellipse>
                        <ellipse id="Oval" cx="26.4528" cy="10.3968" rx="3.3776" ry="3.3776"></ellipse>
                        <rect id="Rectangle-path" x="46.4" y="8" width="4.8" height="6.4"></rect>
                    </g>
                    <g transform="translate(0.000000, 59.200000)">
                        <path d="M68.8,20.8 L0,20.8 L0,0 L68.8,0 L68.8,20.8 L68.8,20.8 Z M4.8,16 L64,16 L64,4.8 L4.8,4.8 L4.8,16 L4.8,16 Z" id="Shape"></path>
                        <ellipse id="Oval" cx="15.7536" cy="9.92" rx="3.3792" ry="3.3792"></ellipse>
                        <ellipse id="Oval" cx="26.4528" cy="9.92" rx="3.3776" ry="3.3776"></ellipse>
                        <rect id="Rectangle-path" x="46.4" y="8" width="4.8" height="4.8"></rect>
                    </g>
                    <path d="M67.4976,12.8 L1.1424,12.8 L16.5552,0 L52.0816,0 L67.4976,12.8 Z" id="Shape"></path>
                </g>
            </g>
        </g>
    </g>
</svg>