<?xml version="1.0" encoding="UTF-8" standalone="no"?>
<svg width="198px" height="182px" viewBox="0 0 198 182" version="1.1" xmlns="http://www.w3.org/2000/svg" xmlns:xlink="http://www.w3.org/1999/xlink" xmlns:sketch="http://www.bohemiancoding.com/sketch/ns">
    <!-- Generator: Sketch 3.3 (11970) - http://www.bohemiancoding.com/sketch -->
    <title>noun_117741_cc</title>
    <desc>Created with Sketch.</desc>
    <defs></defs>
    <g id="Page-1" stroke="none" stroke-width="1" fill="none" fill-rule="evenodd" sketch:type="MSPage">
        <g id="noun_117741_cc" sketch:type="MSLayerGroup" transform="translate(-1.201031, 0.000000)">
            <g id="Group" sketch:type="MSShapeGroup">
                <path d="M38.3505155,109.278351 L164.742268,109.278351 L164.742268,33.1958763 L38.3505155,33.1958763 L38.3505155,109.278351 L38.3505155,109.278351 Z" id="Shape" stroke="#FFFFFF" stroke-width="2.8222"></path>
                <path d="M82.2680412,58.556701 C82.2680412,65.1546392 76.9072165,70.5154639 70.3092784,70.5154639 C63.7113402,70.5154639 58.3505155,65.1546392 58.3505155,58.556701 C58.3505155,51.9587629 63.7113402,46.5979381 70.3092784,46.5979381 C77.1134021,46.5979381 82.2680412,51.9587629 82.2680412,58.556701" id="Shape" fill="#FFFFFF"></path>
                <path d="M90.1030928,78.1443299 L112.164948,54.6391753 L107.42268,50.1030928 L88.8659794,69.4845361 C88.8659794,69.4845361 83.9175258,73.814433 79.5876289,73.814433 L61.443299,73.814433 C53.1958763,73.814433 46.3917526,80.6185567 46.3917526,88.8659794 L46.3917526,119.175258 L52.9896907,119.175258 L52.9896907,94.0206186 C52.9896907,93.4020619 53.4020619,92.7835052 54.2268041,92.7835052 C54.8453608,92.7835052 55.4639175,93.1958763 55.4639175,94.0206186 L55.4639175,152.989691 L68.0412371,152.989691 L68.0412371,121.85567 C68.0412371,120.618557 69.0721649,119.381443 70.5154639,119.381443 C71.7525773,119.381443 72.9896907,120.412371 72.9896907,121.85567 L72.9896907,153.195876 L85.9793814,153.195876 L85.9793814,94.2268041 C85.7731959,86.3917526 87.8350515,80.6185567 90.1030928,78.1443299 L90.1030928,78.1443299 Z" id="Shape" fill="#FFFFFF"></path>
                <ellipse id="Oval" fill="#FFFFFF" cx="37.5257732" cy="152.783505" rx="11.7525773" ry="11.7525773"></ellipse>
                <path d="M47.4226804,167.835052 L27.8350515,167.835052 C21.2371134,167.835052 15.6701031,172.57732 15.6701031,179.175258 L15.6701031,181.237113 L59.1752577,181.237113 L59.1752577,179.175258 C59.1752577,172.57732 54.0206186,167.835052 47.4226804,167.835052 L47.4226804,167.835052 Z" id="Shape" fill="#FFFFFF"></path>
                <ellipse id="Oval" fill="#FFFFFF" cx="168.659794" cy="152.783505" rx="11.7525773" ry="11.7525773"></ellipse>
                <path d="M178.556701,167.835052 L158.969072,167.835052 C152.371134,167.835052 146.804124,172.57732 146.804124,179.175258 L146.804124,181.237113 L190.309278,181.237113 L190.309278,179.175258 C190.309278,172.57732 185.154639,167.835052 178.556701,167.835052 L178.556701,167.835052 Z" id="Shape" fill="#FFFFFF"></path>
                <ellipse id="Oval" fill="#FFFFFF" cx="103.092784" cy="152.783505" rx="11.7525773" ry="11.7525773"></ellipse>
                <path d="M112.989691,167.835052 L93.4020619,167.835052 C86.8041237,167.835052 81.2371134,172.57732 81.2371134,179.175258 L81.2371134,181.237113 L124.742268,181.237113 L124.742268,179.175258 C124.742268,172.57732 119.587629,167.835052 112.989691,167.835052 L112.989691,167.835052 Z" id="Shape" fill="#FFFFFF"></path>
                <path d="M22.5931342,20.3360825 L27.2384951,20.3360825 L27.2384951,12.9835052 L34.0776703,12.9835052 L34.0776703,7.98762887 L27.2384951,7.98762887 L27.2384951,0.632989691 L22.5931342,0.632989691 L22.5931342,7.98762887 L15.7560208,7.98762887 L15.7560208,12.9835052 L22.5931342,12.9835052 L22.5931342,20.3360825 Z" id="Shape" fill="#FFFFFF"></path>
                <rect id="Rectangle-path" fill="#FFFFFF" x="125.232309" y="68.6494845" width="18.3237113" height="4.99381443"></rect>
                <path d="M187.541588,123.428866 L192.186949,123.428866 L192.186949,116.076289 L199.026124,116.076289 L199.026124,111.080412 L192.186949,111.080412 L192.186949,103.725773 L187.541588,103.725773 L187.541588,111.080412 L180.704474,111.080412 L180.704474,116.076289 L187.541588,116.076289 L187.541588,123.428866 Z" id="Shape-Copy" fill="#FFFFFF"></path>
                <rect id="Rectangle-path-Copy" fill="#FFFFFF" x="1.52096928" y="130.505155" width="18.3237113" height="4.99381443"></rect>
            </g>
        </g>
    </g>
</svg>