<?xml version="1.0" encoding="UTF-8" standalone="no"?>
<svg width="198px" height="196px" viewBox="0 0 198 196" version="1.1" xmlns="http://www.w3.org/2000/svg" xmlns:xlink="http://www.w3.org/1999/xlink" xmlns:sketch="http://www.bohemiancoding.com/sketch/ns">
    <!-- Generator: Sketch 3.3 (11970) - http://www.bohemiancoding.com/sketch -->
    <title>noun_135247_cc</title>
    <desc>Created with Sketch.</desc>
    <defs></defs>
    <g id="Page-1" stroke="none" stroke-width="1" fill="none" fill-rule="evenodd" sketch:type="MSPage">
        <g id="noun_135247_cc" sketch:type="MSLayerGroup" transform="translate(-1.144330, -2.620003)" fill="#FFFFFF">
            <g id="Group" sketch:type="MSShapeGroup">
                <path d="M6.66666667,112.5 C7.91666667,80 9.16666667,47.9166667 10.4166667,15.4166667 C11.25,7.44737605e-13 94.1666667,23.75 106.25,24.5833333 C118.333333,25.8333333 112.916667,35 112.916667,42.9166667 C112.916667,50.4166667 113.75,57.9166667 114.166667,65.4166667 C114.583333,70 116.666667,85.8333333 109.583333,87.5 C103.333333,89.1666667 96.6666667,90.8333333 90.4166667,92.5 C62.9166667,99.5833333 31.6666667,99.1666667 5.41666667,110.833333 C2.5,112.083333 5,116.666667 7.91666667,115.416667 C22.5,108.75 38.3333333,107.916667 53.75,105.833333 C71.6666667,103.333333 89.1666667,98.3333333 106.666667,93.75 C109.166667,92.9166667 118.333333,92.5 119.166667,88.75 C122.083333,77.0833333 119.583333,62.5 118.333333,50.4166667 C115.833333,17.0833333 125.833333,23.3333333 92.5,16.25 C75.4166667,12.5 58.3333333,8.75 40.8333333,6.25 C31.25,5.83333333 17.9166667,2.08333333 7.91666667,3.75 C7.08333333,3.75 6.25,4.58333333 6.25,5.41666667 C2.5,17.9166667 4.58333333,35 4.16666667,47.9166667 C3.33333333,69.5833333 2.5,90.8333333 1.66666667,112.5 C1.25,115.833333 6.66666667,115.833333 6.66666667,112.5 L6.66666667,112.5 L6.66666667,112.5 Z" id="Shape"></path>
                <path d="M43.75,24.5833333 C45.4166667,25.8333333 40.4166667,34.1666667 38.75,30 C38.3333333,28.75 37.9166667,27.0833333 37.9166667,25.4166667 C37.9166667,22.9166667 40.4166667,23.3333333 42.0833333,23.75 C45.4166667,24.1666667 45.4166667,19.1666667 42.0833333,18.3333333 C37.5,17.9166667 33.3333333,19.5833333 32.9166667,24.1666667 C32.5,27.9166667 33.3333333,32.9166667 36.25,35 C44.1666667,41.25 54.1666667,25 46.25,20 C43.75,18.3333333 40.8333333,22.9166667 43.75,24.5833333 L43.75,24.5833333 L43.75,24.5833333 Z" id="Shape"></path>
                <path d="M17.5,40 C22.0833333,42.0833333 26.6666667,44.5833333 30.8333333,47.5 C34.1666667,49.5833333 37.5,53.75 41.6666667,53.75 C50,53.75 59.5833333,45 65.4166667,40 C67.9166667,37.9166667 64.1666667,34.1666667 61.6666667,36.25 C56.6666667,40.4166667 45,51.25 38.3333333,46.6666667 C32.5,42.5 26.6666667,38.75 20,35.4166667 C17.5,34.1666667 14.5833333,38.3333333 17.5,40 L17.5,40 L17.5,40 Z" id="Shape"></path>
                <path d="M25.8333333,97.9166667 C30,91.6666667 33.75,85.4166667 37.9166667,79.1666667 C40,76.25 42.0833333,71.25 46.25,73.75 C49.5833333,75.8333333 52.5,79.1666667 54.1666667,82.9166667 C55.8333333,85.8333333 60.4166667,83.3333333 58.75,80.4166667 C55.4166667,74.5833333 48.75,66.25 41.25,67.5 C37.5,68.3333333 35,74.1666667 33.3333333,76.6666667 C29.1666667,82.9166667 25.4166667,89.1666667 21.25,95.4166667 C19.5833333,97.9166667 23.75,100.833333 25.8333333,97.9166667 L25.8333333,97.9166667 L25.8333333,97.9166667 Z" id="Shape"></path>
                <path d="M43.75,68.75 C44.5833333,63.3333333 44.5833333,58.3333333 45,52.9166667 C45,49.5833333 40,49.5833333 39.5833333,52.9166667 C39.5833333,58.3333333 39.1666667,63.3333333 38.3333333,68.75 C38.3333333,72.0833333 43.3333333,72.0833333 43.75,68.75 L43.75,68.75 L43.75,68.75 Z" id="Shape"></path>
                <path d="M61.25,63.75 C68.75,77.9166667 75,92.5 79.5833333,107.5 C80.4166667,110.833333 85.8333333,109.166667 84.5833333,106.25 C79.5833333,90.8333333 73.3333333,75.8333333 65.4166667,61.25 C64.1666667,57.9166667 59.5833333,60.4166667 61.25,63.75 L61.25,63.75 L61.25,63.75 Z" id="Shape"></path>
                <path d="M172.916667,72.5 C174.583333,80 174.583333,86.6666667 169.583333,92.5 C163.333333,99.5833333 154.166667,95 148.75,89.5833333 C143.75,84.5833333 144.583333,72.9166667 150.416667,69.1666667 C156.25,65.4166667 169.583333,66.6666667 173.333333,72.9166667 C175,75.8333333 179.583333,73.3333333 177.916667,70.4166667 C173.333333,61.25 158.333333,60 150,63.75 C140.833333,67.9166667 137.916667,80.4166667 142.916667,89.1666667 C148.333333,98.75 157.916667,103.75 168.333333,99.1666667 C180,94.1666667 180.416667,81.6666667 178.333333,70.8333333 C177.5,67.9166667 172.083333,69.1666667 172.916667,72.5 L172.916667,72.5 L172.916667,72.5 Z" id="Shape"></path>
                <path d="M124.583333,136.25 C115.833333,153.75 97.0833333,145 89.1666667,133.333333 C80,122.916667 82.5,117.5 97.0833333,117.916667 C101.25,122.916667 105,127.916667 108.75,133.333333 C110,135 112.083333,135 113.333333,133.333333 C117.916667,125.416667 124.583333,113.75 135,112.5 C144.583333,111.25 155.416667,112.5 165.416667,113.333333 C181.666667,114.166667 190,117.916667 191.666667,134.166667 C192.5,143.75 192.916667,153.333333 192.5,162.916667 C192.083333,171.25 191.666667,189.583333 178.75,190.416667 C167.916667,191.25 157.083333,191.25 145.833333,191.666667 C119.583333,192.083333 132.916667,156.25 130.833333,139.166667 C130.416667,135.833333 125,135.833333 125.416667,139.166667 C126.25,147.5 118.75,194.166667 126.666667,196.25 C137.5,199.166667 150.833333,196.666667 162.083333,196.666667 C168.333333,196.666667 185.416667,199.166667 190,194.166667 C202.916667,181.25 197.5,142.916667 195.833333,127.5 C193.333333,103.333333 168.75,108.333333 150,107.916667 C140,107.5 132.083333,106.25 124.166667,111.666667 C114.166667,118.333333 114.583333,132.5 104.166667,118.75 C100.833333,114.166667 86.6666667,100.416667 80.4166667,110.416667 C72.0833333,124.166667 87.0833333,142.083333 97.0833333,150.833333 C110.416667,162.083333 122.5,151.666667 128.333333,139.166667 C130.416667,135.833333 126.25,132.916667 124.583333,136.25 L124.583333,136.25 L124.583333,136.25 Z" id="Shape"></path>
            </g>
        </g>
    </g>
</svg>