<?xml version="1.0" standalone="no"?>
<!DOCTYPE svg PUBLIC "-//W3C//DTD SVG 1.1//EN" "http://www.w3.org/Graphics/SVG/1.1/DTD/svg11.dtd" >
<svg xmlns="http://www.w3.org/2000/svg">
<metadata>
This is a custom SVG webfont generated by Font Squirrel.
Copyright   : Copyright c 1981 1982 1983 1989 and 1993 Linotype Library GmbH or its affiliated LinotypeHell companies All rights reservedThe digitally encoded machine readable software for producing the Typefaces licensed to you is now the property of Heidelberger Druckmaschinen AG and its licensors and may not be reproduced used displayed modified disclosed or transferred without the express written approval of Heidelberger Druckmaschinen AGCopyright c 1988 1990 1993 Adobe Systems Incorporated All Rights Reserved
</metadata>
<defs>
<font id="OptimaExtraBlack" horiz-adv-x="1327" >
<font-face units-per-em="2048" ascent="1638" descent="-410" />
<missing-glyph horiz-adv-x="606" />
<glyph unicode="&#x9;" horiz-adv-x="606" />
<glyph unicode="&#xd;" horiz-adv-x="606" />
<glyph unicode=" "  horiz-adv-x="606" />
<glyph unicode="&#x09;" horiz-adv-x="606" />
<glyph unicode="&#xa0;" horiz-adv-x="606" />
<glyph unicode="!" horiz-adv-x="681" d="M127 1257q0 -66 14 -129l29 -127l115 -495h106l105 432q6 31 16 74l20 90q10 47 17.5 92t7.5 76q0 106 -57.5 161.5t-157.5 55.5q-98 0 -156.5 -53.5t-58.5 -176.5zM129 195q0 -45 16.5 -83t46 -67t68.5 -43t82 -14t82 14t68.5 43t46 67t16.5 83q0 43 -16.5 81.5 t-46 67.5t-68.5 46.5t-82 17.5t-82 -17.5t-68.5 -46.5t-46 -67.5t-16.5 -81.5z" />
<glyph unicode="&#x22;" horiz-adv-x="1062" d="M133 1466l109 -682h123l108 682h-340zM590 1466l108 -682h123l109 682h-340z" />
<glyph unicode="#" horiz-adv-x="1214" d="M10 393h205l-76 -393h215l76 393h234l-76 -393h215l76 393h204l33 182h-205l56 285h204l33 182h-205l74 385h-215l-74 -385h-233l74 385h-215l-74 -385h-205l-33 -182h205l-55 -285h-205zM463 575l55 285h234l-56 -285h-233z" />
<glyph unicode="$" horiz-adv-x="1214" d="M90 973q0 -102 26.5 -176t69.5 -124t96.5 -80t108.5 -46l141 -41v-365q-96 10 -152 38t-87 64t-44 74.5t-22 69.5h-80l-20 -143q-12 -74 -31 -146q92 -47 196.5 -76.5t239.5 -35.5q0 -51 -2 -103l-4 -102q37 6 74 6q18 0 37 -2l33 -4q-4 53 -6 103t-2 104q219 20 346 135 t127 346q0 123 -42 201t-108.5 125t-150.5 73.5t-168 49.5v368q76 0 124 -23.5t76.5 -59.5t42 -76t21.5 -70h80l24 141q10 70 29 139q-55 27 -100 46.5t-90.5 31.5t-94.5 19.5t-112 9.5q0 39 2 75.5t6 73.5q-33 -6 -68 -6t-76 6q4 -41 5.5 -75.5t1.5 -75.5 q-98 -12 -181.5 -48t-141.5 -94.5t-91 -140.5t-33 -186zM375 1116q0 47 18.5 78t45 49.5t53.5 27.5t45 13v-332q-18 6 -46 16.5t-53.5 29t-44 47t-18.5 71.5zM662 473l67 -22q31 -12 54.5 -31t37 -45.5t13.5 -69.5t-14.5 -70.5t-38 -46t-54 -29t-65.5 -18.5v332z" />
<glyph unicode="%" horiz-adv-x="1972" d="M125 1098q0 -86 29.5 -151.5t81 -110.5t122 -68t150.5 -23q90 0 162.5 26t124 72t80 110.5t28.5 144.5q0 84 -30.5 149.5t-84 110.5t-124 68.5t-150.5 23.5q-96 0 -169 -28.5t-122 -77t-73.5 -112t-24.5 -134.5zM422 1108q0 33 1 72t10 72.5t27.5 56t53.5 22.5 t53.5 -22.5t27.5 -56t10 -72.5t1 -72q0 -49 -1 -93t-10 -78t-27.5 -53.5t-53.5 -19.5t-53.5 21.5t-27.5 55.5t-10 78t-1 89zM524 -57l170 2l750 1550h-162zM1069 334q0 -86 29.5 -151.5t81 -109.5t122 -64.5t150.5 -20.5q90 0 163 22.5t124 68.5t79.5 110.5t28.5 144.5 q0 84 -30.5 149.5t-84 110.5t-124 68.5t-150.5 23.5q-96 0 -168.5 -28.5t-122 -77t-74 -111.5t-24.5 -135zM1366 344q0 33 1 72t10 72.5t27.5 56t53.5 22.5t53.5 -22.5t27.5 -56t10 -72.5t1 -72q0 -49 -1 -93t-10 -78t-27.5 -53.5t-53.5 -19.5t-53.5 21.5t-27.5 55.5t-10 78 t-1 89z" />
<glyph unicode="&#x26;" horiz-adv-x="1669" d="M66 369q0 -96 37.5 -170t100 -123t145.5 -71.5t173 -22.5q139 0 250 35.5t227 107.5l58 -64l55 -61q23 4 55 8l68 4q35 4 67.5 5t53.5 1q53 0 114 -6l129 -12v47q-12 8 -20 14.5t-18 16.5l-23 22l-37 37l-67 72l-66 72l-68 77q92 88 154 166l117 148l-31 49l-24 41 q-12 20 -23 41.5t-23 52.5h-61q-14 -53 -64.5 -152.5t-154.5 -222.5l-74 84l-82 97l-80 96q-37 49 -65 90q27 10 73 30.5t90 56.5t76.5 88t32.5 124q0 86 -38 144.5t-96 92t-130 48t-137 14.5q-86 0 -163 -22.5t-136.5 -65.5t-94 -106.5t-34.5 -145.5q0 -76 32.5 -152.5 t79.5 -136.5q-68 -35 -136 -77t-121.5 -95t-87 -120.5t-33.5 -155.5zM444 535q0 55 22.5 91t63.5 70q27 -39 80 -104l107 -135l106 -127l74 -86q-29 -18 -55.5 -30.5t-77.5 -12.5q-61 0 -118.5 29.5t-101.5 77.5t-72 107.5t-28 119.5zM688 1180q0 53 33 85.5t86 32.5 q66 0 99.5 -40.5t33.5 -102.5q0 -68 -40 -115t-95 -84q-18 20 -39 47t-38 57t-28.5 60.5t-11.5 59.5z" />
<glyph unicode="'" horiz-adv-x="606" d="M133 1466l109 -682h123l108 682h-340z" />
<glyph unicode="(" horiz-adv-x="757" d="M125 582q0 -123 34 -239t93 -222q43 -74 93 -135.5t100.5 -113.5t96.5 -91t79 -64l92 68l-47 59q-29 37 -60 92.5t-59.5 128t-46.5 171.5q-6 29 -11.5 76.5t-8.5 99t-5 99.5t-2 77q0 131 9.5 241.5t36 210t73.5 193.5t121 190l-90 70q-78 -61 -138.5 -116.5t-107.5 -111 t-84 -114.5t-70 -127q-35 -72 -54 -143.5t-29.5 -133t-12.5 -105.5t-2 -60z" />
<glyph unicode=")" horiz-adv-x="757" d="M45 -215l92 -68q37 27 82 66t90 84t88 94t76 100q74 117 117 244t43 281q0 141 -36 271t-103 247q-74 127 -159 214t-200 175l-90 -70q45 -59 89 -125.5t83 -181.5q41 -123 54.5 -235.5t13.5 -229.5q0 -174 -12.5 -303t-41 -228.5t-73.5 -177t-113 -157.5z" />
<glyph unicode="*" horiz-adv-x="833" d="M20 1010q25 -29 41.5 -50.5t29.5 -42t26 -43.5l24 -53l103 84l104 84l-10 -94q-8 -59 -35 -168q29 2 56.5 3t56 1t54.5 -1t54 -3q-29 141 -43 268l111 -90l51 -41l49 -43q12 31 21.5 51.5t20.5 41t26 42.5l37 56q-10 4 -43 16l-74 27l-80 28q-39 14 -59 23l63 27 q27 12 55 22l60 21l80 24l-37 55q-16 23 -27.5 42.5t-21.5 39.5l-25 52l-57 -50l-43 -34l-47 -35l-64 -49q8 76 19.5 142.5t25.5 123.5q-27 -4 -49 -5t-57 -1q-31 0 -58 2l-53 4q16 -66 26.5 -138.5t14.5 -127.5q-27 18 -45 32l-39 31l-51 43l-78 66q-12 -33 -22.5 -55.5 t-21.5 -43t-26 -43.5l-34 -51l73 -24l56 -21q25 -8 55 -20l74 -31q-39 -16 -93.5 -36.5t-93.5 -33.5z" />
<glyph unicode="+" horiz-adv-x="1366" d="M131 524h440v-440h224v440h440v224h-440v440h-224v-440h-440v-224z" />
<glyph unicode="," horiz-adv-x="606" d="M6 -328l78 -37l307 355q59 61 102.5 121.5t43.5 132.5q0 78 -53.5 124t-125.5 46q-49 0 -84.5 -18.5t-60.5 -49.5t-40 -68.5t-26 -76.5z" />
<glyph unicode="-" horiz-adv-x="872" d="M94 418q172 12 340 12q86 0 171 -2t171 -10l-8 69q-4 33 -4 74q0 31 4 74t8 78q-174 -12 -352 -13q-164 1 -330 13l8 -72q4 -37 4 -76q0 -35 -5 -77t-7 -70z" />
<glyph unicode="." horiz-adv-x="606" d="M90 195q0 -45 16.5 -83t46 -67t68.5 -43t82 -14t82 14t68.5 43t46 67t16.5 83q0 43 -16.5 81.5t-46 67.5t-68.5 46.5t-82 17.5t-82 -17.5t-68.5 -46.5t-46 -67.5t-16.5 -81.5z" />
<glyph unicode="/" horiz-adv-x="833" d="M2 -66h234l595 1604h-233z" />
<glyph unicode="0" horiz-adv-x="1214" d="M70 715q0 -135 27.5 -266.5t90 -234.5t166 -164.5t254.5 -61.5q154 0 256.5 63.5t165 169t89 236.5t26.5 260q0 145 -29 277t-93.5 233.5t-166.5 162t-248 60.5q-154 0 -257 -66.5t-165.5 -173t-89 -237.5t-26.5 -258zM510 715q0 180 2 294.5t12.5 179t29.5 89.5t54 25 q37 0 56.5 -25t28.5 -90.5t10.5 -179t1.5 -293.5q0 -182 -1.5 -297t-10.5 -179.5t-28.5 -87t-56.5 -22.5t-57.5 22.5t-29.5 87t-10 179t-1 297.5z" />
<glyph unicode="1" horiz-adv-x="1214" d="M92 1102q35 -39 64 -78l61 -80q55 35 113 64l119 59q6 -168 6 -338q0 -84 -1 -190.5t-4 -209.5l-7 -192q-3 -88 -7 -137q53 8 107.5 13t109.5 5q119 0 232 -18l-8 207q-2 88 -4.5 169t-3.5 170t-1 210q0 72 1 156.5t3 172.5l9 181q2 88 6 168l-56 34q-39 -29 -110 -67 l-148 -80l-149 -76q-74 -37 -121 -57l-106 -45q-51 -23 -105 -41z" />
<glyph unicode="2" horiz-adv-x="1214" d="M33 1165q76 -55 140.5 -118.5t98.5 -108.5l35 14q2 43 8.5 101.5t24.5 113t55 91t99 36.5q45 0 73.5 -21.5t46 -54t23.5 -72.5t6 -77q0 -33 -4 -79t-16.5 -98t-34 -108.5t-56.5 -109.5q-33 -49 -90 -114.5t-123 -131.5l-133 -125q-66 -59 -114 -96q4 -27 5 -51.5t3 -51.5 q0 -63 -8 -104q268 18 532 18q53 0 119 -2l133 -2q66 0 130.5 -4t117.5 -10q-6 45 -10 99.5t-4 101.5q0 43 3 84t11 88q-72 -6 -160 -10.5t-178 -7.5t-176 -4t-154 -1l142 94l131 88q63 43 125 95l90 78q47 41 85 93t63.5 116.5t25.5 148.5t-40 154.5t-110.5 122t-168 80 t-212.5 28.5q-92 0 -165.5 -13.5t-137 -46t-120 -87t-111.5 -136.5z" />
<glyph unicode="3" horiz-adv-x="1214" d="M37 180q59 -59 114.5 -97t113 -59.5t119.5 -27.5t136 -6q102 0 205.5 21.5t187.5 74.5t137.5 137t53.5 203q0 76 -28.5 134t-77 99t-109 67t-123.5 34q53 10 105.5 35.5t94.5 65.5t67.5 94.5t25.5 121.5q0 102 -51.5 171t-128 111t-169 60.5t-173.5 18.5 q-106 0 -182 -23.5t-129.5 -57.5t-89.5 -74t-62 -73l51 -43l59 -53q31 -29 58.5 -59.5t44.5 -55.5l30 5l13 100q4 27 14 61.5t29.5 65.5t49.5 52.5t71 21.5q45 0 75.5 -20.5t49 -55.5t26.5 -82t8 -100q0 -45 -6 -90.5t-24.5 -79t-51 -55t-86.5 -21.5q-16 0 -34 2l-39 4 q2 -16 3 -31.5t1 -32.5q0 -41 -8 -81q23 4 47 6t47 2q55 0 89 -23.5t52.5 -60.5t24.5 -84t6 -94q0 -51 -7.5 -101.5t-29 -91.5t-59 -66.5t-99.5 -25.5q-55 0 -93 27.5t-62.5 70.5t-34.5 94.5t-10 96.5l-41 8q-45 -72 -93 -125z" />
<glyph unicode="4" horiz-adv-x="1214" d="M47 289q111 4 215.5 6t214.5 2h45h23q12 0 22 -2v-64l-2 -77l-4 -80q-2 -41 -4 -74q51 8 101.5 13t103.5 5t107.5 -4t103.5 -14q-4 66 -6 130.5t-2 166.5l116 2q23 0 42.5 -1t41.5 -3q-4 31 -8 73t-4 81q0 37 4 75l8 80l-51 -4q-24 -2 -49 -2l-100 -2l-2 358q0 119 5 240 t9 233l-90 -12q-47 -6 -96 -6q-53 0 -95.5 5t-89.5 13l-67 -114l-70 -111l-133 -209l-68 -106l-73 -111l-76 -106q-39 -51 -72 -90l8 -68q4 -33 4 -66q0 -72 -12 -157zM250 586l323 489v-489h-323z" />
<glyph unicode="5" horiz-adv-x="1214" d="M33 94q55 -29 105 -50t100.5 -33.5t105.5 -18.5t121 -6q121 0 238.5 23.5t210 82t148.5 153.5t56 234q0 104 -42 181t-111.5 126.5t-156.5 73t-179 23.5q-119 0 -187.5 -27t-107.5 -49q12 135 18 270q16 2 35 2h37h80q47 0 123 -2h159q82 -2 156 -5t117 -7 q-6 43 -10.5 96t-4.5 101q0 39 3.5 81.5t11.5 83.5q-137 -8 -269.5 -13t-267.5 -5q-80 0 -160.5 2t-160.5 16l-45 -20q14 -104 17 -203.5t3 -204.5v-75q0 -66 -3 -145t-9 -144l94 -53q41 55 89 84.5t120 29.5q61 0 102 -23.5t65.5 -63.5t35 -91t10.5 -106 q0 -51 -12.5 -103.5t-38 -93.5t-67.5 -66.5t-103 -25.5q-111 0 -178.5 73.5t-90.5 186.5h-49q-16 -72 -42.5 -146.5t-65.5 -142.5z" />
<glyph unicode="6" horiz-adv-x="1214" d="M80 653q0 -133 31.5 -255t98 -214t171 -144t252.5 -52q119 0 215 34.5t163.5 97t104.5 147.5t37 182q0 98 -31.5 177t-87 133t-131.5 82.5t-166 28.5q-72 0 -122 -16t-109 -51q0 78 17.5 170t60.5 160q47 72 112.5 116.5t157.5 44.5q35 0 68 -4l67 -8l23 23l-21 34 q-8 14 -15 28.5t-12.5 31t-11.5 41.5q-35 4 -66.5 6t-66.5 2q-190 0 -341.5 -65.5t-262.5 -225.5q-74 -111 -104.5 -243t-30.5 -261zM504 481q0 37 2 79t12 77t32.5 58.5t63.5 23.5q35 0 56.5 -13.5t35 -47t18.5 -89t5 -139.5q0 -66 -2 -123t-12 -99t-33 -66.5t-64 -24.5 q-74 0 -94 85t-20 279z" />
<glyph unicode="7" horiz-adv-x="1214" d="M123 1036q92 14 180 18.5t180 4.5h285h37h18q10 0 21 -2l-101 -172l-172 -289l-180 -289l-96 -139l-96 -141l22 -27q33 6 71 12t83 6q84 0 170 -18q14 43 45 119l69 160l70 159l55 121l185 371q98 195 215 385l33 53l-46 59q-141 -10 -276 -14t-277 -4q-125 0 -248.5 1 t-246.5 17q6 -47 10 -95t4 -95q0 -51 -2 -100.5t-12 -100.5z" />
<glyph unicode="8" horiz-adv-x="1214" d="M78 397q0 -111 46 -189.5t122 -127.5t170 -70.5t192 -21.5q102 0 197.5 21.5t169.5 71.5t118 131t44 196q0 102 -30 167.5t-75 106.5t-95 64.5t-91 39.5q55 14 104 41t85 65t57.5 87t21.5 111q0 90 -41 156.5t-111.5 109.5t-163.5 63.5t-197.5 20.5t-195 -23.5 t-158 -67.5t-106.5 -109.5t-39 -149.5q0 -68 19.5 -117t55.5 -84t86 -58.5t110 -42.5q-59 -20 -112.5 -53t-94.5 -80t-64.5 -110.5t-23.5 -147.5zM504 426q0 47 2 97t11 92t30.5 70t60.5 28q66 0 84.5 -78t18.5 -232q0 -61 -2 -112t-12.5 -90t-31 -60.5t-57.5 -21.5 q-39 0 -60.5 29.5t-30.5 74.5t-11 99.5t-2 103.5zM514 1081q0 37 1 77t10.5 74t28.5 55.5t56 21.5q35 0 53.5 -20.5t27.5 -53.5t10 -75t1 -83q0 -39 -1 -82t-9 -78.5t-25.5 -59t-48.5 -23.5q-25 0 -43 8t-32.5 33.5t-21.5 74.5t-7 131z" />
<glyph unicode="9" horiz-adv-x="1214" d="M63 977q0 -117 38 -199t96.5 -133t128 -73.5t133.5 -22.5q72 0 140.5 21.5t107.5 50.5q-2 -82 -17.5 -168t-53.5 -157t-104.5 -117t-173.5 -46q-82 0 -125 15.5t-77 31.5l-33 -26l72 -146q45 -8 100 -14t154 -6q143 0 264 41t221 145q57 59 95 130t60.5 146.5t31.5 156.5 t9 161q0 123 -23.5 241.5t-91 223t-180 156t-235.5 51.5q-106 0 -203.5 -29t-171 -87t-118 -144t-44.5 -203zM483 1001q0 70 2 126.5t12.5 96.5t35 61.5t67.5 21.5q41 0 63.5 -27t33 -69t12.5 -93t2 -102q0 -74 -3 -131.5t-15.5 -98.5t-35 -62.5t-59.5 -21.5q-41 0 -64.5 25 t-35 66t-13.5 95t-2 113z" />
<glyph unicode=":" horiz-adv-x="645" d="M111 195q0 -45 16 -83t46 -67t69 -43t82 -14t81.5 14t68.5 43t46.5 67t16.5 83q0 43 -16.5 81.5t-46.5 67.5t-68.5 46.5t-81.5 17.5t-82 -17.5t-69 -46.5t-46 -67.5t-16 -81.5zM111 860q0 -43 16 -82t46 -68.5t69 -46t82 -16.5t81.5 16.5t68.5 46t46.5 68.5t16.5 82 t-16.5 82t-46.5 67.5t-68.5 46t-81.5 17.5t-82 -17.5t-69 -46t-46 -67.5t-16 -82z" />
<glyph unicode=";" horiz-adv-x="645" d="M6 -328l78 -37l307 355q59 61 102.5 121.5t43.5 132.5q0 78 -53.5 124t-125.5 46q-49 0 -84.5 -18.5t-60.5 -49.5t-40 -68.5t-26 -76.5zM137 860q0 -43 16.5 -82t46 -68.5t68.5 -46t82 -16.5t82 16.5t68.5 46t46 68.5t16.5 82t-16.5 82t-46 67.5t-68.5 46t-82 17.5 t-82 -17.5t-68.5 -46t-46 -67.5t-16.5 -82z" />
<glyph unicode="&#x3c;" horiz-adv-x="1366" d="M96 530l1176 -458v237l-893 328l893 330v237l-1176 -456v-218z" />
<glyph unicode="=" horiz-adv-x="1366" d="M131 336h1104v223h-1104v-223zM131 715h1104v223h-1104v-223z" />
<glyph unicode="&#x3e;" horiz-adv-x="1366" d="M96 72l1176 456v217l-1176 459v-237l893 -328l-893 -330v-237z" />
<glyph unicode="?" horiz-adv-x="872" d="M61 1405q10 -59 13.5 -105.5t5.5 -105.5h49q35 72 90 99.5t109 27.5q47 0 79.5 -27.5t32.5 -68.5q0 -47 -28 -76l-62 -59l-76 -72q-37 -33 -63.5 -68t-41.5 -77t-15 -101q0 -39 17 -87t58 -89t110 -68.5t173 -27.5q45 0 78 4t63 10l21 64q10 32 24 65l-24 16 q-16 -12 -40 -25t-65 -13q-39 0 -61.5 21.5t-22.5 55.5q0 23 14.5 42.5t38 39t54.5 41t61 45.5q51 41 86 74t55.5 64.5t30 66.5t9.5 82q0 61 -27 121.5t-81 106.5t-134 75t-184 29q-51 0 -93.5 -6t-82 -17.5t-80.5 -25.5zM219 195q0 -45 16.5 -83t46 -67t68.5 -43t82 -14 t82 14t68.5 43t46 67t16.5 83q0 43 -16.5 81.5t-46 67.5t-68.5 46.5t-82 17.5t-82 -17.5t-68.5 -46.5t-46 -67.5t-16.5 -81.5z" />
<glyph unicode="@" horiz-adv-x="1638" d="M66 670q0 -176 63.5 -306.5t166.5 -216.5t235.5 -125.5t267.5 -39.5q170 0 321.5 34.5t290.5 130.5l-59 86q-104 -80 -240.5 -114.5t-265.5 -34.5t-235.5 43t-182.5 120t-117 184.5t-41 236.5q0 133 45 253.5t126 214t195 148.5t251 55q119 0 223 -28.5t181 -89 t122 -153.5t45 -222q0 -94 -20.5 -171t-55 -132.5t-81 -85t-97.5 -29.5q-39 0 -53 21.5t-14 58.5q0 47 43 192l102 355h-199l-22 -74q-25 51 -71 72.5t-109 21.5q-98 0 -178 -44t-137.5 -114.5t-89.5 -158.5t-32 -178q0 -141 75 -209t204 -68q152 0 231 111q25 -70 76 -90.5 t121 -20.5q96 0 174 42t133 116t85 173t30 216q0 147 -56.5 259t-150.5 186.5t-219 113.5t-260 39q-172 0 -321.5 -57.5t-260 -161t-175 -245.5t-64.5 -314zM680 561q0 41 14.5 106.5t43 128t70.5 108.5t95 46q37 0 60.5 -27.5t23.5 -80.5q0 -43 -12 -113t-39 -136.5 t-68 -115.5t-98 -49q-47 0 -68.5 40t-21.5 93z" />
<glyph unicode="A" horiz-adv-x="1478" d="M-4 0l121 272l63 144l74 172l78 192l82 201l51 133l55 148l49 131l33 82q35 -8 72 -13.5t71 -5.5q37 0 74 5t72 14q23 -74 57 -172l76 -209l82 -220l78 -204l78 -193l63 -158l66 -151l75 -168q-59 12 -132.5 15t-135.5 3q-66 0 -132.5 -5t-131.5 -13q-20 78 -42 149.5 t-48 143.5q-68 0 -135.5 1t-135.5 1q-53 0 -107 -1t-108 -1q-29 -72 -49 -146l-43 -147q-35 8 -68.5 13t-70.5 5q-35 0 -68.5 -5t-62.5 -13zM418 477q23 -2 45 -2h45h90h90h45q23 0 45 2l-176 477z" />
<glyph unicode="B" horiz-adv-x="1478" d="M145 0l115 12q57 6 115 6q117 0 238.5 -9t220.5 -9q96 0 194 21.5t178 69.5t130 124t50 184q0 102 -38.5 172t-103 113t-147.5 64.5t-173 29.5v8q139 8 223 46t131 88.5t62.5 103.5t15.5 90q0 115 -54.5 183.5t-136.5 106.5t-176 50t-174 12q-94 0 -186 -9t-191 -9 q-141 0 -286 18l12 -286q0 -43 1 -81t1 -89v-125v-193v-160q0 -84 -1 -140t-4 -110.5t-6 -118t-10 -163.5zM621 322v143v221h86q98 0 146 -64.5t48 -183.5q0 -100 -20.5 -155.5t-57.5 -81t-88 -29.5t-112 -4q0 31 -1 64.5t-1 89.5zM621 844v194v125q0 49 1 79t1 56q8 2 14 2 h14h31q66 0 106.5 -17t64.5 -48t32 -74t8 -92q0 -106 -48.5 -165.5t-148.5 -59.5h-75z" />
<glyph unicode="C" horiz-adv-x="1478" d="M78 719q0 -172 61.5 -308.5t168 -231.5t250.5 -143t308 -48q154 0 269.5 29.5t207.5 62.5q14 61 31 122l35 120l-63 34q-33 -31 -72 -61.5t-86 -57t-103.5 -43t-128.5 -16.5q-125 0 -202.5 54.5t-119.5 138.5t-56.5 189.5t-14.5 205.5q2 96 21.5 191.5t65.5 171 t122 122.5t191 47q111 0 193.5 -55t109.5 -166h82l12 86q6 41 16 84q8 35 17.5 69t15.5 68q-117 45 -243 73t-248 28q-174 0 -328 -50.5t-267.5 -148.5t-179 -240.5t-65.5 -326.5z" />
<glyph unicode="D" horiz-adv-x="1669" d="M143 0l146 12q72 6 145 6q106 0 211 -9t211 -9q57 0 104.5 4t91.5 14.5t88 27.5t97 44q82 39 147.5 105.5t112.5 152.5t72.5 189.5t25.5 214.5q0 86 -17 171t-54 161.5t-92.5 143t-128.5 113.5q-119 76 -240 100.5t-262 24.5q-104 0 -203.5 -9t-204.5 -9q-61 0 -122.5 5 t-123.5 13q10 -221 14.5 -423.5t4.5 -405.5q0 -166 -6 -318.5t-17 -318.5zM621 948q0 92 2 173t6 169q53 6 98 6q74 0 141.5 -16t118.5 -72.5t82 -165t31 -292.5q0 -147 -15.5 -256t-55.5 -180.5t-107.5 -107.5t-171.5 -36h-64h-31q-14 0 -30 2q0 80 -1 181.5t-1 205.5 q0 106 -1 207.5t-1 181.5z" />
<glyph unicode="E" horiz-adv-x="1251" d="M150 1466q6 -84 10 -151.5t6 -147.5t3 -185t1 -267v-223q0 -117 -1 -192t-2 -127t-4 -91t-9 -82q125 10 249.5 14t249.5 4q123 0 247 -4t249 -14q-4 25 -7 51.5t-3 52.5q0 29 3 59t7 58l-86 -4q-51 -4 -106.5 -6t-105.5 -3t-79 -1h-143v469q80 0 145.5 -1t122.5 -3 l115 -6q57 -4 118 -9q-10 57 -10 111q0 29 3 54.5t7 54.5q-86 -6 -165.5 -10.5t-146 -6.5t-116 -3t-73.5 -1v401h215q76 0 151.5 -5t153.5 -9q-4 29 -7 57.5t-3 57t3 54.5t7 54q-55 -6 -129 -10t-154 -6l-155 -2h-136q-106 0 -212.5 5t-212.5 13z" />
<glyph unicode="F" horiz-adv-x="1214" d="M162 1466q10 -150 16 -298t6 -298q0 -221 -4 -435t-16 -435q59 8 120.5 13t121.5 5q127 0 251 -18q-6 59 -10 150.5t-7 188.5t-4 189.5t-1 153.5q61 0 124 -2t124 -6l229 -17q-4 23 -7 53.5t-3 55.5q0 27 3 57.5t7 53.5q-37 -6 -106.5 -10.5t-144.5 -6.5t-138.5 -3 t-87.5 -1q0 104 1 202.5t5 203.5q29 0 84 -1t123 -6l141 -6q74 -2 141 -6q-4 29 -7 55.5t-3 55t4 56.5t6 56q-111 -10 -233.5 -14t-233 -4t-238.5 4t-263 14z" />
<glyph unicode="G" horiz-adv-x="1630" d="M72 731q0 -184 68.5 -324.5t186 -234.5t272.5 -140t327 -46q70 0 146.5 7t152 19.5t147.5 28.5t131 33q-2 23 -4 59.5t-2 65.5q0 100 3 211.5t9 246.5q-55 -12 -115.5 -15t-117.5 -3q-53 0 -112.5 5t-121.5 13l9 -241q4 -119 4 -242q-29 -8 -55.5 -13t-61.5 -5 q-199 0 -289 138t-90 427q0 104 19.5 208.5t67.5 187.5t130 134.5t207 51.5q137 0 227 -58.5t131 -187.5h76q16 86 38 155.5t56 151.5q-135 59 -284.5 90t-296.5 31q-186 0 -343 -53.5t-271.5 -151.5t-179 -237.5t-64.5 -311.5z" />
<glyph unicode="H" horiz-adv-x="1705" d="M145 0q53 8 110.5 13t135.5 5q66 0 129.5 -4t126.5 -14q-6 68 -10 162t-6 191.5t-3 184.5t-1 142q53 2 112.5 3t112.5 1q57 0 114.5 -2t112.5 -2q0 -53 -1 -140t-3 -184.5t-7 -192.5t-13 -163q59 8 117.5 13t117.5 5q137 0 269 -18q-4 111 -7 211l-8 203q-2 102 -4 215.5 t-2 251.5q0 182 5 319t18 266q-53 -8 -124 -13t-128.5 -5t-127 6t-124.5 12q6 -70 10 -146.5t7 -152t4 -148.5t1 -134q-57 0 -116.5 -2t-112.5 -2q-61 0 -118.5 1t-104.5 3q0 59 1 129.5t4 147.5t7 155t10 149q-53 -8 -123.5 -13t-128.5 -5q-59 0 -127.5 6t-124.5 12 q10 -100 14.5 -184t4.5 -154q0 -25 1 -88t1 -137q0 -72 1 -136t1 -91v-152l-2 -162q-2 -78 -5 -146.5t-7 -113.5z" />
<glyph unicode="I" horiz-adv-x="796" d="M147 1466q8 -86 12.5 -176t4.5 -162q0 -41 1 -101t1 -126q0 -63 1 -123.5t1 -101.5q0 -172 -5 -338t-16 -338q51 6 115 12t129.5 6t132 -4t123.5 -14q-14 147 -17 326.5t-3 353.5v205q0 147 6 290.5t16 290.5q-53 -8 -120.5 -13t-131.5 -5q-57 0 -126.5 6t-123.5 12z" />
<glyph unicode="J" horiz-adv-x="796" d="M-41 -156q8 -33 8 -71q0 -20 -2 -41t-6 -41q68 0 125 2t109.5 9t99.5 20.5t96 35.5q102 47 156.5 108.5t81 132.5t31 156t4.5 179l-3 205q0 236 5.5 464t15.5 463q-63 -10 -121.5 -14t-124 -4t-129 5t-129.5 13q16 -248 22.5 -492.5t6.5 -492.5q0 -33 -1 -87t-2 -114.5 t-3 -119t-4 -97.5q-4 -78 -28 -122.5t-57.5 -66t-72.5 -26t-78 -4.5z" />
<glyph unicode="K" horiz-adv-x="1478" d="M139 0l123 12q63 6 125 6q51 0 119.5 -5t120.5 -13q-4 80 -7.5 171t-5.5 179t-3 163t-1 120l199 -359l39 -71l39 -74l37 -72l28 -57q61 10 142.5 14t144.5 4q33 0 68.5 -2t69.5 -5t65 -7l47 -4v27q0 6 -8 16l-19 23q-8 10 -37 57l-75 119l-97 159l-108 181l-107 180 l-90 164q174 197 348 372q35 37 73 71t73 69v28q-37 -10 -71 -14t-71 -4q-86 0 -170 18l-114 -153l-98 -125l-107 -127l-135 -152l-66 -73q0 61 1 138t4 160t7.5 167.5t10.5 164.5q-117 -18 -234 -18q-66 0 -129 5t-129 13q16 -184 18.5 -356t2.5 -346v-199q0 -150 -5 -297 t-18 -268z" />
<glyph unicode="L" horiz-adv-x="1175" d="M141 0q154 10 297.5 14t253.5 4q100 0 201.5 -4t230.5 -14q-4 29 -7 56.5t-3 56.5q0 37 3 66.5t7 51.5q-49 -8 -124.5 -12t-150.5 -7t-136.5 -4t-81.5 -1q0 25 -1 90t-1 139t-1 140.5t-1 95.5v94q0 72 1 170t4 198.5t6 189.5t9 142q-61 -10 -119.5 -14t-121.5 -4 q-133 0 -263 18q10 -80 12.5 -179t6.5 -193l4 -140q2 -66 3 -137.5t2 -152t1 -179.5v-106q0 -88 -6 -188.5t-25 -190.5z" />
<glyph unicode="M" horiz-adv-x="2009" d="M29 0q35 8 67.5 13t67.5 5q66 0 127 -18q4 88 14 196.5t27 243.5l28 230q14 111 37 223q35 -86 74 -167t74 -167q55 -141 115.5 -276.5t111.5 -276.5q29 4 54.5 7t47.5 3q29 0 52.5 -3t48.5 -7q66 182 152 389t178 406l49 108q12 -74 26.5 -177t24.5 -204 q14 -135 25.5 -264t21.5 -264q59 8 120.5 13t123.5 5q63 0 123.5 -5t126.5 -13q-14 55 -31 143t-31 195l-33 225q-16 119 -28 234l-27 221q-12 104 -20 184l-25 264q-47 -12 -96 -15t-96.5 -3t-92.5 4t-90 14q-76 -215 -170 -438l-188 -436l-60 127l-69 149l-70 164l-67 160 l-60 151q-27 70 -45 123q-49 -10 -94 -14t-96 -4q-47 0 -94.5 4t-94.5 14l-6 -82q-14 -186 -40.5 -382.5t-61.5 -376.5l-60 -314q-30 -155 -71 -311z" />
<glyph unicode="N" horiz-adv-x="1630" d="M131 0q39 8 72 13t67 5q39 0 67 -5t56 -13l-8 168q-6 92 -10 184t-7 176t-3 142v213l88 -92l86 -95l112 -129l117 -133l117 -133l123 -143l133 -158q33 6 71.5 12t85.5 6q45 0 90.5 -5t77.5 -13q-4 82 -6 164t-2 164q0 211 4 413.5t13 413.5q4 78 10 156t10 155 q-31 -10 -59.5 -14t-63.5 -4q-37 0 -67.5 4t-71.5 14l8 -127l4 -125q4 -63 6 -129.5t4 -142.5q2 -92 5.5 -179t3.5 -179l-76 82l-68 77l-69 76l-80 84l-105 115l-125 139l-131 154q-68 80 -125 155q-39 -8 -77.5 -13t-79.5 -5q-43 0 -87 5t-87 13q10 -180 13 -348t3 -348 q0 -88 -3 -186.5t-8 -198.5t-12.5 -198.5t-15.5 -186.5z" />
<glyph unicode="O" horiz-adv-x="1820" d="M76 733q0 -178 64.5 -318.5t177 -235.5t262 -143t317.5 -48q178 0 333.5 44t269.5 138t179.5 236.5t65.5 334.5q0 182 -64.5 320.5t-178 233t-267.5 142.5t-330 48t-327.5 -48t-263 -143.5t-175 -235.5t-63.5 -325zM567 766q0 84 12.5 181t49.5 179t103.5 136.5 t174.5 54.5q115 0 183.5 -57.5t104.5 -144.5t47 -188.5t11 -189.5q0 -55 -4 -120.5t-16 -130t-34.5 -126t-59.5 -107.5t-90 -74.5t-127 -28.5q-82 0 -140.5 27.5t-98.5 75.5t-62.5 109.5t-35 130t-15.5 139t-3 134.5z" />
<glyph unicode="P" horiz-adv-x="1441" d="M135 0q70 8 138.5 13t138.5 5q57 0 114 -6l115 -12q-6 31 -10 109.5t-6 175t-3 191.5t-1 157q33 -4 82 -7t120 -3q111 0 212.5 21.5t180 72.5t126 136t47.5 210q0 121 -49.5 198.5t-127 123t-177 63.5t-197.5 18q-100 0 -208 -9t-214 -9q-61 0 -134 4t-141 14 q6 -92 10.5 -196.5t7.5 -209t4 -201.5t1 -173q0 -100 -1 -183t-4 -162t-10 -161zM621 791v120v117q0 59 1 124t1 142q16 2 33.5 3t35.5 1q45 0 85 -9t71 -35.5t49 -74.5t18 -128q0 -55 -10 -104.5t-34.5 -84.5t-66.5 -55.5t-106 -20.5h-41q-10 0 -18 1t-18 4z" />
<glyph unicode="Q" horiz-adv-x="1820" d="M76 733q0 -186 75.5 -340.5t223.5 -259.5q55 -37 117.5 -64.5t125 -46t121 -25.5t103.5 -7l145 -99l146 -102l133 -100l135 -101l151 84q74 39 156 76v19l-123 63q-62 33 -121 70l-219 129q121 39 214 107.5t156.5 160.5t96.5 204.5t33 239.5q0 182 -64.5 320.5t-178 233 t-267.5 142.5t-330 48t-327.5 -48t-263 -143.5t-175 -235.5t-63.5 -325zM567 766q0 84 13.5 181t50.5 179t104.5 136.5t173.5 54.5q102 0 169 -48t106 -129t54 -185.5t15 -217.5q0 -55 -4 -119.5t-16 -130t-34.5 -126t-59.5 -107.5t-90.5 -74.5t-126.5 -27.5q-123 0 -195 60 t-106.5 151.5t-44 200t-9.5 202.5z" />
<glyph unicode="R" horiz-adv-x="1517" d="M143 0q70 8 132.5 13t119.5 5q63 0 123 -5t119 -13q-8 160 -11 329t-3 304h6q98 -160 182 -318l164 -315q68 8 129 13t131 5q72 0 143.5 -5t143.5 -13l-103 152l-106 165l-103 166l-94 156l-45 76q147 31 236.5 117t89.5 241q0 127 -52.5 204t-135.5 119t-186 56t-206 14 q-98 0 -195.5 -9t-195.5 -9q-66 0 -136.5 4t-142.5 14q6 -137 10.5 -273t6.5 -259t3 -224.5t1 -168.5q0 -147 -7 -292t-18 -249zM623 795v499q16 2 32.5 3t32.5 1q37 0 79 -6t77 -31.5t58.5 -74.5t23.5 -135q0 -119 -50.5 -189.5t-177.5 -70.5h-36q-10 0 -19.5 1t-19.5 3z " />
<glyph unicode="S" horiz-adv-x="1214" d="M106 70q61 -23 114.5 -39.5t106 -24.5t107.5 -13t123 -5q121 0 225.5 27.5t180 89t118.5 155.5t43 223q0 147 -59 247.5t-197 160.5l-157 70l-105 45q-49 20 -84 42.5t-55.5 50t-20.5 66.5q0 41 20.5 69t52.5 45t70 25.5t70 8.5q111 0 179.5 -63.5t85.5 -155.5h82 q6 72 27.5 153.5t51.5 151.5q-104 39 -212.5 63.5t-219.5 24.5q-113 0 -212 -30t-172.5 -89t-116.5 -149.5t-43 -212.5q0 -156 86 -263.5t223 -164.5q102 -43 169.5 -75t108.5 -60.5t57.5 -57.5t16.5 -66q0 -39 -18.5 -67.5t-48 -46t-66.5 -25.5t-74 -8q-59 0 -113.5 16.5 t-97.5 46t-72.5 72.5t-39.5 96h-84q-4 -57 -9.5 -100t-11.5 -81l-12 -75z" />
<glyph unicode="T" horiz-adv-x="1251" d="M10 1233q94 10 188.5 15t192.5 5q4 -102 6 -203.5t2 -179.5v-88v-182q0 -76 -1 -158t-4 -161.5t-7 -151.5t-10 -129l92 10q59 8 145 8q29 0 89.5 -4t166.5 -14q-6 100 -10 194.5t-4 192.5l-4 203v223v111q0 88 1 175t5 154q98 0 192.5 -5t188.5 -15q-4 20 -8 49t-4 59 q0 39 4 70t8 55q-162 -14 -315.5 -16t-300.5 -2q-154 0 -306.5 2t-306.5 16q4 -35 8.5 -62.5t4.5 -53.5q0 -61 -13 -117z" />
<glyph unicode="U" horiz-adv-x="1630" d="M135 1466q16 -184 19.5 -387t3.5 -461q0 -334 163.5 -482t495.5 -148q162 0 296 46t226 150q45 53 72 107.5t41 117t18.5 136t4.5 166.5q0 53 2 142t6 193.5t9 215t11 204.5q-35 -8 -69.5 -13t-73.5 -5q-41 0 -80 6l-80 12q14 -160 19.5 -301t5.5 -270v-147v-74 q0 -37 -2 -74q-2 -70 -8.5 -125t-34.5 -110q-35 -68 -105.5 -102t-144.5 -34q-117 0 -181.5 41t-93 113t-34 168t-5.5 209v137q0 66 2.5 144.5t5.5 156.5t8 148.5t13 119.5q-63 -10 -125.5 -14t-128.5 -4q-68 0 -128 4t-128 14z" />
<glyph unicode="V" horiz-adv-x="1441" d="M16 1466q14 -25 41 -90l66 -157l82 -205l90 -232l88 -237l82 -223l67 -189q29 -84 43 -133q35 10 71 14t71 4q74 0 147 -18l86 236l82 213l84 215l92 235l119 285l125 282l-66 -12q-33 -6 -77 -6q-35 0 -70 4t-72 14q-29 -113 -65 -221l-70 -221l-88 -262l-80 -223 q-53 127 -106 280l-99 289l-73 238l-35 120q-123 -18 -250 -18q-72 0 -142.5 5t-142.5 13z" />
<glyph unicode="W" horiz-adv-x="2048" d="M14 1466q66 -184 123 -368l103 -320l96 -319l67 -230q31 -113 58 -229q35 8 78 13t77 5q37 0 75 -5t73 -13q8 41 24 94l33 113q18 59 41 121l39 118l37 107l31 86q12 41 26 80l31 84q23 -66 42 -132.5t42 -131.5l90 -269l86 -270q41 8 72 13t71.5 5t74.5 -5t75 -13 l47 170l45 160q23 80 53 174l70 215l59 178l70 207l72 199q35 96 63 163q-33 -10 -62.5 -14t-68.5 -4q-57 0 -137 18q-23 -86 -41 -170t-41 -170l-33 -120l-33 -125l-34 -121q-16 -57 -31 -103l-21 -65q-37 96 -72.5 206.5t-68.5 224.5t-60.5 227.5t-47.5 215.5 q-35 -10 -71 -14t-71 -4q-70 0 -141 18l-57 -211q-27 -100 -58 -196l-61 -195l-68 -202l-22 -66q-70 223 -125 436t-96 434q-59 -6 -126 -12t-137 -6q-53 0 -123.5 4t-136.5 14z" />
<glyph unicode="X" d="M0 0q31 8 66.5 13t72.5 5q76 0 152 -18l106 188l109 185l53 90l117 -232l110 -231q55 8 131 13t138 5q25 0 60.5 -2t74.5 -6l74 -6l61 -4l-125 209l-133 240l-123 227q-55 106 -86 172l123 182l109 154l104 139l113 143l-70 -12q-35 -6 -78 -6q-41 0 -78 6t-69 12 q-53 -111 -119 -217l-131 -213q-59 106 -112.5 213t-98.5 217q-61 -8 -125 -13t-127 -5q-143 0 -289 18l107 -192l119 -213l118 -213l109 -193q-106 -166 -223 -329z" />
<glyph unicode="Y" horiz-adv-x="1402" d="M14 1466l103 -182l104 -180l111 -203l104 -203q23 -41 34 -65.5t11 -40.5q0 -31 -1 -99.5t-3 -153.5t-6 -175t-10 -164q63 8 124.5 13t125.5 5q51 0 111.5 -3t133.5 -15q-14 119 -20 236.5t-6 240.5q0 43 1 86t3 86l29 56l202 385q102 190 219 376q-29 -8 -66.5 -13 t-76.5 -5q-35 0 -70 6l-69 12q-55 -154 -123 -303l-137 -295l-113 228l-76 153q-31 66 -51 115t-39 102q-53 -10 -122.5 -14t-135.5 -4q-68 0 -141.5 4t-149.5 14z" />
<glyph unicode="Z" horiz-adv-x="1366" d="M29 0q166 12 333.5 15t335.5 3q160 0 315.5 -4t315.5 -14q-12 61 -12 117q0 29 4 59l8 64q-178 -14 -343 -19.5t-351 -5.5l199 360l65 119l84 146l94 155l94 152l84 135q39 59 68 96v88q-291 -18 -582 -18q-156 0 -322.5 3t-332.5 15q12 -63 12 -126.5t-12 -110.5 q74 6 136.5 10t130 7t150.5 4t195 1l-182 -338q-88 -166 -186 -331l-148 -246l-153 -242v-94z" />
<glyph unicode="[" horiz-adv-x="757" d="M131 -236q88 8 163 9.5t138 1.5q86 0 150.5 -2t124.5 -9q-6 49 -7 82q0 18 1 42t6 42l-109 -4q-55 -2 -123 -4l-6 105q-2 63 -4 139l-2 153v152v162q0 129 3 307t11 369h47q41 0 92.5 -2t92.5 -7l-4 43q-2 20 -3 43q0 37 7 80q-72 -4 -143.5 -7t-143.5 -3q-92 0 -159.5 3 t-129.5 7q6 -84 10 -201.5t4 -244.5l5 -246v-213q0 -205 -3.5 -398.5t-17.5 -398.5z" />
<glyph unicode="\" horiz-adv-x="833" d="M2 1538l596 -1604h233l-595 1604h-234z" />
<glyph unicode="]" horiz-adv-x="757" d="M41 -70l4 -43q2 -20 2 -43q0 -37 -6 -80q72 4 143.5 7.5t143.5 3.5q92 0 159.5 -3t128.5 -8q-6 84 -10 199t-4 242l-4 246v213q0 205 3 401.5t17 400.5q-88 -8 -162.5 -9t-138.5 -1q-86 0 -150.5 2t-123.5 8q6 -49 6 -82q0 -18 -1 -41.5t-5 -42.5l109 5q55 2 122 4 q4 -43 6.5 -108.5t4.5 -139.5l2 -156v-151v-162v-141l-2 -168q-2 -86 -5.5 -179.5t-7.5 -181.5h-47q-41 0 -92 1t-92 7z" />
<glyph unicode="^" horiz-adv-x="1366" d="M203 590h235l246 575l246 -575h235l-372 837h-218z" />
<glyph unicode="_" horiz-adv-x="1024" d="M0 -150v-102h1024v102h-1024z" />
<glyph unicode="`" horiz-adv-x="569" d="M-51 1495q0 -27 11 -49.5t27.5 -39.5t39.5 -32l43 -26l249 -144h138l-228 307q-29 39 -67.5 68t-91.5 29q-51 0 -86 -28t-35 -85z" />
<glyph unicode="a" horiz-adv-x="1175" d="M47 272q0 -76 24.5 -129t68.5 -88t104.5 -49t130.5 -14q78 0 154.5 26.5t132.5 79.5q16 -20 36.5 -40.5t47 -36t63.5 -22.5t88 -7q66 0 143.5 23.5t135.5 66.5l-5 29q-2 12 -2 26q0 16 2.5 30.5t4.5 31.5q-39 -23 -76 -23q-27 0 -41.5 13.5t-21.5 38t-8 56t-1 68.5 t2 89.5t3 108.5t3 110.5t2 93.5q0 66 -26.5 125t-82 103t-140 70.5t-201.5 26.5q-127 0 -232.5 -28.5t-216.5 -87.5l41 -183l60 -4q35 61 96 86t129 25q37 0 69.5 -5t57 -20.5t38 -43t13.5 -70.5q0 -29 -8 -47.5t-31.5 -33t-67.5 -27.5t-116 -32q-80 -23 -148.5 -47 t-119 -61t-78 -91.5t-27.5 -136.5zM453 317q0 49 6 81t25.5 56.5t56.5 44t96 42.5v-262q0 -41 -25.5 -68t-72.5 -27q-51 0 -68.5 40t-17.5 93z" />
<glyph unicode="b" d="M102 0q31 8 66 8q18 0 35.5 -3t38.5 -5l69 74l76 69q31 -39 64.5 -68.5t74.5 -49t92.5 -26.5t116.5 -7q127 0 226.5 43t167 122t102.5 185t35 227q0 117 -36 211t-98.5 161t-145.5 102.5t-177 35.5q-98 0 -158.5 -32.5t-105.5 -65.5q2 123 4 214t4 159.5t6 117t10 84.5 q-53 -8 -118.5 -13t-123 -5t-112.5 4t-111 14q4 -92 7 -196l6 -209q4 -102 6 -196.5t2 -166.5q0 -199 -6 -394t-17 -394zM535 504q0 88 6 159.5t21.5 123t43 79t72.5 27.5q29 0 53.5 -12.5t42 -51t27.5 -108.5t10 -184q0 -63 -2 -137t-15.5 -135.5t-42 -102.5t-81.5 -41 q-45 0 -73 28.5t-41 79t-17 121t-4 154.5z" />
<glyph unicode="c" horiz-adv-x="1062" d="M59 530q0 -111 36 -209t106.5 -170.5t175 -112.5t239.5 -40q47 0 97.5 4t96.5 14.5t83 23.5t57 26q20 66 35.5 107.5t38.5 88.5l-63 41q-37 -45 -90.5 -76.5t-112.5 -31.5q-76 0 -122 40.5t-68.5 99t-30 122t-7.5 108.5q0 47 6.5 108.5t26 116t58 91.5t102.5 37 q41 0 68.5 -15.5t46 -40t30 -57.5t17.5 -68h76q6 37 12 66l14 57q8 29 17 58l20 65q-88 41 -181 68.5t-192 27.5q-121 0 -228.5 -34.5t-188 -103.5t-128 -172t-47.5 -239z" />
<glyph unicode="d" d="M59 516q0 -92 26 -186t81 -170t142 -121t210 -45q51 0 91 5t76 20.5t66.5 41t63.5 64.5q0 -63 -6 -125q53 8 104.5 13t104.5 5q51 0 101 -5t104 -13q-6 76 -10.5 152.5t-6.5 166t-3 197t-1 242.5q0 190 2 399t17 399q-113 -18 -236 -18q-59 0 -110.5 4t-108.5 14 q6 -147 10 -290.5t4 -290.5l-43 35q-25 18 -56.5 33.5t-73.5 25.5t-97 10q-61 0 -139 -26.5t-147.5 -92t-117 -173t-47.5 -271.5zM514 516q0 80 5 148.5t20.5 120t43 81t72.5 29.5q74 0 103.5 -81t29.5 -271q0 -80 -4 -149.5t-18 -120t-41 -79t-74 -28.5q-43 0 -69.5 27.5 t-42 75.5t-20.5 111.5t-5 135.5z" />
<glyph unicode="e" horiz-adv-x="1175" d="M59 541q0 -51 9.5 -111.5t34 -121t65.5 -118t105.5 -100.5t154.5 -67.5t211 -24.5q92 0 188.5 18.5t178.5 57.5q8 29 15 50t15 41.5t19 41.5l24 47l-51 55q-25 -27 -58.5 -48t-70.5 -36.5t-76 -25t-71 -9.5q-68 0 -117 27t-81 72t-46 101t-14 118q221 6 442 6q45 0 92 -2 t88 -4q-4 92 -18.5 191.5t-75.5 187.5q-74 98 -183.5 145t-232.5 47q-141 0 -243.5 -43t-170 -115.5t-100.5 -171t-33 -208.5zM494 651q0 47 2 98.5t13 93.5t35.5 69.5t69.5 27.5q43 0 65.5 -26.5t33 -68.5t11.5 -93.5t1 -100.5h-231z" />
<glyph unicode="f" horiz-adv-x="720" d="M-10 887q35 4 72.5 7t78.5 3q2 -39 3 -76t1 -76v-149v-135q0 -109 -2 -229.5t-12 -231.5l111 12q55 6 110 6q66 0 125.5 -5t108.5 -13q-8 227 -12.5 447.5t-4.5 449.5q47 0 91.5 -3t91.5 -7q-10 45 -11 90q0 20 3.5 36.5t7.5 33.5q-53 -6 -104.5 -7.5t-104.5 -1.5l-49 56 q-27 31 -49.5 61.5t-38 59t-15.5 51.5q0 43 36 59t71 16q70 0 123 -21t104 -50l29 12q4 76 12 147.5t27 143.5q-29 4 -64 7t-70 3q-31 0 -69.5 -5t-83.5 -20.5t-93 -43t-95.5 -72.5t-78 -90t-49 -93.5t-29.5 -101.5t-20 -119q-41 0 -79 3l-72 6q4 -14 7 -36t3 -38 q0 -35 -10 -86z" />
<glyph unicode="g" horiz-adv-x="1214" d="M35 -246q0 -66 29.5 -113t76.5 -78.5t104.5 -52t115 -30.5t106.5 -13.5t78 -3.5q117 0 232.5 30t208.5 93.5t150.5 158.5t57.5 228q0 106 -46 167t-110.5 88.5t-133 32.5t-116.5 5h-129q-133 0 -183 10.5t-50 59.5q0 23 18.5 47.5t42.5 24.5q10 0 40 -5.5t91 -5.5 q78 0 161 16.5t150.5 55.5t111.5 102.5t44 155.5q0 53 -14 91t-43 79q35 0 88 -4t88 -8q-10 37 -10 82q0 20 4 41.5t8 38.5l-116 -7q-80 -4 -172 -4q-8 0 -30 3t-46 8l-45 8l-31 6q-47 8 -96 13t-98.5 5t-133.5 -10t-166 -45t-141 -101.5t-59 -179.5q0 -74 24.5 -126 t59 -87.5t73.5 -55t66 -28.5q12 -4 31.5 -9t-1 -10t-64.5 -24.5t-81 -50t-60.5 -72.5t-23.5 -98q0 -86 47 -134t123 -77q-39 -12 -80 -27.5t-74.5 -40t-55 -60.5t-21.5 -89zM324 -201q0 57 25.5 88t53.5 54h179q66 0 117 -3.5t86.5 -16.5t54 -43t18.5 -83q0 -49 -24.5 -84 t-64.5 -56.5t-87 -30.5t-94 -9q-264 0 -264 184zM494 748q0 23 2 58.5t11 69t29.5 58t59.5 24.5q37 0 57.5 -23.5t29.5 -55t11 -66.5t2 -59q0 -51 -2 -94.5t-12 -75t-30.5 -50t-55.5 -18.5q-39 0 -59.5 21.5t-29.5 55.5t-11 75t-2 80z" />
<glyph unicode="h" d="M104 0l113 12q55 6 111 6q59 0 115.5 -5t115.5 -13q-6 63 -9 139t-3 195v184q0 55 2 110.5t12 98.5t33.5 70.5t67 27.5t67 -19.5t34.5 -52t13 -71.5t2 -80q0 -154 -4 -301t-12 -301l110 12q59 6 113 6q63 0 121.5 -7t101.5 -11q-2 31 -4 74v86q-2 45 -2 90v88v98v72 q0 39 1 77t1 72v62q0 180 -86 270t-270 90q-78 0 -162 -37.5t-143 -117.5l-4 2q0 45 2 118.5t6 161.5l6 178q2 92 6 172q-55 -10 -111.5 -14t-114 -4t-114.5 4t-115 14q4 -76 7 -139l8 -119q2 -57 3 -113.5t1 -119.5v-649q0 -104 -6 -211z" />
<glyph unicode="i" horiz-adv-x="681" d="M109 0l108 12q55 6 109 6q59 0 119.5 -5t119.5 -13q-2 43 -5 95t-3 108l-4 110v103v110q0 98 3 238.5t15 308.5q-113 -18 -231 -18q-59 0 -115.5 4t-113.5 14l8 -98q2 -43 4 -94.5t3 -123t1 -188.5q0 -119 -1 -196q-1 -76 -2 -134.5t-5 -111.5zM125 1376q0 -43 17.5 -82 t47 -68.5t68.5 -47t84 -17.5q43 0 82 17.5t68.5 46t47 68.5t17.5 83t-17.5 83t-47 68.5t-68.5 46t-82 17.5q-45 0 -84 -17.5t-68.5 -47t-47 -68.5t-17.5 -82z" />
<glyph unicode="j" horiz-adv-x="681" d="M-70 -393q4 -35 9.5 -67t5.5 -66q117 10 230.5 38.5t200.5 86t139 149.5t52 227q0 88 -2 180.5t-2 184.5q0 186 4 366.5t17 366.5q-55 -8 -110.5 -13t-111.5 -5q-59 0 -119.5 4t-117.5 14q6 -49 10 -111.5t4 -125.5l4 -127v-113v-498q0 -106 -4 -192t-14 -133 q-6 -23 -18.5 -49.5t-35 -51t-55 -43t-86.5 -22.5zM139 1376q0 -43 16.5 -82t46 -68.5t68.5 -47t84 -17.5q43 0 83 17.5t69 46t46 68.5t17 83t-17 83t-46 68.5t-69 46t-83 17.5q-45 0 -84 -17.5t-68.5 -47t-46 -68.5t-16.5 -82z" />
<glyph unicode="k" horiz-adv-x="1214" d="M104 0q53 6 116 12t116 6q57 0 113.5 -5t111.5 -13q-10 147 -16 259t-6 210l231 -469q117 18 238 18q115 0 225 -18v39q-10 10 -16.5 21.5t-14.5 23.5l-344 618l170 179l164 163v29q-41 -8 -74 -13t-76 -5q-39 0 -73.5 4t-75.5 14q-33 -55 -78 -115l-90 -114l-96 -115 l-92 -108v90q0 215 5 425t17 420q-41 -8 -94 -13t-131 -5q-76 0 -132.5 5t-97.5 13q8 -123 13.5 -245.5t5.5 -245.5v-649q0 -104 -6 -207z" />
<glyph unicode="l" horiz-adv-x="681" d="M109 0l116 12q57 6 114.5 6t114 -5t111.5 -13q-2 43 -4 104.5t-4 131t-3 140t-1 134.5v510q0 141 5 277.5t9 258.5q-57 -10 -113.5 -14t-115.5 -4q-57 0 -114.5 4t-114.5 14l10 -159q4 -66 4 -119l4 -104v-109v-649q0 -104 -6 -211z" />
<glyph unicode="m" horiz-adv-x="1933" d="M106 0l109 12q55 6 111 6q59 0 114 -6l117 -12q-4 59 -6 124.5t-2 125.5v350q0 41 2 82t11 72.5t31.5 51t61.5 19.5q37 0 57.5 -16t30 -53t11.5 -96.5t2 -145.5q0 -129 -4 -257t-13 -257l117 12q59 6 119 6q53 0 106 -6l109 -12q-6 78 -9 183.5t-3 211.5v142q0 74 2 128 t13 90t34.5 53t64.5 17q35 0 53.5 -18.5t27.5 -53t10 -83.5t1 -113q0 -96 -1 -175t-3 -144.5t-5 -124t-5 -113.5l109 12q55 6 110 6q53 0 110.5 -5t115.5 -13q-6 92 -7.5 168t-1.5 141v74q0 66 2 139.5t2 118.5q1 21 1 42q0 67 -10 127q-13 79 -51 139.5t-103.5 95 t-167.5 34.5q-43 0 -90.5 -10t-90.5 -31.5t-80.5 -55.5t-64.5 -83q-41 92 -122 136t-179 44q-68 0 -118 -14t-87 -39t-65.5 -54.5t-55.5 -60.5l11 162q-53 -10 -105.5 -14t-106 -4t-108.5 5t-108 13q12 -141 15 -260t3 -217q0 -45 -1 -121t-3 -161t-6 -169t-11 -145z" />
<glyph unicode="n" d="M106 0l111 12q53 6 109 6q59 0 115.5 -7t115.5 -11q-6 63 -9 139t-3 195v184q0 57 2 112.5t13 98.5t34.5 69.5t69.5 26.5q41 0 63.5 -19.5t33.5 -52t13 -71.5t2 -80q0 -154 -4 -301t-12 -301q53 8 112.5 13t112.5 5q55 0 110.5 -5t110.5 -13q-4 66 -5 149.5t-1 159.5v88 v78q0 43 1 88t1 88v78q0 172 -88 261t-260 89q-55 0 -98 -10t-82 -31.5t-75 -52.5t-73 -72q10 80 13 160q-104 -18 -213 -18q-53 0 -109.5 5t-107.5 13q10 -96 14 -182t4 -197v-162q0 -135 -4 -268t-17 -264z" />
<glyph unicode="o" d="M61 537q0 -139 44.5 -241.5t124 -169.5t190 -97.5t242.5 -30.5q127 0 237.5 31.5t191 99.5t128 170t47.5 240q0 111 -38 209t-113 172.5t-187.5 117.5t-259.5 43q-125 0 -234.5 -34.5t-192.5 -103.5t-131.5 -171t-48.5 -235zM524 553q0 84 4 156.5t18.5 125t42 82 t75.5 29.5q51 0 78.5 -34.5t41 -92t16.5 -131t3 -151.5q0 -80 -2 -154t-15.5 -131t-41 -91t-80.5 -34q-51 0 -80 37t-42.5 97.5t-15.5 137t-2 154.5z" />
<glyph unicode="p" d="M106 -537q57 8 115 13.5t113 5.5q59 0 111.5 -5t115.5 -14l-4 84q-4 49 -6 105l-4 115q-2 59 -2 112v217q53 -63 115.5 -83.5t154.5 -20.5q113 0 198 46t141 124t85 177t29 202q0 104 -31 201.5t-91.5 172t-147.5 119.5t-199 45q-92 0 -154.5 -32.5t-122.5 -98.5l8 125 q-98 -18 -200 -18q-55 0 -111 6l-110 12q6 -129 9 -219t5 -179t2 -200v-282q0 -174 -4 -358.5t-15 -371.5zM537 532q0 55 3 119t16 118t42 90t78 36q51 0 78.5 -38t41 -95t15.5 -124t2 -126q0 -188 -32.5 -268t-104.5 -80q-31 0 -56.5 16.5t-44 58.5t-28.5 112t-10 181z" />
<glyph unicode="q" d="M59 541q0 -98 28 -197.5t83 -178.5t140 -126t200 -47q61 0 102 7t71 21.5t52 34.5l47 41v-217q0 -104 -5 -207.5t-11 -208.5q57 8 113.5 13.5t116 5.5t113.5 -4t112 -15l-11 166q-2 31 -4 90.5t-3 134t-1 152.5v156v131v88q0 135 1 272.5t7 259.5l9 160 q-57 -8 -109.5 -13t-105.5 -5q-59 0 -109.5 5t-97.5 13l6 -125q-16 18 -39 41t-55.5 43.5t-79.5 33.5t-113 13q-98 0 -182 -41t-145.5 -112.5t-95.5 -170t-34 -214.5zM514 512q0 203 29.5 293t107.5 90q51 0 79 -36t41 -91t15 -121.5t2 -126.5q0 -174 -28.5 -265t-108.5 -91 q-51 0 -78.5 34.5t-41 87t-15.5 114t-2 112.5z" />
<glyph unicode="r" horiz-adv-x="948" d="M111 0l110 12q55 6 111 6q59 0 119.5 -5t119.5 -13q-8 123 -12 240.5t-4 240.5q0 51 6 96.5t24.5 79t55.5 53t98 19.5q45 0 81 -11t71 -42l27 14q0 63 1 110.5t4 88.5t8 83t15 93q-25 10 -43 12t-45 2q-63 0 -117.5 -25.5t-95.5 -67.5t-68.5 -92t-39.5 -99h-9l17 278 q-53 -10 -101.5 -14t-101.5 -4q-55 0 -108.5 4t-116.5 14l6 -139q4 -57 6 -114.5t3 -126t1 -171.5v-133q0 -102 -5 -208.5t-17 -180.5z" />
<glyph unicode="s" horiz-adv-x="985" d="M86 688q0 -133 71.5 -204.5t192.5 -110.5l148 -47q66 -20 91 -38t25 -57q0 -25 -13 -42t-33.5 -26t-44 -13.5t-44.5 -4.5q-100 0 -166.5 39.5t-95.5 137.5h-80q-6 -70 -14 -137.5t-19 -137.5q80 -27 176.5 -41t182.5 -14q90 0 175 18.5t150.5 64.5t106.5 118.5t41 175.5 q0 244 -242 317l-141 43q-74 23 -116 42.5t-42 66.5q0 25 14.5 41t36 26t44 14.5t40.5 4.5q92 0 144.5 -37t75.5 -123h77q6 66 16.5 129t24.5 127q-72 27 -155.5 43t-161.5 16q-88 0 -172 -21.5t-149.5 -69.5t-104.5 -121.5t-39 -178.5z" />
<glyph unicode="t" horiz-adv-x="757" d="M-8 889q35 4 74.5 6t80.5 2v-272q0 -76 -4 -154t-4 -152q0 -162 81 -245.5t259 -83.5q80 0 159 15t155 42q-4 16 -6.5 31.5t-2.5 38.5q0 33 9 63q-25 -10 -49.5 -17t-51.5 -7q-123 0 -123 125v616q47 0 92.5 -2t92.5 -6q-2 16 -5.5 36.5t-3.5 41.5q0 45 9 80 q-41 -4 -87 -6.5t-98 -2.5q0 33 1 90.5t4.5 123t8.5 131t13 112.5l-37 25q-98 -66 -201.5 -119t-210.5 -96v-267q-35 0 -82 2t-73 7q4 -16 6 -39t2 -41q0 -20 -4 -43z" />
<glyph unicode="u" d="M119 1073q7 -76 7 -160v-21q-1 -96 -1 -237v-73q0 -39 -1 -81t-1 -83v-72q0 -166 84 -256t252 -90q61 0 106 7t83 26.5t74 50.5t77 74q-4 -78 -13 -158l103 12q53 6 104 6q55 0 115.5 -6t108.5 -12q-10 92 -13.5 203.5t-3.5 271.5v158q0 66 1 130t3 123.5t6 107.5t9 79 q-111 -18 -220 -18q-59 0 -115.5 5t-115.5 13q10 -123 11 -265t1 -278q0 -49 -2 -99t-12 -91t-33.5 -67.5t-66.5 -26.5t-67 21.5t-34 56t-12 82t-2 96.5q0 117 1 196.5t3 143t5 117t7 114.5q-53 -8 -104 -13t-105 -5q-59 0 -120 6z" />
<glyph unicode="v" horiz-adv-x="1099" d="M-8 1073q23 -74 53 -147l59 -148l109 -291q55 -143 102 -292l31 -99l29 -96q45 8 88 13t88 5q41 0 80 -5t80 -13q92 276 192 539l213 534q-68 -18 -133 -18q-35 0 -66.5 5t-64.5 13l-49 -172l-45 -156l-45 -151l-56 -170l-26 96l-74 277l-70 276q-63 -10 -125.5 -14 t-123.5 -4q-59 0 -125 4t-121 14z" />
<glyph unicode="w" horiz-adv-x="1744" d="M2 1073l84 -207q39 -102 74 -209l61 -186l55 -182q25 -88 44.5 -163t29.5 -126q45 8 88 13t88 5q41 0 79 -5t77 -13l88 315l94 310l105 -342q47 -152 73 -283q43 8 87.5 13t87.5 5q41 0 79.5 -5t75.5 -13q27 96 70 221l88 262l96 267l86 231l35 92q-31 -8 -58.5 -13 t-66.5 -5q-33 0 -63.5 5t-65.5 13l-59 -246q-31 -122 -66 -245l-41 -142l-45 170l-37 152l-35 149l-34 162q-88 -18 -185 -18q-47 0 -93 5t-91 13l-82 -319q-39 -158 -92 -314q-41 160 -76 316.5t-63 316.5q-59 -10 -121 -14t-123 -4q-63 0 -125 5t-123 13z" />
<glyph unicode="x" horiz-adv-x="1099" d="M0 0l76 12q37 6 76 6q33 0 65 -6l64 -12q41 78 85 152.5t91 146.5q47 -74 85 -150.5t66 -148.5l117 12q57 6 117 6q53 0 127.5 -4t128.5 -14l-185 311q-92 154 -178 314l172 227l174 221q-35 -8 -67.5 -13t-67.5 -5t-68.5 5t-74.5 13l-80 -139l-82 -141q-41 76 -70.5 137 t-62.5 143q-59 -10 -119.5 -14t-118.5 -4q-53 0 -118.5 4t-141.5 14l68 -115l69 -112l211 -365l-184 -256q-84 -115 -174 -225z" />
<glyph unicode="y" horiz-adv-x="1099" d="M-12 1073q47 -125 105.5 -248t111.5 -247q86 -199 143 -345l103 -260q-14 -35 -37 -84l-47 -98l-48 -98l-38 -80l-74 -150l69 13q33 6 68 6q33 0 64 -6l63 -13q53 168 131 373l164 414l168 405l149 344l33 74q-39 -8 -71.5 -13t-65.5 -5t-66.5 5t-70.5 13 q-35 -147 -82 -287l-96 -280l-91 282l-86 285q-61 -12 -122.5 -15t-122.5 -3q-68 0 -131.5 4t-122.5 14z" />
<glyph unicode="z" horiz-adv-x="1099" d="M25 0q57 6 131.5 10t151.5 5t145.5 2t113.5 1q41 0 97.5 -1t120 -2t131 -5t133.5 -10q-6 20 -8.5 44t-2.5 48q0 33 2 57.5t9 53.5q-123 -8 -239 -13.5t-255 -5.5l111 185l127 204l131 201q66 98 125 172q-2 16 -5.5 30.5t-3.5 31t2 34t7 31.5q-117 -12 -228.5 -15 t-228.5 -3q-129 0 -258 1t-258 17q4 -25 7 -52.5t3 -49.5q0 -29 -3 -52.5t-7 -48.5q53 6 115.5 10.5t122 5.5t111.5 2t85 1q-49 -92 -113 -199l-131 -213l-131 -196q-63 -92 -110 -154q4 -18 6 -35.5t2 -32.5q0 -35 -8 -59z" />
<glyph unicode="{" horiz-adv-x="819" d="M41 541q84 -8 129 -34t66.5 -62.5t25.5 -79.5t4 -86v-144q0 -80 17.5 -146.5t71 -118.5t154.5 -83t269 -35v144q-72 2 -112.5 24.5t-61 58t-26 84t-5.5 103.5v102q0 49 -8 105.5t-35.5 106.5t-83 86t-149.5 46q94 8 149.5 45t83 87.5t35.5 106.5t8 105v103q0 55 5.5 104 t26 86t61 59.5t112.5 26.5v144q-168 -4 -269 -35t-154.5 -83t-71 -122t-17.5 -149v-144q0 -43 -4 -86t-25.5 -80t-66.5 -62.5t-129 -33.5v-143z" />
<glyph unicode="|" horiz-adv-x="454" d="M115 -508h225v2044h-225v-2044z" />
<glyph unicode="}" horiz-adv-x="819" d="M41 -104v-144q168 4 269.5 35t154.5 83t70.5 118.5t17.5 146.5v144q0 43 4 86t25.5 79.5t67.5 62t128 34.5v143q-82 8 -128 33.5t-67.5 62.5t-25.5 80t-4 86v144q0 80 -17.5 149.5t-70.5 121.5t-154.5 83t-269.5 35v-144q72 -4 113 -26.5t61.5 -59.5t25.5 -86t5 -104 v-103q0 -49 8 -105t35.5 -106.5t83 -87t149.5 -45.5q-94 -10 -149.5 -46t-83 -86t-35.5 -106.5t-8 -105.5v-102q0 -55 -5 -103.5t-25.5 -84t-61.5 -58t-113 -24.5z" />
<glyph unicode="~" horiz-adv-x="1366" d="M74 408h157q4 35 16.5 69.5t33 63t51 47t69.5 18.5q47 0 117 -28l146 -58q76 -31 153.5 -58.5t143.5 -27.5q80 0 140 41t100 103.5t62.5 138.5t28.5 145h-157q-4 -33 -16.5 -68.5t-33 -64.5t-50 -47t-70.5 -18q-47 0 -116 26.5t-144.5 59t-153.5 59.5t-145 27 q-80 0 -140.5 -41t-100.5 -103.5t-62.5 -138t-28.5 -145.5z" />
<glyph unicode="&#xa1;" horiz-adv-x="681" d="M127 -201q0 -106 57.5 -161.5t157.5 -55.5q98 0 156.5 53.5t58.5 176.5q0 66 -14 127l-29 122l-115 496h-106l-105 -432q-6 -31 -16 -74l-20 -88q-10 -43 -17.5 -87t-7.5 -77zM129 868q0 -43 16.5 -81.5t46 -67.5t68.5 -46.5t82 -17.5t82 17.5t68.5 46.5t46 67.5 t16.5 81.5t-16.5 82t-46 69t-68.5 46t-82 16t-82 -16t-68.5 -46t-46 -69t-16.5 -82z" />
<glyph unicode="&#xa2;" horiz-adv-x="1214" d="M123 530q0 -90 25.5 -175t75.5 -154.5t125 -119.5t173 -73l-76 -241l109 -31l82 264q6 -2 20 -2h23q47 0 97 4t96.5 14.5t83 23.5t57.5 26q20 66 35.5 107.5t37.5 88.5l-63 41q-37 -45 -90 -76.5t-113 -31.5q-66 0 -112 32l194 633q23 -23 29 -49l16 -74h76q6 41 11 66.5 t12 50.5l16 55l24 74q-33 16 -65 29l-64 24l70 226l-110 30l-70 -225q-63 12 -131 12q-127 0 -235.5 -36.5t-188.5 -107.5t-125 -173.5t-45 -231.5zM594 580q0 45 6 103t26.5 110.5t59.5 88.5t102 36h15l-176 -572q-20 57 -26.5 118.5t-6.5 115.5z" />
<glyph unicode="&#xa3;" horiz-adv-x="1214" d="M84 672q51 2 100 5t101 3q10 -41 13 -66.5t3 -70.5q0 -74 -20.5 -116t-52 -63.5t-68.5 -28.5t-70 -9q4 -39 8 -84t4 -86q0 -39 -4 -78l-8 -78q188 10 317.5 14t239.5 4q104 0 224 -4t262 -14q-12 96 -13 193q0 41 4 83l9 82q-92 -4 -203 -6l-213 -6q-102 -4 -189.5 -5 t-136.5 -1q88 47 142.5 91t85 85t45 82t24.5 82q72 0 144.5 -3t146.5 -5q-6 37 -6 73q0 35 6 72q-72 -2 -143.5 -5t-143.5 -3q0 82 -13 162t-13 162q0 68 49 111.5t114 43.5q45 0 75 -15.5t49.5 -41t29.5 -60t16 -73.5h76l19 104q8 41 15 69.5t14 51.5t20 51 q-80 37 -177.5 56.5t-185.5 19.5q-102 0 -199.5 -27.5t-172 -84t-120.5 -143.5t-46 -204q0 -45 4 -87t20 -95q-47 0 -91 3t-91 5q2 -16 4 -34.5t2 -34.5q0 -18 -2 -37z" />
<glyph unicode="&#xa4;" horiz-adv-x="1214" d="M37 268l147 -147l152 151q116 -79 268 -79h4q160 0 273 79l151 -151l148 147l-152 152q41 59 61.5 124.5t20.5 147.5q0 88 -20.5 147.5t-61.5 125.5l152 151l-148 148l-151 -152q-117 80 -272.5 80t-272.5 -80l-152 152l-147 -148l151 -151q-39 -63 -60.5 -125 t-21.5 -148v-14q0 -77 20 -133q21 -60 62 -125zM342 692q0 119 75 192.5t191 73.5q123 0 194.5 -73.5t71.5 -192.5t-71.5 -192.5t-194.5 -73.5q-117 0 -191.5 73.5t-74.5 192.5z" />
<glyph unicode="&#xa5;" horiz-adv-x="1214" d="M0 1427l154 -290l149 -297q-39 0 -95 2t-108 6q6 -33 6 -70q0 -39 -6 -76q70 4 136.5 6.5t128.5 2.5l14 -31q18 -39 25.5 -62.5t7.5 -46.5v-30q-86 0 -164 2t-148 6q6 -33 6 -70q0 -39 -6 -76q82 4 157 6.5t155 2.5q0 -106 -5.5 -207t-15.5 -205q59 8 113.5 13t107.5 5 q43 0 97.5 -3t119.5 -15q-10 86 -17 193.5t-7 218.5q94 0 166.5 -2t144.5 -7q-6 37 -6 74q0 35 6 72q-92 -4 -164.5 -6t-146.5 -2v30q0 23 3 45.5t26 69.5l12 25q70 0 138.5 -2t131.5 -7q-6 37 -6 74q0 35 6 72q-63 -4 -115.5 -6t-93.5 -2l146 299q76 145 161 288 q-29 -8 -62.5 -13t-68.5 -5q-33 0 -63 6l-62 12q-49 -150 -108 -295t-129 -292l-125 295q-59 143 -111 292q-45 -10 -106.5 -14t-120.5 -4t-124.5 4t-133.5 14z" />
<glyph unicode="&#xa6;" horiz-adv-x="454" d="M115 -354h225v712h-225v-712zM115 666h225v716h-225v-716z" />
<glyph unicode="&#xa7;" horiz-adv-x="1214" d="M90 539q0 -98 40 -167t118 -122q61 -41 139 -72l143 -59l82 -37q35 -14 58.5 -29.5t35 -33t11.5 -35.5q0 -49 -45 -81t-117 -32q-49 0 -97 14.5t-86 40t-62.5 60t-24.5 80.5h-90q-12 -131 -31 -265q86 -37 193.5 -59.5t201.5 -22.5t182 19.5t157 64.5t110 118t41 173 q0 74 -21.5 127t-77.5 103q35 27 66 56.5t55.5 67t38.5 88t14 119.5q0 92 -33.5 155.5t-105.5 117.5q-33 25 -76 46t-88 40l-88 35l-82 30q-80 31 -117.5 53.5t-37.5 67.5q0 25 13 43.5t33.5 30.5t45 18t45.5 6q66 0 106.5 -18t66 -44t39 -54.5t21.5 -48.5h86q2 31 3 54 t6 48l6 59q4 33 12 84q-78 29 -168 49.5t-172 20.5q-90 0 -175 -19.5t-150.5 -63.5t-105.5 -113.5t-40 -172.5q0 -70 24.5 -119t73.5 -96q-49 -37 -82.5 -71.5t-54 -72.5t-30 -82t-9.5 -99zM309 717q0 35 11.5 52t27.5 34l70 -41q29 -16 64.5 -33.5t86.5 -38.5l138 -53 q37 -14 71.5 -29.5t62 -36t45 -46t17.5 -58.5q0 -25 -15.5 -46.5t-25.5 -33.5q-70 41 -145 74l-150 61q-88 37 -139 62.5t-77.5 46t-34 40t-7.5 46.5z" />
<glyph unicode="&#xa8;" horiz-adv-x="569" d="M-123 1376q0 -35 14.5 -66.5t38 -56t53 -39t62.5 -14.5q37 0 68.5 14.5t55.5 38t38 55t14 68.5t-14 69t-39 55.5t-56.5 36.5t-66.5 13q-33 0 -61.5 -13t-53 -36.5t-39 -55.5t-14.5 -69zM348 1376q0 -35 14.5 -66.5t38 -56t55 -39t68.5 -14.5t69 14.5t55.5 38t36.5 55 t13 68.5q0 74 -52 124t-122 50q-35 0 -66.5 -13t-56 -36.5t-39 -55.5t-14.5 -69z" />
<glyph unicode="&#xa9;" horiz-adv-x="1638" d="M68 739q0 -156 58 -291t159.5 -235t239 -156.5t295 -56.5t294.5 56.5t238.5 156.5t160 235.5t58.5 290.5q0 158 -58.5 293t-161 236.5t-238.5 159t-294 57.5q-156 0 -293 -57.5t-239.5 -159t-160.5 -236.5t-58 -293zM190 739q0 133 49.5 249t134.5 201t199.5 134 t245.5 49q133 0 248 -49t199 -134t133 -201t49 -249q0 -135 -47 -250.5t-131 -200.5t-200 -133.5t-251 -48.5q-131 0 -246.5 49.5t-199.5 135.5t-133.5 201.5t-49.5 246.5zM336 733q0 -102 40 -184t108.5 -139.5t161.5 -88t200 -30.5q100 0 176 19.5t135 39.5l21 74l20 72 l-41 20q-43 -35 -101.5 -70.5t-150.5 -35.5q-82 0 -132 32.5t-77.5 82.5t-37 112.5t-9.5 124.5q2 59 14.5 115.5t42 102.5t79 73.5t124.5 27.5q70 0 125.5 -33.5t71.5 -99.5h53q8 51 17 93l22 92q-74 29 -157 45t-162 16q-113 0 -212.5 -30.5t-173 -89t-115.5 -144.5 t-42 -197z" />
<glyph unicode="&#xaa;" horiz-adv-x="768" d="M8 969q0 -92 60.5 -135t152.5 -43q53 0 104.5 18t86.5 47q35 -35 68.5 -50t84.5 -15q45 0 97.5 15t89.5 40q-2 16 -3 25.5t-1 19.5t1 18.5t3 18.5q-25 -12 -54 -13q-33 0 -38 29t-5 68v53l2 65l2 66q3 32 3 57q0 80 -70 137.5t-223 57.5q-88 0 -158 -17.5t-141 -52.5 l28 -116l47 -2q23 35 61 49t77 14q47 0 79.5 -14.5t32.5 -61.5q0 -14 -5 -23.5t-20.5 -17.5t-41.5 -14l-76 -21q-53 -14 -98 -29.5t-77 -37t-50.5 -54t-18.5 -81.5zM283 993q0 27 4 45.5t15 32.5t32.5 25.5t56.5 23.5v-135q0 -70 -59 -70q-29 0 -39 25t-10 53z" />
<glyph unicode="&#xab;" horiz-adv-x="1024" d="M66 559l151 -217q74 -106 143 -219l46 39l38 31q18 14 39 28l54 31l-117 154l-113 155l49 68l62 76l61 81l64 82q-53 23 -96.5 53.5t-84.5 69.5l-55 -86l-61 -96l-64 -92l-55 -76zM483 553l152 -217q74 -106 143 -219l45 39l39 30l39 29l53 31q-59 74 -116 153l-113 156 l49 68l62 77l61 82l64 80q-53 23 -96.5 53.5t-84.5 69.5l-55 -86l-61 -96l-64 -90l-55 -78z" />
<glyph unicode="&#xac;" horiz-adv-x="1366" d="M131 715h881v-379h223v602h-1104v-223z" />
<glyph unicode="&#xad;" horiz-adv-x="872" d="M94 418q172 12 340 12q86 0 171 -2t171 -10l-8 69q-4 33 -4 74q0 31 4 74t8 78q-174 -12 -352 -13q-164 1 -330 13l8 -72q4 -37 4 -76q0 -35 -5 -77t-7 -70z" />
<glyph unicode="&#xae;" horiz-adv-x="1024" d="M57 1034q0 -96 35 -179t96.5 -143.5t144.5 -94t179 -33.5q98 0 182 33.5t144.5 94t94.5 143.5t34 179q0 98 -34 181t-94.5 142.5t-144.5 93.5t-182 34q-100 0 -183 -34t-143.5 -93.5t-94.5 -142t-34 -181.5zM156 1034q0 78 27.5 144.5t76.5 114.5t113.5 76t138.5 28 t139.5 -28t113.5 -76t75.5 -114.5t27.5 -144.5q0 -76 -27.5 -142.5t-75.5 -115.5t-113.5 -76.5t-139.5 -27.5t-138.5 27.5t-113.5 75.5t-76.5 114.5t-27.5 144.5zM297 817q49 6 88 6q43 0 82 -6q-2 47 -3 98.5t-1 90.5h8l57 -95q27 -47 50 -94q47 6 94 6t92 -6 q-41 53 -76 109l-67 106q51 10 81.5 36t30.5 73q0 37 -18.5 60.5t-47 36.5t-64.5 17.5t-73 4.5q-33 0 -64.5 -3.5t-66.5 -3.5q-51 0 -100 7q4 -84 5 -132.5t1 -89.5q0 -88 -2 -138t-6 -83zM463 1057v149q43 0 74.5 -11t31.5 -62q0 -55 -30.5 -65.5t-75.5 -10.5z" />
<glyph unicode="&#xaf;" horiz-adv-x="569" d="M-35 1278h643v186h-643v-186z" />
<glyph unicode="&#xb0;" horiz-adv-x="819" d="M84 1122q0 -68 25.5 -126t70.5 -103t103.5 -70.5t126 -25.5t127 26.5t103.5 70.5t69.5 103t25.5 125q0 68 -25.5 127.5t-70.5 103.5t-103.5 69.5t-125.5 25.5q-66 0 -125.5 -24.5t-103.5 -68.5t-70.5 -103.5t-26.5 -129.5zM244 1122q0 70 48 118t118 48q72 0 118.5 -49 t46.5 -117q0 -66 -47 -116t-118 -50q-70 0 -118 49.5t-48 116.5z" />
<glyph unicode="&#xb1;" horiz-adv-x="1366" d="M131 8h1104v223h-1104v-223zM131 649h440v-315h224v315h440v223h-440v316h-224v-316h-440v-223z" />
<glyph unicode="&#xb2;" horiz-adv-x="798" d="M39 1278q49 -33 92 -71.5t68 -69.5l28 10q2 23 6.5 56.5t15.5 65t33.5 54.5t59.5 23q51 0 71.5 -40t20.5 -85q0 -39 -13 -104.5t-56 -129.5q-20 -31 -58 -69l-82 -79q-43 -40 -86 -75t-73 -57q2 -16 3 -30.5t1 -31.5v-35q0 -10 -4 -30q86 4 173 7t173 3q80 0 167 -2 t164 -8q-4 27 -6 59.5t-2 60.5q0 25 2 50.5t6 60.5q-47 -4 -103 -7t-114 -3l-110 -2q-53 -2 -92 -2l77 49l86 53l82 55q29 20 59.5 46t55.5 58t40 70.5t15 88.5q0 51 -25.5 93t-71.5 72.5t-108.5 48t-138.5 17.5q-115 0 -196.5 -34t-159.5 -136z" />
<glyph unicode="&#xb3;" horiz-adv-x="798" d="M39 694q39 -35 73.5 -58.5t71.5 -36.5t78 -18.5t90 -5.5q70 0 139.5 14.5t125 47.5t90 83t34.5 122q0 45 -18 79.5t-49 60.5t-69 40t-79 18q35 6 68 21.5t59.5 40t43 57.5t16.5 72q0 61 -33 103t-83 66.5t-110.5 36t-113.5 11.5q-100 0 -173 -29.5t-137 -107.5l31 -27 l41 -33q20 -16 40 -35.5t32 -35.5l24 4q2 25 7.5 54.5t16.5 55t31.5 43t51.5 17.5q57 0 78.5 -42t21.5 -100q0 -27 -4 -52t-15 -45.5t-31.5 -33t-51.5 -12.5q-12 0 -25.5 1t-27.5 3q2 -16 3 -26.5t1 -20.5q0 -14 -2 -27l-4 -24q16 2 31.5 3t29.5 1q35 0 56.5 -14.5t33.5 -36 t16.5 -48t4.5 -51.5q0 -29 -5.5 -57.5t-18.5 -51t-36.5 -36.5t-60.5 -14q-33 0 -57.5 15t-39 40t-21.5 54.5t-7 56.5l-35 8q-31 -47 -63 -80z" />
<glyph unicode="&#xb4;" horiz-adv-x="569" d="M111 1204h139l250 144q18 10 40.5 24t43 32.5t34 42t13.5 50.5q0 57 -39 83t-92 26q-57 0 -94 -28t-66 -67z" />
<glyph unicode="&#xb5;" d="M106 -537q57 8 115 13.5t113 5.5q59 0 111.5 -5t115.5 -14q-8 104 -13 227.5t-5 221.5v100q16 -10 34.5 -11t38.5 -1q45 0 95.5 43t89.5 115q0 -41 -4 -79t-11 -79l103 12q53 6 104 6q55 0 115.5 -6t108.5 -12q-10 92 -13.5 203.5t-3.5 271.5v158q0 66 1 130t3 123.5 t6 107.5t9 79q-111 -18 -220 -18q-59 0 -115.5 5t-115.5 13q10 -123 11 -265t1 -278q0 -49 -2 -99t-12 -91t-33.5 -67.5t-66.5 -26.5t-67 22.5t-34 56t-12 74.5t-2 78q0 125 1 211t3 150.5t5 119t7 115.5q-53 -8 -104 -13t-105 -5q-59 0 -120 6l-119 12q6 -117 7 -294 t1 -417v-237v-141l-4 -125q0 -59 -2 -115.5t-6 -114.5z" />
<glyph unicode="&#xb6;" horiz-adv-x="1269" d="M45 971q0 -102 33 -186.5t91 -144.5t137 -93t169 -33v-868h209v1657h197v-1657h209v1657h102v163h-600q-117 0 -217.5 -30.5t-173 -93t-114.5 -155.5t-42 -216z" />
<glyph unicode="&#xb7;" horiz-adv-x="606" d="M90 635q0 -43 16.5 -82t46 -68.5t68.5 -46t82 -16.5t82 16.5t68.5 46t46 68.5t16.5 82t-16.5 82t-46 67.5t-68.5 46t-82 17.5t-82 -17.5t-68.5 -46t-46 -67.5t-16.5 -82z" />
<glyph unicode="&#xb8;" horiz-adv-x="569" d="M51 -406q39 -12 87 -23t130 -11q55 0 106.5 12t91.5 35.5t63.5 60.5t23.5 86q0 12 -6 37t-24.5 48.5t-55.5 41t-98 17.5q-25 0 -41 -4l-39 -7l57 121h-94l-96 -196q8 -4 17 -9.5t17 -9.5l21 8q10 4 27 4q47 0 64 -23.5t17 -45.5q0 -41 -28.5 -60.5t-67.5 -19.5 q-35 0 -70.5 9.5t-64.5 19.5z" />
<glyph unicode="&#xb9;" horiz-adv-x="798" d="M57 1243q25 -25 47.5 -50.5t42.5 -53.5q31 18 70 35l74 34q2 -23 3 -45t1 -47v-100v-115l-2 -125q-2 -61 -4 -114.5t-4 -81.5q41 4 76.5 7t70.5 3q41 0 79 -3t75 -7q-2 53 -4 95t-4.5 80t-2.5 74v76v127q0 88 2.5 199t10.5 209l-45 20q-27 -16 -72 -39l-96 -47l-99 -45 l-77 -33l-68 -28z" />
<glyph unicode="&#xba;" horiz-adv-x="870" d="M41 1120q0 -82 28.5 -143.5t81 -102t123 -60t156.5 -19.5t159 20.5t127 61.5t84.5 102t30.5 143q0 66 -24.5 125.5t-73.5 103.5t-121.5 70.5t-169.5 26.5q-82 0 -155.5 -20.5t-128 -62.5t-86 -103.5t-31.5 -141.5zM352 1120q0 51 2 94t10.5 75t26 49.5t45.5 17.5 q31 0 48.5 -20.5t24.5 -53.5t9 -76t2 -86t-2 -85t-9 -74.5t-24.5 -53t-48 -20.5t-48 21.5t-26 55t-9.5 75.5t-1 81z" />
<glyph unicode="&#xbb;" horiz-adv-x="1024" d="M63 246q53 -23 96.5 -53.5t84.5 -69.5l55 88l61 94l64 92l55 76l62 82l-152 217q-74 106 -143 219l-45 -39l-39 -30l-39 -27l-53 -33q59 -74 116 -153l113 -156q-20 -31 -49 -68l-62 -75l-61 -82zM481 246q53 -23 96.5 -53.5t84.5 -69.5l55 88l61 94l64 90l55 78l61 82 l-151 217q-74 106 -143 219l-46 -39l-38 -30l-39 -27l-54 -33l117 -153l113 -156q-20 -31 -49 -68l-62 -77l-61 -82z" />
<glyph unicode="&#xbc;" horiz-adv-x="1843" d="M57 1243q25 -25 47.5 -50.5t42.5 -53.5q31 18 70 35l74 34q2 -23 3 -45t1 -47v-100v-115l-2 -125q-2 -61 -4 -114.5t-4 -81.5q41 4 76.5 7t70.5 3q41 0 79 -3t75 -7q-2 53 -4 95t-4.5 80t-2.5 74v76v127q0 88 2.5 199t10.5 209l-45 20q-27 -16 -72 -39l-96 -47l-99 -45 l-77 -33l-68 -28zM414 -47h161l857 1528h-162zM1069 172q72 4 138.5 5t125.5 1h35h18q10 0 21 -2q0 -35 -2 -83t-4 -89q33 4 65.5 7t67.5 3q41 0 77 -2t68 -8q-4 35 -5 74t-1 100h51h41q10 0 19.5 -1t19.5 -3q-4 23 -5 49.5t-1 48.5q0 45 6 95q-63 -7 -131 -7v215 q0 72 3 145t5 140q-61 -6 -122 -6q-35 0 -65 1t-60 5l-82 -123l-95 -137l-96 -133q-49 -66 -92 -117l4 -43q2 -20 2 -41q0 -41 -6 -94zM1217 360l194 277v-277h-194z" />
<glyph unicode="&#xbd;" horiz-adv-x="1843" d="M57 1243q25 -25 47.5 -50.5t42.5 -53.5q31 18 70 37l74 32q2 -23 3 -45t1 -47v-100v-115l-2 -125q-2 -61 -4 -114.5t-4 -81.5q41 4 76.5 7t70.5 3q41 0 79 -3t75 -7q-2 53 -4 95t-4.5 80t-2.5 74v76v127q0 88 2.5 199t10.5 209l-45 20q-27 -16 -72 -39l-96 -47l-99 -45 l-77 -33l-68 -28zM403 -47h162l856 1528h-161zM1083 705q49 -33 92 -72t68 -70l29 10q2 23 6 57t15.5 65.5t34 54t58.5 22.5q51 0 72 -40t21 -85q0 -39 -13.5 -104.5t-56.5 -128.5q-20 -31 -58 -70t-81 -79t-86 -74l-74 -58q2 -16 3 -30.5t1 -30.5v-35q0 -10 -4 -31 q86 4 173 7t173 3q80 0 167 -2t165 -8q-4 27 -6 59.5t-2 61.5q0 25 2 50.5t6 60.5q-47 -4 -103.5 -7.5t-113.5 -3.5l-111 -2q-53 -2 -92 -2l78 49l86 54l82 55q29 20 59.5 46t55 57.5t40 70.5t15.5 88q0 51 -25.5 93t-72 73t-108.5 48t-138 17q-115 0 -197 -33.5 t-160 -135.5z" />
<glyph unicode="&#xbe;" horiz-adv-x="1843" d="M39 694q39 -35 73.5 -58.5t71.5 -36.5t78 -18.5t90 -5.5q70 0 139.5 14.5t125 47.5t90 83t34.5 122q0 45 -18 79.5t-49 60.5t-69 40t-79 18q35 6 68 21.5t59.5 40t43 57.5t16.5 72q0 61 -33 103t-83 66.5t-110.5 36t-113.5 11.5q-100 0 -173 -29.5t-137 -107.5l31 -27 l41 -33q20 -16 40 -35.5t32 -35.5l24 4q2 25 7.5 54.5t16.5 55t31.5 43t51.5 17.5q57 0 78.5 -42t21.5 -100q0 -27 -4 -52t-15 -45.5t-31.5 -33t-51.5 -12.5q-12 0 -25.5 1t-27.5 3q2 -16 3 -26.5t1 -20.5q0 -14 -2 -27l-4 -24q16 2 31.5 3t29.5 1q35 0 56.5 -14.5t33.5 -36 t16.5 -48t4.5 -51.5q0 -29 -5.5 -57.5t-18.5 -51t-36.5 -36.5t-60.5 -14q-33 0 -57.5 15t-39 40t-21.5 54.5t-7 56.5l-35 8q-31 -47 -63 -80zM434 -47h162l856 1528h-162zM1069 172q72 4 138.5 5t125.5 1h35h18q10 0 21 -2q0 -35 -2 -83t-4 -89q33 4 65.5 7t67.5 3 q41 0 77 -2t68 -8q-4 35 -5 74t-1 100h51h41q10 0 19.5 -1t19.5 -3q-4 23 -5 49.5t-1 48.5q0 45 6 95q-63 -7 -131 -7v215q0 72 3 145t5 140q-61 -6 -122 -6q-35 0 -65 1t-60 5l-82 -123l-95 -137l-98 -133q-47 -66 -90 -117l4 -43q2 -20 2 -41q0 -41 -6 -94zM1217 360 l194 277v-277h-194z" />
<glyph unicode="&#xbf;" horiz-adv-x="872" d="M39 -84q0 -61 26.5 -121.5t81 -106.5t134 -75t184.5 -29q51 0 93 6.5t82 17.5t81 25l90 31q-10 59 -13 105.5t-5 105.5h-50q-35 -72 -90 -99.5t-108 -27.5q-47 0 -80 27.5t-33 68.5q0 47 29 76l61 60l77 65q36 31 62.5 66.5t42 78.5t15.5 101q0 41 -17.5 88t-58.5 88 t-109.5 68.5t-173.5 27.5q-45 0 -77.5 -4t-63.5 -10l-20 -66q-11 -30 -25 -63l25 -17q16 12 39.5 25.5t64.5 13.5q39 0 61.5 -21.5t22.5 -55.5q0 -23 -14.5 -42.5t-38 -39t-54.5 -40.5l-61 -46q-51 -41 -86 -74t-55.5 -64.5t-29.5 -64.5t-9 -78zM227 868q0 -43 16.5 -81.5 t46 -67.5t68.5 -46.5t82 -17.5t82 17.5t69 46.5t46 67.5t16 81.5t-16 82t-46 69t-69 46t-82 16t-82 -16t-68.5 -46t-46 -69t-16.5 -82z" />
<glyph unicode="&#xc0;" horiz-adv-x="1478" d="M-4 0q29 8 62.5 13t68.5 5q37 0 70.5 -5t68.5 -13l43 147q20 74 49 146q53 0 107.5 1t107.5 1q68 0 135.5 -1t135.5 -1q27 -72 48 -143l42 -150q66 8 132.5 13t131.5 5q61 0 135 -3t133 -15l-77 168l-64 151l-65 158l-76 193l-80 204l-82 220l-74 209q-35 98 -57 172 q-35 -8 -72 -13.5t-74 -5.5q-35 0 -71.5 5t-71.5 14l-33 -82l-49 -131l-55 -148l-51 -133l-82 -201l-80 -192l-72 -172l-63 -144zM397 1839q0 -27 12.5 -49.5t31 -39.5t40.5 -32l43 -26l250 -144h137l-227 307q-29 39 -67.5 68t-92.5 29q-51 0 -89 -28t-38 -85zM418 477 l184 477l176 -477q-23 -2 -45 -2h-45h-90h-90h-45q-23 0 -45 2z" />
<glyph unicode="&#xc1;" horiz-adv-x="1478" d="M-4 0q29 8 62.5 13t68.5 5q37 0 70.5 -5t68.5 -13l43 147q20 74 49 146q53 0 107.5 1t107.5 1q68 0 135.5 -1t135.5 -1q27 -72 48 -143l42 -150q66 8 132.5 13t131.5 5q61 0 135 -3t133 -15l-77 168l-64 149l-65 160l-76 193l-80 202l-82 220l-74 208q-35 100 -57 175 q-35 -8 -72 -13.5t-74 -5.5q-35 0 -71.5 5t-71.5 14l-33 -84l-49 -131l-55 -148l-51 -131l-82 -201l-80 -192l-72 -174l-63 -142zM418 477l184 477l176 -477q-23 -2 -45 -2h-45h-90h-90h-45q-23 0 -45 2zM545 1548h139l250 144q18 10 40.5 24.5t43 32.5t34 42t13.5 50 q0 57 -39 83t-92 26q-57 0 -94 -28t-66 -67z" />
<glyph unicode="&#xc2;" horiz-adv-x="1478" d="M-4 0q29 8 62.5 13t68.5 5q37 0 70.5 -5t68.5 -13l43 147q20 74 49 146q53 0 107.5 1t107.5 1q68 0 135.5 -1t135.5 -1q27 -72 48 -143l42 -150q66 8 132.5 13t131.5 5q61 0 135 -3t133 -15l-77 168l-64 151l-65 158l-76 193l-80 202l-82 222l-74 209q-35 98 -57 172 q-35 -8 -72 -13.5t-74 -5.5q-35 0 -71.5 5t-71.5 14l-33 -82l-49 -131l-55 -148l-51 -133l-82 -201l-80 -192l-72 -174l-63 -142zM362 1548h158l219 191l217 -191h162l-252 371h-256zM418 477l184 477l176 -477q-23 -2 -45 -2h-45h-90h-90h-45q-23 0 -45 2z" />
<glyph unicode="&#xc3;" horiz-adv-x="1478" d="M-4 0q29 8 62.5 13t68.5 5q37 0 70.5 -5t68.5 -13l43 147q20 74 49 146q53 0 107.5 1t107.5 1q68 0 135.5 -1t135.5 -1q27 -72 48 -144l42 -149q66 8 132.5 13t131.5 5q61 0 135 -3t133 -15l-77 168l-64 149l-65 160l-76 193l-80 202l-82 220l-74 208q-35 100 -57 175 q-35 -8 -72 -13.5t-74 -5.5q-35 0 -71.5 5t-71.5 14l-33 -84l-49 -131l-55 -148l-51 -131l-82 -201l-80 -192l-72 -174l-63 -142zM334 1589h108q10 39 28.5 69t68.5 30q29 0 63 -17l80 -37q43 -20 94 -36.5t109 -16.5q59 0 104 26.5t78 69.5t52.5 96.5t27.5 104.5h-111 q-12 -31 -32.5 -62.5t-67.5 -31.5q-31 0 -72 16.5t-87 37t-96 36.5t-99 16q-57 0 -100.5 -28.5t-74 -73.5t-49 -97.5t-24.5 -101.5zM418 477l184 477l176 -477q-23 -2 -45 -2h-45h-90h-90h-45q-23 0 -45 2z" />
<glyph unicode="&#xc4;" horiz-adv-x="1478" d="M-4 0q29 8 62.5 13t68.5 5q37 0 70.5 -5t68.5 -13l43 147q20 74 49 146q53 0 107.5 1t107.5 1q68 0 135.5 -1t135.5 -1q27 -72 48 -143l42 -150q66 8 132.5 13t131.5 5q61 0 135 -3t133 -15l-77 168l-64 149l-65 160l-76 193l-80 202l-82 220l-74 208q-35 100 -57 175 q-35 -8 -72 -13.5t-74 -5.5q-35 0 -71.5 5t-71.5 14l-33 -84l-49 -131l-55 -148l-51 -131l-82 -201l-80 -192l-72 -174l-63 -142zM326 1720q0 -35 14 -66.5t37.5 -56t55.5 -39t67 -14.5q37 0 68.5 14.5t55 38t38 55t14.5 68.5t-14.5 69t-39 55.5t-56 36.5t-66.5 13 q-33 0 -65 -13t-56.5 -36.5t-38.5 -55.5t-14 -69zM418 477l184 477l176 -477q-23 -2 -45 -2h-45h-90h-90h-45q-23 0 -45 2zM803 1720q0 -35 14 -66.5t38 -56t55.5 -39t68.5 -14.5t68.5 14.5t55 38t37 55t13.5 68.5q0 74 -52 124t-122 50q-35 0 -66.5 -13t-56.5 -36.5 t-39 -55.5t-14 -69z" />
<glyph unicode="&#xc5;" horiz-adv-x="1478" d="M-4 0q29 8 62.5 13t68.5 5q37 0 70.5 -5t68.5 -13l43 147q20 74 49 146q53 0 107.5 1t107.5 1q68 0 135.5 -1t135.5 -1q27 -72 48 -143l42 -150q66 8 132.5 13t131.5 5q61 0 135 -3t133 -15l-77 168l-64 151l-65 158l-76 193l-80 202l-82 222l-74 209q-35 98 -57 172 q-35 -8 -72 -13.5t-74 -5.5q-35 0 -71.5 5t-71.5 14l-33 -82l-49 -131l-55 -148l-51 -133l-82 -201l-80 -192l-72 -174l-63 -142zM418 477l184 477l176 -477q-23 -2 -45 -2h-45h-90h-90h-45q-23 0 -45 2zM512 1741q0 -45 18.5 -86t49 -73t72.5 -50.5t87 -18.5q47 0 88 18.5 t72 50.5t49.5 73t18.5 86q0 47 -18.5 88t-49.5 71.5t-72 49t-88 18.5q-45 0 -87 -18.5t-72.5 -49t-49 -71.5t-18.5 -88zM633 1741q0 43 31.5 74.5t74.5 31.5t75 -31.5t32 -74.5q0 -45 -33 -76t-74 -31t-73.5 31t-32.5 76z" />
<glyph unicode="&#xc6;" horiz-adv-x="1896" d="M-57 0q35 4 70.5 11t74.5 7q41 0 78 -7t72 -11q27 70 65 156l76 172l125 4h127q61 0 121.5 -2t121.5 -2v-72q0 -59 -2 -130t-12 -126q98 12 191.5 15t191.5 3h119l154 -2q82 -2 160.5 -6t135.5 -10q-4 25 -7 51.5t-3 52.5q0 29 3 59t7 58l-86 -4q-51 -4 -106 -6 t-105.5 -3t-78.5 -1h-105v469q117 0 231.5 -5t231.5 -14q-4 29 -7 56.5t-3 54.5q0 29 3 54.5t7 54.5q-72 -6 -143.5 -10.5t-134 -6.5t-111.5 -3t-74 -1v401h176q76 0 152 -5t153 -9q-4 29 -7 57.5t-3 57t3 54.5t7 54q-88 -4 -163 -6l-146 -6q-70 -4 -139.5 -5t-146.5 -1 q-117 0 -230 4t-229 14l-68 -137l-82 -153l-82 -148l-69 -127l-144 -256l-71 -125l-68 -119l-80 -133q-43 -74 -100 -182zM469 512l201 375l204 375v-750q-27 -2 -51 -2h-51h-100h-103h-49q-25 0 -51 2z" />
<glyph unicode="&#xc7;" horiz-adv-x="1478" d="M78 719q0 -160 54 -290t148.5 -224t222 -149.5t277.5 -63.5l-86 -180q8 -4 17.5 -9.5t17.5 -9.5l21 8q10 4 26 4q47 0 64.5 -23.5t17.5 -45.5q0 -41 -28.5 -60.5t-67.5 -19.5q-35 0 -71 9t-64 20l-37 -91q39 -12 87 -23t130 -11q55 0 106.5 12t91 35.5t63.5 60.5t24 86 q0 12 -6.5 37t-25 48.5t-55 41t-98.5 17.5q-25 0 -41 -2l-39 -9l45 101q154 2 268.5 30.5t202.5 61.5q14 61 31 122l35 120l-63 34q-33 -31 -72 -61.5t-86 -57t-103.5 -43t-128.5 -16.5q-125 0 -202.5 54.5t-119.5 138.5t-56.5 189.5t-14.5 205.5q2 96 21.5 191.5t65.5 171 t122 122.5t191 47q111 0 193.5 -55t109.5 -166h82l12 86q6 41 16 84q8 35 17.5 69t15.5 68q-117 45 -243 73t-248 28q-174 0 -328 -50.5t-267.5 -148.5t-179 -240.5t-65.5 -326.5z" />
<glyph unicode="&#xc8;" horiz-adv-x="1251" d="M150 1466q6 -84 10 -151.5t6 -147.5t3 -185t1 -267v-223q0 -117 -1 -192t-2 -127t-4 -91t-9 -82q125 10 249.5 14t249.5 4q123 0 247 -4t249 -14q-4 25 -7 51.5t-3 52.5q0 29 3 59t7 58l-86 -4q-51 -4 -106.5 -6t-105.5 -3t-79 -1h-143v469q80 0 145.5 -1t122.5 -3 l115 -6q57 -4 118 -9q-10 57 -10 111q0 29 3 54.5t7 54.5q-86 -6 -165.5 -10.5t-146 -6.5t-116 -3t-73.5 -1v401h215q76 0 151.5 -5t153.5 -9q-4 29 -7 57.5t-3 57t3 54.5t7 54q-55 -6 -129 -10t-154 -6l-155 -2h-136q-106 0 -212.5 5t-212.5 13zM305 1839q0 -27 12.5 -49.5 t31 -39.5t40.5 -32l43 -26l250 -144h137l-227 307q-29 39 -68 68t-92 29q-51 0 -89 -28t-38 -85z" />
<glyph unicode="&#xc9;" horiz-adv-x="1251" d="M150 1466q6 -84 10 -151.5t6 -147.5t3 -185t1 -267v-223q0 -117 -1 -192t-2 -127t-4 -91t-9 -82q125 10 249.5 14t249.5 4q123 0 247 -4t249 -14q-4 25 -7 51.5t-3 52.5q0 29 3 59t7 58l-86 -6l-107 -4q-55 -2 -105 -3t-79 -1h-143v469q80 0 145.5 -1t122.5 -3l115 -6 q57 -4 118 -9q-10 57 -10 111q0 29 3 54.5t7 54.5q-86 -6 -165.5 -10.5t-146 -6.5t-116 -3t-73.5 -1v401h215q76 0 151.5 -5t153.5 -9q-4 29 -7 57.5t-3 57t3 54.5t7 54q-55 -6 -129 -10t-154 -6l-155 -2h-136q-106 0 -212.5 5t-212.5 13zM504 1548h139l250 144 q18 10 40.5 24.5t43 32.5t34 42t13.5 50q0 57 -39 83t-92 26q-57 0 -94 -28t-66 -67z" />
<glyph unicode="&#xca;" horiz-adv-x="1251" d="M150 1466q6 -84 10 -151.5t6 -147.5t3 -185t1 -267v-223q0 -117 -1 -192t-2 -127t-4 -91t-9 -82q125 10 249.5 14t249.5 4q123 0 247 -4t249 -14q-4 25 -7 51.5t-3 52.5q0 29 3 59t7 58l-86 -4q-51 -4 -106.5 -6t-105.5 -3t-79 -1h-143v469q80 0 145.5 -1t122.5 -3 l115 -6q57 -4 118 -9q-10 57 -10 111q0 29 3 54.5t7 54.5q-86 -6 -165.5 -10.5t-146 -6.5t-116 -3t-73.5 -1v401h215q76 0 151.5 -5t153.5 -9q-4 29 -7 57.5t-3 57t3 54.5t7 54q-55 -6 -129 -10t-154 -6l-155 -2h-136q-106 0 -212.5 5t-212.5 13zM250 1548h158l219 191 l217 -191h162l-252 371h-256z" />
<glyph unicode="&#xcb;" horiz-adv-x="1251" d="M150 1466q6 -84 10 -151.5t6 -147.5t3 -185t1 -267v-223q0 -117 -1 -192t-2 -127t-4 -91t-9 -82q125 10 249.5 14t249.5 4q123 0 247 -4t249 -14q-4 25 -7 51.5t-3 52.5q0 29 3 59t7 58l-86 -6l-107 -4q-55 -2 -105 -3t-79 -1h-143v469q80 0 145.5 -1t122.5 -5l115 -6 q57 -2 118 -7q-10 57 -10 111q0 29 3 54.5t7 54.5q-86 -6 -165.5 -10.5t-146 -6.5t-116 -3t-73.5 -1v401h215q76 0 151.5 -5t153.5 -9q-4 29 -7 57.5t-3 57t3 54.5t7 54q-55 -6 -129 -10t-154 -6l-155 -2h-136q-106 0 -212.5 5t-212.5 13zM213 1720q0 -35 14.5 -66.5t38 -56 t55 -39t66.5 -14.5q37 0 68.5 14.5t55.5 38t38 55t14 68.5t-14 69t-39 55.5t-56.5 36.5t-66.5 13q-33 0 -64.5 -13t-56 -36.5t-39 -55.5t-14.5 -69zM690 1720q0 -35 14.5 -66.5t38 -56t55 -39t68.5 -14.5t69 14.5t55.5 38t36.5 55t13 68.5q0 74 -52 124t-122 50 q-35 0 -66.5 -13t-56 -36.5t-39 -55.5t-14.5 -69z" />
<glyph unicode="&#xcc;" horiz-adv-x="796" d="M68 1839q0 -27 12 -49.5t30.5 -39.5t41.5 -32l43 -26l249 -144h138l-228 307q-29 39 -67.5 68t-91.5 29q-51 0 -89 -28t-38 -85zM147 1466q8 -86 12.5 -176t4.5 -162q0 -41 1 -101t1 -126q0 -63 1 -123.5t1 -101.5q0 -172 -5 -338t-16 -338q51 6 115 12t129.5 6t132 -4 t123.5 -14q-14 147 -17 326.5t-3 353.5v205q0 147 6 290.5t16 290.5q-53 -8 -120.5 -13t-131.5 -5q-57 0 -126.5 6t-123.5 12z" />
<glyph unicode="&#xcd;" horiz-adv-x="796" d="M147 1466q8 -86 12.5 -176t4.5 -162q0 -41 1 -101t1 -126q0 -63 1 -123.5t1 -101.5q0 -172 -5 -338t-16 -338q51 6 115 12t129.5 6t132 -4t123.5 -14q-14 147 -17 326.5t-3 353.5v205q0 147 6 290.5t16 290.5q-53 -8 -120.5 -13t-131.5 -5q-57 0 -126.5 6t-123.5 12z M205 1548h139l250 144q18 10 40.5 24.5t43 32.5t34 42t13.5 50q0 57 -39 83t-92 26q-57 0 -94 -28t-66 -67z" />
<glyph unicode="&#xce;" horiz-adv-x="796" d="M23 1548h157l219 191l217 -191h162l-252 371h-256zM147 1466q8 -86 12.5 -176t4.5 -162q0 -41 1 -101t1 -126q0 -63 1 -123.5t1 -101.5q0 -172 -5 -338t-16 -338q51 6 115 12t129.5 6t132 -4t123.5 -14q-14 147 -17 326.5t-3 353.5v205q0 147 6 290.5t16 290.5 q-53 -8 -120.5 -13t-131.5 -5q-57 0 -126.5 6t-123.5 12z" />
<glyph unicode="&#xcf;" horiz-adv-x="796" d="M-8 1720q0 -35 11 -66.5t34.5 -56t55.5 -39t67 -14.5q37 0 68.5 14.5t55 38t38 55t14.5 68.5t-14.5 69t-39 55.5t-56 36.5t-66.5 13q-70 0 -119 -50t-49 -124zM147 1466q8 -86 12.5 -176t4.5 -162q0 -41 1 -101t1 -126q0 -63 1 -123.5t1 -101.5q0 -172 -5 -338t-16 -338 q51 6 115 12t129.5 6t132 -4t123.5 -14q-14 147 -17 326.5t-3 353.5v205q0 147 6 290.5t16 290.5q-53 -8 -120.5 -13t-131.5 -5q-57 0 -126.5 6t-123.5 12zM463 1720q0 -35 14.5 -66.5t38 -56t55 -39t68.5 -14.5t68.5 14.5t55 38t37 55t13.5 68.5q0 74 -52 124t-122 50 q-35 0 -66.5 -13t-56 -36.5t-39 -55.5t-14.5 -69z" />
<glyph unicode="&#xd0;" horiz-adv-x="1669" d="M0 838q4 -29 5 -52.5t1 -46.5q0 -39 -6 -92q41 6 83 8t83 2q0 -180 -6 -335.5t-17 -321.5l146 12q72 6 145 6q106 0 211 -9t211 -9q57 0 104.5 4t91.5 14.5t88 27.5t97 44q82 39 147.5 105.5t112.5 152.5t72.5 189.5t25.5 214.5q0 86 -17 171t-54 161.5t-92.5 143 t-128.5 113.5q-119 76 -240 100.5t-262 24.5q-104 0 -203.5 -9t-204.5 -9q-61 0 -122.5 5t-123.5 13q8 -172 13.5 -328.5t5.5 -310.5q-43 0 -84 2t-82 9zM621 657q61 0 120.5 -2t118.5 -8q-6 53 -6 92q0 23 1 46.5t5 52.5q-59 -6 -119.5 -8.5t-119.5 -2.5v121q0 92 2 173 t6 169q53 6 98 6q74 0 141.5 -16t118.5 -72.5t82 -165t31 -292.5q0 -147 -15.5 -256t-55.5 -180.5t-107.5 -107.5t-171.5 -36h-64h-31q-14 0 -30 2q0 100 -2 228t-2 257z" />
<glyph unicode="&#xd1;" horiz-adv-x="1630" d="M131 0q39 8 72 13t67 5q39 0 67 -5t56 -13l-10 168l-8 184q-4 92 -7 176t-3 142v213l88 -95q45 -45 86 -92l112 -129l117 -133l117 -133l123 -143l133 -158q33 6 71.5 12t85.5 6q45 0 90.5 -5t77.5 -13q-4 82 -6 164t-2 164q0 211 4 413.5t13 413.5q4 78 10 156t10 155 q-31 -10 -59.5 -14t-63.5 -4q-37 0 -67.5 4t-71.5 14q4 -66 6 -127l6 -125q4 -63 6 -129.5t4 -142.5q2 -92 5.5 -179t3.5 -179l-76 82l-70 77l-69 76l-78 84l-105 115l-125 139l-133 154l-123 155q-39 -8 -77.5 -13t-79.5 -5q-43 0 -87 5t-87 13q10 -180 13 -348t3 -348 q0 -88 -3 -186.5t-8 -198.5t-12.5 -198.5t-15.5 -186.5zM430 1589h109q10 39 28.5 69t67.5 30q29 0 63 -17l80 -37q43 -20 94.5 -36.5t108.5 -16.5q59 0 104 26.5t78 69.5t52.5 96.5t27.5 104.5h-110q-12 -31 -33 -62.5t-68 -31.5q-31 0 -71 16l-87 37q-47 21 -97 37t-99 16 q-57 0 -100 -28.5t-74 -73.5t-49.5 -97.5t-24.5 -101.5z" />
<glyph unicode="&#xd2;" horiz-adv-x="1820" d="M76 733q0 -178 64.5 -318.5t177 -235.5t262 -143t317.5 -48q178 0 333.5 44t269.5 138t179.5 236.5t65.5 334.5q0 182 -64.5 320.5t-178 233t-267.5 142.5t-330 48t-327.5 -48t-263 -143.5t-175 -235.5t-63.5 -325zM567 766q0 84 12.5 181t49.5 179t103.5 136.5 t174.5 54.5q115 0 183.5 -57.5t104.5 -144.5t47 -188.5t11 -189.5q0 -55 -4 -120.5t-16 -130t-34.5 -126t-59.5 -107.5t-90 -74.5t-127 -28.5q-82 0 -140.5 27.5t-98.5 75.5t-62.5 109.5t-35 130t-15.5 139t-3 134.5zM569 1839q0 -27 12.5 -49.5t31 -39.5t40.5 -32l43 -26 l250 -144h137l-227 307q-29 39 -67.5 68t-92.5 29q-51 0 -89 -28t-38 -85z" />
<glyph unicode="&#xd3;" horiz-adv-x="1820" d="M76 733q0 -178 64.5 -318.5t177 -235.5t262 -143t317.5 -48q178 0 333.5 44t269.5 138t179.5 236.5t65.5 334.5q0 182 -64.5 320.5t-178 233t-267.5 142.5t-330 48t-327.5 -48t-263 -143.5t-175 -235.5t-63.5 -325zM567 766q0 84 12.5 181t49.5 179t103.5 136.5 t174.5 54.5q115 0 183.5 -57.5t104.5 -144.5t47 -188.5t11 -189.5q0 -55 -4 -120.5t-16 -130t-34.5 -126t-59.5 -107.5t-90 -74.5t-127 -28.5q-82 0 -140.5 27.5t-98.5 75.5t-62.5 109.5t-35 130t-15.5 139t-3 134.5zM737 1548h140l249 144q18 10 41 24.5t43.5 32.5t33.5 42 t13 50q0 57 -38.5 83t-92.5 26q-57 0 -94 -28t-65 -67z" />
<glyph unicode="&#xd4;" horiz-adv-x="1820" d="M76 733q0 -178 64.5 -318.5t177 -235.5t262 -143t317.5 -48q178 0 333.5 44t269.5 138t179.5 236.5t65.5 334.5q0 182 -64.5 320.5t-178 233t-267.5 142.5t-330 48t-327.5 -48t-263 -143.5t-175 -235.5t-63.5 -325zM535 1548h157l219 191l217 -191h162l-252 371h-256z M567 766q0 84 12.5 181t49.5 179t103.5 136.5t174.5 54.5q115 0 183.5 -57.5t104.5 -144.5t47 -188.5t11 -189.5q0 -55 -4 -120.5t-16 -130t-34.5 -126t-59.5 -107.5t-90 -74.5t-127 -28.5q-82 0 -140.5 27.5t-98.5 75.5t-62.5 109.5t-35 130t-15.5 139t-3 134.5z" />
<glyph unicode="&#xd5;" horiz-adv-x="1820" d="M76 733q0 -178 64.5 -318.5t177 -235.5t262 -143t317.5 -48q178 0 333.5 44t269.5 138t179.5 236.5t65.5 334.5q0 182 -64.5 320.5t-178 233t-267.5 142.5t-330 48t-327.5 -48t-263 -143.5t-175 -235.5t-63.5 -325zM506 1589h108q10 39 29 69t68 30q29 0 63 -17l80 -37 q43 -20 94 -36.5t109 -16.5q59 0 104 26.5t78 69.5t52.5 96.5t27.5 104.5h-111q-12 -31 -32.5 -62.5t-67.5 -31.5q-31 0 -72 16.5t-87 37t-96 36.5t-99 16q-57 0 -100.5 -28.5t-74 -73.5t-49 -97.5t-24.5 -101.5zM567 766q0 84 12.5 181t49.5 179t103.5 136.5t174.5 54.5 q115 0 183.5 -57.5t104.5 -144.5t47 -188.5t11 -189.5q0 -55 -4 -120.5t-16 -130t-34.5 -126t-59.5 -107.5t-90 -74.5t-127 -28.5q-82 0 -140.5 27.5t-98.5 75.5t-62.5 109.5t-35 130t-15.5 139t-3 134.5z" />
<glyph unicode="&#xd6;" horiz-adv-x="1820" d="M76 733q0 -178 64.5 -318.5t177 -235.5t262 -143t317.5 -48q178 0 333.5 44t269.5 138t179.5 236.5t65.5 334.5q0 182 -64.5 320.5t-178 233t-267.5 142.5t-330 48t-327.5 -48t-263 -143.5t-175 -235.5t-63.5 -325zM498 1720q0 -35 14 -66.5t37.5 -56t55.5 -39t67 -14.5 q37 0 68.5 14.5t55 38t38 55t14.5 68.5t-14.5 69t-39 55.5t-56 36.5t-66.5 13q-33 0 -65 -13t-56.5 -36.5t-38.5 -55.5t-14 -69zM567 766q0 84 12.5 181t49.5 179t103.5 136.5t174.5 54.5q115 0 183.5 -57.5t104.5 -144.5t47 -188.5t11 -189.5q0 -55 -4 -120.5t-16 -130 t-34.5 -126t-59.5 -107.5t-90 -74.5t-127 -28.5q-82 0 -140.5 27.5t-98.5 75.5t-62.5 109.5t-35 130t-15.5 139t-3 134.5zM975 1720q0 -35 14.5 -66.5t38 -56t55 -39t68.5 -14.5t68.5 14.5t55 38t37 55t13.5 68.5q0 74 -52 124t-122 50q-35 0 -66.5 -13t-56 -36.5t-39 -55.5 t-14.5 -69z" />
<glyph unicode="&#xd7;" horiz-adv-x="1366" d="M147 258l158 -158l377 379l381 -379l158 158l-379 379l379 379l-158 155l-381 -376l-377 376l-158 -155l379 -379z" />
<glyph unicode="&#xd8;" horiz-adv-x="1820" d="M76 733q0 -160 60 -306.5t183 -250.5l-186 -201l98 -98l203 219q104 -59 225 -83.5t238 -24.5q178 0 333.5 44t269.5 138t179.5 236.5t65.5 334.5q0 160 -55.5 300.5t-178.5 244.5l168 184l-98 99l-186 -201q-104 57 -226 87t-264 30q-176 0 -327.5 -48t-263 -143.5 t-175 -235.5t-63.5 -325zM567 766q0 84 12.5 181t49.5 179t103.5 136.5t174.5 54.5q104 0 172 -48t107 -134l-594 -658q-16 80 -20.5 158t-4.5 131zM639 322l594 657q10 -57 15 -117.5t5 -124.5q0 -84 -10 -186t-44 -191.5t-100.5 -149.5t-176.5 -60q-100 0 -169 40 t-114 132z" />
<glyph unicode="&#xd9;" horiz-adv-x="1630" d="M135 1466q16 -184 19.5 -387t3.5 -461q0 -334 163.5 -482t495.5 -148q162 0 296 46t226 150q45 53 72 107.5t41 117t18.5 136t4.5 166.5q0 53 2 142t6 193.5t9 215t11 204.5q-35 -8 -69.5 -13t-73.5 -5q-41 0 -80 6l-80 12q14 -160 19.5 -301t5.5 -270v-147v-74 q0 -37 -2 -74q-2 -70 -8.5 -125t-34.5 -110q-35 -68 -105.5 -102t-144.5 -34q-117 0 -181.5 41t-93 113t-34 168t-5.5 209v137q0 66 2.5 144.5t5.5 156.5t8 148.5t13 119.5q-63 -10 -125.5 -14t-128.5 -4q-68 0 -128 4t-128 14zM514 1839q0 -27 12.5 -49.5t30.5 -39.5 t41 -32l43 -26l250 -144h137l-227 307q-29 39 -68 68t-92 29q-51 0 -89 -28t-38 -85z" />
<glyph unicode="&#xda;" horiz-adv-x="1630" d="M135 1466q16 -184 19.5 -387t3.5 -461q0 -334 163.5 -482t495.5 -148q162 0 296 46t226 150q45 53 72 107.5t41 117t18.5 136t4.5 166.5q0 53 2 142t6 193.5t9 215t11 204.5q-35 -8 -69.5 -13t-73.5 -5q-41 0 -80 6l-80 12q14 -160 19.5 -301t5.5 -270v-147v-74 q0 -37 -2 -74q-2 -70 -8.5 -125t-34.5 -110q-35 -68 -105.5 -102t-144.5 -34q-117 0 -181.5 41t-93 113t-34 168t-5.5 209v137q0 66 2.5 144.5t5.5 156.5t8 148.5t13 119.5q-63 -10 -125.5 -14t-128.5 -4q-68 0 -128 4t-128 14zM723 1548h139l250 144q18 10 41 24.5 t43.5 32.5t33.5 42t13 50q0 57 -39 83t-92 26q-57 0 -94 -28t-66 -67z" />
<glyph unicode="&#xdb;" horiz-adv-x="1630" d="M135 1466q16 -184 19.5 -387t3.5 -461q0 -334 163.5 -482t495.5 -148q162 0 296 46t226 150q45 53 72 107.5t41 117t18.5 136t4.5 166.5q0 53 2 142t6 193.5t9 215t11 204.5q-35 -8 -69.5 -13t-73.5 -5q-41 0 -80 6l-80 12q14 -160 19.5 -301t5.5 -270v-147v-74 q0 -37 -2 -74q-2 -70 -8.5 -125t-34.5 -110q-35 -68 -105.5 -102t-144.5 -34q-117 0 -181.5 41t-93 113t-34 168t-5.5 209v137q0 66 2.5 144.5t5.5 156.5t8 148.5t13 119.5q-63 -10 -125.5 -14t-128.5 -4q-68 0 -128 4t-128 14zM459 1548h157l220 191l217 -191h161l-251 371 h-256z" />
<glyph unicode="&#xdc;" horiz-adv-x="1630" d="M135 1466q16 -184 19.5 -387t3.5 -461q0 -334 163.5 -482t495.5 -148q162 0 296 46t226 150q45 53 72 107.5t41 117t18.5 136t4.5 166.5q0 53 2 142t6 193.5t9 215t11 204.5q-35 -8 -69.5 -13t-73.5 -5q-41 0 -80 6l-80 12q14 -160 19.5 -301t5.5 -270v-147v-74 q0 -37 -2 -74q-2 -70 -8.5 -125t-34.5 -110q-35 -68 -105.5 -102t-144.5 -34q-117 0 -181.5 41t-93 113t-34 168t-5.5 209v137q0 66 2.5 144.5t5.5 156.5t8 148.5t13 119.5q-63 -10 -125.5 -14t-128.5 -4q-68 0 -128 4t-128 14zM442 1720q0 -35 14.5 -66.5t38 -56t55.5 -39 t66 -14.5q37 0 69 14.5t55.5 38t38 55t14.5 68.5t-14.5 69t-39 55.5t-56.5 36.5t-67 13q-33 0 -64.5 -13t-56 -36.5t-39 -55.5t-14.5 -69zM920 1720q0 -35 14 -66.5t37.5 -56t55.5 -39t69 -14.5t68.5 14.5t55 38t37 55t13.5 68.5q0 74 -52 124t-122 50q-35 0 -67 -13 t-56.5 -36.5t-38.5 -55.5t-14 -69z" />
<glyph unicode="&#xdd;" horiz-adv-x="1402" d="M14 1466l103 -182l104 -180l111 -203l104 -203q23 -41 34 -65.5t11 -40.5q0 -31 -1 -99.5t-3 -153.5t-6 -175t-10 -164q63 8 124.5 13t125.5 5q51 0 111.5 -3t133.5 -15q-14 119 -20 236.5t-6 240.5q0 43 1 86t3 86l29 56l202 382q102 193 219 379q-29 -8 -66.5 -13 t-76.5 -5q-35 0 -70 6l-69 12q-55 -154 -123 -303l-137 -295l-113 228l-76 153q-31 66 -51 115t-39 102q-53 -10 -122.5 -14t-135.5 -4q-68 0 -141.5 4t-149.5 14zM610 1548h140l249 144q18 10 41 24.5t43.5 32.5t33.5 42t13 50q0 57 -38.5 83t-92.5 26q-57 0 -94 -28 t-65 -67z" />
<glyph unicode="&#xde;" horiz-adv-x="1441" d="M135 0q70 8 138.5 13t138.5 5q57 0 114 -6l115 -12q-10 98 -15 181t-5 165q33 -4 82 -7t120 -3q111 0 212.5 21.5t180 72.5t126 136t47.5 210q0 121 -48.5 198t-127 122t-177 62.5t-198.5 17.5q-49 0 -102.5 -1t-112.5 -4q0 63 6 140.5t14 154.5q-53 -6 -110.5 -10 t-116.5 -4q-61 0 -134 3t-141 11q6 -92 10.5 -196.5t7.5 -209t4 -201.5t1 -173q0 -100 -1 -183t-4 -162t-10 -161zM621 504v121v116q0 59 1 124t1 143q16 2 33.5 3t35.5 1q45 0 85 -9.5t71 -36t49 -74.5t18 -128q0 -55 -10 -104.5t-34.5 -84t-66.5 -55t-106 -20.5h-41 q-10 0 -18 1t-18 3z" />
<glyph unicode="&#xdf;" horiz-adv-x="1366" d="M111 0q47 6 101 12t124 6q59 0 123 -8l100 -10q-4 88 -8 217l-6 270l-4 277q-2 135 -2 235q0 78 3 155t20.5 139.5t56 101.5t110.5 39q29 0 58.5 -9.5t54 -30t40 -52t15.5 -78.5q0 -45 -14.5 -86t-36 -78t-47.5 -72l-56 -67q-45 -57 -72.5 -107.5t-27.5 -126.5 q0 -39 7 -68.5t25.5 -58.5t49.5 -61.5t78 -77.5q90 -90 136 -146.5t46 -103.5q0 -31 -20.5 -56.5t-67.5 -25.5q-31 0 -52.5 11.5t-36.5 28.5t-30 40l-24 45h-92q2 -14 2 -27v-24v-47q0 -53 -3 -83l-8 -65l86 -14q41 -8 105 -8q94 0 179 28.5t148.5 87t101.5 143.5t38 191 q0 55 -13.5 96t-38 78t-61.5 74l-82 82l-80 76q-31 31 -51 53.5t-28.5 38.5t-8.5 33q0 14 9.5 32.5t50.5 57.5q61 57 100 107t39 132q0 84 -40 140.5t-102.5 90.5t-138 48t-147.5 14q-49 0 -116.5 -8t-139.5 -33.5t-138.5 -74t-113.5 -130.5q-66 -117 -77 -252t-11 -296 q0 -41 1 -91.5t1 -105.5q0 -53 1 -104.5t1 -90.5q0 -43 -2 -96l-4 -108q-2 -55 -5 -107.5t-5 -91.5z" />
<glyph unicode="&#xe0;" horiz-adv-x="1175" d="M47 272q0 -76 24.5 -129t68.5 -88t104.5 -49t130.5 -14q78 0 154.5 26.5t132.5 79.5q16 -20 36.5 -40.5t47 -36t63.5 -22.5t88 -7q66 0 143.5 23.5t135.5 66.5l-5 29q-2 12 -2 26q0 16 2.5 30.5t4.5 31.5q-39 -23 -76 -23q-27 0 -41.5 13.5t-21.5 38t-8 56t-1 68.5 t2 89.5t3 108.5t3 110.5t2 93.5q0 66 -26.5 125t-82 103t-140 70.5t-201.5 26.5q-127 0 -232.5 -28.5t-216.5 -87.5l41 -183l60 -4q35 61 96 86t129 25q37 0 69.5 -5t57 -20.5t38 -43t13.5 -70.5q0 -29 -8 -47.5t-31.5 -33t-67.5 -27.5t-116 -32q-80 -23 -148.5 -47 t-119 -61t-78 -91.5t-27.5 -136.5zM246 1495q0 -27 12 -49.5t30.5 -39.5t41.5 -32l43 -26l250 -144h137l-228 307q-29 39 -67.5 68t-91.5 29q-51 0 -89 -28t-38 -85zM453 317q0 49 6 81t25.5 56.5t56.5 44t96 42.5v-262q0 -41 -25.5 -68t-72.5 -27q-51 0 -68.5 40t-17.5 93z " />
<glyph unicode="&#xe1;" horiz-adv-x="1175" d="M47 272q0 -76 24.5 -129t68.5 -88t104.5 -49t130.5 -14q78 0 154.5 26.5t132.5 79.5q16 -20 36.5 -40.5t47 -36t63.5 -22.5t88 -7q66 0 143.5 23.5t135.5 66.5l-5 29q-2 12 -2 26q0 16 2.5 30.5t4.5 31.5q-39 -23 -76 -23q-27 0 -41.5 13.5t-21.5 38t-8 56t-1 68.5 t2 89.5t3 108.5t3 110.5t2 93.5q0 66 -26.5 125t-82 103t-140 70.5t-201.5 26.5q-127 0 -232.5 -28.5t-216.5 -87.5l41 -183l60 -4q35 61 96 86t129 25q37 0 69.5 -5t57 -20.5t38 -43t13.5 -70.5q0 -29 -8 -47.5t-31.5 -33t-67.5 -27.5t-116 -32q-80 -23 -148.5 -47 t-119 -61t-78 -91.5t-27.5 -136.5zM393 1204h139l250 144q18 10 41 24t43.5 32.5t33.5 42t13 50.5q0 57 -38.5 83t-92.5 26q-57 0 -94 -28t-65 -67zM453 317q0 49 6 81t25.5 56.5t56.5 44t96 42.5v-262q0 -41 -25.5 -68t-72.5 -27q-51 0 -68.5 40t-17.5 93z" />
<glyph unicode="&#xe2;" horiz-adv-x="1175" d="M47 272q0 -76 24.5 -129t68.5 -88t104.5 -49t130.5 -14q78 0 154.5 26.5t132.5 79.5q16 -20 36.5 -40.5t47 -36t63.5 -22.5t88 -7q66 0 143.5 23.5t135.5 66.5l-5 29q-2 12 -2 26q0 16 2.5 30.5t4.5 31.5q-39 -23 -76 -23q-27 0 -41.5 13.5t-21.5 38t-8 56t-1 68.5 t2 89.5t3 108.5t3 110.5t2 93.5q0 66 -26.5 125t-82 103t-140 70.5t-201.5 26.5q-127 0 -232.5 -28.5t-216.5 -87.5l41 -183l60 -4q35 61 96 86t129 25q37 0 69.5 -5t57 -20.5t38 -43t13.5 -70.5q0 -29 -8 -47.5t-31.5 -33t-67.5 -27.5t-116 -32q-80 -23 -148.5 -47 t-119 -61t-78 -91.5t-27.5 -136.5zM211 1204h158l219 191l217 -191h162l-252 371h-256zM453 317q0 49 6 81t25.5 56.5t56.5 44t96 42.5v-262q0 -41 -25.5 -68t-72.5 -27q-51 0 -68.5 40t-17.5 93z" />
<glyph unicode="&#xe3;" horiz-adv-x="1175" d="M47 272q0 -76 24.5 -129t68.5 -88t104.5 -49t130.5 -14q78 0 154.5 26.5t132.5 79.5q16 -20 36.5 -40.5t47 -36t63.5 -22.5t88 -7q66 0 143.5 23.5t135.5 66.5l-5 29q-2 12 -2 26q0 16 2.5 30.5t4.5 31.5q-39 -23 -76 -23q-27 0 -41.5 13.5t-21.5 38t-8 56t-1 68.5 t2 89.5t3 108.5t3 110.5t2 93.5q0 66 -26.5 125t-82 103t-140 70.5t-201.5 26.5q-127 0 -232.5 -28.5t-216.5 -87.5l41 -183l60 -4q35 61 96 86t129 25q37 0 69.5 -5t57 -20.5t38 -43t13.5 -70.5q0 -29 -8 -47.5t-31.5 -33t-67.5 -27.5t-116 -32q-80 -23 -148.5 -47 t-119 -61t-78 -91.5t-27.5 -136.5zM182 1245h109q10 39 28.5 68.5t67.5 29.5q29 0 64 -16l79 -37q43 -20 94.5 -36.5t108.5 -16.5q59 0 104.5 26.5t78 69.5t52 96.5t27.5 104.5h-110q-12 -31 -33 -62.5t-68 -31.5q-31 0 -71 16l-87 37q-46 20 -96.5 36.5t-99.5 16.5 q-57 0 -100 -28.5t-74 -73.5t-49.5 -97.5t-24.5 -101.5zM453 317q0 49 6 81t25.5 56.5t56.5 44t96 42.5v-262q0 -41 -25.5 -68t-72.5 -27q-51 0 -68.5 40t-17.5 93z" />
<glyph unicode="&#xe4;" horiz-adv-x="1175" d="M47 272q0 -76 24.5 -129t68.5 -88t104.5 -49t130.5 -14q78 0 154.5 26.5t132.5 79.5q16 -20 36.5 -40.5t47 -36t63.5 -22.5t88 -7q66 0 143.5 23.5t135.5 66.5l-5 27q-2 14 -2 28q0 16 2.5 30.5t4.5 31.5q-39 -23 -76 -23q-27 0 -41.5 13.5t-21.5 38t-8 56t-1 68.5 t2 89.5t3 108.5t3 110.5t2 93.5q0 66 -26.5 125t-82 103t-140 70.5t-201.5 26.5q-127 0 -232.5 -28.5t-216.5 -87.5l41 -183l60 -4q35 61 96 86t129 25q37 0 69.5 -5t57 -20.5t38 -43t13.5 -70.5q0 -29 -8 -47.5t-31.5 -33t-67.5 -27.5t-116 -32q-80 -23 -148.5 -47 t-119 -61t-78 -91.5t-27.5 -136.5zM174 1376q0 -35 14.5 -66.5t38 -56t55 -39t66.5 -14.5q37 0 69 14.5t55.5 38t37.5 55t14 68.5t-14 69t-39 55.5t-56.5 36.5t-66.5 13q-33 0 -64.5 -13t-56 -36.5t-39 -55.5t-14.5 -69zM453 317q0 49 6 81t25.5 56.5t56.5 44t96 42.5v-262 q0 -41 -25.5 -68t-72.5 -27q-51 0 -68.5 40t-17.5 93zM651 1376q0 -35 14.5 -66.5t38 -56t55.5 -39t68.5 -14.5t68.5 14.5t55.5 38t36.5 55t13 68.5q0 74 -52 124t-122 50q-35 0 -66.5 -13t-56 -36.5t-39 -55.5t-14.5 -69z" />
<glyph unicode="&#xe5;" horiz-adv-x="1175" d="M47 272q0 -76 24.5 -129t68.5 -88t104.5 -49t130.5 -14q78 0 154.5 26.5t132.5 79.5q16 -20 36.5 -40.5t47 -36t63.5 -22.5t88 -7q66 0 143.5 23.5t135.5 66.5l-5 29q-2 12 -2 26q0 16 2.5 30.5t4.5 31.5q-39 -23 -76 -23q-27 0 -41.5 13.5t-21.5 38t-8 56t-1 68.5 t2 89.5t3 108.5t3 110.5t2 93.5q0 66 -26.5 125t-82 103t-140 70.5t-201.5 26.5q-127 0 -232.5 -28.5t-216.5 -87.5l41 -183l60 -4q35 61 96 86t129 25q37 0 69.5 -5t57 -20.5t38 -43t13.5 -70.5q0 -29 -8 -47.5t-31.5 -33t-67.5 -27.5t-116 -32q-80 -23 -148.5 -47 t-119 -61t-78 -91.5t-27.5 -136.5zM360 1397q0 -45 18.5 -86t49.5 -73t73 -50.5t87 -18.5q47 0 88 18.5t71.5 50.5t49 73t18.5 86q0 47 -18.5 88t-49 71.5t-71.5 49t-88 18.5q-45 0 -87 -18.5t-73 -49t-49.5 -71.5t-18.5 -88zM453 317q0 49 6 81t25.5 56.5t56.5 44t96 42.5 v-262q0 -41 -25.5 -68t-72.5 -27q-51 0 -68.5 40t-17.5 93zM481 1397q0 43 32 74.5t75 31.5t74.5 -31.5t31.5 -74.5q0 -45 -32.5 -76t-73.5 -31t-74 31t-33 76z" />
<glyph unicode="&#xe6;" horiz-adv-x="1744" d="M55 270q0 -76 30 -129t80 -87t114.5 -48t132.5 -14q123 0 210 35.5t164 128.5q90 -96 189.5 -130t228.5 -34q92 0 188.5 21.5t178.5 60.5q16 55 30.5 89t43.5 87l-52 55q-25 -27 -58.5 -48t-70.5 -37.5t-75.5 -26t-71.5 -9.5q-70 0 -119 28t-81 73t-46 103t-14 120 q225 6 444 6q45 0 92 -2t88 -4q-2 47 -6 96t-13 98.5t-26.5 96.5t-48.5 90q-74 98 -183.5 144t-232.5 46q-63 -2 -108 -11t-80 -23.5t-63 -32.5l-52 -37q-41 31 -75.5 51.5t-69.5 31.5t-74 16t-88 5q-74 0 -130 -9t-103 -24.5t-90 -35.5l-91 -47l13 -52l11 -41q5 -20 9 -41 l10 -51h66q41 57 104.5 83t128.5 26q35 0 69 -9.5t59.5 -28t42 -45t16.5 -61.5q0 -27 -8.5 -44t-34 -31.5t-70.5 -28.5l-123 -33q-63 -18 -131.5 -41.5t-125 -61.5t-92.5 -93.5t-36 -139.5zM467 326q0 47 7 78.5t29.5 56t63.5 45t109 43.5l-4 -262q0 -41 -23.5 -67.5 t-70.5 -26.5q-35 0 -56.5 11t-34 29.5t-16.5 42t-4 50.5zM1057 651q0 47 2 98.5t14 93.5t37 69.5t70 27.5q43 0 65.5 -26.5t32.5 -68.5t11 -93.5t1 -100.5h-233z" />
<glyph unicode="&#xe7;" horiz-adv-x="1062" d="M59 530q0 -102 32 -195t95.5 -166t155.5 -118t213 -51l-92 -188q8 -4 17 -9.5t18 -9.5l20 8q10 4 27 4q47 0 64.5 -23.5t17.5 -45.5q0 -41 -29 -60.5t-68 -19.5q-35 0 -70.5 9t-64.5 20l-37 -91q39 -12 87.5 -23t129.5 -11q55 0 106.5 12t91.5 35.5t63.5 60.5t23.5 86 q0 12 -6 37t-24.5 48.5t-55.5 41t-98 17.5q-25 0 -41 -4l-39 -7l51 113q43 0 90 5t88 14.5t74 21.5t51 25q20 66 35.5 107.5t38.5 88.5l-63 41q-37 -45 -90.5 -76.5t-112.5 -31.5q-76 0 -122 40.5t-68.5 99t-30 122t-7.5 108.5q0 47 6.5 108.5t26 116t58 91.5t102.5 37 q41 0 68.5 -15.5t46 -40t30 -57.5t17.5 -68h76q6 37 12 66l14 57q8 29 17 58l20 65q-88 41 -181 68.5t-192 27.5q-121 0 -228.5 -34.5t-188 -103.5t-128 -172t-47.5 -239z" />
<glyph unicode="&#xe8;" horiz-adv-x="1175" d="M59 541q0 -51 9.5 -111.5t34 -121t65.5 -118t105.5 -100.5t154.5 -67.5t211 -24.5q92 0 188.5 18.5t178.5 57.5q8 29 15 50t15 41.5t19 41.5l24 47l-51 55q-25 -27 -58.5 -48t-70.5 -36.5t-76 -25t-71 -9.5q-68 0 -117 27t-81 72t-46 101t-14 118q221 6 442 6q45 0 92 -2 t88 -4q-4 92 -18.5 191.5t-75.5 187.5q-74 98 -183.5 145t-232.5 47q-141 0 -243.5 -43t-170 -115.5t-100.5 -171t-33 -208.5zM266 1495q0 -27 12.5 -49.5t31 -39.5t40.5 -32l43 -26l250 -144h137l-227 307q-29 39 -68 68t-92 29q-51 0 -89 -28t-38 -85zM494 651 q0 47 2 98.5t13 93.5t35.5 69.5t69.5 27.5q43 0 65.5 -26.5t33 -68.5t11.5 -93.5t1 -100.5h-231z" />
<glyph unicode="&#xe9;" horiz-adv-x="1175" d="M59 541q0 -51 9.5 -111.5t34 -121t65.5 -118t105.5 -100.5t154.5 -67.5t211 -24.5q92 0 188.5 18.5t178.5 57.5q8 29 15 50t15 41.5t19 41.5l24 47l-51 55q-25 -27 -58.5 -48t-70.5 -36.5t-76 -25t-71 -9.5q-68 0 -117 27t-81 72t-46 101t-14 118q221 6 442 6q45 0 92 -2 t88 -4q-4 92 -18.5 191.5t-75.5 187.5q-74 98 -183.5 145t-232.5 47q-141 0 -243.5 -43t-170 -115.5t-100.5 -171t-33 -208.5zM424 1204h139l250 144q18 10 41 24t43.5 32.5t33.5 42t13 50.5q0 57 -39 83t-92 26q-57 0 -94 -28t-66 -67zM494 651q0 47 2 98.5t13 93.5 t35.5 69.5t69.5 27.5q43 0 65.5 -26.5t33 -68.5t11.5 -93.5t1 -100.5h-231z" />
<glyph unicode="&#xea;" horiz-adv-x="1175" d="M59 541q0 -51 9.5 -111.5t34 -121t65.5 -118t105.5 -100.5t154.5 -67.5t211 -24.5q92 0 188.5 18.5t178.5 57.5q8 29 15 50t15 41.5t19 41.5l24 47l-51 55q-25 -27 -58.5 -48t-70.5 -36.5t-76 -25t-71 -9.5q-68 0 -117 27t-81 72t-46 101t-14 118q221 6 442 6q45 0 92 -2 t88 -4q-4 92 -18.5 191.5t-75.5 187.5q-74 98 -183.5 145t-232.5 47q-141 0 -243.5 -43t-170 -115.5t-100.5 -171t-33 -208.5zM211 1204h158l219 191l217 -191h162l-252 371h-256zM494 651q0 47 2 98.5t13 93.5t35.5 69.5t69.5 27.5q43 0 65.5 -26.5t33 -68.5t11.5 -93.5 t1 -100.5h-231z" />
<glyph unicode="&#xeb;" horiz-adv-x="1175" d="M59 541q0 -51 9.5 -111.5t34 -121t65.5 -118t105.5 -100.5t154.5 -67.5t211 -24.5q92 0 188.5 18.5t178.5 57.5q8 29 15 50t15 41.5t19 41.5l24 47l-51 55q-25 -27 -58.5 -48t-70.5 -36.5t-76 -25t-71 -9.5q-68 0 -117 27t-81 72t-46 101t-14 118q221 6 442 6q45 0 92 -2 t88 -4q-4 92 -18.5 191.5t-75.5 187.5q-74 98 -183.5 145t-232.5 47q-141 0 -243.5 -43t-170 -115.5t-100.5 -171t-33 -208.5zM174 1376q0 -35 14.5 -66.5t38 -56t55 -39t66.5 -14.5q37 0 69 14.5t55.5 38t37.5 55t14 68.5t-14 69t-39 55.5t-56.5 36.5t-66.5 13 q-33 0 -64.5 -13t-56 -36.5t-39 -55.5t-14.5 -69zM494 651q0 47 2 98.5t13 93.5t35.5 69.5t69.5 27.5q43 0 65.5 -26.5t33 -68.5t11.5 -93.5t1 -100.5h-231zM651 1376q0 -35 14.5 -66.5t38 -56t55.5 -39t68.5 -14.5t68.5 14.5t55.5 38t36.5 55t13 68.5q0 74 -52 124t-122 50 q-35 0 -66.5 -13t-56 -36.5t-39 -55.5t-14.5 -69z" />
<glyph unicode="&#xec;" horiz-adv-x="681" d="M0 1495q0 -27 12.5 -49.5t30.5 -39.5t41 -32l43 -26l250 -144h137l-227 307q-29 39 -68 68t-92 29q-51 0 -89 -28t-38 -85zM109 0l108 12q55 6 109 6q59 0 119.5 -5t119.5 -13q-2 43 -5 95t-3 108l-4 110v103v110q0 98 3 238.5t15 308.5q-113 -18 -231 -18 q-59 0 -115.5 4t-113.5 14l8 -98q2 -43 4 -94.5t3 -123t1 -188.5q0 -119 -1 -196q-1 -76 -2 -134.5t-5 -111.5z" />
<glyph unicode="&#xed;" horiz-adv-x="681" d="M109 0l108 12q55 6 109 6q59 0 119.5 -5t119.5 -13q-2 43 -5 95t-3 108l-4 110v103v110q0 98 3 238.5t15 308.5q-113 -18 -231 -18q-59 0 -115.5 4t-113.5 14l8 -98q2 -43 4 -94.5t3 -123t1 -188.5q0 -119 -1 -196q-1 -76 -2 -134.5t-5 -111.5zM158 1204h139l250 144 q18 10 40.5 24t43 32.5t34 42t13.5 50.5q0 57 -39 83t-92 26q-57 0 -94 -28t-66 -67z" />
<glyph unicode="&#xee;" horiz-adv-x="681" d="M-29 1204h152l219 191l217 -191h162l-252 371h-256zM109 0l108 12q55 6 109 6q59 0 119.5 -5t119.5 -13q-2 43 -5 95t-3 108l-4 110v103v110q0 98 3 238.5t15 308.5q-113 -18 -231 -18q-59 0 -115.5 4t-113.5 14l8 -98q2 -43 4 -94.5t3 -123t1 -188.5q0 -119 -1 -196 q-1 -76 -2 -134.5t-5 -111.5z" />
<glyph unicode="&#xef;" horiz-adv-x="681" d="M-66 1376q0 -35 13.5 -66.5t35 -56t53.5 -39t66 -14.5q37 0 69 14.5t55.5 38t38 55t14.5 68.5t-14.5 69t-39 55.5t-56.5 36.5t-67 13q-68 0 -118 -50t-50 -124zM109 0l108 12q55 6 109 6q59 0 119.5 -5t119.5 -13q-2 43 -5 95t-5 108l-2 110v103v110q0 98 3 238.5 t15 308.5q-113 -18 -231 -18q-59 0 -115.5 4t-113.5 14l6 -100q4 -41 6 -92.5t3 -123t1 -188.5q0 -119 -1 -196q-1 -76 -2 -134.5t-5 -111.5zM406 1376q0 -35 14 -66.5t37.5 -56t55.5 -39t68.5 -14.5t68.5 14.5t55.5 38t37 55t13.5 68.5q0 74 -52 124t-122 50q-35 0 -67 -13 t-56.5 -36.5t-38.5 -55.5t-14 -69z" />
<glyph unicode="&#xf0;" d="M61 537q0 -139 44.5 -241.5t124 -169.5t190 -97.5t242 -30.5t242 31.5t191.5 103.5t126 185.5t45 275.5q0 227 -93.5 416.5t-252.5 355.5l129 43q63 23 131 39q-23 33 -41.5 65.5t-28.5 67.5q-70 -35 -141 -63l-146 -54l-65 62q-35 33 -72 63h-41q-82 -31 -171 -54.5 t-183 -41.5l90 -82q41 -39 78 -78l-137 -49q-66 -23 -136 -39q23 -33 41.5 -65.5t28.5 -67.5q72 35 143 64l146 55q76 -80 123 -150q-125 0 -234.5 -34.5t-192.5 -103.5t-131.5 -171t-48.5 -235zM524 553q0 84 4 156.5t18.5 125t42 82t75.5 29.5q51 0 78.5 -34.5t41 -92 t16.5 -131t3 -151.5q0 -80 -2 -154t-15.5 -131t-41 -91t-80.5 -34q-51 0 -80 37t-42.5 97.5t-15.5 137t-2 154.5z" />
<glyph unicode="&#xf1;" d="M106 0l109 12q55 6 111 6q59 0 115.5 -7t115.5 -11q-6 63 -9 139t-3 195v184q0 57 2 112.5t13 98.5t34.5 69.5t69.5 26.5q41 0 63.5 -19.5t33.5 -52t13 -71.5t2 -80q0 -154 -4 -301t-12 -301q53 8 112.5 13t112.5 5q55 0 110.5 -5t110.5 -13q-4 66 -5 149.5t-1 159.5v88 v78q0 43 1 88t1 88v78q0 172 -88 261t-260 89q-55 0 -98 -10t-82 -31.5t-75 -52.5t-73 -72q10 80 13 160q-104 -18 -213 -18q-53 0 -109.5 5t-107.5 13q10 -96 14 -182t4 -197v-162q0 -135 -4 -268t-17 -264zM258 1245h109q10 39 28.5 68.5t67.5 29.5q29 0 63 -16l80 -37 q43 -20 94.5 -36.5t108.5 -16.5q59 0 104 26.5t78 69.5t52.5 96.5t27.5 104.5h-110q-12 -31 -33 -62.5t-68 -31.5q-31 0 -72 16l-87 37q-46 20 -96 36.5t-99 16.5q-57 0 -100.5 -28.5t-74 -73.5t-49 -97.5t-24.5 -101.5z" />
<glyph unicode="&#xf2;" d="M61 537q0 -139 44.5 -241.5t124 -169.5t190 -97.5t242.5 -30.5q127 0 237.5 31.5t191 99.5t128 170t47.5 240q0 111 -38 209t-113 172.5t-187.5 117.5t-259.5 43q-125 0 -234.5 -34.5t-192.5 -103.5t-131.5 -171t-48.5 -235zM322 1495q0 -27 12 -49.5t30.5 -39.5 t41.5 -32l43 -26l249 -144h138l-228 307q-29 39 -67.5 68t-91.5 29q-51 0 -89 -28t-38 -85zM524 553q0 84 4 156.5t18.5 125t42 82t75.5 29.5q51 0 78.5 -34.5t41 -92t16.5 -131t3 -151.5q0 -80 -2 -154t-15.5 -131t-41 -91t-80.5 -34q-51 0 -80 37t-42.5 97.5t-15.5 137 t-2 154.5z" />
<glyph unicode="&#xf3;" d="M61 537q0 -139 44.5 -241.5t124 -169.5t190 -97.5t242.5 -30.5q127 0 237.5 31.5t191 99.5t128 170t47.5 240q0 111 -38 209t-113 172.5t-187.5 117.5t-259.5 43q-125 0 -234.5 -34.5t-192.5 -103.5t-131.5 -171t-48.5 -235zM489 1204h140l250 144q18 10 40.5 24t43 32.5 t34 42t13.5 50.5q0 57 -39 83t-92 26q-57 0 -94 -28t-66 -67zM524 553q0 84 4 156.5t18.5 125t42 82t75.5 29.5q51 0 78.5 -34.5t41 -92t16.5 -131t3 -151.5q0 -80 -2 -154t-15.5 -131t-41 -91t-80.5 -34q-51 0 -80 37t-42.5 97.5t-15.5 137t-2 154.5z" />
<glyph unicode="&#xf4;" d="M61 537q0 -139 44.5 -241.5t124 -169.5t190 -97.5t242.5 -30.5q127 0 237.5 31.5t191 99.5t128 170t47.5 240q0 111 -38 209t-113 172.5t-187.5 117.5t-259.5 43q-125 0 -234.5 -34.5t-192.5 -103.5t-131.5 -171t-48.5 -235zM287 1204h157l220 191l217 -191h161l-251 371 h-256zM524 553q0 84 4 156.5t18.5 125t42 82t75.5 29.5q51 0 78.5 -34.5t41 -92t16.5 -131t3 -151.5q0 -80 -2 -154t-15.5 -131t-41 -91t-80.5 -34q-51 0 -80 37t-42.5 97.5t-15.5 137t-2 154.5z" />
<glyph unicode="&#xf5;" d="M61 537q0 -139 44.5 -241.5t124 -169.5t190 -97.5t242.5 -30.5q127 0 237.5 31.5t191 99.5t128 170t47.5 240q0 111 -38 209t-113 172.5t-187.5 117.5t-259.5 43q-125 0 -234.5 -34.5t-192.5 -103.5t-131.5 -171t-48.5 -235zM258 1245h109q10 39 28.5 68.5t67.5 29.5 q29 0 63 -16l80 -37q43 -20 94.5 -36.5t108.5 -16.5q59 0 104 26.5t78 69.5t52.5 96.5t27.5 104.5h-110q-12 -31 -33 -62.5t-68 -31.5q-31 0 -72 16l-87 37q-46 20 -96 36.5t-99 16.5q-57 0 -100.5 -28.5t-74 -73.5t-49 -97.5t-24.5 -101.5zM524 553q0 84 4 156.5t18.5 125 t42 82t75.5 29.5q51 0 78.5 -34.5t41 -92t16.5 -131t3 -151.5q0 -80 -2 -154t-15.5 -131t-41 -91t-80.5 -34q-51 0 -80 37t-42.5 97.5t-15.5 137t-2 154.5z" />
<glyph unicode="&#xf6;" d="M61 537q0 -139 44.5 -241.5t124 -169.5t190 -97.5t242.5 -30.5q127 0 237.5 31.5t191 99.5t128 170t47.5 240q0 111 -38 209t-113 172.5t-187.5 117.5t-259.5 43q-125 0 -234.5 -34.5t-192.5 -103.5t-131.5 -171t-48.5 -235zM250 1376q0 -35 14.5 -66.5t38 -56t55 -39 t66.5 -14.5q37 0 68.5 14.5t55 38t38 55t14.5 68.5t-14.5 69t-39 55.5t-56 36.5t-66.5 13q-33 0 -64.5 -13t-56 -36.5t-39 -55.5t-14.5 -69zM524 553q0 84 4 156.5t18.5 125t42 82t75.5 29.5q51 0 78.5 -34.5t41 -92t16.5 -131t3 -151.5q0 -80 -2 -154t-15.5 -131t-41 -91 t-80.5 -34q-51 0 -80 37t-42.5 97.5t-15.5 137t-2 154.5zM727 1376q0 -35 14.5 -66.5t38 -56t55 -39t68.5 -14.5t69 14.5t55.5 38t36.5 55t13 68.5q0 74 -52 124t-122 50q-35 0 -66.5 -13t-56 -36.5t-39 -55.5t-14.5 -69z" />
<glyph unicode="&#xf7;" horiz-adv-x="1366" d="M131 524h1104v224h-1104v-224zM508 229.5q0 -34.5 14.5 -66.5t38 -56.5t55 -39t66.5 -14.5q37 0 68.5 14.5t55 38t38 55.5t14.5 68.5t-14.5 68.5t-38 55.5t-55 36.5t-68.5 13q-35 0 -66.5 -14t-55 -37.5t-38 -55.5t-14.5 -66.5zM508 1044.5q0 -34.5 14.5 -66.5t38 -56.5 t55 -39t66.5 -14.5q37 0 68.5 14.5t55 38t38 55.5t14.5 68.5t-14.5 68.5t-38 55.5t-55 37t-68.5 13.5q-35 0 -66.5 -14.5t-55 -38t-38 -55.5t-14.5 -66.5z" />
<glyph unicode="&#xf8;" d="M61 520q0 -119 44.5 -221t136.5 -180l-136 -158l101 -80l143 168q72 -35 147.5 -43t157.5 -8q129 0 241 31.5t193.5 99.5t129 170t47.5 240q0 123 -46 229t-139 182l142 172l-90 76l-152 -182q-66 31 -143.5 48t-169.5 17q-137 0 -249 -38.5t-192 -110.5t-123 -176.5 t-43 -235.5zM524 465v88q0 84 4 156.5t18.5 125t43 82t76.5 29.5q59 0 87 -46t40 -114zM539 285l264 323q0 -113 -2 -202t-15.5 -151t-41 -95t-78.5 -33q-57 0 -86 44t-41 114z" />
<glyph unicode="&#xf9;" d="M119 1073q7 -76 7 -160v-21q-1 -96 -1 -237v-73q0 -39 -1 -81t-1 -83v-72q0 -166 84 -256t252 -90q61 0 106 7t83 26.5t74 50.5t77 74q-4 -78 -13 -158l103 12q53 6 104 6q55 0 115.5 -6t108.5 -12q-10 92 -13.5 203.5t-3.5 271.5v158q0 66 1 130t3 123.5t6 107.5t9 79 q-111 -18 -220 -18q-59 0 -115.5 5t-115.5 13q10 -123 11 -265t1 -278q0 -49 -2 -99t-12 -91t-33.5 -67.5t-66.5 -26.5t-67 21.5t-34 56t-12 82t-2 96.5q0 117 1 196.5t3 143t5 117t7 114.5q-53 -8 -104 -13t-105 -5q-59 0 -120 6zM322 1495q0 -27 12 -49.5t30.5 -39.5 t41.5 -32l43 -26l249 -144h138l-228 307q-29 39 -67.5 68t-91.5 29q-51 0 -89 -28t-38 -85z" />
<glyph unicode="&#xfa;" d="M119 1073q7 -76 7 -160v-21q-1 -96 -1 -237v-73q0 -39 -1 -81t-1 -83v-72q0 -166 84 -256t252 -90q61 0 106 7t83 26.5t74 50.5t77 74q-4 -78 -13 -158l103 12q53 6 104 6q55 0 115.5 -6t108.5 -12q-10 92 -13.5 203.5t-3.5 271.5v158q0 66 1 130t3 123.5t6 107.5t9 79 q-111 -18 -220 -18q-59 0 -115.5 5t-115.5 13q10 -123 11 -265t1 -278q0 -49 -2 -99t-12 -91t-33.5 -67.5t-66.5 -26.5t-67 21.5t-34 56t-12 82t-2 96.5q0 117 1 196.5t3 143t5 117t7 114.5q-53 -8 -104 -13t-105 -5q-59 0 -120 6zM489 1204h140l250 144q18 10 40.5 24 t43 32.5t34 42t13.5 50.5q0 57 -39 83t-92 26q-57 0 -94 -28t-66 -67z" />
<glyph unicode="&#xfb;" d="M119 1073q7 -76 7 -160v-21q-1 -96 -1 -237v-73q0 -39 -1 -81t-1 -83v-72q0 -166 84 -256t252 -90q61 0 106 7t83 26.5t74 50.5t77 74q-4 -78 -13 -158l103 12q53 6 104 6q55 0 115.5 -6t108.5 -12q-10 92 -13.5 203.5t-3.5 271.5v158q0 66 1 130t3 123.5t6 107.5t9 79 q-111 -18 -220 -18q-59 0 -115.5 5t-115.5 13q10 -123 11 -265t1 -278q0 -49 -2 -99t-12 -91t-33.5 -67.5t-66.5 -26.5t-67 21.5t-34 56t-12 82t-2 96.5q0 117 1 196.5t3 143t5 117t7 114.5q-53 -8 -104 -13t-105 -5q-59 0 -120 6zM287 1204h157l220 191l217 -191h161 l-251 371h-256z" />
<glyph unicode="&#xfc;" d="M119 1073q7 -76 7 -160v-21q-1 -96 -1 -237v-73q0 -39 -1 -81t-1 -83v-72q0 -166 84 -256t252 -90q61 0 106 7t83 26.5t74 50.5t77 74q-4 -78 -13 -158l103 12q53 6 104 6q55 0 115.5 -6t108.5 -12q-10 92 -13.5 203.5t-3.5 271.5v158q0 66 1 130t3 123.5t6 107.5t9 79 q-111 -18 -220 -18q-59 0 -115.5 5t-115.5 13q10 -123 11 -265t1 -278q0 -49 -2 -99t-12 -91t-33.5 -67.5t-66.5 -26.5t-67 21.5t-34 56t-12 82t-2 96.5q0 117 1 196.5t3 143t5 117t7 114.5q-53 -8 -104 -13t-105 -5q-59 0 -120 6zM250 1376q0 -35 14.5 -66.5t38 -56t55 -39 t66.5 -14.5q37 0 68.5 14.5t55 38t38 55t14.5 68.5t-14.5 69t-39 55.5t-56 36.5t-66.5 13q-33 0 -64.5 -13t-56 -36.5t-39 -55.5t-14.5 -69zM727 1376q0 -35 14.5 -66.5t38 -56t55 -39t68.5 -14.5t69 14.5t55.5 38t36.5 55t13 68.5q0 74 -52 124t-122 50q-35 0 -66.5 -13 t-56 -36.5t-39 -55.5t-14.5 -69z" />
<glyph unicode="&#xfd;" horiz-adv-x="1099" d="M-12 1073q47 -125 105.5 -248t111.5 -247q86 -199 143 -345l103 -260q-14 -35 -37 -84l-47 -98l-48 -98l-38 -80l-74 -150l69 13q33 6 68 6q33 0 64 -6l63 -13q53 168 131 373l164 414l168 405l149 344l33 74q-39 -8 -71.5 -13t-65.5 -5t-66.5 5t-70.5 13 q-35 -147 -82 -287l-96 -280l-91 282l-86 285q-61 -12 -122.5 -15t-122.5 -3q-68 0 -131.5 4t-122.5 14zM428 1204h139l250 144q18 10 41 24t43.5 32.5t33.5 42t13 50.5q0 57 -39 83t-92 26q-57 0 -94 -28t-66 -67z" />
<glyph unicode="&#xfe;" d="M106 -537q57 8 115 13.5t113 5.5q59 0 111.5 -5t115.5 -14l-4 84q-4 49 -6 105l-4 115q-2 59 -2 112v217q53 -63 115.5 -83.5t154.5 -20.5q113 0 198 46t141 124t85 177t29 202q0 104 -31 201.5t-91.5 172t-147.5 119.5t-199 45q-92 0 -153.5 -32.5t-117.5 -92.5 q0 147 2 298t15 304q-59 -10 -111.5 -14t-103.5 -4q-55 0 -111 6l-110 12q10 -287 13 -531.5t3 -479.5v-256v-191q0 -94 -2 -178t-3 -158.5t-5 -132.5zM537 532q0 55 3 119t16 118t42 90t78 36q51 0 78.5 -38t41 -95t15.5 -124t2 -126q0 -188 -32.5 -268t-104.5 -80 q-31 0 -56.5 16.5t-44 58.5t-28.5 112t-10 181z" />
<glyph unicode="&#xff;" horiz-adv-x="1099" d="M-12 1073q47 -125 105.5 -248t111.5 -247q86 -199 143 -345l103 -260q-14 -35 -37 -84l-47 -98l-48 -98l-38 -80l-74 -150l67 13q35 6 70 6q33 0 64 -6l63 -13q53 168 131 371l162 414l170 405l149 346l33 74q-39 -8 -71.5 -13t-65.5 -5t-66.5 5t-70.5 13 q-35 -147 -82 -287l-96 -280l-91 282l-86 285q-61 -12 -122.5 -15t-122.5 -3q-68 0 -131.5 4t-122.5 14zM158 1376q0 -35 14 -66.5t37.5 -56t55.5 -39t67 -14.5q37 0 68.5 14.5t55 38t38 55t14.5 68.5t-14.5 69t-39 55.5t-56 36.5t-66.5 13q-33 0 -64.5 -13t-56.5 -36.5 t-39 -55.5t-14 -69zM635 1376q0 -35 14.5 -66.5t38 -56t55 -39t68.5 -14.5t68.5 14.5t55 38t37 55t13.5 68.5q0 74 -52 124t-122 50q-35 0 -66.5 -13t-56 -36.5t-39 -55.5t-14.5 -69z" />
<glyph unicode="&#x152;" horiz-adv-x="2238" d="M76 731q0 -168 50 -305t143 -235.5t228.5 -150.5t303.5 -52q143 0 243.5 47t190.5 151q0 -47 -4 -93t-12 -93q117 12 224 15t218 3q119 0 237.5 -4t237.5 -14q-4 25 -7 51.5t-3 52.5q0 29 3 59t7 58l-86 -4q-51 -4 -106.5 -6t-105.5 -3t-79 -1h-96v469q117 0 227.5 -5 t227.5 -14q-10 57 -11 111q0 29 3 54l8 55q-70 -6 -139.5 -10.5t-131 -6.5t-110.5 -3t-74 -1v401h168q76 0 151.5 -5t153.5 -9q-4 29 -7 57.5t-3 57t3 54.5t7 54q-119 -4 -227.5 -9t-218.5 -5q-117 0 -232 2t-231 12q4 -41 6 -83t2 -83q-80 104 -189.5 144.5t-238.5 40.5 q-172 0 -307 -55.5t-229.5 -154.5t-144.5 -237.5t-50 -306.5zM555 711q0 80 10 184t44 198.5t99.5 159t178.5 64.5q111 0 176 -54.5t100 -137.5t45.5 -178t10.5 -179q0 -55 -4.5 -121.5t-15.5 -135.5t-33.5 -134.5t-59.5 -115.5t-91 -80.5t-130 -30.5q-102 0 -167 58 t-100.5 144t-49 183.5t-13.5 175.5z" />
<glyph unicode="&#x153;" horiz-adv-x="1857" d="M61 528q0 -131 44.5 -230t121 -167t181 -100.5t225.5 -32.5q55 0 101 3t87 17.5t80 39t80 61.5q80 -74 159 -97.5t187 -23.5q92 0 188.5 18.5t178.5 57.5q8 29 15 50t15.5 41.5t18.5 41.5l24 47l-51 55q-25 -27 -58.5 -49t-70.5 -37.5t-75.5 -24t-73.5 -8.5 q-68 0 -117 27t-81 72t-46 101t-14 118q225 6 444 6q45 0 92 -2t88 -4q-4 92 -18 191.5t-76 187.5q-74 98 -183.5 145t-232.5 47q-86 0 -165.5 -27.5t-139.5 -95.5q-66 66 -148.5 94.5t-193.5 28.5q-117 0 -223.5 -34.5t-186 -103.5t-128 -172.5t-48.5 -240.5zM514 535 q0 201 25.5 305t113.5 104q51 0 79 -32.5t41 -88t15.5 -130.5t2.5 -158q0 -205 -25 -306.5t-113 -101.5q-51 0 -78.5 36t-41 93t-16.5 130t-3 149zM1180 651q0 47 2 97.5t14 93.5t36.5 70.5t70.5 27.5q43 0 65.5 -26.5t32.5 -68.5t11 -93.5t1 -100.5h-233z" />
<glyph unicode="&#x178;" horiz-adv-x="1402" d="M14 1466l103 -182l104 -180l111 -203l104 -203q23 -41 34 -65.5t11 -40.5q0 -31 -1 -99.5t-3 -153.5t-6 -175t-10 -164q63 8 124.5 13t125.5 5q51 0 111.5 -3t133.5 -15q-14 119 -20 236.5t-6 240.5q0 43 1 86t3 86l29 56l202 382q102 193 219 379q-29 -8 -66.5 -13 t-76.5 -5q-35 0 -70 6l-69 12q-55 -154 -123 -303l-137 -295l-113 228l-76 153q-31 66 -51 115t-39 102q-53 -10 -122.5 -14t-135.5 -4q-68 0 -141.5 4t-149.5 14zM330 1720q0 -35 14 -66.5t38 -56t55.5 -39t66.5 -14.5q37 0 68.5 14.5t55 38t38 55t14.5 68.5t-14.5 69 t-39 55.5t-56 36.5t-66.5 13q-33 0 -64.5 -13t-56.5 -36.5t-39 -55.5t-14 -69zM807 1720q0 -35 14.5 -66.5t38 -56t55 -39t68.5 -14.5t68.5 14.5t55 38t37 55t13.5 68.5q0 74 -52 124t-122 50q-35 0 -66.5 -13t-56 -36.5t-39 -55.5t-14.5 -69z" />
<glyph unicode="&#x2c6;" horiz-adv-x="569" d="M-88 1204h154l219 191l217 -191h162l-252 371h-256z" />
<glyph unicode="&#x2dc;" horiz-adv-x="569" d="M-115 1245h109q6 39 23.5 68.5t66.5 29.5q29 0 63 -16l80 -37q43 -20 94.5 -36.5t108.5 -16.5q59 0 104.5 26.5t78 69.5t52 96.5t27.5 104.5h-110q-12 -31 -33 -62.5t-68 -31.5q-31 0 -71 16l-88 37q-46 20 -96 36.5t-99 16.5q-55 0 -96 -28.5t-72 -73.5t-49.5 -97.5 t-24.5 -101.5z" />
<glyph unicode="&#x2000;" horiz-adv-x="983" />
<glyph unicode="&#x2001;" horiz-adv-x="1967" />
<glyph unicode="&#x2002;" horiz-adv-x="983" />
<glyph unicode="&#x2003;" horiz-adv-x="1967" />
<glyph unicode="&#x2004;" horiz-adv-x="655" />
<glyph unicode="&#x2005;" horiz-adv-x="491" />
<glyph unicode="&#x2006;" horiz-adv-x="327" />
<glyph unicode="&#x2007;" horiz-adv-x="327" />
<glyph unicode="&#x2008;" horiz-adv-x="245" />
<glyph unicode="&#x2009;" horiz-adv-x="393" />
<glyph unicode="&#x200a;" horiz-adv-x="109" />
<glyph unicode="&#x2010;" horiz-adv-x="872" d="M94 418q172 12 340 12q86 0 171 -2t171 -10l-8 69q-4 33 -4 74q0 31 4 74t8 78q-174 -12 -352 -13q-164 1 -330 13l8 -72q4 -37 4 -76q0 -35 -5 -77t-7 -70z" />
<glyph unicode="&#x2011;" horiz-adv-x="872" d="M94 418q172 12 340 12q86 0 171 -2t171 -10l-8 69q-4 33 -4 74q0 31 4 74t8 78q-174 -12 -352 -13q-164 1 -330 13l8 -72q4 -37 4 -76q0 -35 -5 -77t-7 -70z" />
<glyph unicode="&#x2012;" horiz-adv-x="872" d="M94 418q172 12 340 12q86 0 171 -2t171 -10l-8 69q-4 33 -4 74q0 31 4 74t8 78q-174 -12 -352 -13q-164 1 -330 13l8 -72q4 -37 4 -76q0 -35 -5 -77t-7 -70z" />
<glyph unicode="&#x2013;" horiz-adv-x="1024" d="M0 444h1026v238h-1026v-238z" />
<glyph unicode="&#x2014;" horiz-adv-x="2048" d="M266 444h1516v238h-1516v-238z" />
<glyph unicode="&#x2018;" horiz-adv-x="606" d="M61 918q0 -70 48.5 -115t119.5 -45q57 0 94 26.5t63 72.5t43 109l36 140l82 336l-74 39l-280 -330l-62 -74q-27 -33 -42 -59.5t-21.5 -50t-6.5 -49.5z" />
<glyph unicode="&#x2019;" horiz-adv-x="606" d="M59 801l74 -39l281 330q72 84 101.5 133t29.5 100q0 70 -48 115t-120 45q-57 0 -94 -26.5t-62.5 -73t-42.5 -109.5l-37 -139z" />
<glyph unicode="&#x201a;" horiz-adv-x="606" d="M61 -262l74 -39l281 324q72 84 101.5 133t29.5 100q0 70 -48 115t-120 45q-57 0 -94 -27t-62.5 -73t-42.5 -110l-37 -138z" />
<glyph unicode="&#x201c;" horiz-adv-x="1062" d="M49 918q0 -70 48 -115t120 -45q57 0 94 26.5t62.5 72.5t43 109.5t36.5 139.5l82 336l-74 39l-281 -330l-61 -74q-27 -33 -42.5 -59.5t-21.5 -50t-6 -49.5zM528 918q0 -70 48.5 -115t119.5 -45q57 0 94 26.5t63 72.5t43 109l36 140l82 336l-74 39l-281 -330l-61 -74 q-27 -33 -42 -59.5t-21.5 -50t-6.5 -49.5z" />
<glyph unicode="&#x201d;" horiz-adv-x="1062" d="M49 801l74 -39l280 330q72 84 102 133t30 100q0 70 -48.5 115t-119.5 45q-57 0 -94 -26.5t-63 -73t-43 -109.5l-36 -139zM528 801l74 -39l281 330q72 84 101.5 133t29.5 100q0 70 -48 115t-120 45q-57 0 -94 -26.5t-62.5 -73t-43.5 -109.5l-36 -139z" />
<glyph unicode="&#x201e;" horiz-adv-x="1062" d="M49 -262l74 -39l280 324q72 84 102 133t30 100q0 70 -48.5 115t-119.5 45q-57 0 -94 -27t-63 -73t-43 -110l-36 -138zM528 -262l74 -39l281 324q72 84 101.5 133t29.5 100q0 70 -48 115t-120 45q-57 0 -94 -27t-62.5 -73t-43.5 -110l-36 -138z" />
<glyph unicode="&#x2022;" horiz-adv-x="1024" d="M139 735q0 -78 30 -146.5t80 -118.5t118.5 -79t144.5 -29q78 0 146.5 30t118.5 80t79 118.5t29 144.5q0 78 -30 145.5t-80 118t-117.5 79t-145.5 28.5q-76 0 -143.5 -28.5t-118.5 -78t-81 -117t-30 -147.5z" />
<glyph unicode="&#x2026;" horiz-adv-x="2048" d="M129 195q0 -45 16.5 -83t46 -67t68.5 -43t82 -14t82 14t68.5 43t46 67t16.5 83q0 43 -16.5 81.5t-46 67.5t-68.5 46.5t-82 17.5t-82 -17.5t-68.5 -46.5t-46 -67.5t-16.5 -81.5zM811 195q0 -45 16.5 -83t46 -67t68.5 -43t82 -14t82 14t68.5 43t46 67t16.5 83 q0 43 -16.5 81.5t-46 67.5t-68.5 46.5t-82 17.5t-82 -17.5t-68.5 -46.5t-46 -67.5t-16.5 -81.5zM1493 195q0 -45 16.5 -83t46 -67t68.5 -43t82 -14t82 14t68.5 43t46 67t16.5 83q0 43 -16.5 81.5t-46 67.5t-68.5 46.5t-82 17.5t-82 -17.5t-68.5 -46.5t-46 -67.5t-16.5 -81.5 z" />
<glyph unicode="&#x202f;" horiz-adv-x="393" />
<glyph unicode="&#x2039;" horiz-adv-x="606" d="M66 559l151 -217q74 -106 143 -219l46 39l38 31q18 14 39 28l54 31l-117 154l-113 155l49 68l62 76l61 81l64 82q-53 23 -96.5 53.5t-84.5 69.5l-55 -86l-61 -96l-64 -92l-55 -76z" />
<glyph unicode="&#x203a;" horiz-adv-x="606" d="M63 246q53 -23 96.5 -53.5t84.5 -69.5l55 88l61 94l64 92l55 76l62 82l-152 217q-74 106 -143 219l-45 -39l-39 -30l-39 -27l-53 -33q59 -74 116 -153l113 -156q-20 -31 -49 -68l-62 -75l-61 -82z" />
<glyph unicode="&#x205f;" horiz-adv-x="491" />
<glyph unicode="&#x20ac;" horiz-adv-x="1214" d="M-55 485q80 12 180 13q10 -51 28.5 -97.5t43.5 -91.5q63 -115 146 -180.5t163 -97t147.5 -37.5t100.5 -6q104 0 208.5 25.5t186.5 66.5q23 98 38 151.5t27 90.5l-63 34q-41 -76 -109.5 -127t-173.5 -51q-39 0 -75.5 7.5t-71.5 23.5q-59 33 -105 90q-35 45 -55 96t-31 99 q129 -2 204 -3.5t130 -5.5q16 55 33.5 92t32.5 60q-125 -10 -226 -13q-61 -2 -117 -2q-37 0 -71 1q-4 45 -5 87v17q0 33 3 66q53 0 106.5 -1t106.5 -1q33 -2 64 -3h59q29 0 63.5 -1t73.5 -3q16 55 33.5 92t32.5 60q-135 -10 -265 -13q-79 -2 -157 -2q-51 0 -103 1 q2 59 17.5 127.5t50.5 129t91 100.5t140 40q53 0 95.5 -18.5t72 -49t49 -70.5t27.5 -83h82q6 45 11 75.5t11.5 60.5t16.5 64l22 86q-74 35 -137 54.5t-115.5 30t-92.5 13.5t-64 3q-98 0 -192.5 -22.5t-180.5 -76.5q-43 -27 -91 -67.5t-91 -98t-78 -132t-53 -166.5 q-16 0 -33.5 1t-34.5 3q-8 2 -24 2q-14 0 -23 2q-6 -51 -33 -103l-12 -22q-6 -10 -14 -21q68 6 155 7q-3 -27 -3 -55q0 -13 1 -27q2 -41 6 -86q-27 0 -51 2t-49 6q-8 -53 -25.5 -88t-33.5 -58z" />
<glyph unicode="&#x2122;" horiz-adv-x="2048" d="M72 1333q111 12 227 13q4 -72 5 -148t1 -141v-96q0 -76 -2 -159t-12 -143q35 6 71.5 8.5t71.5 2.5q39 0 77 -3t77 -8q-8 111 -10.5 206.5t-2.5 193.5v78q0 59 2.5 115.5t2.5 93.5q117 0 229 -13q-8 25 -8 64q0 45 8 69q-98 -8 -190.5 -9t-180.5 -1q-92 0 -183 1t-183 9 q2 -18 4 -33.5t2 -29.5q0 -33 -6 -70zM776 659q51 10 80 11q23 0 41 -4l41 -7q2 41 8 105.5t14.5 134.5t18.5 136.5t20 111.5l115 -240l109 -243q16 2 30.5 4t30.5 2t31 -2l33 -4q55 133 107 245.5t118 237.5q23 -117 35 -240t22 -248q35 4 72 7.5t74 3.5q39 0 74.5 -3 t74.5 -8q-20 74 -37.5 180.5t-33 220.5t-27.5 222l-19 184q-29 -4 -57.5 -7t-56.5 -3q-27 0 -53.5 3t-55.5 7q-47 -117 -104 -239l-111 -238l-55 109l-64 131l-59 129q-29 63 -45 108q-29 -4 -56.5 -7t-58.5 -3q-29 0 -56.5 3t-55.5 7q-16 -205 -53.5 -406.5t-90.5 -400.5z " />
<glyph unicode="&#xe000;" horiz-adv-x="1075" d="M0 1075h1075v-1075h-1075v1075z" />
<glyph unicode="&#xfb01;" horiz-adv-x="1402" d="M-10 887q35 4 72.5 7t78.5 3q2 -39 3 -76t1 -76v-149v-135q0 -109 -2 -229.5t-12 -231.5l111 12q55 6 110 6q66 0 125.5 -5t108.5 -13q-8 227 -12.5 447.5t-4.5 449.5q47 0 91.5 -3t91.5 -7q-10 45 -11 90q0 20 3.5 36.5t7.5 33.5q-53 -6 -104.5 -7.5t-104.5 -1.5l-49 56 q-27 31 -49.5 61.5t-38 59t-15.5 51.5q0 43 36 59t71 16q70 0 123 -21t104 -50l29 12q4 76 12 147.5t27 143.5q-29 4 -64 7t-70 3q-31 0 -69.5 -5t-83.5 -20.5t-93 -43t-95.5 -72.5t-78 -90t-49 -93.5t-29.5 -101.5t-20 -119q-39 0 -77 3l-74 6q4 -14 7 -36t3 -38 q0 -35 -10 -86zM829 0l109 12q55 6 109 6q59 0 119.5 -5t119.5 -13q-2 43 -5 95t-3 108l-4 110v103v110q0 98 3 238.5t15 308.5q-113 -18 -231 -18q-59 0 -115.5 4t-114.5 14l9 -98q2 -43 4 -94.5t3 -123t1 -188.5q0 -119 -1 -196q-1 -76 -2 -134.5t-5 -111.5zM846 1376 q0 -43 17.5 -82t47 -68.5t68.5 -47t84 -17.5q43 0 82 17.5t68.5 46t47 68.5t17.5 83t-17.5 83t-47 68.5t-68.5 46t-82 17.5q-45 0 -84 -17.5t-68.5 -47t-47 -68.5t-17.5 -82z" />
<glyph unicode="&#xfb02;" horiz-adv-x="1402" d="M-10 887q35 4 72.5 7t78.5 3q2 -39 3 -76t1 -76v-149v-135q0 -109 -2 -229.5t-12 -231.5l111 12q55 6 110 6q66 0 125.5 -5t108.5 -13q-8 227 -12.5 447.5t-4.5 449.5q47 0 91.5 -3t91.5 -7q-10 45 -11 90q0 20 3.5 36.5t7.5 33.5q-53 -6 -104.5 -7.5t-104.5 -1.5l-49 56 q-27 31 -49.5 61.5t-38 59t-15.5 51.5q0 43 36 59t71 16q70 0 123 -21t104 -50l29 12q4 76 12 147.5t27 143.5q-29 4 -64 7t-70 3q-31 0 -69.5 -5t-83.5 -20.5t-93 -43t-95.5 -72.5t-78 -90t-49 -93.5t-29.5 -101.5t-20 -119q-39 0 -78 3l-73 6q4 -14 7 -36t3 -38 q0 -35 -10 -86zM829 0l117 12q57 6 114.5 6t114 -5t111.5 -13q-2 43 -4 104.5t-4 131t-3 140t-1 134.5v510q0 141 5 277.5t9 258.5q-57 -10 -113.5 -14t-115.5 -4q-57 0 -114.5 4t-115.5 14l11 -159q4 -66 4 -119l4 -104v-109v-649q0 -104 -6 -211z" />
<glyph unicode="&#xfb03;" horiz-adv-x="2121" d="M-10 887q35 4 72.5 7t78.5 3q2 -39 3 -76t1 -76v-149v-135q0 -109 -2 -229.5t-12 -231.5l111 12q55 6 110 6q66 0 125.5 -5t108.5 -13q-8 227 -12.5 447.5t-4.5 449.5q47 0 91.5 -3t91.5 -7q-10 45 -11 90q0 20 3.5 36.5t7.5 33.5q-53 -6 -104.5 -7.5t-104.5 -1.5l-49 56 q-27 31 -49.5 61.5t-38 59t-15.5 51.5q0 43 36 59t71 16q70 0 123 -21t104 -50l29 12q4 76 12 147.5t27 143.5q-29 4 -64 7t-70 3q-31 0 -69.5 -5t-83.5 -20.5t-93 -43t-95.5 -72.5t-78 -90t-49 -93.5t-29.5 -101.5t-20 -119q-41 0 -79 3l-72 6q4 -14 7 -36t3 -38 q0 -35 -10 -86zM710 887q35 4 72.5 7t78.5 3q2 -39 3 -76t1 -76v-149v-135q0 -109 -2 -229.5t-12 -231.5l111 12q55 6 110 6q66 0 125.5 -5t108.5 -13q-8 227 -12.5 447.5t-4.5 449.5q47 0 91.5 -3t91.5 -7q-10 45 -11 90q0 20 3.5 36.5t7.5 33.5q-53 -6 -104.5 -7.5 t-104.5 -1.5l-49 56q-27 31 -49.5 61.5t-38 59t-15.5 51.5q0 43 36 59t71 16q70 0 123 -21t104 -50l29 12q4 76 12 147.5t27 143.5q-29 4 -64 7t-70 3q-31 0 -69.5 -5t-83.5 -20.5t-93 -43t-95.5 -72.5t-78 -90t-49 -93.5t-29.5 -101.5t-20 -119q-41 0 -79 3l-72 6 q4 -14 7 -36t3 -38q0 -35 -10 -86zM1549 0l108 12q55 6 109 6q59 0 119.5 -5t119.5 -13q-2 43 -5 95t-3 108l-4 110v103v110q0 98 3 238.5t15 308.5q-113 -18 -231 -18q-59 0 -115.5 4t-113.5 14l8 -98q2 -43 4 -94.5t3 -123t1 -188.5q0 -119 -1 -195q-1 -77 -2 -136 q-1 -58 -5 -111zM1565 1376q0 -43 17.5 -82t47 -68.5t68.5 -47t84 -17.5q43 0 82 17.5t68.5 46t47 68.5t17.5 83t-17.5 83t-47 68.5t-68.5 46t-82 17.5q-45 0 -84 -17.5t-68.5 -47t-47 -68.5t-17.5 -82z" />
<glyph unicode="&#xfb04;" horiz-adv-x="2121" d="M-10 887q35 4 72.5 7t78.5 3q2 -39 3 -76t1 -76v-149v-135q0 -109 -2 -229.5t-12 -231.5l111 12q55 6 110 6q66 0 125.5 -5t108.5 -13q-8 227 -12.5 447.5t-4.5 449.5q47 0 91.5 -3t91.5 -7q-10 45 -11 90q0 20 3.5 36.5t7.5 33.5q-53 -6 -104.5 -7.5t-104.5 -1.5l-49 56 q-27 31 -49.5 61.5t-38 59t-15.5 51.5q0 43 36 59t71 16q70 0 123 -21t104 -50l29 12q4 76 12 147.5t27 143.5q-29 4 -64 7t-70 3q-31 0 -69.5 -5t-83.5 -20.5t-93 -43t-95.5 -72.5t-78 -90t-49 -93.5t-29.5 -101.5t-20 -119q-41 0 -79 3l-72 6q4 -14 7 -36t3 -38 q0 -35 -10 -86zM710 887q35 4 72.5 7t78.5 3q2 -39 3 -76t1 -76v-149v-135q0 -109 -2 -229.5t-12 -231.5l111 12q55 6 110 6q66 0 125.5 -5t108.5 -13q-8 227 -12.5 447.5t-4.5 449.5q47 0 91.5 -3t91.5 -7q-10 45 -11 90q0 20 3.5 36.5t7.5 33.5q-53 -6 -104.5 -7.5 t-104.5 -1.5l-49 56q-27 31 -49.5 61.5t-38 59t-15.5 51.5q0 43 36 59t71 16q70 0 123 -21t104 -50l29 12q4 76 12 147.5t27 143.5q-29 4 -64 7t-70 3q-31 0 -69.5 -5t-83.5 -20.5t-93 -43t-95.5 -72.5t-78 -90t-49 -93.5t-29.5 -101.5t-20 -119q-41 0 -79 3l-72 6 q4 -14 7 -36t3 -38q0 -35 -10 -86zM1549 0l116 12q57 6 114.5 6t114 -5t111.5 -13q-2 43 -4 104q-2 62 -4 132q-2 69 -3 139.5t-1 134.5v510q0 141 5 277.5t9 258.5q-57 -10 -113.5 -14t-115.5 -4q-57 0 -114.5 4t-114.5 14l10 -159q4 -66 4 -119l4 -104v-109v-649 q0 -104 -6 -211z" />
</font>
</defs>
</svg>
