<?xml version="1.0" standalone="no"?>
<!DOCTYPE svg PUBLIC "-//W3C//DTD SVG 1.1//EN" "http://www.w3.org/Graphics/SVG/1.1/DTD/svg11.dtd" >
<svg>
<metadata>
Created by FontForge 20110222 at Mon Aug 27 13:05:31 2012
 By Stefan Warting
Copyright (c) 1981, 1982, 1983, 1989 and 1993, Linotype Library GmbH or its affiliated Linotype-Hell companies. All rights reserved.

The digitally encoded machine readable software for producing the Typefaces licensed to you is now the property of Heidelberger Druckmaschinen AG and its licensors, and may not be reproduced, used, displayed, modified, disclosed or transferred without the express written approval of Heidelberger Druckmaschinen AG.

Copyright (c) 1988, 1990, 1993 Adobe Systems Incorporated. All Rights Reserved.
</metadata>
<defs>
<font id="Optima-Italic" horiz-adv-x="556" >
  <font-face 
    font-family="Optima"
    font-weight="400"
    font-style="italic"
    font-stretch="normal"
    units-per-em="1000"
    panose-1="2 0 5 3 0 0 0 9 0 3"
    ascent="800"
    descent="-200"
    x-height="470"
    cap-height="681"
    bbox="-371 -262 1017 923"
    underline-thickness="50"
    underline-position="-75"
    slope="-12"
    unicode-range="U+0008-FB02"
  />
    <missing-glyph />
    <glyph glyph-name="fi" unicode="fi" horiz-adv-x="518" 
d="M64 463l-6 -41q18 3 36 3.5t36 0.5q-9 -48 -20 -103t-23.5 -111.5t-25.5 -111.5t-26 -101q8 1 18 1h22h20.5t17.5 -1q3 23 7.5 48.5t9.5 51.5q17 81 34.5 162t34.5 165q21 0 42.5 -1.5t42.5 -2.5l8 41q-27 -2 -48.5 -3t-38.5 -1q3 29 4 55t2 55q0 10 2 28t10 36t25 31.5
t48 13.5q21 0 37.5 -6t27.5 -11l9 4q2 14 7 32t13 38q-8 3 -18.5 5.5t-22.5 2.5q-29 0 -54.5 -11t-47 -29t-38 -41.5t-27.5 -48.5q-12 -27 -23.5 -63.5t-22.5 -90.5q-18 0 -36 1t-36 3zM434 628q0 -20 14 -34t34 -14t34 14t14 34t-14 34t-34 14t-34 -14t-14 -34zM489 470
q-16 -4 -41 -4q-22 0 -42 4q-1 -9 -6 -38t-12.5 -70t-17.5 -90t-21 -99t-23 -96t-23 -78q8 1 17.5 1h21.5h23t23 -1q3 27 10.5 69t17 89t20 95.5t21 91.5t19 76.5t13.5 49.5z" />
    <glyph glyph-name="fl" unicode="fl" horiz-adv-x="518" 
d="M64 463l-6 -41q18 3 36 3.5t36 0.5q-9 -48 -20 -103t-23.5 -111.5t-25.5 -111.5t-26 -101q8 1 18 1h22h20.5t17.5 -1q3 23 7.5 48.5t9.5 51.5q17 81 34.5 162t34.5 165q21 0 42.5 -1.5t42.5 -2.5l8 41q-27 -2 -48.5 -3t-38.5 -1q3 29 4 55t2 55q0 10 2 28t10 36t25 31.5
t48 13.5q21 0 37.5 -6t27.5 -11l9 4q2 14 7 32t13 38q-8 3 -18.5 5.5t-22.5 2.5q-29 0 -54.5 -11t-47 -29t-38 -41.5t-27.5 -48.5q-12 -27 -23.5 -63.5t-22.5 -90.5q-18 0 -36 1t-36 3zM545 744q-11 -2 -23 -3t-23 -1q-23 0 -38 4q-5 -36 -14 -89t-21 -116t-26.5 -133
t-30.5 -141t-32.5 -139.5t-32.5 -126.5q8 1 17.5 1h22.5h23.5t17.5 -1q7 40 20 108.5t29.5 147t34.5 160t33.5 150.5t27 117.5t15.5 61.5z" />
    <glyph glyph-name=".null" horiz-adv-x="0" 
 />
    <glyph glyph-name=".null" horiz-adv-x="0" 
 />
    <glyph glyph-name=".null" horiz-adv-x="0" 
 />
    <glyph glyph-name="space" unicode="&#x9;" horiz-adv-x="278" 
 />
    <glyph glyph-name="space" unicode=" " horiz-adv-x="278" 
 />
    <glyph glyph-name="space" unicode="&#xd;" horiz-adv-x="278" 
 />
    <glyph glyph-name="exclam" unicode="!" horiz-adv-x="333" 
d="M84 39q0 -21 15 -35t37 -14q21 0 36.5 13.5t15.5 35.5t-15 37t-37 15t-37 -15.5t-15 -36.5zM148 162h21l124 422q5 16 8.5 32t3.5 30q0 13 -8.5 26.5t-31.5 13.5q-16 0 -26 -7.5t-16 -19.5t-8.5 -27t-4.5 -31z" />
    <glyph glyph-name="quotedbl" unicode="&#x22;" horiz-adv-x="500" 
d="M313 386h39l67 280h-54zM164 386h40l66 280h-53z" />
    <glyph glyph-name="numbersign" unicode="#" 
d="M342 252h-128l35 162h128zM110 0h50l44 207h129l-45 -207h51l44 207h106l9 45h-106l35 162h106l10 45h-106l44 207h-51l-44 -207h-128l44 207h-50l-44 -207h-107l-9 -45h106l-35 -162h-105l-10 -45h106z" />
    <glyph glyph-name="dollar" unicode="$" 
d="M244 18l59 277q8 -4 22.5 -13t29 -23.5t25.5 -35.5t11 -49q0 -18 -6.5 -42t-23.5 -47.5t-45 -42t-72 -24.5zM336 631l-52 -243q-36 16 -55.5 44t-19.5 67q0 17 6 38.5t20.5 41t39 34.5t61.5 18zM319 370l55 261q42 -2 68.5 -18.5t46.5 -48.5h6q4 21 8.5 33.5t15.5 31.5
q-31 20 -66.5 28t-71.5 10q4 17 8 31.5t12 40.5q-9 -4 -23 -4q-8 0 -12 1t-9 3q-3 -20 -6.5 -39t-6.5 -34q-57 -7 -96.5 -27.5t-63.5 -48.5t-35 -59.5t-11 -61.5q0 -35 11.5 -60t30 -43t42 -31t47.5 -25l-62 -292q-18 2 -36.5 7t-36 14.5t-32 25t-24.5 37.5l-6 -1
q-7 -23 -17 -40t-17 -26q40 -28 76.5 -37t85.5 -12q-9 -42 -14.5 -63.5t-12.5 -42.5q9 4 23 4t23 -4q3 29 8.5 57t10.5 49q55 8 97.5 29.5t72 52t44.5 66t15 69.5t-13 59t-34 44.5t-47.5 34.5t-53.5 29z" />
    <glyph glyph-name="percent" unicode="%" horiz-adv-x="1000" 
d="M320 -35l438 720h-44l-438 -720h44zM832 212q0 -26 -6.5 -60.5t-21 -65t-36.5 -52t-54 -21.5q-20 0 -33.5 8t-22 21t-12 29.5t-3.5 34.5q0 26 7 59t22 62t37.5 49t53.5 20q20 0 33 -7t21 -19t11.5 -27t3.5 -31zM577 131q0 -34 11 -60t29.5 -43.5t44 -25.5t54.5 -8
q42 0 75.5 17t57.5 44.5t36.5 61.5t12.5 66q0 29 -9.5 53.5t-27 42.5t-41.5 28.5t-53 10.5q-35 0 -69 -14.5t-61 -39.5t-43.5 -59.5t-16.5 -73.5zM392 550q0 -26 -6.5 -60.5t-21 -65t-36.5 -52t-54 -21.5q-20 0 -33.5 8t-22 21t-12 29.5t-3.5 34.5q0 26 7 59t22 62t37.5 49
t53.5 20q20 0 33 -7t21 -19t11.5 -27t3.5 -31zM137 469q0 -34 11 -60t29.5 -44t44 -27t54.5 -9q42 0 75.5 18t57.5 46t36.5 62t12.5 66q0 29 -9.5 53.5t-27 42.5t-41.5 28.5t-53 10.5q-35 0 -69 -14.5t-61 -39.5t-43.5 -59.5t-16.5 -73.5z" />
    <glyph glyph-name="ampersand" unicode="&#x26;" horiz-adv-x="667" 
d="M326 398h-2q-18 36 -28.5 63t-10.5 60q0 54 30 86t73 32q33 0 51.5 -20t18.5 -52q0 -34 -13.5 -60.5t-34 -47t-43.5 -35.5t-41 -26zM273 342h1q29 -57 69 -121t79 -125q-16 -11 -34.5 -23.5t-39.5 -22.5t-44.5 -16.5t-49.5 -6.5q-28 0 -52 9.5t-42 27t-28 42t-10 55.5
q0 57 35 98.5t116 82.5zM436 74l51 -75q13 1 25.5 1h25.5q26 0 48 -1q-21 25 -35 44t-24.5 33.5t-18 26t-14.5 23.5q38 31 72.5 68.5t71.5 79.5q-9 10 -15 19.5t-11 20.5q-14 -21 -31 -44.5t-35 -46t-36 -42t-34 -32.5q-25 37 -41 61t-30 46.5t-29.5 49.5t-40.5 70
q17 8 45.5 24.5t56.5 40.5t48.5 56t20.5 72q0 17 -6.5 34.5t-20.5 31.5t-35 22.5t-51 8.5q-32 0 -63 -11.5t-55 -34t-38.5 -54t-14.5 -72.5q0 -31 9.5 -60t30.5 -69q-40 -20 -78 -41t-68 -47.5t-48.5 -61t-18.5 -81.5q0 -25 8 -52t27 -49t50 -35t77 -13q42 0 77.5 9t64 23.5
t49.5 30t34 26.5z" />
    <glyph glyph-name="quotesingle" unicode="'" horiz-adv-x="278" 
d="M131 386h40l66 280h-53z" />
    <glyph glyph-name="parenleft" unicode="(" horiz-adv-x="389" 
d="M393 669l-16 18q-55 -40 -103 -94t-83 -119t-55 -139t-20 -153q0 -43 5 -81.5t15.5 -75.5t27 -75.5t39.5 -80.5l23 14q-15 32 -26 61t-18.5 57t-11 58.5t-3.5 65.5q0 89 23 182.5t60 173.5q27 58 61.5 101t81.5 87z" />
    <glyph glyph-name="parenright" unicode=")" horiz-adv-x="389" 
d="M14 -113l16 -18q56 40 103.5 93t82.5 117.5t55 138.5t20 153q0 84 -20.5 158.5t-66.5 157.5l-23 -14q15 -32 26 -61t18.5 -58.5t11 -60t3.5 -65.5q0 -89 -23 -182.5t-60 -173.5q-27 -58 -61 -100t-82 -85z" />
    <glyph glyph-name="asterisk" unicode="*" horiz-adv-x="444" 
d="M274 684l-15 -146l-103 103q-8 -14 -14.5 -21.5t-19.5 -18.5l120 -83l-146 -42q8 -17 12 -27.5t6 -21.5l135 67l-43 -144q15 -1 26 -2t27 -6l15 148l102 -104q5 8 12 18.5t23 22.5l-121 83l146 38q-5 8 -10.5 19.5t-8.5 29.5l-134 -65l43 144q-14 0 -26 1.5t-26 6.5z" />
    <glyph glyph-name="plus" unicode="+" horiz-adv-x="593" 
d="M271 218v-218h52v218h223v48h-223v217h-52v-217h-223v-48h223z" />
    <glyph glyph-name="comma" unicode="," horiz-adv-x="278" 
d="M-13 -150l13 -10l159 191q8 8 15 20t7 25q0 17 -10.5 25t-21.5 8q-17 0 -29 -14.5t-26 -39.5z" />
    <glyph glyph-name="hyphen" unicode="-" horiz-adv-x="296" 
d="M268 302h-219l-13 -59h219z" />
    <glyph glyph-name="period" unicode="." horiz-adv-x="278" 
d="M58 39q0 -21 15 -35t37 -14q21 0 36.5 13.5t15.5 35.5t-15 37t-37 15t-37 -15.5t-15 -36.5z" />
    <glyph glyph-name="slash" unicode="/" horiz-adv-x="389" 
d="M436 709h-53l-368 -744h53z" />
    <glyph glyph-name="zero" unicode="0" 
d="M125 183q0 26 5 70.5t17 97t31.5 107.5t47.5 101q20 33 52.5 54.5t72.5 21.5q54 0 83 -42.5t29 -114.5q0 -40 -5.5 -84t-14.5 -86t-20.5 -80t-22.5 -67q-11 -27 -25.5 -53.5t-34 -47.5t-44.5 -34.5t-57 -13.5q-35 0 -57 16t-35 41t-17.5 55.5t-4.5 58.5zM53 210
q0 -46 10 -87t31.5 -72t56.5 -48.5t85 -17.5q58 0 102.5 22t77.5 60t56 86.5t37 99t20 99.5t6 87q0 45 -9 85.5t-30 72t-55 50t-84 18.5q-56 0 -100.5 -22.5t-78.5 -59.5t-57.5 -85t-38.5 -98.5t-22 -100t-7 -89.5z" />
    <glyph glyph-name="one" unicode="1" 
d="M227 549l109 49l5 -4q-1 -5 -7 -36.5t-16 -81t-22.5 -111.5t-27 -126.5t-30 -127.5t-30.5 -112q10 1 20.5 1h24.5h23t19 -1q6 39 14 81t20 102q25 126 50.5 247t56.5 245l-11 7q-15 -9 -40 -22t-55.5 -27.5t-64 -28t-64.5 -22.5v-6z" />
    <glyph glyph-name="two" unicode="2" 
d="M28 17l-1 -18q39 1 78 1h90h114t116 -1q0 17 3 30.5t11 34.5q-78 -5 -153.5 -6t-153.5 -1l-3 7q13 13 43 42t65.5 63t70 67t56.5 54q39 38 65 70t41.5 60t21.5 53.5t6 50.5q0 39 -14.5 65.5t-38.5 43.5t-55.5 24.5t-65.5 7.5q-49 0 -96 -18.5t-78 -63.5q11 -11 17 -24
t8 -19h4q15 39 48.5 66.5t81.5 27.5q54 0 79.5 -32.5t25.5 -83.5q0 -35 -9.5 -66.5t-25 -60t-36 -55.5t-42.5 -53q-13 -15 -34 -37t-46.5 -47t-53 -51.5t-53.5 -51t-48.5 -45.5t-37.5 -34z" />
    <glyph glyph-name="three" unicode="3" 
d="M168 599l17 -45h2q23 44 58 63t66 19q18 0 35 -6t31 -18.5t22.5 -32.5t8.5 -48q0 -26 -9.5 -57t-32 -57.5t-59 -43.5t-90.5 -15l-10 -41q11 5 26 9t36 4q19 0 38.5 -6t35.5 -19.5t26 -35t10 -52.5q0 -39 -14 -75.5t-39.5 -65t-60.5 -45.5t-78 -17q-82 0 -139 60h-3
q-6 -26 -10.5 -35.5t-10.5 -21.5q35 -17 72.5 -23.5t76.5 -6.5q71 0 125 20.5t90 55t54.5 76.5t18.5 82q0 32 -11 54.5t-29.5 38t-43 24t-52.5 11.5v4q30 13 59 30.5t51.5 40t36 51.5t13.5 65q0 57 -42.5 91t-115.5 34q-32 0 -56.5 -5.5t-43 -15t-33 -21.5t-26.5 -24z" />
    <glyph glyph-name="four" unicode="4" 
d="M343 243h-221l-3 8q5 6 11 13.5t14.5 17.5t21 24.5t30.5 34.5q18 19 47 50.5t59.5 64.5t58 63t42.5 46l6 -2zM510 245l-100 -2q8 42 19 97t24 112.5t26 113t25 98.5q-12 -4 -24 -4q-15 0 -26 4q-26 -27 -51 -53.5t-51 -53.5q-25 -27 -55.5 -60.5t-63 -68t-63 -68
t-55.5 -60.5q-26 -28 -41.5 -45.5t-24 -27t-12.5 -14t-7 -7.5l-1 -17q12 0 30 0.5t39 0.5t43 0.5t41 0.5h44q27 0 53.5 -0.5t53.5 -1.5q-5 -20 -11 -46.5t-13 -53.5t-13.5 -51.5t-12.5 -38.5q9 1 19.5 1h21.5h21.5t18.5 -1q2 11 4 25t6 37q5 32 11.5 64t13.5 64h25
q17 0 32 -1t41 -3q0 20 2.5 32.5t10.5 27.5z" />
    <glyph glyph-name="five" unicode="5" 
d="M156 327l8 -4q21 17 43.5 26t50.5 9q19 0 40.5 -6t40 -20t31 -38.5t12.5 -62.5q0 -42 -15 -81t-42 -69t-63.5 -48t-78.5 -18q-38 0 -72 15.5t-57 45.5h-4q-2 -7 -7.5 -23.5t-13.5 -32.5q13 -11 30.5 -16.5t36.5 -9.5t38 -5t35 -1q75 0 131 23.5t93 61.5t55 84t18 88
q0 34 -12 61.5t-33.5 47t-51 30.5t-64.5 11q-57 0 -105 -23q5 22 9 40t9.5 41.5t13 57t19.5 85.5q64 0 127 -2.5t127 -4.5q2 24 5.5 37.5t12.5 34.5q-32 -2 -64 -3t-64 -1q-42 0 -85 0.5t-100 3.5q-6 -85 -21.5 -167t-32.5 -167z" />
    <glyph glyph-name="six" unicode="6" 
d="M148 155q0 44 13 81t35.5 63.5t51.5 41.5t62 15q28 0 50 -10.5t37 -28.5t23 -42t8 -51q0 -31 -10 -68.5t-30 -69.5t-50 -53.5t-70 -21.5q-23 0 -44.5 8t-38.5 25.5t-27 44.5t-10 66zM484 632l-12 30q-8 2 -19 3.5t-28 1.5q-69 0 -132.5 -39t-112 -103.5t-77 -147.5
t-28.5 -172q0 -48 10.5 -88.5t34 -70.5t59.5 -45.5t87 -15.5q59 0 104 23t75.5 59.5t46 81t15.5 85.5q0 35 -12 64t-34.5 50t-53.5 33t-70 12q-45 0 -90.5 -20t-80.5 -75h-3q3 27 11.5 58.5t21.5 63t28.5 61t32.5 53.5q38 52 79 77.5t98 25.5q14 0 27 -2.5t21 -6.5z" />
    <glyph glyph-name="seven" unicode="7" 
d="M476 592v-6q-7 -10 -26.5 -37t-41.5 -57.5t-41.5 -58t-27.5 -38.5q-70 -100 -139 -199t-141 -197q11 1 20.5 1h19.5h18t15 -1q6 9 31.5 50.5t63 100.5t83.5 128.5t92.5 138t90 129.5t76.5 101v14q-19 -1 -46.5 -2t-56.5 -1.5t-57 -0.5h-48q-52 0 -104.5 1.5t-103.5 2.5
q-1 -24 -3.5 -39.5t-10.5 -35.5q19 1 51.5 2t69 2t74 1.5t66.5 0.5h76z" />
    <glyph glyph-name="eight" unicode="8" 
d="M126 144q0 32 10 68.5t30 68t52 52.5t75 21q23 0 44 -7.5t36.5 -23t24.5 -39t9 -56.5q0 -34 -10 -71.5t-30.5 -69t-52 -52t-73.5 -20.5q-31 0 -52.5 11t-35.5 29t-20.5 41.5t-6.5 47.5zM222 481q0 35 11 64t29 49.5t41.5 31.5t48.5 11q45 0 67.5 -29t22.5 -71
q0 -30 -9 -58t-25.5 -50t-40.5 -35t-53 -13q-48 0 -70 27t-22 73zM490 224q0 51 -30.5 89.5t-85.5 52.5v5q30 8 56 22t46 34t31.5 47t11.5 61q0 17 -5.5 39.5t-23 43t-49 35t-82.5 14.5q-58 0 -98.5 -16.5t-65.5 -42.5t-36.5 -57t-11.5 -60q0 -24 7.5 -43.5t20.5 -34.5
t29 -24.5t33 -14.5v-5q-44 -8 -79.5 -27.5t-60 -48t-38 -65t-13.5 -78.5q0 -45 16.5 -76.5t43.5 -51t61.5 -27t69.5 -7.5q61 0 108 20.5t79.5 54.5t49 76.5t16.5 84.5z" />
    <glyph glyph-name="nine" unicode="9" 
d="M170 434q0 41 12 77.5t33 64.5t50.5 44t63.5 16q51 0 80.5 -35.5t29.5 -98.5q0 -39 -12 -75.5t-33 -64.5t-50 -45t-63 -17q-18 0 -37.5 6t-36 21.5t-27 41.5t-10.5 65zM74 57l-4 -3q6 -18 8 -28.5t1 -26.5q23 -6 41.5 -10t44.5 -4q75 0 139.5 39.5t111.5 106t73.5 151
t26.5 172.5q0 46 -11 84.5t-34.5 67t-59 44.5t-83.5 16q-51 0 -94.5 -19t-76 -52t-50.5 -76t-18 -91q0 -41 13 -72t35.5 -52t52.5 -31.5t63 -10.5q57 0 99.5 26t72.5 72l2 -2q-6 -49 -26.5 -108.5t-52.5 -112t-75.5 -88t-96.5 -35.5q-29 0 -55.5 11.5t-46.5 31.5z" />
    <glyph glyph-name="colon" unicode=":" horiz-adv-x="333" 
d="M164 403q0 -21 15 -36.5t37 -15.5q21 0 36.5 15t15.5 37t-15 37t-37 15t-37 -15.5t-15 -36.5zM86 39q0 -21 15 -35t37 -14q21 0 36.5 13.5t15.5 35.5t-15 37t-37 15t-37 -15.5t-15 -36.5z" />
    <glyph glyph-name="semicolon" unicode=";" horiz-adv-x="333" 
d="M164 403q0 -21 15 -36.5t37 -15.5q21 0 36.5 15t15.5 37t-15 37t-37 15t-37 -15.5t-15 -36.5zM4 -151l13 -9l162 190q8 9 15 21t7 25q0 17 -10.5 25t-21.5 8q-17 0 -29 -14.5t-26 -40.5z" />
    <glyph glyph-name="less" unicode="&#x3c;" horiz-adv-x="593" 
d="M48 268v-54l497 -198v53l-435 172l435 173v54z" />
    <glyph glyph-name="equal" unicode="=" horiz-adv-x="593" 
d="M48 174v-48h497v48h-497zM48 357v-48h497v48h-497z" />
    <glyph glyph-name="greater" unicode="&#x3e;" horiz-adv-x="593" 
d="M48 16l497 198v54l-497 200v-54l435 -173l-435 -172v-53z" />
    <glyph glyph-name="question" unicode="?" horiz-adv-x="444" 
d="M118 39q0 -21 15 -35t37 -14q21 0 36.5 13.5t15.5 35.5t-15 37t-37 15t-37 -15.5t-15 -36.5zM256 163l13 29l-3 2q-5 -2 -11 -4t-17 -2q-26 0 -44 14.5t-18 42.5q0 15 7 32t34 40q23 20 45.5 36.5t57.5 42.5q10 7 26 20t31 32.5t26 46t11 59.5q0 24 -8 47.5t-25 42.5
t-43.5 31t-64.5 12q-35 0 -58 -8t-32 -12q0 -7 -1 -15.5t-7 -34.5l5 -3q26 27 50.5 35t42.5 8q11 0 25 -3.5t27.5 -13t22.5 -25t9 -39.5q0 -26 -8.5 -46t-23 -36.5t-33.5 -31t-40 -29.5q-26 -18 -48.5 -35.5t-39.5 -36.5t-26.5 -41.5t-9.5 -51.5q0 -26 9 -46t24 -33.5
t35 -20.5t42 -7q6 0 9.5 0.5t8.5 1.5z" />
    <glyph glyph-name="at" unicode="@" horiz-adv-x="771" 
d="M513 404q0 -23 -8.5 -59t-26.5 -70t-45 -58.5t-63 -24.5q-40 0 -63 30t-23 79q0 30 10.5 64.5t29 64t45.5 49.5t60 20q14 0 29 -5t27 -16t20 -29t8 -45zM717 82l-19 25q-22 -15 -49 -31.5t-60.5 -30t-74.5 -22t-91 -8.5q-85 0 -149 26.5t-107 70.5t-65 100t-22 114
q0 64 24.5 124t70.5 107t112.5 75.5t150.5 28.5q67 0 120.5 -19t91 -53t58 -79.5t20.5 -99.5q0 -44 -13 -83.5t-34 -69.5t-48 -47.5t-56 -17.5q-14 0 -30 8.5t-16 33.5q0 32 22 101l56 185h-49l-23 -79q-8 46 -40.5 69t-77.5 23q-44 0 -79.5 -21.5t-60.5 -55.5t-38.5 -74.5
t-13.5 -78.5q0 -69 36 -107t93 -38q34 0 58.5 12.5t41.5 29t27 33.5t15 27q-2 -9 -4 -17t-2 -18q0 -32 21.5 -49.5t51.5 -17.5q39 0 74.5 19.5t62.5 53.5t43.5 80t16.5 99q0 62 -23.5 114.5t-66.5 90.5t-102.5 59t-131.5 21q-84 0 -156 -28.5t-124.5 -78t-82 -117
t-29.5 -145.5q0 -64 23.5 -126t71 -110.5t118 -77t163.5 -28.5q51 0 93.5 8t78 21t66 31t57.5 38z" />
    <glyph glyph-name="A" unicode="A" horiz-adv-x="667" 
d="M401 570l-174 -265q57 -3 116 -3q58 0 116 3l-55 265h-3zM603 -1q-10 1 -21 1h-25h-24.5t-20.5 -1q-3 24 -9 62.5t-12.5 77.5t-13 73.5t-10.5 53.5q-15 1 -53 2t-80 1q-33 0 -66 -1l-66 -2q-14 -20 -35.5 -55.5t-44.5 -75t-44 -77t-33 -59.5q-7 1 -14 1h-18h-16t-19 -1
q86 126 169.5 252t168.5 257q37 58 65.5 99.5t54.5 84.5h19q5 -26 16 -81t25 -124t29.5 -145.5t30.5 -145t27.5 -122t19.5 -75.5z" />
    <glyph glyph-name="B" unicode="B" horiz-adv-x="611" 
d="M455 224q0 -28 -9 -54.5t-24.5 -49t-36 -40.5t-43.5 -28q-32 -14 -67.5 -17.5t-60.5 -3.5q-11 0 -28 0.5t-36 4.5q10 60 25 135.5t35 172.5q7 1 13 1h14h29q17 0 35 -1t34 -3q25 -3 46.5 -12t38 -23.5t26 -35t9.5 -46.5zM490 545q0 -37 -19 -75.5t-61 -63.5
q-34 -20 -74 -25t-66 -5q-17 0 -29 0.5t-23 2.5q6 27 11.5 52t12 55t15.5 67.5t22 90.5q23 2 45.5 3t45.5 1q51 0 85.5 -24t34.5 -79zM388 360l2 7q30 6 62.5 22t58.5 40.5t43 56.5t17 69q0 25 -13.5 54.5t-48.5 48.5q-44 23 -123 23q-35 0 -68 -2t-62 -2q-13 0 -27.5 1.5
t-25.5 2.5q-11 -66 -28 -154t-36.5 -182t-40.5 -185.5t-40 -160.5q10 1 20.5 1h24.5h24.5h37.5t38 -0.5t26 -0.5q14 0 34.5 0.5t44.5 3.5t50 10t51 19q63 31 96 84.5t33 108.5q0 19 -7 41t-24.5 41.5t-46 34t-72.5 18.5z" />
    <glyph glyph-name="C" unicode="C" horiz-adv-x="667" 
d="M602 82l-4 5q-46 -30 -97.5 -47.5t-105.5 -17.5q-51 0 -99 18t-84 57q-23 25 -40.5 66.5t-17.5 112.5q0 73 21.5 141.5t62.5 122t102 85.5t140 32q40 0 70.5 -8.5t52.5 -20t36 -23.5t21 -19q3 10 9.5 26.5t19.5 40.5q-45 23 -92.5 31t-98.5 8q-101 0 -181.5 -32
t-136 -87.5t-85 -129.5t-29.5 -158q0 -80 27 -137t71.5 -93.5t103 -52.5t121.5 -16q73 0 122 15t75 28q3 15 6 25.5t10 27.5z" />
    <glyph glyph-name="D" unicode="D" horiz-adv-x="778" 
d="M670 407q0 -41 -10 -83.5t-29 -83t-47 -76.5t-63 -63q-54 -42 -115.5 -55t-133.5 -13q-29 0 -58.5 1t-58.5 4q13 75 29 156t33 160.5t34 153t32 133.5q59 3 116 3q55 0 104.5 -7.5t85.5 -33.5q38 -28 59.5 -80.5t21.5 -115.5zM756 407q0 79 -31 142t-88 95
q-42 24 -97.5 30.5t-112.5 6.5q-43 0 -84.5 -2t-78.5 -2q-17 0 -31.5 1.5t-27.5 2.5q-11 -66 -28 -154t-37 -182t-41 -185t-40 -161q8 1 27.5 1h42.5q26 0 63.5 -0.5t79.5 -0.5q46 0 84 2t71 8.5t62.5 18.5t59.5 30q58 34 97.5 77t64 90t35 94t10.5 88z" />
    <glyph glyph-name="E" unicode="E" horiz-adv-x="500" 
d="M208 339h93q35 0 70.5 -1t70.5 -5q-1 15 1.5 25.5t7.5 25.5q-9 -1 -23 -2t-30.5 -2t-33 -1.5t-29.5 -0.5h-119q12 54 26 116.5t34 143.5q22 0 52.5 -0.5t62.5 -1.5t62 -3.5t51 -6.5q-1 17 1 27.5t8 27.5q-12 -1 -28.5 -2t-35 -1.5t-38.5 -0.5h-36q-34 0 -81 1t-95 3
q-11 -66 -28 -154t-37 -182t-41 -185.5t-40 -160.5q21 1 57 1h97h45h52h54.5t52.5 -1q-1 14 0 24t6 27q-66 -8 -132.5 -10t-135.5 -2q14 75 28.5 150.5t30.5 150.5z" />
    <glyph glyph-name="F" unicode="F" horiz-adv-x="500" 
d="M210 339h92q35 0 70.5 -1t70.5 -5q0 15 2 25.5t7 25.5q-18 -2 -52 -4t-64 -2h-118q11 54 25.5 116t34.5 143q22 0 52.5 -0.5t62 -1.5t61.5 -3.5t51 -6.5q-1 18 1.5 28.5t7.5 27.5q-21 -2 -59.5 -3t-76.5 -1q-35 0 -81 1t-97 3q-11 -66 -28 -154t-37 -182t-41 -185
t-40 -161q10 1 20.5 1h25.5h24t19 -1q9 48 16.5 88.5t15 79.5t16 80t19.5 92z" />
    <glyph glyph-name="G" unicode="G" horiz-adv-x="778" 
d="M714 585l34 67q-34 12 -85.5 25.5t-134.5 13.5q-111 0 -196 -32.5t-143 -87.5t-87.5 -128t-29.5 -153q0 -52 16 -108t55 -99q40 -44 104.5 -69.5t169.5 -25.5q67 0 127 9t111 26q3 26 9 58.5t13.5 65t14.5 61.5t12 47q-8 -2 -16 -3t-22 -1q-26 0 -41 4q-5 -31 -10.5 -62
t-11.5 -59.5t-11.5 -52t-9.5 -38.5q-38 -14 -77 -20t-79 -6q-68 0 -118.5 19t-84 53.5t-50 83.5t-16.5 109q0 74 24 142t69.5 120t111.5 83t150 31q43 0 76 -8t57.5 -19.5t41.5 -24t27 -21.5z" />
    <glyph glyph-name="H" unicode="H" horiz-adv-x="796" 
d="M637 384q-16 -1 -37 -1h-45h-57t-71 -1h-97q-26 0 -53 0.5t-55 1.5q14 64 22.5 103t15.5 68.5t14.5 57.5t17.5 68q-9 -2 -20.5 -3t-24.5 -1q-11 0 -23 1t-21 3q-10 -61 -27 -147.5t-36.5 -181t-41 -188t-40.5 -165.5q9 1 20.5 1h24.5h23.5t20.5 -1q6 37 11 66.5t12 65
t17 85t26 128.5q25 1 49.5 1.5t49.5 0.5h99h110q28 0 54.5 -0.5t52.5 -1.5q-12 -57 -22.5 -103.5t-20 -87.5t-19 -79t-19.5 -75q10 1 21 1h24h24t20 -1q10 60 25.5 142t34.5 173t41 185.5t45 181.5q-10 -2 -22 -3t-24 -1q-11 0 -22.5 1t-20.5 3q-6 -35 -11 -63t-11 -59.5
t-14 -72.5t-20 -102z" />
    <glyph glyph-name="I" unicode="I" horiz-adv-x="278" 
d="M43 -1q10 1 22 1h23h24t20 -1q11 67 28 153.5t36.5 178.5t40.5 182.5t41 167.5q-10 -2 -22 -3t-24 -1q-11 0 -22.5 1t-20.5 3q-11 -66 -28 -154t-37 -182t-41 -185.5t-40 -160.5z" />
    <glyph glyph-name="J" unicode="J" horiz-adv-x="278" 
d="M-48 -113l5 -26q23 5 46 17t45.5 28.5t40.5 37t29 42.5q9 14 16.5 34.5t15.5 49.5t16.5 68t19.5 91q19 88 32.5 150t24.5 111.5t21.5 93.5t24.5 97q-10 -2 -22 -3t-24 -1q-11 0 -22.5 1t-20.5 3q-7 -41 -17.5 -98t-23.5 -121t-27 -130t-28 -125.5t-26.5 -109t-22.5 -79.5
q-15 -42 -30 -67.5t-27.5 -39t-24 -18t-21.5 -6.5z" />
    <glyph glyph-name="K" unicode="K" horiz-adv-x="611" 
d="M639 675v6q-15 -4 -39 -4q-23 0 -38 4q-11 -15 -39.5 -44.5t-65 -65t-76.5 -73t-74.5 -68.5t-58.5 -50.5t-29 -19.5q-4 0 -4 3q0 8 1 11q15 75 33.5 150.5t38.5 156.5q-16 -4 -43 -4q-26 0 -41 4q-11 -66 -28 -154t-37 -182t-41 -185t-40 -161q10 1 20 1h23h23.5t18.5 -1
q14 79 29.5 160t32.5 163q2 11 4 15.5t8 4.5t16 -12t21 -27q22 -29 48 -66.5t53 -78t53 -82t48 -77.5q11 1 22.5 1h27.5h29.5t24.5 -1q-63 89 -133 181.5t-130 188.5q40 38 80.5 75.5t82.5 73.5q19 16 42.5 36t48 41t47.5 42t41 38z" />
    <glyph glyph-name="L" unicode="L" horiz-adv-x="444" 
d="M409 54q-66 -10 -131.5 -12t-131.5 -3q29 164 63 322.5t76 319.5q-17 -4 -46 -4q-27 0 -43 4q-11 -66 -28 -154t-37 -182t-41 -185.5t-40 -160.5q20 1 47 1h53h47h30h41h70.5t62.5 -1q0 16 1.5 28t6.5 27z" />
    <glyph glyph-name="M" unicode="M" horiz-adv-x="889" 
d="M383 -11h12q13 21 44 68t70 106t82.5 122.5t81.5 119t66.5 96t37.5 52.5q-1 -3 -7.5 -35.5t-16.5 -82t-23 -110.5t-27 -122t-27.5 -115.5t-24.5 -88.5q11 1 22.5 1h24.5h24t19 -1q6 50 18 118.5t27 141.5t30.5 145t29.5 130.5t24 98t13 48.5q-15 -4 -37 -4q-20 0 -35 4
q-18 -30 -50 -79.5t-71 -107.5t-81 -119.5t-79 -114.5t-65 -92.5t-39 -53.5q-3 9 -5.5 17.5t-6 20.5t-8.5 28t-12 40q-25 84 -41.5 142t-29.5 107t-25 98t-28 114q-7 -2 -14 -3t-20 -1q-12 0 -19.5 1t-15.5 3q-8 -42 -20 -100.5t-25.5 -124t-29 -133.5t-30 -129.5t-28 -113
t-23.5 -81.5q8 1 18 1h18h17t16 -1q3 39 11.5 95.5t20 117.5t24.5 122t23.5 110t18 80.5t8.5 35.5q10 -32 25 -83t32 -110t35 -120t32.5 -114t25 -92.5t13.5 -51.5z" />
    <glyph glyph-name="N" unicode="N" horiz-adv-x="778" 
d="M220 690h-12q-4 -22 -14 -72.5t-24 -116.5t-30.5 -140t-33 -144t-31.5 -128t-26 -90q8 1 17.5 1h17.5h18t16 -1q2 21 8.5 61.5t16 91.5t20.5 107t22 109t21 99t17 75q10 -13 40 -55.5t70 -99.5t84.5 -122t83.5 -122.5t67.5 -100t36.5 -54.5h14q3 21 13 72.5t23.5 118
t30 141.5t32 144.5t29.5 127t23 89.5q-8 -2 -14 -3t-16 -1q-9 0 -18.5 1t-16.5 3q-5 -42 -13.5 -94.5t-18.5 -108.5t-21 -111.5t-20.5 -103t-17.5 -83t-12 -51.5q-12 14 -41 54t-67 93.5t-80 115t-80.5 119t-69 105.5t-44.5 74z" />
    <glyph glyph-name="O" unicode="O" horiz-adv-x="833" 
d="M147 256q0 77 23.5 150.5t67.5 130.5t106.5 91.5t140.5 34.5q48 0 92 -15t77 -45.5t53 -78.5t20 -114q0 -61 -21 -130.5t-63.5 -129t-107.5 -98.5t-154 -39q-47 0 -89.5 13.5t-74.5 43t-51 75.5t-19 111zM61 268q0 -21 3 -48.5t12 -57t26 -57.5t45 -51q28 -24 60 -38
t64 -21t60.5 -9t49.5 -2q103 0 183.5 37t135.5 97.5t84 136t29 150.5q0 67 -22.5 120.5t-64 91t-100 58t-131.5 20.5q-89 0 -168 -30t-138 -86t-93.5 -134.5t-34.5 -176.5z" />
    <glyph glyph-name="P" unicode="P" 
d="M488 539q0 -18 -4.5 -39t-13.5 -41.5t-23.5 -40t-35.5 -34.5q-19 -15 -41.5 -22.5t-43.5 -11.5t-37.5 -4.5t-24.5 -0.5q-39 0 -56 4q15 68 24 109t15.5 70.5t12.5 54t15 58.5q17 2 34.5 3.5t34.5 1.5q20 0 45 -2t47 -12.5t37 -32t15 -60.5zM569 544q0 34 -14.5 63.5
t-45.5 47.5q-29 17 -62 21.5t-62 4.5q-7 0 -25.5 -0.5t-39.5 -1.5t-40 -1.5t-26 -0.5q-14 0 -29 1t-29 3q-7 -44 -17 -98.5t-22 -114.5t-25 -123.5t-27 -124.5t-27.5 -118t-26.5 -103q9 1 21 1h24h23.5t19.5 -1q15 89 31 169.5t30 146.5q11 -1 23 -1.5t30 -0.5q57 0 108 7
t89 28q31 17 53.5 40.5t37 49.5t21.5 53.5t7 52.5z" />
    <glyph glyph-name="Q" unicode="Q" horiz-adv-x="833" 
d="M147 256q0 77 23.5 150.5t67.5 130.5t106.5 91.5t140.5 34.5q48 0 92 -15t77 -45.5t53 -78.5t20 -114q0 -61 -21 -130.5t-63.5 -129t-107.5 -98.5t-154 -39q-47 0 -89.5 13.5t-74.5 43t-51 75.5t-19 111zM757 -155l38 64q-6 1 -21.5 5t-33 8.5t-33.5 8.5t-22 5
q-9 1 -34.5 6.5t-54.5 12.5t-55.5 13t-38.5 8l-15 3q-3 1 -6 2.5t-3 5.5q0 3 2.5 5.5t10.5 4.5q15 3 30.5 7t34.5 12t41 21t49 33q42 31 73.5 71.5t52 85t31 91.5t10.5 91q0 59 -20.5 111t-60.5 91t-99.5 61.5t-137.5 22.5q-96 0 -175.5 -33t-137 -90t-89.5 -134.5
t-32 -167.5q0 -58 18 -115t68 -101q21 -18 48 -31.5t54 -21t52.5 -11.5t44.5 -4q2 0 16 -4t34.5 -10.5t44.5 -14t47 -15t41.5 -13.5t27.5 -9q51 -18 82.5 -29t51.5 -18.5t34.5 -13.5t31.5 -14z" />
    <glyph glyph-name="R" unicode="R" horiz-adv-x="611" 
d="M215 367q12 54 20 90.5t14.5 65t13 55t15.5 61.5q23 2 41 3.5t41 1.5q19 0 44 -1.5t47.5 -11t38.5 -30.5t16 -59q0 -35 -17.5 -74.5t-59.5 -68.5q-20 -14 -45 -21.5t-47.5 -11t-40 -4t-22.5 -0.5q-16 0 -30.5 1t-28.5 4zM585 -1v2q-10 11 -28 34.5t-40 54t-46.5 65
t-47 68.5t-42.5 64t-33 51q9 1 25 4t35 8t39.5 13t38.5 20q51 31 76.5 76.5t25.5 91.5q0 32 -17.5 62t-55.5 49q-24 12 -55 15.5t-60 3.5q-7 0 -26 -0.5t-40 -1.5t-40 -1.5t-27 -0.5q-16 0 -31.5 1t-31.5 3q-11 -66 -28 -154t-36.5 -182t-40.5 -185.5t-40 -160.5q9 1 19 1
h24h23t18 -1q14 83 30.5 167.5t34.5 169.5q5 -1 11 -1.5t12 -0.5h12t11 -1q20 -23 48.5 -63t60 -87t63 -96t57.5 -88q13 1 24 1h25h26q13 0 27 -1z" />
    <glyph glyph-name="S" unicode="S" horiz-adv-x="500" 
d="M458 584h7q8 24 14.5 38.5t19.5 37.5q-17 8 -48 19t-80 11q-53 0 -97.5 -16t-77 -43.5t-50.5 -65t-18 -80.5q0 -34 10 -58.5t26.5 -43t38 -33t44.5 -28.5l40.5 -27t33.5 -28t22.5 -34.5t8.5 -46.5q0 -26 -10.5 -55t-30.5 -53t-50.5 -39.5t-69.5 -15.5q-15 0 -35 3.5
t-39.5 12t-37 22.5t-28.5 35h-7q-6 -19 -14.5 -38.5t-18.5 -38.5q32 -19 68.5 -26.5t74.5 -7.5q67 0 118 21t85.5 55.5t52.5 76.5t18 82q0 34 -9.5 57.5t-25.5 41t-37 31t-44 27.5q-24 14 -44 27t-35 28t-23 34t-8 46q0 28 10.5 54t30 45.5t46 31.5t57.5 12q40 0 70 -19
t42 -52z" />
    <glyph glyph-name="T" unicode="T" 
d="M405 637q20 0 45.5 -1t51 -2.5t49.5 -3t42 -2.5q2 20 4 30t7 23q-49 -2 -108.5 -3t-135.5 -1q-75 0 -136.5 0.5t-115.5 3.5q-2 -17 -4 -27t-7 -26q72 5 128 7t95 2q-9 -53 -24 -131t-33.5 -165.5t-39.5 -177t-41 -164.5q10 1 22 1h24h24t19 -1q12 73 29 160t35 173.5
t36.5 166t33.5 138.5z" />
    <glyph glyph-name="U" unicode="U" horiz-adv-x="778" 
d="M100 166q0 -49 22 -84t56.5 -57.5t77 -32t84.5 -9.5q67 0 129 21t110 69q44 44 64.5 96t37.5 123q23 99 44.5 195.5t49.5 193.5q-15 -4 -33 -4q-23 0 -35 4q-2 -11 -7.5 -45t-14 -80.5t-19.5 -101t-22.5 -107.5t-24 -99.5t-24.5 -76.5q-15 -37 -40 -64.5t-55.5 -46
t-65.5 -27.5t-70 -9q-32 0 -65 9t-60 27t-44 46t-17 67q0 12 1 24.5t3 28.5t6.5 38t11.5 53q17 80 27.5 130t19.5 87t18 69.5t22 77.5q-16 -4 -42 -4q-30 0 -47 4q-4 -28 -10 -62.5t-13 -71t-14.5 -74l-14.5 -72.5q-4 -17 -12 -48.5t-15.5 -67t-13 -68t-5.5 -51.5z" />
    <glyph glyph-name="V" unicode="V" horiz-adv-x="611" 
d="M291 94h-5q-10 54 -20 99t-18 94q-9 52 -18 103t-17 105q-7 48 -13 93t-13 93q-9 -2 -18 -3t-23 -1q-27 0 -44 4q12 -58 22.5 -116t21.5 -116q20 -115 41.5 -230.5t38.5 -219.5q6 1 12 1h17h16t12 -1q6 9 25 42.5t46 80t59.5 103.5t66.5 115.5t67 115t60.5 103t46.5 79
t26 43.5q-15 -4 -36 -4q-22 0 -34 4q-14 -33 -37 -78t-46 -91q-9 -17 -16.5 -31.5t-16.5 -31t-20.5 -37.5t-28 -50.5t-40 -70.5t-55.5 -97q-14 -26 -30.5 -52.5t-28.5 -47.5z" />
    <glyph glyph-name="W" unicode="W" horiz-adv-x="944" 
d="M247 113h-6q-5 38 -10.5 85t-11.5 99t-11.5 105.5t-10 104.5t-7.5 95.5t-4 78.5q-20 -4 -44 -4q-25 0 -40 4q5 -30 12 -83.5t15 -118.5t16 -136t15 -137t12 -121t7 -86q6 1 13.5 1h16.5h15t11 -1q11 22 25 51.5t28 58.5q6 12 22 42t34.5 64.5t35.5 65.5t24 44
q25 49 41 79t28 52t22.5 40.5t25.5 45.5h9q0 -3 4.5 -39t12 -90t15.5 -118.5t15.5 -124t13 -107t6.5 -64.5q8 1 14 1h14q16 0 28 -1q51 95 100 191t100 193q2 4 12.5 24t26 48.5t34 62.5t36 65.5t32.5 58t23 39.5q-15 -4 -37 -4q-21 0 -33 4q-19 -46 -45 -102.5t-55 -115.5
t-58 -116t-54 -105.5t-44 -83.5t-27 -49h-7q-7 42 -14.5 96t-14.5 111.5t-13 115.5t-11 107.5t-8.5 87t-4.5 54.5q-9 -4 -25 -4t-25 4q-10 -22 -33.5 -69t-53.5 -106.5t-63 -123.5t-62.5 -119.5t-51.5 -96.5t-30 -53z" />
    <glyph glyph-name="X" unicode="X" 
d="M335 356q12 17 29.5 38t38.5 47q14 17 33.5 40.5t40.5 49.5t42 51.5t38.5 46.5t28.5 35.5t13 16.5q-16 -4 -41 -4q-20 0 -29 4l-17.5 -24.5t-30 -42.5t-39 -54l-43 -58t-42.5 -56.5t-38 -48.5q-8 19 -17 43t-18.5 49t-18.5 49t-16 43q-8 22 -13.5 36.5t-9.5 25.5t-7 19.5
t-6 18.5q-15 -4 -43 -4q-26 0 -46 4q36 -85 72 -171t71 -171q-3 -4 -6.5 -8t-10 -12.5t-18 -23t-30.5 -39.5q-14 -18 -34 -43.5t-41 -53.5t-42.5 -55t-39 -50t-29.5 -38.5t-16 -16.5q8 1 16.5 1h21.5h19.5t14.5 -1q13 20 32 48.5t41 59.5t44 62.5t41 57.5t33.5 45t19.5 25
q31 -75 58 -150t54 -148q9 1 18.5 1h25.5h27t22 -1q-7 10 -20 38.5t-28.5 65t-32.5 77t-31.5 76.5t-25.5 63t-15 37z" />
    <glyph glyph-name="Y" unicode="Y" 
d="M306 332h-4q-10 24 -18 45t-21 54q-19 49 -32 82.5t-22.5 60t-17.5 51t-18 56.5q-10 -2 -19 -3t-23 -1q-31 0 -51 4q22 -50 36.5 -83t27.5 -64t28 -67.5t38 -92.5q11 -26 21.5 -53t20.5 -54q-9 -42 -17 -77.5t-15.5 -67.5t-15.5 -62.5t-17 -60.5q9 1 19.5 1h23.5h23
t19 -1q13 79 27.5 153t29.5 146q10 14 32 43.5t50.5 66.5t59.5 78.5t59.5 79.5t51.5 68.5t34 46.5q-11 -2 -20.5 -3t-16.5 -1q-20 0 -31 4q-19 -33 -43.5 -70.5t-50 -75.5t-51 -73t-46 -63t-34.5 -46t-17 -21z" />
    <glyph glyph-name="Z" unicode="Z" horiz-adv-x="611" 
d="M7 11v-12q60 1 124 1h124h62h57h58.5h53.5t43 -1q0 17 1.5 28t7.5 28q-73 -7 -145.5 -9.5t-147.5 -4.5q-28 -1 -56 -1.5t-56 -0.5l-6 6q16 20 45 56t65 81.5t77 97t82.5 103t79.5 99.5t69 86t51 62.5t25 29.5l2 21q-18 -1 -41.5 -1.5t-49 -1t-52 -1t-51.5 -0.5h-59
q-57 0 -114 1t-114 3q-2 -20 -4.5 -30t-7.5 -24q28 2 77 4t103.5 3.5t106 2.5t84.5 1l4 -6q-8 -11 -31 -41t-55.5 -71.5t-72 -91t-81 -101.5t-82 -102.5t-75.5 -93.5t-61.5 -74.5t-39.5 -45.5z" />
    <glyph glyph-name="bracketleft" unicode="[" horiz-adv-x="278" 
d="M248 646q6 1 12 1.5t11 0.5h23q20 0 36 -3q0 12 1 17.5t5 16.5q-18 -2 -36 -3.5t-36 -1.5q-20 0 -41 1.5t-41 3.5q-7 -54 -20.5 -128t-29.5 -155t-34 -163t-34 -152t-28.5 -121.5t-18.5 -73.5q22 2 43.5 3.5t44.5 1.5q19 0 37.5 -1.5t37.5 -3.5q0 8 1 15.5t5 18.5
q-9 -1 -19 -2t-20 -1h-21h-13t-19 1q6 43 18 108t27 139.5t32 152t32 144.5t27 116t18 68z" />
    <glyph glyph-name="backslash" unicode="\" horiz-adv-x="389" 
d="M244 -35l-51 744h-48l51 -744h48z" />
    <glyph glyph-name="bracketright" unicode="]" horiz-adv-x="278" 
d="M49 -80q-6 -1 -12 -1.5t-11 -0.5h-23q-17 0 -33 3q0 -12 -1 -17.5t-5 -16.5q18 2 34.5 3.5t34.5 1.5q20 0 41 -1.5t41 -3.5q7 54 20.5 126.5t29.5 153.5t34 163t34 152t28.5 123t18.5 75q-22 -2 -43.5 -3.5t-44.5 -1.5q-19 0 -37.5 1.5t-37.5 3.5q0 -8 -1 -15.5t-5 -18.5
q9 1 19 2t20 1h20h14t19 -1q-7 -44 -19.5 -110t-27.5 -140.5t-31.5 -152t-31 -144t-26.5 -114.5t-18 -67z" />
    <glyph glyph-name="asciicircum" unicode="^" horiz-adv-x="593" 
d="M278 666l-168 -415h58l135 352l138 -352h57l-167 415h-53z" />
    <glyph glyph-name="underscore" unicode="_" horiz-adv-x="500" 
d="M0 -73v-50h500v50h-500z" />
    <glyph glyph-name="grave" unicode="`" horiz-adv-x="241" 
d="M225 538h28l-102 131q-17 22 -26 30.5t-23 8.5q-15 0 -24 -9t-9 -23q0 -13 8 -21.5t25 -21.5z" />
    <glyph glyph-name="a" unicode="a" horiz-adv-x="500" 
d="M97 106q0 30 14 51t35.5 35.5t48 23t51.5 14.5q23 5 45 9t45 9q-10 -35 -17 -69.5t-13 -69.5q-23 -33 -56 -56t-75 -23q-31 0 -54.5 19.5t-23.5 56.5zM127 426l-14 -54h12q27 29 56.5 47.5t71.5 18.5t71 -21.5t29 -66.5q0 -21 -5.5 -43t-26.5 -31q-14 -6 -37 -9.5
t-43 -7.5q-23 -5 -60 -13.5t-72 -26t-60 -47.5t-25 -78q0 -26 11 -46.5t28.5 -34t39.5 -19.5t44 -6q49 0 87.5 21.5t68.5 53.5q2 -31 18.5 -47.5t47.5 -16.5q21 0 39 6t35 17l-5 21q-5 -4 -11.5 -6.5t-15.5 -2.5q-20 0 -29.5 13.5t-9.5 31.5q0 15 3 36t11 53l29 122
q3 13 7.5 35t4.5 43q0 49 -37.5 80t-100.5 31q-45 0 -84.5 -13.5t-77.5 -39.5z" />
    <glyph glyph-name="b" unicode="b" horiz-adv-x="574" 
d="M457 292q0 -21 -4.5 -50t-15 -59.5t-26.5 -61t-38.5 -54t-53 -38.5t-68.5 -15q-19 0 -40 6t-38 19t-28 33t-11 48q0 24 4 51t10.5 54.5t15.5 53.5t19 48q9 20 22.5 38.5t32 32.5t42 23t52.5 9q15 0 36.5 -5t41 -19.5t33.5 -41.5t14 -72zM27 -3l20 -1q24 18 36.5 29.5
t30.5 23.5q14 -16 28.5 -28.5t32 -20t39 -12t49.5 -4.5q64 0 115 26.5t86 71t54 100t19 110.5q0 50 -15.5 84.5t-40 56t-55.5 31t-61 9.5q-41 0 -71.5 -11t-52.5 -26t-35.5 -30t-20.5 -24l-3 1q7 33 17 76.5t21.5 91.5t24 98t24.5 95q-16 -4 -41 -4q-24 0 -40 4
q-2 -14 -8.5 -48t-15.5 -81t-20.5 -103.5t-24 -116.5l-25 -120t-25 -113.5t-23.5 -96.5t-19 -68z" />
    <glyph glyph-name="c" unicode="c" horiz-adv-x="500" 
d="M413 21l14 42l-5 2q-8 -4 -21.5 -11t-31.5 -14.5t-40.5 -13t-48.5 -5.5q-21 0 -48.5 6.5t-52 25t-41 52.5t-16.5 88q0 48 15 93.5t42.5 81t66.5 57.5t86 22q38 0 73 -17.5t54 -52.5h6q3 12 5.5 21t5 16.5t6 15.5t8.5 19q-23 9 -60.5 19.5t-91.5 10.5q-79 0 -135 -27
t-92 -69t-52.5 -92.5t-16.5 -97.5q0 -53 17.5 -92t48 -64.5t71 -36.5t86.5 -11q79 0 148 32z" />
    <glyph glyph-name="d" unicode="d" horiz-adv-x="574" 
d="M122 172q0 29 8 74.5t30 89t59.5 74.5t95.5 31q41 0 65 -15.5t37 -37.5t16.5 -45t3.5 -38q0 -33 -9 -81t-31.5 -93t-59.5 -77t-94 -32q-58 0 -89.5 38.5t-31.5 111.5zM400 85l-22 -86q8 1 16.5 1h21.5h20t14 -1q8 49 17 99.5t17 87.5q16 79 29 143t26 126.5t29 131
t38 157.5q-15 -4 -39 -4q-25 0 -40 4q-13 -82 -32 -176t-37 -190h-4q-5 12 -14 29t-26.5 32.5t-44 26.5t-66.5 11q-66 0 -115 -29t-81.5 -73.5t-48.5 -97t-16 -99.5q0 -39 11 -74t33.5 -62t56.5 -41.5t79 -14.5q36 0 64 8.5t49 23.5t37 33t28 34z" />
    <glyph glyph-name="e" unicode="e" horiz-adv-x="500" 
d="M290 449q20 0 39 -6t34.5 -20t25 -37t9.5 -56q0 -20 -2 -32.5t-4 -21.5q-20 -3 -48 -3.5t-53 -0.5h-32q-31 0 -68 1t-68 3q11 52 31 85.5t43.5 53t48 27t44.5 7.5zM395 31l13 45h-3q-9 -6 -22.5 -15.5t-32 -17.5t-42 -14t-52.5 -6q-21 0 -46.5 6t-47 23t-36.5 47t-15 79
q0 20 1.5 34t3.5 24q18 0 42 1t48 1h31h74q23 0 41 -0.5t34.5 -1t33.5 -1.5t38 -2q3 13 7 33t4 48q0 45 -14.5 76.5t-39.5 51t-57 28t-68 8.5q-57 0 -104.5 -22.5t-81.5 -61t-52.5 -90.5t-18.5 -111q0 -60 19 -99.5t48.5 -63t64.5 -32t67 -8.5q43 0 84.5 9.5t78.5 31.5z" />
    <glyph glyph-name="f" unicode="f" horiz-adv-x="278" 
d="M64 463l-6 -41q18 3 36 3.5t36 0.5q-9 -48 -20 -103t-23.5 -111.5t-25.5 -111.5t-26 -101q8 1 18 1h22h20.5t17.5 -1q3 23 7.5 48.5t9.5 51.5q17 81 34.5 162t34.5 165q21 0 42.5 -1.5t42.5 -2.5l8 41q-27 -2 -48.5 -3t-38.5 -1q3 29 4 55t2 55q0 10 2 28t10 36t25 31.5
t48 13.5q21 0 37.5 -6t27.5 -11l9 4q2 14 7 32t13 38q-8 3 -18.5 5.5t-22.5 2.5q-29 0 -54.5 -11t-47 -29t-38 -41.5t-27.5 -48.5q-12 -27 -23.5 -63.5t-22.5 -90.5q-18 0 -36 1t-36 3z" />
    <glyph glyph-name="g" unicode="g" horiz-adv-x="500" 
d="M47 -127q0 9 2 22.5t8 28.5t17 29.5t29 26.5q26 18 58 20t52 2t44 -1t44.5 -8t34 -23t13.5 -46q0 -27 -11 -54.5t-33.5 -50t-56 -37t-78.5 -14.5q-24 0 -46 6t-39.5 18.5t-27.5 32.5t-10 48zM142 285q0 22 7 50.5t23.5 54t42.5 43t64 17.5q42 0 65 -25t23 -70
q0 -23 -7 -52.5t-23 -55.5t-41.5 -44t-61.5 -18q-16 0 -32 5t-29.5 16.5t-22 31t-8.5 47.5zM137 178v-7q-11 -5 -26 -13t-28.5 -19.5t-22.5 -28.5t-9 -40q0 -16 6.5 -26.5t15.5 -17t18 -10t15 -4.5l-1 -7q-8 -3 -21.5 -7t-30.5 -15q-29 -18 -46 -49t-17 -66q0 -29 11.5 -54
t31.5 -41q25 -20 58 -27.5t68 -7.5q72 0 121.5 23t79.5 56.5t43.5 71t13.5 66.5q0 9 -1.5 20.5t-6.5 22t-13.5 21.5t-22.5 20q-14 8 -29 12.5t-35.5 7t-50 3t-71.5 0.5q-12 0 -25 1t-24 4.5t-18 12t-7 23.5q0 12 5 21t11.5 15.5t13.5 11t11 7.5q11 -1 26 -1.5t32 -0.5
q24 0 62 4.5t73 23.5q25 14 43 33.5t30 41t17.5 44.5t5.5 44q0 34 -10 52.5t-18 29.5q18 -1 38.5 -2t56.5 -3q0 5 -1 10t-1 11t1 11t1 10q-10 0 -23 -0.5t-27 -1.5t-27 -1.5t-22 -0.5q-16 0 -26.5 0.5t-24.5 4.5q-22 6 -36.5 9t-39.5 3q-54 0 -94.5 -16.5t-68.5 -43
t-42 -60.5t-14 -69q0 -31 9 -51t21 -32.5t24 -19t18 -9.5z" />
    <glyph glyph-name="h" unicode="h" 
d="M186 394l-4 2q6 25 10.5 46t9 41.5t9 42t10.5 45.5q10 45 20.5 87.5t21.5 85.5q-9 -2 -20.5 -3t-21.5 -1q-24 0 -40 4q-8 -56 -21.5 -129.5t-29 -152t-32.5 -156t-31.5 -142t-25.5 -109.5t-15 -56q10 1 22 1h22h20.5t17.5 -1q4 31 11.5 74.5t16 86t16.5 79.5t13 57
q12 47 33.5 74t45 40.5t44.5 17t32 3.5q25 0 43.5 -7.5t30.5 -20.5t18 -29t6 -34q0 -15 -5 -44.5t-12.5 -65t-16.5 -73.5t-17 -71t-14.5 -57t-8.5 -30q9 1 19.5 1h23.5h21.5t18.5 -1q1 7 2 15.5t3 22.5q6 39 15 80t17 83q10 47 16 75t9.5 44.5t4.5 24.5t1 16q0 17 -7.5 37.5
t-24 38t-43 29.5t-64.5 12q-16 0 -36 -3t-42.5 -12t-46 -25t-45.5 -43z" />
    <glyph glyph-name="i" unicode="i" horiz-adv-x="241" 
d="M157 628q0 -20 14 -34t34 -14t34 14t14 34t-14 34t-34 14t-34 -14t-14 -34zM212 470q-16 -4 -41 -4q-22 0 -42 4q-1 -9 -6 -38t-12.5 -70t-17.5 -90t-21 -99t-23 -96t-23 -78q8 1 17.5 1h21.5h23t23 -1q3 27 10.5 69t17 89t20 95.5t21 91.5t19 76.5t13.5 49.5z" />
    <glyph glyph-name="j" unicode="j" horiz-adv-x="241" 
d="M156 628q0 -20 14 -34t34 -14t34 14t14 34t-14 34t-34 14t-34 -14t-14 -34zM-104 -242l10 -20q13 3 34.5 9.5t44 20t44.5 34t36 52.5q6 12 10.5 25.5t11 44t18.5 84t33 147.5q17 80 27.5 129t18 81.5t13.5 55t14 49.5q-15 -4 -37 -4q-25 0 -42 4q-8 -35 -13.5 -70.5
t-12.5 -71.5q-8 -45 -23.5 -115.5t-38.5 -172.5q-19 -82 -31.5 -130.5t-26 -77t-34.5 -43.5t-56 -31z" />
    <glyph glyph-name="k" unicode="k" horiz-adv-x="500" 
d="M258 270v7q12 10 34 27.5t48.5 38t54.5 41.5l52 39t41 31t21 16q-9 -2 -20.5 -3t-22.5 -1q-10 0 -19 1t-16 3q-85 -75 -136 -118.5t-81 -64.5l-17 -12q-4 -2 -9.5 -4.5t-10.5 -2.5q-10 0 -10.5 6t0.5 9l8 39l46 213q9 41 14.5 66.5t10 46.5t9.5 42t13 54q-16 -4 -41 -4
q-21 0 -41 4q-2 -18 -4.5 -35t-6.5 -37q-13 -72 -28.5 -153t-33.5 -167.5t-39 -176t-44 -176.5q8 1 18.5 1h21.5h22.5t18.5 -1q2 10 7 39.5t11 62.5t12 63t9 43l4 21q3 20 14 20q9 0 19 -8.5t18 -19.5l17 -24l18 -27l33 -49.5t40.5 -61t39.5 -59.5q10 1 21.5 1h23.5h28
t26 -1q-32 37 -65 82.5t-60.5 85.5t-46 68.5t-22.5 34.5z" />
    <glyph glyph-name="l" unicode="l" horiz-adv-x="241" 
d="M268 744q-11 -2 -23 -3t-23 -1q-23 0 -38 4q-5 -36 -14 -89t-21 -116t-26.5 -133t-30.5 -141t-32.5 -139.5t-32.5 -126.5q8 1 17.5 1h22.5h23.5t17.5 -1q7 40 20 108.5t29.5 147t34.5 160t33.5 150.5t27 117.5t15.5 61.5z" />
    <glyph glyph-name="m" unicode="m" horiz-adv-x="833" 
d="M180 395l20 75q-17 -4 -41 -4q-9 0 -19 1t-16 3q-3 -28 -9.5 -66t-15 -81t-18.5 -89t-20 -89t-19.5 -81.5t-17.5 -64.5q8 1 18.5 1h21.5h21.5t18.5 -1q3 20 11 65t17 94t18.5 92t15.5 62q13 41 34 64t42.5 34.5t40 14.5t26.5 3q15 0 31 -4t28.5 -13.5t21 -24.5t8.5 -38
q0 -15 -4 -42t-11 -60.5t-15.5 -70.5t-16.5 -71t-16 -62t-13 -43q10 1 21 1h22h19.5t18.5 -1q4 26 12.5 71.5t18 93t18.5 89t15 61.5q9 31 25.5 52.5t36 35t41 20t40.5 6.5q40 0 65.5 -23t25.5 -65q0 -13 -4.5 -40.5t-12 -61.5t-16.5 -71.5t-17.5 -71.5t-16 -60.5
t-11.5 -35.5q10 1 21 1h22h21t18 -1q2 9 4.5 30.5t11.5 64.5l38 182q6 29 10.5 53t4.5 40q0 19 -8 38t-24.5 34t-40.5 24.5t-57 9.5q-35 0 -62 -9.5t-48 -24t-37 -31.5t-28 -32q-3 14 -9 30.5t-19.5 31.5t-36 25t-58.5 10q-34 0 -60.5 -9t-46.5 -22t-34 -26.5t-23 -22.5h-2z
" />
    <glyph glyph-name="n" unicode="n" 
d="M184 396l19 74q-9 -2 -19 -3t-19 -1q-21 0 -36 4q-3 -20 -9.5 -56.5t-15.5 -81.5t-19.5 -94.5t-20.5 -95.5t-19.5 -84.5t-16.5 -58.5q8 1 18.5 1h21.5h20t17 -1q1 6 5 28t9.5 52.5t12.5 65.5t14.5 68.5t14.5 62t13 45.5q11 34 30.5 55t41 32.5t41.5 15.5t32 4
q19 0 36.5 -5.5t31.5 -16.5t22.5 -27.5t8.5 -39.5q0 -17 -4.5 -46t-11.5 -63.5t-15.5 -71.5t-17 -69t-15.5 -57t-11 -33q9 1 21 1h23h20.5t17.5 -1q1 13 7 44.5t13 67t14 68t11 50.5q8 34 12.5 54t7 33t3 21t0.5 18q0 30 -12 52.5t-31.5 37.5t-44.5 22.5t-52 7.5
q-28 0 -54 -7.5t-47 -19.5t-37.5 -26t-26.5 -28z" />
    <glyph glyph-name="o" unicode="o" 
d="M111 163q0 42 11 91.5t35 92t62.5 71.5t92.5 29q32 0 57 -11t42 -30.5t25.5 -46t8.5 -57.5q0 -37 -11 -86t-36 -93t-64 -74.5t-96 -30.5q-68 0 -97.5 41t-29.5 104zM32 187q0 -32 9.5 -67.5t33 -65t64 -47.5t102.5 -18q65 0 117 24.5t89 66.5t57 95.5t20 108.5
q0 38 -11 73t-36 62t-66 43.5t-100 16.5q-64 0 -116 -25.5t-88 -67t-55.5 -93.5t-19.5 -106z" />
    <glyph glyph-name="p" unicode="p" horiz-adv-x="574" 
d="M143 156q0 12 3.5 37.5t11.5 56.5t22 64t35.5 60t51.5 44.5t70 17.5q21 0 42.5 -7t39 -23.5t28.5 -43t11 -65.5q0 -32 -10.5 -79t-33.5 -90.5t-60.5 -74.5t-91.5 -31q-17 0 -38 5.5t-39 20.5t-30 41t-12 67zM123 87h3q7 -29 22 -48.5t35 -30t43.5 -15.5t47.5 -5
q61 0 109.5 26.5t82.5 70.5t52.5 99.5t18.5 111.5q0 60 -19 96t-46 55.5t-57 25.5t-51 6q-36 0 -64 -10t-50 -24.5t-37.5 -31t-25.5 -30.5q5 29 9 46t10 41q-8 -2 -18.5 -3t-18.5 -1q-10 0 -20.5 1t-18.5 3q-9 -45 -16.5 -90t-16.5 -90q-14 -67 -29 -141t-30 -145.5
t-29 -140t-27 -124.5q17 4 39 4t34 -4q15 78 33 169.5t35 178.5z" />
    <glyph glyph-name="q" unicode="q" horiz-adv-x="574" 
d="M122 172q0 43 10.5 90.5t33 87.5t57 66t82.5 26q54 0 89.5 -34t35.5 -97q0 -13 -3 -40t-10.5 -59t-21 -66t-34.5 -61.5t-51 -45.5t-70 -18q-38 0 -61.5 16t-36 39.5t-16.5 49.5t-4 46zM385 75l2 -1q-5 -27 -12.5 -55t-13.5 -57l-49 -223q15 4 39 4q23 0 38 -4q3 17 6 33
t6 35t7.5 42.5t10.5 55.5q18 87 31 148.5t23 108.5t18 83t15.5 70t16 70.5t19.5 84.5q-15 -4 -36 -4q-23 0 -38 4q-7 -43 -10 -62.5t-5 -30.5h-4q-8 15 -13.5 25.5t-16.5 23.5q-28 31 -62.5 41t-62.5 10q-54 0 -100.5 -24t-80 -64.5t-52.5 -94.5t-19 -115q0 -52 15 -88.5
t39.5 -59.5t56 -32.5t64.5 -9.5q39 0 67 8.5t48 22.5t32.5 29t20.5 26z" />
    <glyph glyph-name="r" unicode="r" horiz-adv-x="333" 
d="M323 391l9 5q0 19 2.5 37.5t7.5 43.5q-29 1 -52 -9.5t-41.5 -27t-35 -37.5t-32.5 -41h-5q2 16 5.5 32.5t7.5 31.5t7.5 26.5t5.5 17.5q-15 -4 -37 -4q-10 0 -20.5 1t-18.5 3q-3 -26 -10 -65.5t-15.5 -85.5t-19 -95t-20.5 -93t-19 -79.5t-15 -52.5q9 1 19.5 1h21.5h20
t17 -1q2 13 6.5 38.5t10.5 55.5t12.5 61.5t12.5 58t10.5 45.5t6.5 23q17 60 50.5 89.5t68.5 29.5q12 0 22 -3t18 -6z" />
    <glyph glyph-name="s" unicode="s" horiz-adv-x="389" 
d="M318 390h9q2 10 6.5 24t19.5 48q-24 11 -44 15.5t-47 4.5q-50 0 -85 -15.5t-56.5 -39.5t-31.5 -52t-10 -54q0 -27 8 -45.5t21 -31.5t29.5 -22t32.5 -16q40 -18 60 -34t20 -48q0 -16 -6.5 -34.5t-19.5 -33.5t-33.5 -25t-49.5 -10q-33 0 -60.5 15t-38.5 45h-7
q-5 -11 -13 -30t-19 -37q26 -14 51.5 -20t56.5 -6q44 0 81.5 13t65 37t43.5 55.5t16 66.5q0 24 -8 41t-21 29t-29 20.5t-32 15.5q-17 7 -32.5 15t-27.5 18t-19 23.5t-7 31.5q0 17 6.5 34t19 30.5t30 22t39.5 8.5q29 0 51.5 -15.5t30.5 -43.5z" />
    <glyph glyph-name="t" unicode="t" horiz-adv-x="296" 
d="M236 595l-87 -32l-18 -106q-13 0 -30.5 1.5t-33.5 2.5q0 -15 -1.5 -23t-4.5 -16q17 1 34.5 1.5t31.5 0.5q-8 -38 -13 -63.5t-10.5 -51t-12.5 -57.5t-18 -83q-5 -25 -9.5 -47t-4.5 -42q0 -23 9.5 -40.5t24.5 -28.5t34.5 -16.5t38.5 -5.5q25 0 53.5 6t48.5 22l2 26
q-15 -9 -32 -14.5t-34 -5.5q-11 0 -23.5 4t-23 12.5t-17.5 22.5t-7 34q0 12 2.5 29.5t6 36.5t7.5 38.5t7 35.5l39 188q23 0 51.5 -1.5t54.5 -2.5q0 20 6 41q-26 -1 -53.5 -2.5t-50.5 -1.5q8 35 15.5 69t17.5 69z" />
    <glyph glyph-name="u" unicode="u" 
d="M370 64l-18 -65q8 1 18 1h21h18.5t17.5 -1q3 28 10.5 69.5t17 89t20 96t21 91t19 76t13.5 49.5q-16 -4 -41 -4q-20 0 -40 4q-1 -4 -4.5 -24.5t-9 -50t-12 -64.5t-13.5 -69t-14 -64t-13 -49q-8 -23 -21 -44t-32 -37t-43 -25.5t-53 -9.5q-46 0 -71.5 24t-25.5 72
q0 21 8.5 62.5t20.5 91t25.5 99.5t23.5 88q-17 -4 -43 -4q-28 0 -44 4q-3 -27 -8.5 -58.5t-11 -61.5t-11 -54.5t-8.5 -37.5q-14 -61 -22.5 -100t-8.5 -58q0 -28 12.5 -49.5t32.5 -36t45 -20.5t50 -6q32 0 57.5 6.5t46.5 18t37.5 26t28.5 29.5z" />
    <glyph glyph-name="v" unicode="v" horiz-adv-x="500" 
d="M238 91h-6q-23 96 -44 189t-40 190q-15 -4 -39 -4q-22 0 -37 4q20 -79 38.5 -158t37.5 -158q16 -68 23 -103t11 -52q5 1 11 1h14h14t12 -1q8 14 29 57.5t64 115.5q7 13 21 36t31.5 51.5t37.5 60t38 60.5t33.5 53t24.5 37q-12 -4 -34 -4q-19 0 -31 4q-10 -19 -17.5 -34
t-18 -35.5t-27.5 -51.5t-45 -84q-18 -33 -30.5 -55t-23 -40t-21.5 -36t-26 -43z" />
    <glyph glyph-name="w" unicode="w" horiz-adv-x="778" 
d="M206 97h-6q-22 106 -35 199t-21 174q-16 -4 -40 -4q-25 0 -41 4q6 -27 13.5 -66.5t15.5 -84.5t15.5 -92t14.5 -90.5t12.5 -80t8.5 -57.5q5 1 12 1h14h12.5t11.5 -1q45 89 98.5 181t108.5 183l8 -1q9 -37 16.5 -73.5t15 -79.5t15.5 -94.5t18 -115.5q5 1 11 1h14h12.5
t9.5 -1q41 72 86.5 149.5t86.5 144t71.5 114.5t41.5 63q-15 -4 -35 -4t-31 4q-51 -99 -100 -190.5t-104 -182.5h-7q-3 12 -8.5 39t-12 61.5t-14 74t-13.5 77t-10 69.5t-5 52q-11 -4 -27 -4q-15 0 -27 4q-8 -19 -24.5 -50.5t-37 -69.5t-43 -78t-42.5 -75t-36 -62t-23 -38z
" />
    <glyph glyph-name="x" unicode="x" horiz-adv-x="444" 
d="M193 230q-27 -33 -55 -66t-54.5 -63t-50 -56.5t-39.5 -45.5q6 1 13.5 1h18.5h17.5t13.5 -1q13 16 26 34.5t30 41.5t40 52.5t56 70.5q8 -17 20 -39.5t29 -63.5q2 -5 8 -19t13 -30t13.5 -30t9.5 -17q10 1 21.5 1h22.5h23.5t21.5 -1q-12 20 -24 41.5t-23 43.5q-15 30 -25 49
t-19 35.5t-19.5 35.5t-26.5 50q7 8 27 31.5t47.5 54.5t58 65.5t58.5 64.5q-16 -4 -36 -4q-17 0 -32 4q-3 -4 -10.5 -14.5t-16 -23t-16.5 -23.5t-11 -16q-20 -27 -40.5 -54t-42.5 -53q-8 15 -14.5 30.5t-14.5 30.5q-3 6 -10.5 23.5t-16.5 37t-16.5 37.5t-10.5 25
q-16 -4 -42 -4q-12 0 -24.5 1t-24.5 3q32 -60 65 -120t62 -120z" />
    <glyph glyph-name="y" unicode="y" horiz-adv-x="500" 
d="M244 89h-5q-32 118 -54 215t-34 166q-15 -4 -39 -4q-11 0 -22 1t-20 3q32 -120 61.5 -233.5t59.5 -236.5q-38 -61 -80 -128t-84 -133q11 4 31 4q21 0 32 -4q43 88 94.5 180t106.5 186t112 186t112 179q-12 -4 -32 -4t-35 4l-10 -24q-5 -12 -11 -25t-18 -35.5t-31.5 -58
t-50.5 -92.5q-20 -37 -41.5 -73.5t-41.5 -72.5z" />
    <glyph glyph-name="z" unicode="z" horiz-adv-x="500" 
d="M10 6v-7q45 1 99.5 1h105.5h66h32h35h35t31 -1q2 9 3.5 20.5t4.5 23.5q-27 -3 -72.5 -5t-92 -3.5t-84 -2t-49.5 -0.5l-1 4q8 10 31.5 39t56 68t71 84.5t75.5 88.5t69.5 80t54.5 60l1 14q-28 -2 -71 -3t-97 -1q-37 0 -92.5 0.5t-115.5 3.5q-1 -18 -2.5 -28.5t-4.5 -21.5
q57 6 128 9t140 3l2 -7q-9 -13 -36 -46t-63.5 -75.5t-78 -90.5t-78.5 -90t-65 -74t-38 -43z" />
    <glyph glyph-name="braceleft" unicode="{" horiz-adv-x="360" 
d="M68 297l-7 -32q16 -1 34 -6t33.5 -14t25.5 -23t10 -33q0 -21 -4.5 -45.5t-9.5 -50.5q-6 -26 -10.5 -52t-4.5 -48q0 -30 12.5 -50.5t32.5 -33.5t45.5 -18.5t51.5 -5.5l6 32q-18 1 -35 5t-30 12.5t-21 22.5t-8 35q0 20 4.5 45.5t10.5 51.5q5 26 9.5 50.5t4.5 45.5
q0 38 -23.5 60t-57.5 33q18 2 36 6.5t34.5 15.5t31 31t24.5 53q3 9 8.5 31.5t11 48.5t11 49.5t8.5 32.5q13 45 44.5 73t93.5 30l6 32q-30 0 -59.5 -4.5t-54.5 -15.5t-45 -31t-31 -52q-3 -10 -10 -36.5t-14.5 -56.5t-14.5 -57t-10 -38q-6 -19 -15 -35.5t-25 -29t-40 -20
t-59 -8.5z" />
    <glyph glyph-name="bar" unicode="|" horiz-adv-x="222" 
d="M84 750v-998h54v998h-54z" />
    <glyph glyph-name="braceright" unicode="}" horiz-adv-x="360" 
d="M310 266l7 32q-16 1 -34 6t-33.5 14t-25.5 23t-10 33q0 21 4.5 45.5t10.5 50.5q5 26 9.5 52.5t4.5 50.5q0 30 -12.5 50.5t-32.5 33.5t-45.5 18.5t-51.5 5.5l-6 -32q18 -1 35 -5t30 -12.5t21 -22.5t8 -35q0 -23 -4.5 -48.5t-9.5 -51.5q-6 -26 -10.5 -50.5t-4.5 -45.5
q0 -38 23.5 -60t57.5 -33q-18 -2 -36 -6.5t-34.5 -15.5t-31 -31t-24.5 -53q-3 -9 -8.5 -31.5t-11 -48.5t-11 -49.5t-8.5 -32.5q-13 -43 -44.5 -70.5t-90.5 -29.5l-6 -32q30 0 58 4.5t53.5 15.5t45 31t30.5 52q3 9 9.5 34t14.5 55t15 57t10 39q6 20 15.5 36t25 28t39 19.5
t59.5 9.5z" />
    <glyph glyph-name="asciitilde" unicode="~" horiz-adv-x="593" 
d="M36 172h38q5 33 26 58t57 25q23 0 58.5 -11.5t75.5 -25.5t79.5 -25.5t69.5 -11.5q28 0 48.5 10.5t35 28.5t22.5 41.5t11 48.5h-36q-7 -33 -26.5 -57t-56.5 -24q-28 1 -63 12.5t-73 24.5t-76.5 24.5t-71.5 12.5q-30 0 -50.5 -11t-34 -29.5t-21.5 -42t-12 -48.5z" />
    <glyph glyph-name="Adieresis" unicode="&#xc4;" horiz-adv-x="667" 
d="M497 793q0 -20 13.5 -33.5t32.5 -13.5q20 0 33.5 13.5t13.5 33.5q0 19 -13.5 32.5t-33.5 13.5t-33 -14t-13 -32zM300 793q0 -20 13.5 -33.5t32.5 -13.5q20 0 33.5 13.5t13.5 33.5q0 19 -13.5 32.5t-33.5 13.5t-33 -14t-13 -32zM404 570l55 -265q-58 -3 -116 -3
q-59 0 -116 3l174 265h3zM455 692h-19q-26 -43 -54.5 -84.5t-65.5 -99.5q-85 -131 -168.5 -257t-169.5 -252q11 1 19 1h16h18t14 -1q12 22 33 59.5t44 77t44.5 75t35.5 55.5l66 2t66 1q42 0 80 -1t53 -2q4 -19 10.5 -53.5t13 -73.5t12.5 -77.5t9 -62.5q10 1 20.5 1h24.5h25
t21 -1q-7 22 -19.5 75.5t-27.5 122t-30.5 145t-29.5 145.5t-25 124t-16 81z" />
    <glyph glyph-name="Aring" unicode="&#xc5;" horiz-adv-x="667" 
d="M391 820q0 29 20.5 49t49.5 20t49 -20t20 -49t-20 -49.5t-49 -20.5t-49.5 20.5t-20.5 49.5zM357 820q0 -21 8 -40t22 -33.5t33 -22.5t41 -8q21 0 40 8t33 22t22 33t8 41q0 21 -8 40t-22.5 33t-33 22t-39.5 8q-22 0 -41 -8t-33 -22.5t-22 -33t-8 -39.5zM404 570l55 -265
q-58 -3 -116 -3q-59 0 -116 3l174 265h3zM455 692h-19q-26 -43 -54.5 -84.5t-65.5 -99.5q-85 -131 -168.5 -257t-169.5 -252q11 1 19 1h16h18t14 -1q12 22 33 59.5t44 77t44.5 75t35.5 55.5l66 2t66 1q42 0 80 -1t53 -2q4 -19 10.5 -53.5t13 -73.5t12.5 -77.5t9 -62.5
q10 1 20.5 1h24.5h25t21 -1q-7 22 -19.5 75.5t-27.5 122t-30.5 145t-29.5 145.5t-25 124t-16 81z" />
    <glyph glyph-name="Ccedilla" unicode="&#xc7;" horiz-adv-x="667" 
d="M593 82l-4 5q-46 -30 -97.5 -47.5t-105.5 -17.5q-51 0 -99 18t-84 57q-23 25 -40.5 66.5t-17.5 112.5q0 73 21.5 141.5t62.5 122t102 85.5t140 32q40 0 70.5 -8.5t52.5 -20t36 -23.5t21 -19q3 10 9.5 26.5t19.5 40.5q-45 23 -92.5 31t-98.5 8q-101 0 -181.5 -32
t-136 -87.5t-85 -129.5t-29.5 -158q0 -71 21 -123.5t57.5 -88.5t84.5 -56t102 -27l-53 -83l6 -7q6 2 14 4t20 2q29 0 39 -14t10 -26q0 -18 -15.5 -31t-41.5 -13q-32 0 -66 14l-18 -28q17 -7 37.5 -13.5t54.5 -6.5q24 0 45 5.5t37.5 16t26 26.5t9.5 36q0 32 -23 50t-58 18
q-7 0 -12 -0.5t-10 -1.5l31 49q4 -1 12 -1h13q73 0 122 15t75 28q3 15 6 25.5t10 27.5z" />
    <glyph glyph-name="Eacute" unicode="&#xc9;" horiz-adv-x="500" 
d="M299 721h30l151 93q20 12 28.5 20t8.5 22t-10.5 23t-22.5 9q-11 0 -20.5 -7.5t-26.5 -24.5zM208 339h93q35 0 70.5 -1t70.5 -5q-1 15 1.5 25.5t7.5 25.5q-9 -1 -23 -2t-30.5 -2t-33 -1.5t-29.5 -0.5h-119q12 54 26 116.5t34 143.5q22 0 52.5 -0.5t62.5 -1.5t62 -3.5
t51 -6.5q-1 17 1 27.5t8 27.5q-12 -1 -28.5 -2t-35 -1.5t-38.5 -0.5h-36q-34 0 -81 1t-95 3q-11 -66 -28 -154t-37 -182t-41 -185.5t-40 -160.5q21 1 57 1h97h45h52h54.5t52.5 -1q-1 14 0 24t6 27q-66 -8 -132.5 -10t-135.5 -2q14 75 28.5 150.5t30.5 150.5z" />
    <glyph glyph-name="Ntilde" unicode="&#xd1;" horiz-adv-x="778" 
d="M337 762h26q8 18 18.5 32.5t32.5 14.5q15 0 34 -7t39 -15q20 -9 40 -16t38 -7q21 0 36.5 9.5t27 24.5t18.5 33t10 36h-26q-5 -16 -15 -31.5t-30 -15.5q-15 0 -33.5 7t-38.5 15t-41.5 15t-42.5 7q-22 0 -37.5 -9t-26 -24t-17.5 -33t-12 -36zM220 690h-12q-4 -22 -14 -72.5
t-24 -116.5t-30.5 -140t-33 -144t-31.5 -128t-26 -90q8 1 17.5 1h17.5h18t16 -1q2 21 8.5 61.5t16 91.5t20.5 107t22 109t21 99t17 75q10 -13 40 -55.5t70 -99.5t84.5 -122t83.5 -122.5t67.5 -100t36.5 -54.5h14q3 21 13 72.5t23.5 118t30 141.5t32 144.5t29.5 127t23 89.5
q-8 -2 -14 -3t-16 -1q-9 0 -18.5 1t-16.5 3q-5 -42 -13.5 -94.5t-18.5 -108.5t-21 -111.5t-20.5 -103t-17.5 -83t-12 -51.5q-12 14 -41 54t-67 93.5t-80 115t-80.5 119t-69 105.5t-44.5 74z" />
    <glyph glyph-name="Odieresis" unicode="&#xd6;" horiz-adv-x="833" 
d="M565 793q0 -20 13.5 -33.5t32.5 -13.5q20 0 33.5 13.5t13.5 33.5q0 19 -13.5 32.5t-33.5 13.5t-33 -14t-13 -32zM368 793q0 -20 13.5 -33.5t32.5 -13.5q20 0 33.5 13.5t13.5 33.5q0 19 -13.5 32.5t-33.5 13.5t-33 -14t-13 -32zM147 256q0 77 23.5 150.5t67.5 130.5
t106.5 91.5t140.5 34.5q48 0 92 -15t77 -45.5t53 -78.5t20 -114q0 -61 -21 -130.5t-63.5 -129t-107.5 -98.5t-154 -39q-47 0 -89.5 13.5t-74.5 43t-51 75.5t-19 111zM61 268q0 -21 3 -48.5t12 -57t26 -57.5t45 -51q28 -24 60 -38t64 -21t60.5 -9t49.5 -2q103 0 183.5 37
t135.5 97.5t84 136t29 150.5q0 67 -22.5 120.5t-64 91t-100 58t-131.5 20.5q-89 0 -168 -30t-138 -86t-93.5 -134.5t-34.5 -176.5z" />
    <glyph glyph-name="Udieresis" unicode="&#xdc;" horiz-adv-x="778" 
d="M538 793q0 -20 13.5 -33.5t32.5 -13.5q20 0 33.5 13.5t13.5 33.5q0 19 -13.5 32.5t-33.5 13.5t-33 -14t-13 -32zM341 793q0 -20 13.5 -33.5t32.5 -13.5q20 0 33.5 13.5t13.5 33.5q0 19 -13.5 32.5t-33.5 13.5t-33 -14t-13 -32zM100 166q0 -49 22 -84t56.5 -57.5t77 -32
t84.5 -9.5q67 0 129 21t110 69q44 44 64.5 96t37.5 123q23 99 44.5 195.5t49.5 193.5q-15 -4 -33 -4q-23 0 -35 4q-2 -11 -7.5 -45t-14 -80.5t-19.5 -101t-22.5 -107.5t-24 -99.5t-24.5 -76.5q-15 -37 -40 -64.5t-55.5 -46t-65.5 -27.5t-70 -9q-32 0 -65 9t-60 27t-44 46
t-17 67q0 12 1 24.5t3 28.5t6.5 38t11.5 53q17 80 27.5 130t19.5 87t18 69.5t22 77.5q-16 -4 -42 -4q-30 0 -47 4q-4 -28 -10 -62.5t-13 -71t-14.5 -74l-14.5 -72.5q-4 -17 -12 -48.5t-15.5 -67t-13 -68t-5.5 -51.5z" />
    <glyph glyph-name="aacute" unicode="&#xe1;" horiz-adv-x="500" 
d="M219 538h30l151 93q20 12 28.5 20t8.5 22t-10.5 23t-22.5 9q-11 0 -20.5 -7.5t-26.5 -24.5zM97 106q0 30 14 51t35.5 35.5t48 23t51.5 14.5q23 5 45 9t45 9q-10 -35 -17 -69.5t-13 -69.5q-23 -33 -56 -56t-75 -23q-31 0 -54.5 19.5t-23.5 56.5zM127 426l-14 -54h12
q27 29 56.5 47.5t71.5 18.5t71 -21.5t29 -66.5q0 -21 -5.5 -43t-26.5 -31q-14 -6 -37 -9.5t-43 -7.5q-23 -5 -60 -13.5t-72 -26t-60 -47.5t-25 -78q0 -26 11 -46.5t28.5 -34t39.5 -19.5t44 -6q49 0 87.5 21.5t68.5 53.5q2 -31 18.5 -47.5t47.5 -16.5q21 0 39 6t35 17l-5 21
q-5 -4 -11.5 -6.5t-15.5 -2.5q-20 0 -29.5 13.5t-9.5 31.5q0 15 3 36t11 53l29 122q3 13 7.5 35t4.5 43q0 49 -37.5 80t-100.5 31q-45 0 -84.5 -13.5t-77.5 -39.5z" />
    <glyph glyph-name="agrave" unicode="&#xe0;" horiz-adv-x="500" 
d="M350 538h28l-102 131q-17 22 -26 30.5t-23 8.5q-15 0 -24 -9t-9 -23q0 -13 8 -21.5t25 -21.5zM97 106q0 30 14 51t35.5 35.5t48 23t51.5 14.5q23 5 45 9t45 9q-10 -35 -17 -69.5t-13 -69.5q-23 -33 -56 -56t-75 -23q-31 0 -54.5 19.5t-23.5 56.5zM127 426l-14 -54h12
q27 29 56.5 47.5t71.5 18.5t71 -21.5t29 -66.5q0 -21 -5.5 -43t-26.5 -31q-14 -6 -37 -9.5t-43 -7.5q-23 -5 -60 -13.5t-72 -26t-60 -47.5t-25 -78q0 -26 11 -46.5t28.5 -34t39.5 -19.5t44 -6q49 0 87.5 21.5t68.5 53.5q2 -31 18.5 -47.5t47.5 -16.5q21 0 39 6t35 17l-5 21
q-5 -4 -11.5 -6.5t-15.5 -2.5q-20 0 -29.5 13.5t-9.5 31.5q0 15 3 36t11 53l29 122q3 13 7.5 35t4.5 43q0 49 -37.5 80t-100.5 31q-45 0 -84.5 -13.5t-77.5 -39.5z" />
    <glyph glyph-name="acircumflex" unicode="&#xe2;" horiz-adv-x="500" 
d="M339 705h-40l-159 -167h35l137 107l83 -107h32zM97 106q0 30 14 51t35.5 35.5t48 23t51.5 14.5q23 5 45 9t45 9q-10 -35 -17 -69.5t-13 -69.5q-23 -33 -56 -56t-75 -23q-31 0 -54.5 19.5t-23.5 56.5zM127 426l-14 -54h12q27 29 56.5 47.5t71.5 18.5t71 -21.5t29 -66.5
q0 -21 -5.5 -43t-26.5 -31q-14 -6 -37 -9.5t-43 -7.5q-23 -5 -60 -13.5t-72 -26t-60 -47.5t-25 -78q0 -26 11 -46.5t28.5 -34t39.5 -19.5t44 -6q49 0 87.5 21.5t68.5 53.5q2 -31 18.5 -47.5t47.5 -16.5q21 0 39 6t35 17l-5 21q-5 -4 -11.5 -6.5t-15.5 -2.5q-20 0 -29.5 13.5
t-9.5 31.5q0 15 3 36t11 53l29 122q3 13 7.5 35t4.5 43q0 49 -37.5 80t-100.5 31q-45 0 -84.5 -13.5t-77.5 -39.5z" />
    <glyph glyph-name="adieresis" unicode="&#xe4;" horiz-adv-x="500" 
d="M359 610q0 -20 13.5 -33.5t32.5 -13.5q20 0 33.5 13.5t13.5 33.5q0 19 -13.5 32.5t-33.5 13.5t-33 -14t-13 -32zM162 610q0 -20 13.5 -33.5t32.5 -13.5q20 0 33.5 13.5t13.5 33.5q0 19 -13.5 32.5t-33.5 13.5t-33 -14t-13 -32zM97 106q0 30 14 51t35.5 35.5t48 23
t51.5 14.5q23 5 45 9t45 9q-10 -35 -17 -69.5t-13 -69.5q-23 -33 -56 -56t-75 -23q-31 0 -54.5 19.5t-23.5 56.5zM127 426l-14 -54h12q27 29 56.5 47.5t71.5 18.5t71 -21.5t29 -66.5q0 -21 -5.5 -43t-26.5 -31q-14 -6 -37 -9.5t-43 -7.5q-23 -5 -60 -13.5t-72 -26t-60 -47.5
t-25 -78q0 -26 11 -46.5t28.5 -34t39.5 -19.5t44 -6q49 0 87.5 21.5t68.5 53.5q2 -31 18.5 -47.5t47.5 -16.5q21 0 39 6t35 17l-5 21q-5 -4 -11.5 -6.5t-15.5 -2.5q-20 0 -29.5 13.5t-9.5 31.5q0 15 3 36t11 53l29 122q3 13 7.5 35t4.5 43q0 49 -37.5 80t-100.5 31
q-45 0 -84.5 -13.5t-77.5 -39.5z" />
    <glyph glyph-name="atilde" unicode="&#xe3;" horiz-adv-x="500" 
d="M148 579h26q8 18 18.5 32.5t32.5 14.5q15 0 34 -7t39 -15q20 -9 40 -16t38 -7q21 0 36.5 9.5t27 24.5t18.5 33t10 36h-26q-5 -16 -15 -31.5t-30 -15.5q-15 0 -33.5 7t-38.5 15t-41.5 15t-42.5 7q-22 0 -37.5 -9t-26 -24t-17.5 -33t-12 -36zM97 106q0 30 14 51t35.5 35.5
t48 23t51.5 14.5q23 5 45 9t45 9q-10 -35 -17 -69.5t-13 -69.5q-23 -33 -56 -56t-75 -23q-31 0 -54.5 19.5t-23.5 56.5zM127 426l-14 -54h12q27 29 56.5 47.5t71.5 18.5t71 -21.5t29 -66.5q0 -21 -5.5 -43t-26.5 -31q-14 -6 -37 -9.5t-43 -7.5q-23 -5 -60 -13.5t-72 -26
t-60 -47.5t-25 -78q0 -26 11 -46.5t28.5 -34t39.5 -19.5t44 -6q49 0 87.5 21.5t68.5 53.5q2 -31 18.5 -47.5t47.5 -16.5q21 0 39 6t35 17l-5 21q-5 -4 -11.5 -6.5t-15.5 -2.5q-20 0 -29.5 13.5t-9.5 31.5q0 15 3 36t11 53l29 122q3 13 7.5 35t4.5 43q0 49 -37.5 80
t-100.5 31q-45 0 -84.5 -13.5t-77.5 -39.5z" />
    <glyph glyph-name="aring" unicode="&#xe5;" horiz-adv-x="500" 
d="M238 637q0 29 20.5 49t49.5 20t49 -20t20 -49t-20 -49.5t-49 -20.5t-49.5 20.5t-20.5 49.5zM204 637q0 -21 8 -40t22 -33.5t33 -22.5t41 -8q21 0 40 8t33 22t22 33t8 41q0 21 -8 40t-22.5 33t-33 22t-39.5 8q-22 0 -41 -8t-33 -22.5t-22 -33t-8 -39.5zM97 106q0 30 14 51
t35.5 35.5t48 23t51.5 14.5q23 5 45 9t45 9q-10 -35 -17 -69.5t-13 -69.5q-23 -33 -56 -56t-75 -23q-31 0 -54.5 19.5t-23.5 56.5zM127 426l-14 -54h12q27 29 56.5 47.5t71.5 18.5t71 -21.5t29 -66.5q0 -21 -5.5 -43t-26.5 -31q-14 -6 -37 -9.5t-43 -7.5q-23 -5 -60 -13.5
t-72 -26t-60 -47.5t-25 -78q0 -26 11 -46.5t28.5 -34t39.5 -19.5t44 -6q49 0 87.5 21.5t68.5 53.5q2 -31 18.5 -47.5t47.5 -16.5q21 0 39 6t35 17l-5 21q-5 -4 -11.5 -6.5t-15.5 -2.5q-20 0 -29.5 13.5t-9.5 31.5q0 15 3 36t11 53l29 122q3 13 7.5 35t4.5 43q0 49 -37.5 80
t-100.5 31q-45 0 -84.5 -13.5t-77.5 -39.5z" />
    <glyph glyph-name="ccedilla" unicode="&#xe7;" horiz-adv-x="500" 
d="M407 21l14 42l-5 2q-8 -4 -21.5 -11t-31.5 -14.5t-40.5 -13t-48.5 -5.5q-21 0 -48.5 6.5t-52 25t-41 52.5t-16.5 88q0 48 15 93.5t42.5 81t66.5 57.5t86 22q38 0 73 -17.5t54 -52.5h6q3 12 5.5 21t5 16.5t6 15.5t8.5 19q-23 9 -60.5 19.5t-91.5 10.5q-79 0 -135 -27
t-92 -69t-52.5 -92.5t-16.5 -97.5q0 -48 14 -84.5t39 -61t58 -38t72 -18.5l-54 -84l6 -7q6 2 14 4t20 2q29 0 39 -14t10 -26q0 -18 -15.5 -31t-41.5 -13q-32 0 -66 14l-18 -28q17 -7 37.5 -13.5t54.5 -6.5q24 0 45 5.5t37.5 16t26 26.5t9.5 36q0 32 -23 50t-58 18
q-7 0 -12 -0.5t-10 -1.5l32 51q45 0 82.5 7.5t72.5 24.5z" />
    <glyph glyph-name="eacute" unicode="&#xe9;" horiz-adv-x="500" 
d="M239 538h30l151 93q20 12 28.5 20t8.5 22t-10.5 23t-22.5 9q-11 0 -20.5 -7.5t-26.5 -24.5zM290 449q20 0 39 -6t34.5 -20t25 -37t9.5 -56q0 -20 -2 -32.5t-4 -21.5q-20 -3 -48 -3.5t-53 -0.5h-32q-31 0 -68 1t-68 3q11 52 31 85.5t43.5 53t48 27t44.5 7.5zM395 31l13 45
h-3q-9 -6 -22.5 -15.5t-32 -17.5t-42 -14t-52.5 -6q-21 0 -46.5 6t-47 23t-36.5 47t-15 79q0 20 1.5 34t3.5 24q18 0 42 1t48 1h31h74q23 0 41 -0.5t34.5 -1t33.5 -1.5t38 -2q3 13 7 33t4 48q0 45 -14.5 76.5t-39.5 51t-57 28t-68 8.5q-57 0 -104.5 -22.5t-81.5 -61
t-52.5 -90.5t-18.5 -111q0 -60 19 -99.5t48.5 -63t64.5 -32t67 -8.5q43 0 84.5 9.5t78.5 31.5z" />
    <glyph glyph-name="egrave" unicode="&#xe8;" horiz-adv-x="500" 
d="M355 538h28l-102 131q-17 22 -26 30.5t-23 8.5q-15 0 -24 -9t-9 -23q0 -13 8 -21.5t25 -21.5zM290 449q20 0 39 -6t34.5 -20t25 -37t9.5 -56q0 -20 -2 -32.5t-4 -21.5q-20 -3 -48 -3.5t-53 -0.5h-32q-31 0 -68 1t-68 3q11 52 31 85.5t43.5 53t48 27t44.5 7.5zM395 31
l13 45h-3q-9 -6 -22.5 -15.5t-32 -17.5t-42 -14t-52.5 -6q-21 0 -46.5 6t-47 23t-36.5 47t-15 79q0 20 1.5 34t3.5 24q18 0 42 1t48 1h31h74q23 0 41 -0.5t34.5 -1t33.5 -1.5t38 -2q3 13 7 33t4 48q0 45 -14.5 76.5t-39.5 51t-57 28t-68 8.5q-57 0 -104.5 -22.5t-81.5 -61
t-52.5 -90.5t-18.5 -111q0 -60 19 -99.5t48.5 -63t64.5 -32t67 -8.5q43 0 84.5 9.5t78.5 31.5z" />
    <glyph glyph-name="ecircumflex" unicode="&#xea;" horiz-adv-x="500" 
d="M359 705h-40l-159 -167h35l137 107l83 -107h32zM290 449q20 0 39 -6t34.5 -20t25 -37t9.5 -56q0 -20 -2 -32.5t-4 -21.5q-20 -3 -48 -3.5t-53 -0.5h-32q-31 0 -68 1t-68 3q11 52 31 85.5t43.5 53t48 27t44.5 7.5zM395 31l13 45h-3q-9 -6 -22.5 -15.5t-32 -17.5t-42 -14
t-52.5 -6q-21 0 -46.5 6t-47 23t-36.5 47t-15 79q0 20 1.5 34t3.5 24q18 0 42 1t48 1h31h74q23 0 41 -0.5t34.5 -1t33.5 -1.5t38 -2q3 13 7 33t4 48q0 45 -14.5 76.5t-39.5 51t-57 28t-68 8.5q-57 0 -104.5 -22.5t-81.5 -61t-52.5 -90.5t-18.5 -111q0 -60 19 -99.5t48.5 -63
t64.5 -32t67 -8.5q43 0 84.5 9.5t78.5 31.5z" />
    <glyph glyph-name="edieresis" unicode="&#xeb;" horiz-adv-x="500" 
d="M359 610q0 -20 13.5 -33.5t32.5 -13.5q20 0 33.5 13.5t13.5 33.5q0 19 -13.5 32.5t-33.5 13.5t-33 -14t-13 -32zM162 610q0 -20 13.5 -33.5t32.5 -13.5q20 0 33.5 13.5t13.5 33.5q0 19 -13.5 32.5t-33.5 13.5t-33 -14t-13 -32zM290 449q20 0 39 -6t34.5 -20t25 -37
t9.5 -56q0 -20 -2 -32.5t-4 -21.5q-20 -3 -48 -3.5t-53 -0.5h-32q-31 0 -68 1t-68 3q11 52 31 85.5t43.5 53t48 27t44.5 7.5zM395 31l13 45h-3q-9 -6 -22.5 -15.5t-32 -17.5t-42 -14t-52.5 -6q-21 0 -46.5 6t-47 23t-36.5 47t-15 79q0 20 1.5 34t3.5 24q18 0 42 1t48 1h31
h74q23 0 41 -0.5t34.5 -1t33.5 -1.5t38 -2q3 13 7 33t4 48q0 45 -14.5 76.5t-39.5 51t-57 28t-68 8.5q-57 0 -104.5 -22.5t-81.5 -61t-52.5 -90.5t-18.5 -111q0 -60 19 -99.5t48.5 -63t64.5 -32t67 -8.5q43 0 84.5 9.5t78.5 31.5z" />
    <glyph glyph-name="iacute" unicode="&#xed;" horiz-adv-x="241" 
d="M129 538h30l151 93q20 12 28.5 20t8.5 22t-10.5 23t-22.5 9q-11 0 -20.5 -7.5t-26.5 -24.5zM212 470q-16 -4 -41 -4q-22 0 -42 4q-1 -9 -6 -38t-12.5 -70t-17.5 -90t-21 -99t-23 -96t-23 -78q8 1 17.5 1h21.5h23t23 -1q3 27 10.5 69t17 89t20 95.5t21 91.5t19 76.5
t13.5 49.5z" />
    <glyph glyph-name="igrave" unicode="&#xec;" horiz-adv-x="241" 
d="M225 538h28l-102 131q-17 22 -26 30.5t-23 8.5q-15 0 -24 -9t-9 -23q0 -13 8 -21.5t25 -21.5zM212 470q-16 -4 -41 -4q-22 0 -42 4q-1 -9 -6 -38t-12.5 -70t-17.5 -90t-21 -99t-23 -96t-23 -78q8 1 17.5 1h21.5h23t23 -1q3 27 10.5 69t17 89t20 95.5t21 91.5t19 76.5
t13.5 49.5z" />
    <glyph glyph-name="icircumflex" unicode="&#xee;" horiz-adv-x="241" 
d="M229 705h-40l-159 -167h35l137 107l83 -107h32zM212 470q-16 -4 -41 -4q-22 0 -42 4q-1 -9 -6 -38t-12.5 -70t-17.5 -90t-21 -99t-23 -96t-23 -78q8 1 17.5 1h21.5h23t23 -1q3 27 10.5 69t17 89t20 95.5t21 91.5t19 76.5t13.5 49.5z" />
    <glyph glyph-name="idieresis" unicode="&#xef;" horiz-adv-x="241" 
d="M229 610q0 -20 13.5 -33.5t32.5 -13.5q20 0 33.5 13.5t13.5 33.5q0 19 -13.5 32.5t-33.5 13.5t-33 -14t-13 -32zM32 610q0 -20 13.5 -33.5t32.5 -13.5q20 0 33.5 13.5t13.5 33.5q0 19 -13.5 32.5t-33.5 13.5t-33 -14t-13 -32zM212 470q-16 -4 -41 -4q-22 0 -42 4
q-1 -9 -6 -38t-12.5 -70t-17.5 -90t-21 -99t-23 -96t-23 -78q8 1 17.5 1h21.5h23t23 -1q3 27 10.5 69t17 89t20 95.5t21 91.5t19 76.5t13.5 49.5z" />
    <glyph glyph-name="ntilde" unicode="&#xf1;" 
d="M186 579h26q8 18 18.5 32.5t32.5 14.5q15 0 34 -7t39 -15q20 -9 40 -16t38 -7q21 0 36.5 9.5t27 24.5t18.5 33t10 36h-26q-5 -16 -15 -31.5t-30 -15.5q-15 0 -33.5 7t-38.5 15t-41.5 15t-42.5 7q-22 0 -37.5 -9t-26 -24t-17.5 -33t-12 -36zM184 396l19 74q-9 -2 -19 -3
t-19 -1q-21 0 -36 4q-3 -20 -9.5 -56.5t-15.5 -81.5t-19.5 -94.5t-20.5 -95.5t-19.5 -84.5t-16.5 -58.5q8 1 18.5 1h21.5h20t17 -1q1 6 5 28t9.5 52.5t12.5 65.5t14.5 68.5t14.5 62t13 45.5q11 34 30.5 55t41 32.5t41.5 15.5t32 4q19 0 36.5 -5.5t31.5 -16.5t22.5 -27.5
t8.5 -39.5q0 -17 -4.5 -46t-11.5 -63.5t-15.5 -71.5t-17 -69t-15.5 -57t-11 -33q9 1 21 1h23h20.5t17.5 -1q1 13 7 44.5t13 67t14 68t11 50.5q8 34 12.5 54t7 33t3 21t0.5 18q0 30 -12 52.5t-31.5 37.5t-44.5 22.5t-52 7.5q-28 0 -54 -7.5t-47 -19.5t-37.5 -26t-26.5 -28z
" />
    <glyph glyph-name="oacute" unicode="&#xf3;" 
d="M287 538h30l151 93q20 12 28.5 20t8.5 22t-10.5 23t-22.5 9q-11 0 -20.5 -7.5t-26.5 -24.5zM111 163q0 42 11 91.5t35 92t62.5 71.5t92.5 29q32 0 57 -11t42 -30.5t25.5 -46t8.5 -57.5q0 -37 -11 -86t-36 -93t-64 -74.5t-96 -30.5q-68 0 -97.5 41t-29.5 104zM32 187
q0 -32 9.5 -67.5t33 -65t64 -47.5t102.5 -18q65 0 117 24.5t89 66.5t57 95.5t20 108.5q0 38 -11 73t-36 62t-66 43.5t-100 16.5q-64 0 -116 -25.5t-88 -67t-55.5 -93.5t-19.5 -106z" />
    <glyph glyph-name="ograve" unicode="&#xf2;" 
d="M383 538h28l-102 131q-17 22 -26 30.5t-23 8.5q-15 0 -24 -9t-9 -23q0 -13 8 -21.5t25 -21.5zM111 163q0 42 11 91.5t35 92t62.5 71.5t92.5 29q32 0 57 -11t42 -30.5t25.5 -46t8.5 -57.5q0 -37 -11 -86t-36 -93t-64 -74.5t-96 -30.5q-68 0 -97.5 41t-29.5 104zM32 187
q0 -32 9.5 -67.5t33 -65t64 -47.5t102.5 -18q65 0 117 24.5t89 66.5t57 95.5t20 108.5q0 38 -11 73t-36 62t-66 43.5t-100 16.5q-64 0 -116 -25.5t-88 -67t-55.5 -93.5t-19.5 -106z" />
    <glyph glyph-name="ocircumflex" unicode="&#xf4;" 
d="M387 705h-40l-159 -167h35l137 107l83 -107h32zM111 163q0 42 11 91.5t35 92t62.5 71.5t92.5 29q32 0 57 -11t42 -30.5t25.5 -46t8.5 -57.5q0 -37 -11 -86t-36 -93t-64 -74.5t-96 -30.5q-68 0 -97.5 41t-29.5 104zM32 187q0 -32 9.5 -67.5t33 -65t64 -47.5t102.5 -18
q65 0 117 24.5t89 66.5t57 95.5t20 108.5q0 38 -11 73t-36 62t-66 43.5t-100 16.5q-64 0 -116 -25.5t-88 -67t-55.5 -93.5t-19.5 -106z" />
    <glyph glyph-name="odieresis" unicode="&#xf6;" 
d="M397 610q0 -20 13.5 -33.5t32.5 -13.5q20 0 33.5 13.5t13.5 33.5q0 19 -13.5 32.5t-33.5 13.5t-33 -14t-13 -32zM200 610q0 -20 13.5 -33.5t32.5 -13.5q20 0 33.5 13.5t13.5 33.5q0 19 -13.5 32.5t-33.5 13.5t-33 -14t-13 -32zM111 163q0 42 11 91.5t35 92t62.5 71.5
t92.5 29q32 0 57 -11t42 -30.5t25.5 -46t8.5 -57.5q0 -37 -11 -86t-36 -93t-64 -74.5t-96 -30.5q-68 0 -97.5 41t-29.5 104zM32 187q0 -32 9.5 -67.5t33 -65t64 -47.5t102.5 -18q65 0 117 24.5t89 66.5t57 95.5t20 108.5q0 38 -11 73t-36 62t-66 43.5t-100 16.5
q-64 0 -116 -25.5t-88 -67t-55.5 -93.5t-19.5 -106z" />
    <glyph glyph-name="otilde" unicode="&#xf5;" 
d="M186 579h26q8 18 18.5 32.5t32.5 14.5q15 0 34 -7t39 -15q20 -9 40 -16t38 -7q21 0 36.5 9.5t27 24.5t18.5 33t10 36h-26q-5 -16 -15 -31.5t-30 -15.5q-15 0 -33.5 7t-38.5 15t-41.5 15t-42.5 7q-22 0 -37.5 -9t-26 -24t-17.5 -33t-12 -36zM111 163q0 42 11 91.5t35 92
t62.5 71.5t92.5 29q32 0 57 -11t42 -30.5t25.5 -46t8.5 -57.5q0 -37 -11 -86t-36 -93t-64 -74.5t-96 -30.5q-68 0 -97.5 41t-29.5 104zM32 187q0 -32 9.5 -67.5t33 -65t64 -47.5t102.5 -18q65 0 117 24.5t89 66.5t57 95.5t20 108.5q0 38 -11 73t-36 62t-66 43.5t-100 16.5
q-64 0 -116 -25.5t-88 -67t-55.5 -93.5t-19.5 -106z" />
    <glyph glyph-name="uacute" unicode="&#xfa;" 
d="M277 538h30l151 93q20 12 28.5 20t8.5 22t-10.5 23t-22.5 9q-11 0 -20.5 -7.5t-26.5 -24.5zM370 64l-18 -65q8 1 18 1h21h18.5t17.5 -1q3 28 10.5 69.5t17 89t20 96t21 91t19 76t13.5 49.5q-16 -4 -41 -4q-20 0 -40 4q-1 -4 -4.5 -24.5t-9 -50t-12 -64.5t-13.5 -69
t-14 -64t-13 -49q-8 -23 -21 -44t-32 -37t-43 -25.5t-53 -9.5q-46 0 -71.5 24t-25.5 72q0 21 8.5 62.5t20.5 91t25.5 99.5t23.5 88q-17 -4 -43 -4q-28 0 -44 4q-3 -27 -8.5 -58.5t-11 -61.5t-11 -54.5t-8.5 -37.5q-14 -61 -22.5 -100t-8.5 -58q0 -28 12.5 -49.5t32.5 -36
t45 -20.5t50 -6q32 0 57.5 6.5t46.5 18t37.5 26t28.5 29.5z" />
    <glyph glyph-name="ugrave" unicode="&#xf9;" 
d="M383 538h28l-102 131q-17 22 -26 30.5t-23 8.5q-15 0 -24 -9t-9 -23q0 -13 8 -21.5t25 -21.5zM370 64l-18 -65q8 1 18 1h21h18.5t17.5 -1q3 28 10.5 69.5t17 89t20 96t21 91t19 76t13.5 49.5q-16 -4 -41 -4q-20 0 -40 4q-1 -4 -4.5 -24.5t-9 -50t-12 -64.5t-13.5 -69
t-14 -64t-13 -49q-8 -23 -21 -44t-32 -37t-43 -25.5t-53 -9.5q-46 0 -71.5 24t-25.5 72q0 21 8.5 62.5t20.5 91t25.5 99.5t23.5 88q-17 -4 -43 -4q-28 0 -44 4q-3 -27 -8.5 -58.5t-11 -61.5t-11 -54.5t-8.5 -37.5q-14 -61 -22.5 -100t-8.5 -58q0 -28 12.5 -49.5t32.5 -36
t45 -20.5t50 -6q32 0 57.5 6.5t46.5 18t37.5 26t28.5 29.5z" />
    <glyph glyph-name="ucircumflex" unicode="&#xfb;" 
d="M387 705h-40l-159 -167h35l137 107l83 -107h32zM370 64l-18 -65q8 1 18 1h21h18.5t17.5 -1q3 28 10.5 69.5t17 89t20 96t21 91t19 76t13.5 49.5q-16 -4 -41 -4q-20 0 -40 4q-1 -4 -4.5 -24.5t-9 -50t-12 -64.5t-13.5 -69t-14 -64t-13 -49q-8 -23 -21 -44t-32 -37
t-43 -25.5t-53 -9.5q-46 0 -71.5 24t-25.5 72q0 21 8.5 62.5t20.5 91t25.5 99.5t23.5 88q-17 -4 -43 -4q-28 0 -44 4q-3 -27 -8.5 -58.5t-11 -61.5t-11 -54.5t-8.5 -37.5q-14 -61 -22.5 -100t-8.5 -58q0 -28 12.5 -49.5t32.5 -36t45 -20.5t50 -6q32 0 57.5 6.5t46.5 18
t37.5 26t28.5 29.5z" />
    <glyph glyph-name="udieresis" unicode="&#xfc;" 
d="M397 610q0 -20 13.5 -33.5t32.5 -13.5q20 0 33.5 13.5t13.5 33.5q0 19 -13.5 32.5t-33.5 13.5t-33 -14t-13 -32zM200 610q0 -20 13.5 -33.5t32.5 -13.5q20 0 33.5 13.5t13.5 33.5q0 19 -13.5 32.5t-33.5 13.5t-33 -14t-13 -32zM370 64l-18 -65q8 1 18 1h21h18.5t17.5 -1
q3 28 10.5 69.5t17 89t20 96t21 91t19 76t13.5 49.5q-16 -4 -41 -4q-20 0 -40 4q-1 -4 -4.5 -24.5t-9 -50t-12 -64.5t-13.5 -69t-14 -64t-13 -49q-8 -23 -21 -44t-32 -37t-43 -25.5t-53 -9.5q-46 0 -71.5 24t-25.5 72q0 21 8.5 62.5t20.5 91t25.5 99.5t23.5 88
q-17 -4 -43 -4q-28 0 -44 4q-3 -27 -8.5 -58.5t-11 -61.5t-11 -54.5t-8.5 -37.5q-14 -61 -22.5 -100t-8.5 -58q0 -28 12.5 -49.5t32.5 -36t45 -20.5t50 -6q32 0 57.5 6.5t46.5 18t37.5 26t28.5 29.5z" />
    <glyph glyph-name="dagger" unicode="&#x2020;" 
d="M327 684q-7 -61 -15 -116t-21 -115q-29 0 -73 1t-104 8q0 -24 -3 -37t-12 -34q45 6 90 7.5t91 1.5q-19 -103 -43.5 -203t-51.5 -198q11 1 22.5 1h24.5h23.5t19.5 -1q5 43 11 86.5t14 88.5q11 57 22 113t21 113q42 0 91.5 -1.5t87.5 -7.5q0 23 4.5 38.5t13.5 32.5
q-33 -5 -72 -7t-73 -2h-41q3 12 8.5 36.5t13.5 56t18 67.5t22 71q-20 -4 -48 -4q-24 0 -41 4z" />
    <glyph glyph-name="degree" unicode="&#xb0;" horiz-adv-x="400" 
d="M240 618q21 0 39.5 -7.5t32 -21t21 -32t7.5 -39.5t-8 -39.5t-21.5 -32t-31.5 -21.5t-39 -8t-39 8t-31.5 21.5t-21.5 32t-8 39.5q0 42 29 71t71 29zM240 666q-30 0 -57 -11.5t-47.5 -31.5t-32 -47t-11.5 -58t11.5 -58t31.5 -47.5t47 -32t58 -11.5t58 11.5t47 32t31.5 47.5
t11.5 58t-11.5 58t-32 47t-47.5 31.5t-57 11.5z" />
    <glyph glyph-name="cent" unicode="&#xa2;" 
d="M362 447l-125 -410q-34 16 -58.5 51.5t-24.5 102.5q0 47 14.5 92.5t41.5 81.5t65.5 58.5t86.5 23.5zM269 26l129 417q23 -5 49.5 -19t43.5 -47h6q3 12 5.5 21t5 16.5t6 15.5t8.5 19q-28 11 -53.5 18t-60.5 10q8 30 19 59.5t21 59.5q-5 -1 -11 -1.5t-11 -0.5t-11 0.5
t-11 1.5q-2 -4 -5.5 -18.5t-8 -32.5t-9.5 -36t-9 -30q-80 0 -136.5 -27t-92.5 -69t-52.5 -92.5t-16.5 -97.5q0 -29 7 -59.5t24 -57.5t46 -48t73 -30q-2 -7 -8 -25.5t-13 -39.5t-13.5 -40t-9.5 -27q5 1 11 1.5t11 0.5q7 0 12 -0.5t10 -1.5q4 16 7.5 30.5t7.5 29t8.5 30.5
t10.5 36q8 -2 16.5 -2.5t22.5 -0.5q79 0 148 32l14 42l-5 2q-8 -5 -21.5 -12.5t-31.5 -14.5t-40.5 -12t-48.5 -5q-15 0 -25 1.5t-18 3.5z" />
    <glyph glyph-name="sterling" unicode="&#xa3;" 
d="M544 527l46 50q-5 10 -13 24.5t-23.5 28t-40 23t-62.5 9.5q-58 0 -106.5 -25t-80.5 -70q-36 -47 -48.5 -97.5t-20.5 -112.5q-16 0 -43.5 1.5t-54.5 3.5q-2 -13 -3.5 -19.5t-8.5 -20.5q26 1 53 1.5t53 0.5q-6 -49 -12.5 -90t-18 -73t-30 -55.5t-47.5 -38.5
q-24 -12 -42 -13t-33 1q-2 -29 -5 -40t-7 -16q41 1 91 1h96h68h109t134 -1q2 14 6 27.5t13 36.5q-51 -6 -100 -7.5t-100 -1.5q-14 0 -43 0.5t-59.5 1t-56 1t-32.5 0.5v4q27 20 50 39.5t41 47.5t32 69.5t23 105.5h37q24 0 50.5 -0.5t54 -1.5t49.5 -2q0 14 1.5 22t5.5 18
q-25 -1 -49 -1.5t-48 -0.5h-97q6 57 16 95.5t21 64.5q9 21 22.5 41.5t31 36.5t39 25.5t46.5 9.5q45 0 66.5 -27.5t20.5 -72.5z" />
    <glyph glyph-name="section" unicode="&#xa7;" 
d="M208 440q7 -8 13.5 -14t18 -14t31.5 -20t54 -33q51 -30 76.5 -56t25.5 -62q0 -33 -16 -54.5t-38 -40.5q-5 6 -11 11t-16.5 12.5t-27.5 18t-45 27.5q-32 19 -55.5 34t-39 29t-23 28.5t-7.5 33.5q0 32 17 57.5t43 42.5zM463 569h10q4 15 7.5 25t6.5 18t6.5 14.5t8.5 14.5
q-26 19 -56.5 32.5t-78.5 13.5q-49 0 -85.5 -15.5t-60.5 -39.5t-36 -53t-12 -56q0 -20 5 -34.5t16 -30.5q-15 -9 -33 -23.5t-33.5 -33.5t-25.5 -42t-10 -49q0 -28 10 -49.5t28 -38.5t41.5 -32t50.5 -31t49.5 -29.5t38 -28.5t24 -32.5t8.5 -41.5q0 -17 -7.5 -37t-23 -38
t-40.5 -30.5t-60 -12.5q-32 0 -56 12t-39.5 27.5t-24 31.5t-9.5 23h-11q-4 -17 -11 -38t-15 -33q32 -29 72.5 -43t85.5 -14q49 0 88 17t66.5 43t42 57.5t14.5 62.5q0 43 -26 72q30 23 48.5 43t29 38t14 34.5t3.5 31.5q0 28 -9.5 49t-26 38.5t-38.5 32t-46 29.5
q-34 20 -58 35t-39 29t-21.5 29t-6.5 36q0 17 7 35.5t21.5 33.5t36.5 25t51 10q30 0 49 -9t31 -22.5t18.5 -28.5t10.5 -27z" />
    <glyph glyph-name="bullet" unicode="&#x2022;" horiz-adv-x="500" 
d="M269 511q-35 0 -66 -13t-54.5 -36.5t-37 -54.5t-13.5 -67q0 -35 13.5 -66t36.5 -54.5t54 -37t67 -13.5t67 13.5t54 37t36.5 54.5t13.5 66q0 36 -13.5 67t-37 54.5t-54.5 36.5t-66 13z" />
    <glyph glyph-name="paragraph" unicode="&#xb6;" 
d="M533 637h53l10 44h-238q-50 0 -87 -8.5t-65 -21.5t-48.5 -29.5t-36.5 -32.5q-23 -24 -37.5 -50.5t-22 -51t-10 -46t-2.5 -35.5q0 -27 9.5 -62.5t39.5 -65.5q16 -15 33 -24t32.5 -13.5t28.5 -6t21 -2.5l-92 -433h53l179 838h126l-178 -838h53z" />
    <glyph glyph-name="germandbls" unicode="&#xdf;" 
d="M230 68l-5 -2q-8 -27 -14 -39t-11 -18q22 -9 43 -15.5t47 -6.5q39 0 79 15t72.5 43t52.5 64.5t20 76.5q0 23 -7.5 40.5t-20 32t-27.5 26t-30 22.5q-35 25 -54.5 42.5t-19.5 41.5q0 11 2.5 19.5t11.5 21t26.5 32t46.5 51.5q31 34 50 64t19 67q0 24 -10.5 42.5t-28.5 30.5
t-42 18.5t-51 6.5q-50 0 -101 -23.5t-86 -78.5q-14 -21 -24 -44.5t-19.5 -59.5t-21 -91.5t-29.5 -141.5q-8 -38 -15.5 -74.5t-15.5 -74t-17.5 -77t-21.5 -80.5q9 1 19 1h21h20.5t17.5 -1q3 21 10.5 64t18 95.5t22 109t22 104.5t18 83t9.5 44q9 37 19.5 75.5t28 70t44.5 51.5
t68 20q38 0 64 -22.5t26 -61.5q0 -23 -7 -43t-18 -38t-26 -34.5t-30 -32.5q-27 -28 -44 -46t-26.5 -31.5t-13 -24.5t-3.5 -25q0 -26 22 -47.5t60 -49.5q12 -9 26 -20t25.5 -25.5t19.5 -32t8 -39.5q0 -18 -8 -39t-23 -39t-37 -30.5t-50 -12.5q-29 0 -55.5 11.5t-45.5 34.5z
" />
    <glyph glyph-name="registered" unicode="&#xae;" horiz-adv-x="378" 
d="M272 562q0 -20 -15.5 -27t-31.5 -7h-15v31v15q0 8 1 16q5 1 9 1h10q17 0 29.5 -6t12.5 -23zM210 511h5q4 -4 14 -16t21.5 -25.5t21 -25.5t13.5 -17q6 1 10.5 1.5t8.5 0.5q5 0 9 -0.5t9 -1.5v7q-10 10 -25 27.5t-46 52.5q6 1 15 4t17.5 9t14.5 15t6 23q0 25 -17.5 33.5
t-34.5 8.5h-19q-11 0 -19.5 -0.5t-13.5 -0.5h-10q-7 0 -12 1q1 -11 1.5 -22.5t0.5 -22.5v-45v-13q0 -13 -0.5 -35t-2.5 -42q5 1 9 1.5t9 0.5q4 0 8 -0.5t9 -1.5q-1 11 -1.5 22.5t-0.5 23.5v38zM239 668q32 0 59.5 -12.5t48 -33.5t32 -48.5t11.5 -57.5q0 -31 -11.5 -58.5
t-32 -48t-47.5 -32.5t-59 -12q-31 0 -58.5 12t-48 32.5t-32.5 48t-12 58.5t12 58.5t32.5 48.5t47.5 33t58 12zM239 695q-36 0 -68 -14t-56.5 -38.5t-38.5 -57t-14 -69.5t14 -69.5t38.5 -56.5t57 -38t68.5 -14t68 14t56.5 38t38.5 56.5t14 69.5q0 36 -14 68.5t-38 57
t-56.5 39t-69.5 14.5z" />
    <glyph glyph-name="copyright" unicode="&#xa9;" horiz-adv-x="757" 
d="M541 169l7 39l-8 4q-7 -6 -19.5 -14t-29 -16t-38 -13.5t-47.5 -5.5q-29 0 -57.5 9.5t-51.5 30.5t-37 54.5t-14 80.5q0 48 14 82.5t36.5 56t51.5 32t59 10.5q33 0 64 -12t55 -35l9 2q3 26 13 49q-30 13 -63 19t-66 6q-66 0 -111.5 -18t-74.5 -48t-42 -68t-13 -78
q0 -46 16 -84t45 -64.5t69 -41t88 -14.5q30 0 54 4t42 10t30 12.5t19 10.5zM72 338q0 66 25 124t68 101.5t101.5 69t125.5 25.5q66 0 124 -25.5t101.5 -69t68.5 -101.5t25 -124t-25 -124.5t-68.5 -102t-101.5 -68.5t-124 -25q-67 0 -125.5 25t-101.5 68.5t-68 102t-25 124.5
zM35 338q0 -74 27.5 -139t76 -113t113.5 -75t140 -27q74 0 139 27t113 75t76 113t28 139t-28 139t-76 113.5t-113 76.5t-139 28q-75 0 -140 -28.5t-113.5 -77t-76 -113.5t-27.5 -138z" />
    <glyph glyph-name="trademark" unicode="&#x2122;" horiz-adv-x="1019" 
d="M321 651q27 0 58 -1.5t57 -6.5q-4 11 -4 21q0 13 4 22q-17 -2 -49.5 -3t-83.5 -1h-73q-20 0 -40 1t-40 3q4 -11 4 -23q0 -11 -4 -19q29 3 58 5t58 2q0 -10 0.5 -26.5t1 -36t0.5 -41.5v-42v-30q0 -15 -0.5 -35t-1 -41t-1 -41t-1.5 -36q7 2 12.5 2.5t16.5 0.5t17 -0.5
t13 -2.5q-3 48 -3.5 92.5t-0.5 89.5q0 37 0.5 73.5t1.5 73.5zM507 689h-15q-6 -54 -15 -108t-15 -108q-4 -34 -11.5 -76t-13.5 -75q12 3 23 3q12 0 24 -3q0 27 3 66.5t7.5 78t8.5 69.5t6 40q20 -34 41.5 -74t40.5 -76t32.5 -63l17.5 -35h11q7 18 23.5 50t36 69t39.5 73
t35 61q3 -20 7.5 -55t8 -73t6.5 -74t3 -57q12 3 28 3q15 0 30 -3q-3 14 -7.5 46t-9.5 71.5t-9.5 82.5t-8.5 79.5t-6.5 60.5t-2.5 27h-12l-83 -145q-4 -7 -14 -25.5t-22 -39.5t-22.5 -40t-15.5 -26q-10 17 -24.5 43.5t-31.5 57t-33.5 61t-29.5 56t-21.5 41.5t-8.5 17z" />
    <glyph glyph-name="acute" unicode="&#xb4;" horiz-adv-x="241" 
d="M129 538h30l151 93q20 12 28.5 20t8.5 22t-10.5 23t-22.5 9q-11 0 -20.5 -7.5t-26.5 -24.5z" />
    <glyph glyph-name="dieresis" unicode="&#xa8;" horiz-adv-x="241" 
d="M229 610q0 -20 13.5 -33.5t32.5 -13.5q20 0 33.5 13.5t13.5 33.5q0 19 -13.5 32.5t-33.5 13.5t-33 -14t-13 -32zM32 610q0 -20 13.5 -33.5t32.5 -13.5q20 0 33.5 13.5t13.5 33.5q0 19 -13.5 32.5t-33.5 13.5t-33 -14t-13 -32z" />
    <glyph glyph-name="notequal" unicode="&#x2260;" horiz-adv-x="549" 
d="M12 399v-45h278l-71 -181h-207v-46h189l-102 -256h39l103 256h296v46h-278l70 181h208v45h-190l101 261h-39l-103 -261h-294z" />
    <glyph glyph-name="AE" unicode="&#xc6;" horiz-adv-x="852" 
d="M536 624h5q-10 -81 -27 -159t-34 -157q-9 -1 -20 -1.5t-24 -0.5h-54h-56q-13 0 -24 0.5t-19 1.5q72 92 132.5 168t120.5 148zM562 339h89q35 0 70.5 -1t70.5 -5q-1 15 1.5 25.5t7.5 25.5q-27 -2 -64.5 -4t-64.5 -2h-103q11 54 24.5 116.5t31.5 143.5q23 0 53.5 -0.5
t62.5 -1.5t62 -3.5t51 -6.5q-1 17 1 27.5t8 27.5q-33 -2 -74.5 -3t-76.5 -1q-34 0 -81.5 1t-101.5 3q-6 -8 -30 -38.5t-59.5 -75.5t-79 -100.5t-90 -113.5t-92 -115.5t-84 -106t-66.5 -84t-41 -48.5q10 1 20 1h20h19t17 -1q8 11 24 37.5t45 68.5l60 84t60 80q11 1 22.5 1.5
t25.5 0.5h58h57q14 0 28.5 -0.5t28.5 -1.5q-3 -16 -9.5 -47t-16 -69t-20.5 -79t-23 -75q21 1 57 1h97h45h52h54.5t52.5 -1q-1 14 0 24t6 27q-76 -8 -142 -10t-123 -2q14 75 28.5 150.5t31.5 150.5z" />
    <glyph glyph-name="Oslash" unicode="&#xd8;" horiz-adv-x="833" 
d="M662 595l-473 -495q-26 38 -34.5 79.5t-8.5 79.5q0 68 22 140t64.5 130.5t106 96t146.5 37.5q49 0 95.5 -16.5t81.5 -51.5zM211 74l473 494q29 -45 36 -87.5t7 -71.5q0 -60 -20.5 -129t-63 -128.5t-108 -99t-154.5 -39.5q-48 0 -91.5 14.5t-78.5 46.5zM729 614l77 82
l-25 24l-79 -83q-54 36 -108.5 47t-99.5 11q-95 0 -174.5 -32.5t-137.5 -89.5t-90 -135t-32 -168q0 -26 4.5 -57t15.5 -64q11 -29 26.5 -51t38.5 -44l-84 -82l27 -25l85 87q48 -29 100.5 -39.5t107.5 -10.5q102 0 182 36.5t135.5 97t85 136t29.5 151.5q0 48 -10 83
t-23.5 60.5t-27.5 41t-23 24.5z" />
    <glyph glyph-name="infinity" unicode="&#x221e;" horiz-adv-x="713" 
d="M319 326q-38 68 -69 89q-31 22 -74 22q-60 0 -105 -49t-45 -130t49 -130q48 -50 118 -50q53 0 90 26.5t69 87.5q47 -81 74 -104q42 -36 90 -36q66 0 118 58q53 59 53 147q0 92 -54 147q-55 57 -133 57q-68 0 -109 -30q-39 -28 -72 -105zM366 227q37 99 51 124
q20 38 45 55t59 17q53 0 95 -47q43 -46 43 -119q0 -36 -11 -65.5t-29.5 -50t-44.5 -32t-56 -11.5q-22 0 -42 5.5t-38.5 20t-36 39.5t-35.5 64zM305 288q-35 -103 -58 -130q-36 -42 -82 -42q-43 0 -78 39q-34 37 -34 104q0 30 9.5 55t25.5 42.5t38.5 27t47.5 9.5
q45 0 76 -25.5t55 -79.5z" />
    <glyph glyph-name="plusminus" unicode="&#xb1;" horiz-adv-x="593" 
d="M48 40v-46h498v46h-498zM271 264v-178h52v178h223v48h-223v178h-52v-178h-223v-48h223z" />
    <glyph glyph-name="lessequal" unicode="&#x2264;" horiz-adv-x="549" 
d="M536 120v50l-464 193l464 192v50l-524 -222v-40zM12 -32v-45h525v45h-525z" />
    <glyph glyph-name="greaterequal" unicode="&#x2265;" horiz-adv-x="549" 
d="M12 605v-50l464 -193l-464 -192v-50l524 222v40zM12 -32v-45h525v45h-525z" />
    <glyph glyph-name="yen" unicode="&#xa5;" 
d="M304 178l20 87q38 0 77 -1t77 -3q-1 14 1.5 23.5t7.5 23.5q-19 -2 -32.5 -3t-28.5 -1.5t-34 -0.5h-49q9 13 30 40.5t47.5 62.5t56.5 73.5t56.5 74t48 64t31.5 43.5q-12 -2 -19.5 -3t-14.5 -1q-17 0 -32 4q-51 -87 -110.5 -168.5t-120.5 -163.5h-5q-21 51 -36 87.5
t-26 63.5t-18.5 48t-14.5 41t-14 41.5t-16 50.5q-16 -4 -42 -4q-29 0 -49 4q20 -49 33 -80.5t22 -53.5t15.5 -37t13.5 -31q13 -30 21 -48.5t14.5 -34t13 -32t16.5 -41.5h-37t-41.5 0.5t-38 1.5t-27.5 2q0 -6 -0.5 -17t-7.5 -30q40 3 78 4t80 1l-18 -87q-40 0 -80 0.5
t-80 4.5q1 -28 -9 -47q42 2 80.5 3t80.5 1q-7 -35 -16 -72t-19 -69q8 1 17 1h21h24t21 -1q2 12 4 26t4.5 30.5t6.5 37t10 47.5h26h39q22 0 45 -1t42 -3q0 16 2 24.5t9 22.5q-45 -2 -83 -3.5t-73 -1.5z" />
    <glyph glyph-name="mu" unicode="&#xb5;" 
d="M370 64l-18 -65q8 1 18 1h21h18.5t17.5 -1q3 28 10.5 69.5t17 89t20 96t21 91t19 76t13.5 49.5q-16 -4 -41 -4q-21 0 -41 4q-1 -4 -4.5 -24.5t-9 -50t-11.5 -64.5t-13 -69t-14 -64t-13 -49q-8 -23 -21 -44t-32 -37t-43 -25.5t-53 -9.5q-46 0 -71.5 24t-25.5 72
q0 21 8.5 63t20.5 91.5t25 99.5t23 87q-16 -4 -42 -4q-27 0 -43 4q-6 -45 -14 -90t-17 -90q-14 -67 -29 -141t-30 -145.5t-29 -140t-27 -124.5q17 4 39 4q21 0 37 -4q10 63 23 134t29 147q16 -19 38.5 -25.5t48.5 -6.5q32 0 57.5 6.5t46.5 18t37.5 26t28.5 29.5z" />
    <glyph glyph-name="partialdiff" unicode="&#x2202;" horiz-adv-x="494" 
d="M454 350q-13 27 -27 41q-21 22 -53.5 37t-72.5 15q-57 0 -113 -29q-30 -15 -58.5 -42t-50 -62t-35 -76.5t-13.5 -85.5q0 -75 45 -117.5t121 -42.5q129 0 214 151q75 137 75 310q1 68 -14.5 114.5t-41 75t-58 41.5t-65.5 14q-61 0 -104.5 -34.5t-81.5 -112.5h23
q26 39 60.5 58.5t86.5 19.5q76 0 122 -48t46 -136q0 -18 -1.5 -40.5t-3.5 -50.5zM445 307q-34 -151 -113 -231q-63 -63 -123 -63q-42 0 -68.5 30t-26.5 85q0 78 31 152q31 76 73 106q43 31 87 31q46 0 83.5 -28t56.5 -82z" />
    <glyph glyph-name="summation" unicode="&#x2211;" horiz-adv-x="713" 
d="M662 -212l31 202l-19 4q-12 -51 -30.5 -74.5t-46.5 -32.5q-38 -13 -75 -13h-399l307 410l-274 370h361q54 0 84 -29t38 -96h19l-13 164h-624v-18l327 -433l-327 -436v-18h641z" />
    <glyph glyph-name="product" unicode="&#x220f;" horiz-adv-x="823" 
d="M605 655v-773q0 -42 -18 -59t-61 -17h-17v-18h292v18h-17q-43 0 -61 17t-18 59v718q0 40 18 57.5t61 17.5h17v18h-779v-18h18q43 0 61 -17.5t18 -57.5v-718q0 -42 -18 -59t-61 -17h-18v-18h292v18h-18q-43 0 -61 17t-18 59v773h388z" />
    <glyph glyph-name="pi" unicode="&#x3c0;" horiz-adv-x="505" 
d="M485 447h-312q-63 0 -84 -10q-23 -10 -46 -44q-22 -34 -37 -86h18q19 33 40 51t61 18h34q-5 -61 -12 -105.5t-17 -72.5q-10 -29 -24.5 -55.5t-33.5 -52.5q-26 -35 -26 -56t15.5 -32.5t37.5 -11.5q31 0 47 20q18 24 32 106q7 42 13.5 105.5t11.5 154.5h103l-13 -141
q-5 -55 -7.5 -91t-2.5 -53q0 -52 26 -76.5t69 -24.5q91 0 108 132h-17q-9 -59 -56 -59q-21 0 -38 15q-16 15 -16 83q0 28 3 67l10 148h113v71z" />
    <glyph glyph-name="integral" unicode="&#x222b;" horiz-adv-x="274" 
d="M106 721l-8 -284q0 -93 6 -215q5 -94 12 -165q2 -19 3.5 -33.5t1.5 -23.5q0 -28 -19 -28q-10 0 -25 16q-14 12 -33 12t-31.5 -11.5t-12.5 -33.5q0 -26 16 -42.5t42 -16.5q40 0 65 33q39 50 44 191q4 129 6 200t2 88q0 123 -18 324q-2 26 -3.5 43.5t-1.5 27.5q0 17 6 24
t14 7q9 0 19 -10q20 -17 38 -17q19 0 31.5 13.5t12.5 36.5q0 20 -18 36.5t-43 16.5q-22 0 -45 -16t-36 -49q-10 -24 -16.5 -55t-8.5 -69z" />
    <glyph glyph-name="ordfeminine" unicode="&#xaa;" horiz-adv-x="330" 
d="M262 550q-5 -16 -7.5 -30l-7.5 -42q-3 -4 -9.5 -11.5t-16 -14.5t-22.5 -12.5t-29 -5.5q-17 0 -31 9.5t-14 30.5q0 14 6.5 24.5t17 18t22.5 12t24 7.5q16 5 38 8.5t29 5.5zM135 663l-11 -39h16q17 17 34.5 27.5t43.5 10.5q22 0 39.5 -11.5t17.5 -35.5q0 -28 -11 -34.5
t-37 -10.5q-22 -3 -49 -8.5t-51 -16.5t-40 -29.5t-16 -48.5q0 -28 22.5 -48t58.5 -20q33 0 55 13.5t38 27.5q3 -11 11 -23t33 -12q17 0 30 6t22 11l-6 21l-9 -4.5t-11 -2.5q-19 0 -19 22q0 15 9 51l18 70q2 7 4.5 20t2.5 27q0 29 -24 49t-66 20q-29 0 -54.5 -8t-50.5 -24z
" />
    <glyph glyph-name="ordmasculine" unicode="&#xba;" horiz-adv-x="365" 
d="M137 506q0 24 6.5 52t21 52.5t37.5 40.5t55 16q37 0 57 -22t20 -57q0 -21 -6.5 -48.5t-20.5 -52.5t-37.5 -42.5t-58.5 -17.5q-38 0 -56 21t-18 58zM79 521q0 -60 37.5 -91t95.5 -31q41 0 74.5 15.5t57 40.5t36 57t12.5 64q0 51 -32.5 85t-104.5 34q-41 0 -73.5 -15
t-55.5 -40t-35 -56t-12 -63z" />
    <glyph glyph-name="Omegagreek" unicode="&#x3a9;" horiz-adv-x="768" 
d="M330 0l-15 142q-44 15 -66 37q-36 31 -55.5 85t-19.5 126q0 125 63 195q50 56 150 56q96 0 152 -63t56 -189q0 -112 -51 -183q-31 -42 -90 -64l-16 -142h296v163h-17q-5 -19 -10 -31t-12.5 -18.5t-19 -8.5t-29.5 -2h-148v14q77 23 121 57.5t69 93.5q26 61 26 120
q0 76 -40 143q-38 69 -115 107q-73 37 -175 37q-100 0 -175.5 -37.5t-115.5 -106.5q-39 -69 -39 -143q0 -62 25.5 -120t69.5 -94q44 -35 122 -57v-14h-148q-18 0 -29.5 2t-19 8.5t-13 18.5t-10.5 31h-16v-163h295z" />
    <glyph glyph-name="ae" unicode="&#xe6;" horiz-adv-x="778" 
d="M570 449q20 0 39 -6t34.5 -20t25 -37t9.5 -56q0 -20 -2 -32.5t-4 -21.5q-20 -3 -48 -3.5t-53 -0.5h-32q-31 0 -68 1t-68 3q11 52 31 85.5t43.5 53t48 27t44.5 7.5zM331 247q-5 -32 -15 -70t-28 -70.5t-45.5 -54.5t-68.5 -22q-35 0 -58.5 19t-23.5 55q0 31 14 51.5
t33.5 33.5t40.5 20t34 11q7 2 24 5.5t35.5 8t35 8t22.5 5.5zM749 314q0 45 -14.5 76.5t-39.5 51t-57 28t-68 8.5q-51 0 -89.5 -18t-76.5 -50q-40 69 -125 69q-30 0 -56 -6.5t-46 -15.5t-34.5 -18t-21.5 -14q-5 -24 -8 -35.5t-6 -19.5h11q8 9 19.5 20.5t27.5 22t36.5 17.5
t45.5 7q27 0 46 -8.5t30.5 -21t17 -28.5t5.5 -31q0 -11 -2 -27.5t-5 -35.5q-12 -7 -29 -12.5t-36.5 -9.5t-39.5 -8t-38 -8q-22 -5 -52.5 -13.5t-58 -25.5t-47 -45.5t-19.5 -73.5q0 -24 9.5 -43.5t26 -32.5t38.5 -19t46 -6q35 0 62.5 7.5t50 22.5t41.5 36t36 46
q26 -58 72 -84t110 -26q91 0 164 41l13 45h-3q-9 -6 -22.5 -15.5t-32 -17.5t-42 -14t-52.5 -6q-21 0 -46.5 6t-47 23t-36.5 47t-15 79q0 20 1.5 34t3.5 24q18 0 42 1t48 1h31h74q23 0 41 -0.5t34.5 -1t33.5 -1.5t38 -2q3 13 7 33t4 48z" />
    <glyph glyph-name="oslash" unicode="&#xf8;" 
d="M411 405l-288 -314q-7 19 -9.5 37.5t-2.5 38.5q0 35 10 83t33.5 92t62 74.5t95.5 30.5q29 0 54.5 -10t44.5 -32zM139 62l290 317q5 -10 10.5 -28.5t5.5 -48.5q0 -36 -11 -85t-35.5 -93t-64 -75t-96.5 -31q-67 0 -99 44zM541 499l-24 21l-69 -76q-30 20 -64 27.5t-72 7.5
q-67 0 -119 -26.5t-88 -68t-54.5 -93.5t-18.5 -103q0 -40 12 -77t39 -66l-71 -74l22 -20l71 73q29 -21 64.5 -28t70.5 -7q67 0 119.5 25.5t89 67.5t56 94.5t19.5 105.5q0 40 -12.5 77t-39.5 66z" />
    <glyph glyph-name="questiondown" unicode="&#xbf;" horiz-adv-x="444" 
d="M295 439q0 21 -15 36.5t-37 15.5q-21 0 -36.5 -15t-15.5 -37t15 -37t37 -15t37 15.5t15 36.5zM158 314l-13 -29l3 -2q5 2 11 4t17 2q26 0 44 -14.5t18 -42.5q0 -15 -7 -32t-34 -40q-23 -20 -45.5 -36.5t-57.5 -42.5q-10 -7 -26 -20t-31 -32.5t-26 -44.5t-11 -58
q0 -24 8 -47.5t25 -42.5t44 -31t64 -12q35 0 58 8t32 12q0 7 1 15.5t7 34.5l-5 3q-26 -27 -50.5 -35t-42.5 -8q-10 0 -24.5 3.5t-28 13t-22.5 25t-9 39.5q0 26 8.5 46t23 35.5t33.5 29.5t40 29q26 18 48.5 35.5t39 36.5t26.5 41.5t10 50.5q0 27 -9 47t-24.5 33.5t-35.5 20.5
t-41 7q-6 0 -9.5 -0.5t-8.5 -1.5z" />
    <glyph glyph-name="exclamdown" unicode="&#xa1;" horiz-adv-x="333" 
d="M269 439q0 21 -15 36.5t-37 15.5q-21 0 -36.5 -15t-15.5 -37t15 -37t37 -15t37 15.5t15 36.5zM205 316h-21l-124 -420q-5 -15 -8.5 -31t-3.5 -30q0 -13 8.5 -26.5t31.5 -13.5q16 0 26 7.5t16 19.5t8.5 27t4.5 31z" />
    <glyph glyph-name="logicalnot" unicode="&#xac;" horiz-adv-x="593" 
d="M48 356v-48h446v-183h52v231h-498z" />
    <glyph glyph-name="radical" unicode="&#x221a;" horiz-adv-x="549" 
d="M512 913l-127 -794l-198 402l-146 -74l16 -31l97 44l242 -496l152 949h-36z" />
    <glyph glyph-name="florin" unicode="&#x192;" 
d="M482 579h5q6 38 10.5 55.5t8.5 28.5q-5 1 -10.5 2t-14.5 1q-51 0 -97.5 -34.5t-75.5 -92.5q-20 -39 -31.5 -76.5t-19.5 -70.5h-15h-17q-10 0 -27 0.5t-45 0.5q-2 -11 -3.5 -19t-6.5 -22q17 2 48.5 2.5t57.5 1.5q-9 -41 -21.5 -101t-25.5 -120t-23 -108t-15 -67
q-4 -17 -9 -34t-13.5 -30.5t-21.5 -21.5t-33 -8q-14 0 -23.5 3.5t-23.5 11.5l-5 -2q-3 -14 -5 -23t-4 -16.5t-4 -15.5l-5 -20q31 -2 56.5 5t44.5 18q30 17 43 34t24 34q11 15 23 42.5t28 78t37 133t49 207.5h23q23 0 48.5 -1t33.5 -1q3 14 4 20t6 20q-27 -1 -54 -1.5
t-53 -0.5q8 41 13.5 67.5t9 44.5t6.5 30t7 22q9 26 24 36.5t34 10.5q18 0 30.5 -6.5t27.5 -17.5z" />
    <glyph glyph-name="approxequal" unicode="&#x2248;" horiz-adv-x="549" 
d="M535 507h-21q-5 -45 -30 -68t-62 -23q-18 0 -32 3q-14 4 -33 11t-44 18q-46 20 -81 33t-61 20q-20 7 -43 7q-21 -1 -41.5 -10t-36.5 -26t-25.5 -41t-9.5 -56h21q9 46 32.5 67.5t57.5 21.5t108 -31q54 -22 87.5 -35t46.5 -17q22 -7 49 -7q48 0 82 35t36 98zM535 267h-21
q-5 -45 -30 -68t-62 -23q-21 0 -32 4q-14 4 -33.5 10.5t-43.5 17.5q-94 40 -142 54q-22 6 -44 6q-22 -1 -42 -10t-35.5 -25.5t-25 -41t-9.5 -57.5h21q9 48 32.5 69t57.5 21t108 -31l109 -45q51 -15 74 -15q48 0 82 35.5t36 98.5z" />
    <glyph glyph-name="Delta" unicode="&#x2206;" horiz-adv-x="612" 
d="M599 0l-280 677l-306 -677h586zM483 40h-409l215 472z" />
    <glyph glyph-name="guillemotleft" unicode="&#xab;" horiz-adv-x="500" 
d="M360 66l-71 178l133 154q-12 5 -19 10t-18 14l-141 -171l72 -201q13 8 21 11t23 5zM213 66l-70 178l133 154q-13 5 -19.5 10t-17.5 14l-141 -171l72 -201q12 8 20.5 11t22.5 5z" />
    <glyph glyph-name="guillemotright" unicode="&#xbb;" horiz-adv-x="500" 
d="M131 407l70 -179l-133 -153q12 -6 19 -10.5t18 -14.5l141 172l-72 200q-13 -8 -21 -10.5t-22 -4.5zM277 407l71 -179l-134 -153q13 -6 19.5 -10.5t17.5 -14.5l141 172l-72 200q-12 -8 -20.5 -10.5t-22.5 -4.5z" />
    <glyph glyph-name="ellipsis" unicode="&#x2026;" horiz-adv-x="1000" 
d="M804 -10q21 0 36.5 13.5t15.5 35.5t-15 37t-37 15t-37 -15.5t-15 -36.5t15 -35t37 -14zM471 -10q21 0 36.5 13.5t15.5 35.5t-15 37t-37 15t-37 -15.5t-15 -36.5t15 -35t37 -14zM138 -10q21 0 36.5 13.5t15.5 35.5t-15 37t-37 15t-37 -15.5t-15 -36.5t15 -35t37 -14z" />
    <glyph glyph-name="nonbreakingspace" unicode="&#xa0;" horiz-adv-x="278" 
 />
    <glyph glyph-name="Agrave" unicode="&#xc0;" horiz-adv-x="667" 
d="M483 721h28l-102 131q-17 22 -26 30.5t-23 8.5q-15 0 -24 -9t-9 -23q0 -13 8 -21.5t25 -21.5zM404 570l55 -265q-58 -3 -116 -3q-59 0 -116 3l174 265h3zM455 692h-19q-26 -43 -54.5 -84.5t-65.5 -99.5q-85 -131 -168.5 -257t-169.5 -252q11 1 19 1h16h18t14 -1
q12 22 33 59.5t44 77t44.5 75t35.5 55.5l66 2t66 1q42 0 80 -1t53 -2q4 -19 10.5 -53.5t13 -73.5t12.5 -77.5t9 -62.5q10 1 20.5 1h24.5h25t21 -1q-7 22 -19.5 75.5t-27.5 122t-30.5 145t-29.5 145.5t-25 124t-16 81z" />
    <glyph glyph-name="Atilde" unicode="&#xc3;" horiz-adv-x="667" 
d="M286 762h26q8 18 18.5 32.5t32.5 14.5q15 0 34 -7t39 -15q20 -9 40 -16t38 -7q21 0 36.5 9.5t27 24.5t18.5 33t10 36h-26q-5 -16 -15 -31.5t-30 -15.5q-15 0 -33.5 7t-38.5 15t-41.5 15t-42.5 7q-22 0 -37.5 -9t-26 -24t-17.5 -33t-12 -36zM404 570l55 -265
q-58 -3 -116 -3q-59 0 -116 3l174 265h3zM455 692h-19q-26 -43 -54.5 -84.5t-65.5 -99.5q-85 -131 -168.5 -257t-169.5 -252q11 1 19 1h16h18t14 -1q12 22 33 59.5t44 77t44.5 75t35.5 55.5l66 2t66 1q42 0 80 -1t53 -2q4 -19 10.5 -53.5t13 -73.5t12.5 -77.5t9 -62.5
q10 1 20.5 1h24.5h25t21 -1q-7 22 -19.5 75.5t-27.5 122t-30.5 145t-29.5 145.5t-25 124t-16 81z" />
    <glyph glyph-name="Otilde" unicode="&#xd5;" horiz-adv-x="833" 
d="M354 762h26q8 18 18.5 32.5t32.5 14.5q15 0 34 -7t39 -15q20 -9 40 -16t38 -7q21 0 36.5 9.5t27 24.5t18.5 33t10 36h-26q-5 -16 -15 -31.5t-30 -15.5q-15 0 -33.5 7t-38.5 15t-41.5 15t-42.5 7q-22 0 -37.5 -9t-26 -24t-17.5 -33t-12 -36zM147 256q0 77 23.5 150.5
t67.5 130.5t106.5 91.5t140.5 34.5q48 0 92 -15t77 -45.5t53 -78.5t20 -114q0 -61 -21 -130.5t-63.5 -129t-107.5 -98.5t-154 -39q-47 0 -89.5 13.5t-74.5 43t-51 75.5t-19 111zM61 268q0 -21 3 -48.5t12 -57t26 -57.5t45 -51q28 -24 60 -38t64 -21t60.5 -9t49.5 -2
q103 0 183.5 37t135.5 97.5t84 136t29 150.5q0 67 -22.5 120.5t-64 91t-100 58t-131.5 20.5q-89 0 -168 -30t-138 -86t-93.5 -134.5t-34.5 -176.5z" />
    <glyph glyph-name="OE" unicode="&#x152;" horiz-adv-x="944" 
d="M132 251q0 81 22 155t62 130.5t97 90t127 33.5q87 0 139 -59t52 -173q0 -63 -20 -135.5t-59 -134.5t-95.5 -103t-129.5 -41q-34 0 -68.5 11.5t-62.5 38.5t-46 72.5t-18 114.5zM685 681l-22 -124q-14 26 -31 50.5t-41.5 43t-59.5 30t-85 11.5q-95 0 -169 -36t-125 -95
t-77.5 -136t-26.5 -160q0 -132 69.5 -207t204.5 -75q51 0 88.5 9t66 25t51 37.5t42.5 43.5l-26 -99q30 1 62 1h74h87.5t100.5 -1q-1 14 0 24t6 27q-66 -8 -130 -10t-118 -2q14 75 28.5 150.5t30.5 150.5h73q35 0 70.5 -1t70.5 -5q-1 15 1.5 25.5t7.5 25.5q-9 -1 -23 -2
t-30.5 -2t-33 -1.5t-29.5 -0.5h-99q12 54 26 116.5t34 143.5q15 0 41.5 -0.5t56.5 -1.5t59.5 -3.5t50.5 -6.5q-1 17 1 27.5t8 27.5q-12 -1 -28.5 -2t-35 -1.5t-38.5 -0.5h-36h-37t-40 0.5t-38.5 1.5t-31.5 2z" />
    <glyph glyph-name="oe" unicode="&#x153;" horiz-adv-x="889" 
d="M680 449q20 0 39 -6t34.5 -20t25 -37t9.5 -56q0 -20 -2 -32.5t-4 -21.5q-20 -3 -48 -3.5t-53 -0.5h-32q-31 0 -68 1t-68 3q11 52 31 85.5t43.5 53t48 27t44.5 7.5zM109 163q0 42 11 91.5t35 92t62.5 71.5t92.5 29q32 0 57 -11t42 -30.5t25.5 -46t8.5 -57.5q0 -37 -11 -86
t-36 -93t-64 -74.5t-96 -30.5q-68 0 -97.5 41t-29.5 104zM30 183q0 -94 56 -144t150 -50q66 0 116.5 23.5t95.5 69.5q32 -50 72.5 -71t102.5 -21q42 0 83.5 9.5t78.5 31.5l13 45h-3q-9 -6 -22.5 -15.5t-32 -17.5t-42 -14t-52.5 -6q-21 0 -46.5 6t-47 23t-36.5 47t-15 79
q0 20 1.5 34t3.5 24q18 0 42 1t48 1h31h74q23 0 41 -0.5t34.5 -1t33.5 -1.5t38 -2q3 13 7 33t4 48q0 45 -14.5 76.5t-39.5 51t-57 28t-68 8.5q-57 0 -102.5 -22.5t-84.5 -64.5q-33 48 -73.5 68t-102.5 20q-75 0 -129 -28t-89.5 -71.5t-52 -96t-16.5 -100.5z" />
    <glyph glyph-name="endash" unicode="&#x2013;" horiz-adv-x="500" 
d="M506 292h-500l-10 -49h498z" />
    <glyph glyph-name="emdash" unicode="&#x2014;" horiz-adv-x="1000" 
d="M876 292h-740l-12 -49h740z" />
    <glyph glyph-name="quotedblleft" unicode="&#x201c;" horiz-adv-x="500" 
d="M333 681l-16 10l-158 -177q-19 -21 -24 -32t-5 -20q0 -15 10 -22.5t21 -7.5q12 0 23.5 9t29.5 39zM503 681l-16 10l-158 -177q-19 -21 -24 -32t-5 -20q0 -15 10 -22.5t21 -7.5q12 0 23.5 9t29.5 39z" />
    <glyph glyph-name="quotedblright" unicode="&#x201d;" horiz-adv-x="500" 
d="M298 443l16 -10l158 177q19 21 24 32t5 20q0 15 -10 22.5t-21 7.5q-12 0 -23.5 -9t-29.5 -39zM128 443l16 -10l158 177q19 21 24 32t5 20q0 15 -10 22.5t-21 7.5q-12 0 -23.5 -9t-29.5 -39z" />
    <glyph glyph-name="quoteleft" unicode="&#x2018;" horiz-adv-x="278" 
d="M307 681l-16 10l-158 -177q-19 -21 -24 -32t-5 -20q0 -15 10 -22.5t21 -7.5q12 0 23.5 9t29.5 39z" />
    <glyph glyph-name="quoteright" unicode="&#x2019;" horiz-adv-x="278" 
d="M103 442l16 -10l158 177q19 21 24 32t5 20q0 15 -10 22.5t-21 7.5q-12 0 -23.5 -9t-29.5 -39z" />
    <glyph glyph-name="divide" unicode="&#xf7;" horiz-adv-x="593" 
d="M297 465q-20 0 -33.5 -13.5t-13.5 -33.5t14 -33.5t33 -13.5t33 13.5t14 33.5t-13.5 33.5t-33.5 13.5zM297 111q-19 0 -33 -13.5t-14 -33.5t13.5 -33.5t33.5 -13.5t33.5 13.5t13.5 33.5t-14 33.5t-33 13.5zM48 265v-48h498v48h-498z" />
    <glyph glyph-name="lozenge" unicode="&#x25ca;" horiz-adv-x="494" 
d="M268 694h-54l-191 -348l191 -346h54l204 346zM242 647l175 -301l-175 -300l-166 300z" />
    <glyph glyph-name="ydieresis" unicode="&#xff;" horiz-adv-x="500" 
d="M359 610q0 -20 13.5 -33.5t32.5 -13.5q20 0 33.5 13.5t13.5 33.5q0 19 -13.5 32.5t-33.5 13.5t-33 -14t-13 -32zM162 610q0 -20 13.5 -33.5t32.5 -13.5q20 0 33.5 13.5t13.5 33.5q0 19 -13.5 32.5t-33.5 13.5t-33 -14t-13 -32zM244 89h-5q-32 118 -54 215t-34 166
q-15 -4 -39 -4q-11 0 -22 1t-20 3q32 -120 61.5 -233.5t59.5 -236.5q-38 -61 -80 -128t-84 -133q11 4 31 4q21 0 32 -4q43 88 94.5 180t106.5 186t112 186t112 179q-12 -4 -32 -4t-35 4l-10 -24q-5 -12 -11 -25t-18 -35.5t-31.5 -58t-50.5 -92.5q-20 -37 -41.5 -73.5
t-41.5 -72.5z" />
    <glyph glyph-name="Ydieresis" unicode="&#x178;" 
d="M422 793q0 -20 13.5 -33.5t32.5 -13.5q20 0 33.5 13.5t13.5 33.5q0 19 -13.5 32.5t-33.5 13.5t-33 -14t-13 -32zM225 793q0 -20 13.5 -33.5t32.5 -13.5q20 0 33.5 13.5t13.5 33.5q0 19 -13.5 32.5t-33.5 13.5t-33 -14t-13 -32zM306 332h-4q-10 24 -18 45t-21 54
q-19 49 -32 82.5t-22.5 60t-17.5 51t-18 56.5q-10 -2 -19 -3t-23 -1q-31 0 -51 4q22 -50 36.5 -83t27.5 -64t28 -67.5t38 -92.5q11 -26 21.5 -53t20.5 -54q-9 -42 -17 -77.5t-15.5 -67.5t-15.5 -62.5t-17 -60.5q9 1 19.5 1h23.5h23t19 -1q13 79 27.5 153t29.5 146
q10 14 32 43.5t50.5 66.5t59.5 78.5t59.5 79.5t51.5 68.5t34 46.5q-11 -2 -20.5 -3t-16.5 -1q-20 0 -31 4q-19 -33 -43.5 -70.5t-50 -75.5t-51 -73t-46 -63t-34.5 -46t-17 -21z" />
    <glyph glyph-name="fraction" unicode="&#x2044;" horiz-adv-x="148" 
d="M-105 -36l436 721h-44l-436 -721h44z" />
    <glyph glyph-name="Euro" unicode="&#x20ac;" 
d="M584 631q-15 9 -35 17t-41.5 13t-42.5 8t-39 3q-60 0 -110 -19.5t-89 -54.5t-66.5 -83.5t-42.5 -107.5h-3q-11 0 -24.5 1t-32.5 3q-2 -11 -5 -25t-8 -26q17 2 32.5 3t31.5 1q-2 -15 -4 -30.5t-3 -32.5h-11q-11 0 -24.5 1t-32.5 3q-2 -11 -5 -25t-8 -26q18 2 34.5 3
t33.5 1h12q0 -56 13.5 -105.5t42 -86.5t72 -57.5t104.5 -20.5q37 0 80 11t75 31q3 19 8 39t12 37h-14q-33 -39 -73.5 -60.5t-80.5 -21.5q-33 0 -61.5 15.5t-50 43t-34 65t-12.5 81.5v29h186q11 0 25 -1t33 -3q2 13 7.5 27t12.5 24q-20 -2 -36 -3t-33 -1h-192q2 17 3.5 32.5
t3.5 30.5h215q11 0 25 -1t33 -3q2 13 7.5 27t12.5 24q-20 -2 -36 -3t-33 -1h-216q15 64 39.5 107t54.5 69.5t62.5 37.5t63.5 11q48 0 76.5 -20.5t48.5 -54.5h13q5 18 12 37.5t14 36.5z" />
    <glyph glyph-name="guilsinglleft" unicode="&#x2039;" horiz-adv-x="278" 
d="M173 66l-71 178l133 154q-12 5 -19 10t-18 14l-141 -171l73 -201q12 8 20.5 11t22.5 5z" />
    <glyph glyph-name="guilsinglright" unicode="&#x203a;" horiz-adv-x="278" 
d="M96 407l71 -179l-133 -153q12 -6 19 -10.5t18 -14.5l141 172l-73 200q-12 -8 -20.5 -10.5t-22.5 -4.5z" />
    <glyph glyph-name="daggerdbl" unicode="&#x2021;" 
d="M63 237q0 -27 -5 -42.5t-13 -28.5q42 5 89.5 7t95.5 2q-12 -45 -19.5 -72.5t-12.5 -46t-8.5 -31.5t-8.5 -26q10 1 21.5 1h23.5h23t21 -1q3 43 10.5 88t15.5 88q45 0 88.5 -3.5t88.5 -8.5q-1 20 3 35t15 37q-45 -6 -92 -7t-92 -1q9 45 21 98.5t24 102.5q10 0 28.5 -0.5
t42.5 -2t51.5 -4t54.5 -7.5q-2 32 5.5 49t13.5 25q-45 -6 -93 -7t-93 -1q4 15 10 38.5t14 51t17 57t19 57.5q-11 -2 -20 -3t-22 -1q-14 0 -26.5 1t-22.5 3q-3 -28 -7.5 -58.5t-9.5 -59t-9 -51.5t-6 -35q-46 0 -91.5 2.5t-90.5 7.5q2 -25 -4.5 -43t-11.5 -27q48 6 94 7t94 1
q-5 -21 -11 -47t-12.5 -53t-12.5 -53.5t-10 -47.5q-45 0 -90 2.5t-90 7.5z" />
    <glyph glyph-name="periodcentered" unicode="&#xb7;" horiz-adv-x="278" 
d="M98 294q0 -21 15 -36.5t37 -15.5q21 0 36.5 15t15.5 37t-15 37t-37 15t-37 -15.5t-15 -36.5z" />
    <glyph glyph-name="quotesinglbase" unicode="&#x201a;" horiz-adv-x="278" 
d="M-15 -133l15 -10l156 174q19 21 24.5 32t5.5 20q0 15 -10.5 22.5t-21.5 7.5q-12 0 -23.5 -9t-28.5 -39z" />
    <glyph glyph-name="quotedblbase" unicode="&#x201e;" horiz-adv-x="500" 
d="M184 -134l16 -10l159 185q13 16 16.5 24.5t3.5 15.5q0 15 -10 23.5t-22 8.5q-13 0 -23.5 -9.5t-27.5 -38.5zM14 -134l16 -10l159 185q13 15 17 23.5t4 16.5q0 15 -10.5 23.5t-22.5 8.5q-13 0 -23.5 -9.5t-26.5 -38.5z" />
    <glyph glyph-name="perthousand" unicode="&#x2030;" horiz-adv-x="1000" 
d="M135 -35l477 720h-47l-477 -720h47zM738 83q0 25 6.5 58t19 63t32 50.5t45.5 20.5q20 0 35.5 -14t15.5 -49q0 -9 -2 -27.5t-6.5 -40.5t-12.5 -45.5t-19.5 -42.5t-27 -31.5t-35.5 -12.5q-32 0 -41.5 22t-9.5 49zM675 111q0 -54 29.5 -85.5t83.5 -31.5q40 0 71 16.5
t52.5 44t32.5 60.5t11 63q0 52 -30 85t-81 33q-34 0 -65 -14.5t-54 -40t-36.5 -59t-13.5 -71.5zM408 83q0 25 6.5 58t19 63t32 50.5t45.5 20.5q20 0 35.5 -14t15.5 -49q0 -9 -2 -27.5t-6.5 -40.5t-12.5 -45.5t-19.5 -42.5t-27 -31.5t-35.5 -12.5q-32 0 -41.5 22t-9.5 49z
M345 111q0 -54 29.5 -85.5t83.5 -31.5q40 0 71 16.5t52.5 44t32.5 60.5t11 63q0 52 -30 85t-81 33q-34 0 -65 -14.5t-54 -40t-36.5 -59t-13.5 -71.5zM138 443q0 25 6.5 58t19 63t32 50.5t45.5 20.5q20 0 35.5 -14t15.5 -49q0 -9 -2 -27.5t-6.5 -40.5t-12.5 -45.5
t-19.5 -42.5t-27 -31.5t-35.5 -12.5q-32 0 -41.5 22t-9.5 49zM75 471q0 -54 29.5 -87t83.5 -33q40 0 71 18t52.5 45.5t32.5 60.5t11 63q0 52 -30 85t-81 33q-34 0 -65 -14.5t-54 -40t-36.5 -59t-13.5 -71.5z" />
    <glyph glyph-name="Acircumflex" unicode="&#xc2;" horiz-adv-x="667" 
d="M487 888h-40l-159 -167h35l137 107l83 -107h32zM404 570l55 -265q-58 -3 -116 -3q-59 0 -116 3l174 265h3zM455 692h-19q-26 -43 -54.5 -84.5t-65.5 -99.5q-85 -131 -168.5 -257t-169.5 -252q11 1 19 1h16h18t14 -1q12 22 33 59.5t44 77t44.5 75t35.5 55.5l66 2t66 1
q42 0 80 -1t53 -2q4 -19 10.5 -53.5t13 -73.5t12.5 -77.5t9 -62.5q10 1 20.5 1h24.5h25t21 -1q-7 22 -19.5 75.5t-27.5 122t-30.5 145t-29.5 145.5t-25 124t-16 81z" />
    <glyph glyph-name="Ecircumflex" unicode="&#xca;" horiz-adv-x="500" 
d="M409 888h-40l-159 -167h35l137 107l83 -107h32zM208 339h93q35 0 70.5 -1t70.5 -5q-1 15 1.5 25.5t7.5 25.5q-9 -1 -23 -2t-30.5 -2t-33 -1.5t-29.5 -0.5h-119q12 54 26 116.5t34 143.5q22 0 52.5 -0.5t62.5 -1.5t62 -3.5t51 -6.5q-1 17 1 27.5t8 27.5q-12 -1 -28.5 -2
t-35 -1.5t-38.5 -0.5h-36q-34 0 -81 1t-95 3q-11 -66 -28 -154t-37 -182t-41 -185.5t-40 -160.5q21 1 57 1h97h45h52h54.5t52.5 -1q-1 14 0 24t6 27q-66 -8 -132.5 -10t-135.5 -2q14 75 28.5 150.5t30.5 150.5z" />
    <glyph glyph-name="Aacute" unicode="&#xc1;" horiz-adv-x="667" 
d="M372 721h30l151 93q20 12 28.5 20t8.5 22t-10.5 23t-22.5 9q-11 0 -20.5 -7.5t-26.5 -24.5zM404 570l55 -265q-58 -3 -116 -3q-59 0 -116 3l174 265h3zM455 692h-19q-26 -43 -54.5 -84.5t-65.5 -99.5q-85 -131 -168.5 -257t-169.5 -252q11 1 19 1h16h18t14 -1
q12 22 33 59.5t44 77t44.5 75t35.5 55.5l66 2t66 1q42 0 80 -1t53 -2q4 -19 10.5 -53.5t13 -73.5t12.5 -77.5t9 -62.5q10 1 20.5 1h24.5h25t21 -1q-7 22 -19.5 75.5t-27.5 122t-30.5 145t-29.5 145.5t-25 124t-16 81z" />
    <glyph glyph-name="Edieresis" unicode="&#xcb;" horiz-adv-x="500" 
d="M414 793q0 -20 13.5 -33.5t32.5 -13.5q20 0 33.5 13.5t13.5 33.5q0 19 -13.5 32.5t-33.5 13.5t-33 -14t-13 -32zM217 793q0 -20 13.5 -33.5t32.5 -13.5q20 0 33.5 13.5t13.5 33.5q0 19 -13.5 32.5t-33.5 13.5t-33 -14t-13 -32zM208 339h93q35 0 70.5 -1t70.5 -5
q-1 15 1.5 25.5t7.5 25.5q-9 -1 -23 -2t-30.5 -2t-33 -1.5t-29.5 -0.5h-119q12 54 26 116.5t34 143.5q22 0 52.5 -0.5t62.5 -1.5t62 -3.5t51 -6.5q-1 17 1 27.5t8 27.5q-12 -1 -28.5 -2t-35 -1.5t-38.5 -0.5h-36q-34 0 -81 1t-95 3q-11 -66 -28 -154t-37 -182t-41 -185.5
t-40 -160.5q21 1 57 1h97h45h52h54.5t52.5 -1q-1 14 0 24t6 27q-66 -8 -132.5 -10t-135.5 -2q14 75 28.5 150.5t30.5 150.5z" />
    <glyph glyph-name="Egrave" unicode="&#xc8;" horiz-adv-x="500" 
d="M400 721h28l-102 131q-17 22 -26 30.5t-23 8.5q-15 0 -24 -9t-9 -23q0 -13 8 -21.5t25 -21.5zM208 339h93q35 0 70.5 -1t70.5 -5q-1 15 1.5 25.5t7.5 25.5q-9 -1 -23 -2t-30.5 -2t-33 -1.5t-29.5 -0.5h-119q12 54 26 116.5t34 143.5q22 0 52.5 -0.5t62.5 -1.5t62 -3.5
t51 -6.5q-1 17 1 27.5t8 27.5q-12 -1 -28.5 -2t-35 -1.5t-38.5 -0.5h-36q-34 0 -81 1t-95 3q-11 -66 -28 -154t-37 -182t-41 -185.5t-40 -160.5q21 1 57 1h97h45h52h54.5t52.5 -1q-1 14 0 24t6 27q-66 -8 -132.5 -10t-135.5 -2q14 75 28.5 150.5t30.5 150.5z" />
    <glyph glyph-name="Iacute" unicode="&#xcd;" horiz-adv-x="278" 
d="M188 721h30l151 93q20 12 28.5 20t8.5 22t-10.5 23t-22.5 9q-11 0 -20.5 -7.5t-26.5 -24.5zM43 -1q10 1 22 1h23h24t20 -1q11 67 28 153.5t36.5 178.5t40.5 182.5t41 167.5q-10 -2 -22 -3t-24 -1q-11 0 -22.5 1t-20.5 3q-11 -66 -28 -154t-37 -182t-41 -185.5t-40 -160.5
z" />
    <glyph glyph-name="Icircumflex" unicode="&#xce;" horiz-adv-x="278" 
d="M288 888h-40l-159 -167h35l137 107l83 -107h32zM43 -1q10 1 22 1h23h24t20 -1q11 67 28 153.5t36.5 178.5t40.5 182.5t41 167.5q-10 -2 -22 -3t-24 -1q-11 0 -22.5 1t-20.5 3q-11 -66 -28 -154t-37 -182t-41 -185.5t-40 -160.5z" />
    <glyph glyph-name="Idieresis" unicode="&#xcf;" horiz-adv-x="278" 
d="M288 793q0 -20 13.5 -33.5t32.5 -13.5q20 0 33.5 13.5t13.5 33.5q0 19 -13.5 32.5t-33.5 13.5t-33 -14t-13 -32zM91 793q0 -20 13.5 -33.5t32.5 -13.5q20 0 33.5 13.5t13.5 33.5q0 19 -13.5 32.5t-33.5 13.5t-33 -14t-13 -32zM43 -1q10 1 22 1h23h24t20 -1
q11 67 28 153.5t36.5 178.5t40.5 182.5t41 167.5q-10 -2 -22 -3t-24 -1q-11 0 -22.5 1t-20.5 3q-11 -66 -28 -154t-37 -182t-41 -185.5t-40 -160.5z" />
    <glyph glyph-name="Igrave" unicode="&#xcc;" horiz-adv-x="278" 
d="M284 721h28l-102 131q-17 22 -26 30.5t-23 8.5q-15 0 -24 -9t-9 -23q0 -13 8 -21.5t25 -21.5zM43 -1q10 1 22 1h23h24t20 -1q11 67 28 153.5t36.5 178.5t40.5 182.5t41 167.5q-10 -2 -22 -3t-24 -1q-11 0 -22.5 1t-20.5 3q-11 -66 -28 -154t-37 -182t-41 -185.5
t-40 -160.5z" />
    <glyph glyph-name="Oacute" unicode="&#xd3;" horiz-adv-x="833" 
d="M445 721h30l151 93q20 12 28.5 20t8.5 22t-10.5 23t-22.5 9q-11 0 -20.5 -7.5t-26.5 -24.5zM147 256q0 77 23.5 150.5t67.5 130.5t106.5 91.5t140.5 34.5q48 0 92 -15t77 -45.5t53 -78.5t20 -114q0 -61 -21 -130.5t-63.5 -129t-107.5 -98.5t-154 -39q-47 0 -89.5 13.5
t-74.5 43t-51 75.5t-19 111zM61 268q0 -21 3 -48.5t12 -57t26 -57.5t45 -51q28 -24 60 -38t64 -21t60.5 -9t49.5 -2q103 0 183.5 37t135.5 97.5t84 136t29 150.5q0 67 -22.5 120.5t-64 91t-100 58t-131.5 20.5q-89 0 -168 -30t-138 -86t-93.5 -134.5t-34.5 -176.5z" />
    <glyph glyph-name="Ocircumflex" unicode="&#xd4;" horiz-adv-x="833" 
d="M565 888h-40l-159 -167h35l137 107l83 -107h32zM147 256q0 77 23.5 150.5t67.5 130.5t106.5 91.5t140.5 34.5q48 0 92 -15t77 -45.5t53 -78.5t20 -114q0 -61 -21 -130.5t-63.5 -129t-107.5 -98.5t-154 -39q-47 0 -89.5 13.5t-74.5 43t-51 75.5t-19 111zM61 268
q0 -21 3 -48.5t12 -57t26 -57.5t45 -51q28 -24 60 -38t64 -21t60.5 -9t49.5 -2q103 0 183.5 37t135.5 97.5t84 136t29 150.5q0 67 -22.5 120.5t-64 91t-100 58t-131.5 20.5q-89 0 -168 -30t-138 -86t-93.5 -134.5t-34.5 -176.5z" />
    <glyph glyph-name="apple" unicode="&#xf8ff;" horiz-adv-x="790" 
d="M408 588q-16 0 -69 15q-52 15 -89 15q-86 0 -143 -72q-56 -73 -56 -187q0 -124 74 -252q74 -127 150 -127q24 0 66 17q39 14 72 14q32 0 75 -13q44 -16 71 -16q65 0 129 95q21 32 36 63.5t25 61.5q-45 14 -79 63q-35 50 -35 112q0 57 33 103q18 26 57 60q-13 16 -26 28
t-26 22q-47 32 -107 32q-36 0 -87 -17t-71 -17zM561 790q0 4 -0.5 9t-2.5 12q-88 -20 -125.5 -74.5t-38.5 -128.5q32 3 51 8q26 9 55 36q31 32 46 69t15 69z" />
    <glyph glyph-name="Ograve" unicode="&#xd2;" horiz-adv-x="833" 
d="M561 721h28l-102 131q-17 22 -26 30.5t-23 8.5q-15 0 -24 -9t-9 -23q0 -13 8 -21.5t25 -21.5zM147 256q0 77 23.5 150.5t67.5 130.5t106.5 91.5t140.5 34.5q48 0 92 -15t77 -45.5t53 -78.5t20 -114q0 -61 -21 -130.5t-63.5 -129t-107.5 -98.5t-154 -39q-47 0 -89.5 13.5
t-74.5 43t-51 75.5t-19 111zM61 268q0 -21 3 -48.5t12 -57t26 -57.5t45 -51q28 -24 60 -38t64 -21t60.5 -9t49.5 -2q103 0 183.5 37t135.5 97.5t84 136t29 150.5q0 67 -22.5 120.5t-64 91t-100 58t-131.5 20.5q-89 0 -168 -30t-138 -86t-93.5 -134.5t-34.5 -176.5z" />
    <glyph glyph-name="Uacute" unicode="&#xda;" horiz-adv-x="778" 
d="M438 721h30l151 93q20 12 28.5 20t8.5 22t-10.5 23t-22.5 9q-11 0 -20.5 -7.5t-26.5 -24.5zM100 166q0 -49 22 -84t56.5 -57.5t77 -32t84.5 -9.5q67 0 129 21t110 69q44 44 64.5 96t37.5 123q23 99 44.5 195.5t49.5 193.5q-15 -4 -33 -4q-23 0 -35 4q-2 -11 -7.5 -45
t-14 -80.5t-19.5 -101t-22.5 -107.5t-24 -99.5t-24.5 -76.5q-15 -37 -40 -64.5t-55.5 -46t-65.5 -27.5t-70 -9q-32 0 -65 9t-60 27t-44 46t-17 67q0 12 1 24.5t3 28.5t6.5 38t11.5 53q17 80 27.5 130t19.5 87t18 69.5t22 77.5q-16 -4 -42 -4q-30 0 -47 4q-4 -28 -10 -62.5
t-13 -71t-14.5 -74l-14.5 -72.5q-4 -17 -12 -48.5t-15.5 -67t-13 -68t-5.5 -51.5z" />
    <glyph glyph-name="Ucircumflex" unicode="&#xdb;" horiz-adv-x="778" 
d="M548 888h-40l-159 -167h35l137 107l83 -107h32zM100 166q0 -49 22 -84t56.5 -57.5t77 -32t84.5 -9.5q67 0 129 21t110 69q44 44 64.5 96t37.5 123q23 99 44.5 195.5t49.5 193.5q-15 -4 -33 -4q-23 0 -35 4q-2 -11 -7.5 -45t-14 -80.5t-19.5 -101t-22.5 -107.5t-24 -99.5
t-24.5 -76.5q-15 -37 -40 -64.5t-55.5 -46t-65.5 -27.5t-70 -9q-32 0 -65 9t-60 27t-44 46t-17 67q0 12 1 24.5t3 28.5t6.5 38t11.5 53q17 80 27.5 130t19.5 87t18 69.5t22 77.5q-16 -4 -42 -4q-30 0 -47 4q-4 -28 -10 -62.5t-13 -71t-14.5 -74l-14.5 -72.5
q-4 -17 -12 -48.5t-15.5 -67t-13 -68t-5.5 -51.5z" />
    <glyph glyph-name="Ugrave" unicode="&#xd9;" horiz-adv-x="778" 
d="M559 721h28l-102 131q-17 22 -26 30.5t-23 8.5q-15 0 -24 -9t-9 -23q0 -13 8 -21.5t25 -21.5zM100 166q0 -49 22 -84t56.5 -57.5t77 -32t84.5 -9.5q67 0 129 21t110 69q44 44 64.5 96t37.5 123q23 99 44.5 195.5t49.5 193.5q-15 -4 -33 -4q-23 0 -35 4q-2 -11 -7.5 -45
t-14 -80.5t-19.5 -101t-22.5 -107.5t-24 -99.5t-24.5 -76.5q-15 -37 -40 -64.5t-55.5 -46t-65.5 -27.5t-70 -9q-32 0 -65 9t-60 27t-44 46t-17 67q0 12 1 24.5t3 28.5t6.5 38t11.5 53q17 80 27.5 130t19.5 87t18 69.5t22 77.5q-16 -4 -42 -4q-30 0 -47 4q-4 -28 -10 -62.5
t-13 -71t-14.5 -74l-14.5 -72.5q-4 -17 -12 -48.5t-15.5 -67t-13 -68t-5.5 -51.5z" />
    <glyph glyph-name="dotlessi" unicode="&#x131;" horiz-adv-x="241" 
d="M212 470q-16 -4 -41 -4q-22 0 -42 4q-1 -9 -6 -38t-12.5 -70t-17.5 -90t-21 -99t-23 -96t-23 -78q8 1 17.5 1h21.5h23t23 -1q3 27 10.5 69t17 89t20 95.5t21 91.5t19 76.5t13.5 49.5z" />
    <glyph glyph-name="circumflex" unicode="&#x2c6;" horiz-adv-x="241" 
d="M229 705h-40l-159 -167h35l137 107l83 -107h32z" />
    <glyph glyph-name="tilde" unicode="&#x2dc;" horiz-adv-x="241" 
d="M28 579h26q8 18 18.5 32.5t32.5 14.5q15 0 34 -7t39 -15q20 -9 40 -16t38 -7q21 0 36.5 9.5t27 24.5t18.5 33t10 36h-26q-5 -16 -15 -31.5t-30 -15.5q-15 0 -33.5 7t-38.5 15t-41.5 15t-42.5 7q-22 0 -37.5 -9t-26 -24t-17.5 -33t-12 -36z" />
    <glyph glyph-name="macron" unicode="&#xaf;" horiz-adv-x="241" 
d="M354 634h-296l-11 -48h297z" />
    <glyph glyph-name="breve" unicode="&#x2d8;" horiz-adv-x="241" 
d="M98 693h-26q-5 -72 28 -115.5t103 -43.5q46 0 76.5 20t49.5 47t28 53.5t12 38.5h-27q-5 -11 -12 -25.5t-24 -32.5q-26 -29 -51.5 -36t-45.5 -7q-29 0 -49.5 8.5t-33.5 22.5t-19.5 32.5t-8.5 37.5z" />
    <glyph glyph-name="dotaccent" unicode="&#x2d9;" horiz-adv-x="241" 
d="M134 610q0 -20 14 -34t34 -14t34 14t14 34t-14 34t-34 14t-34 -14t-14 -34z" />
    <glyph glyph-name="ring" unicode="&#x2da;" horiz-adv-x="241" 
d="M108 637q0 29 20.5 49t49.5 20t49 -20t20 -49t-20 -49.5t-49 -20.5t-49.5 20.5t-20.5 49.5zM74 637q0 -21 8 -40t22 -33.5t33 -22.5t41 -8q21 0 40 8t33 22t22 33t8 41q0 21 -8 40t-22.5 33t-33 22t-39.5 8q-22 0 -41 -8t-33 -22.5t-22 -33t-8 -39.5z" />
    <glyph glyph-name="cedilla" unicode="&#xb8;" horiz-adv-x="241" 
d="M112 0h-34l-61 -93l6 -7q6 2 14 4t20 2q29 0 39 -14t10 -26q0 -18 -15.5 -31t-41.5 -13q-32 0 -63 14l-18 -28q17 -7 36 -13.5t53 -6.5q24 0 45 5.5t37.5 16t26 26.5t9.5 36q0 32 -23 50t-58 18q-7 0 -12 -0.5t-10 -1.5z" />
    <glyph glyph-name="hungarumlaut" unicode="&#x2dd;" horiz-adv-x="241" 
d="M208 538h30l133 92q22 16 29 23t7 20q0 14 -9.5 23t-22.5 9q-8 0 -17.5 -5t-29.5 -28zM90 538h30l122 92q20 15 27.5 23t7.5 21q0 12 -9 21.5t-22 9.5q-14 0 -24.5 -9t-22.5 -24z" />
    <glyph glyph-name="ogonek" unicode="&#x2db;" horiz-adv-x="333" 
d="M212 -178l-9 27q-8 -4 -20.5 -9t-26.5 -5q-18 0 -32.5 9.5t-14.5 29.5q0 17 16 36.5t37.5 37.5t43.5 32.5t33 19.5h-38q-16 -6 -44 -20t-55 -32.5t-46.5 -40.5t-19.5 -46q0 -18 7.5 -30.5t19.5 -20.5t27 -11.5t31 -3.5q32 0 54.5 9.5t36.5 17.5z" />
    <glyph glyph-name="caron" unicode="&#x2c7;" horiz-adv-x="241" 
d="M87 706h-33l99 -167h38l165 167h-34l-143 -106z" />
    <glyph glyph-name="Omega" unicode="&#x2126;" horiz-adv-x="768" 
d="M330 0l-15 142q-44 15 -66 37q-36 31 -55.5 85t-19.5 126q0 125 63 195q50 56 150 56q96 0 152 -63t56 -189q0 -112 -51 -183q-31 -42 -90 -64l-16 -142h296v163h-17q-5 -19 -10 -31t-12.5 -18.5t-19 -8.5t-29.5 -2h-148v14q77 23 121 57.5t69 93.5q26 61 26 120
q0 76 -40 143q-38 69 -115 107q-73 37 -175 37q-100 0 -175.5 -37.5t-115.5 -106.5q-39 -69 -39 -143q0 -62 25.5 -120t69.5 -94q44 -35 122 -57v-14h-148q-18 0 -29.5 2t-19 8.5t-13 18.5t-10.5 31h-16v-163h295z" />
    <glyph glyph-name="currency" unicode="&#xa4;" 
d="M295 481q32 0 61 -12t50.5 -33.5t34 -50.5t12.5 -62t-12.5 -61.5t-34 -50t-50 -34t-61.5 -12.5t-61.5 12.5t-50 34t-34 50t-12.5 61.5t12.5 62t34 50t50.5 33.5t61 12.5zM131 193l-64 -64l34 -33l64 63q28 -22 61.5 -34t68.5 -12t68 12t62 34l64 -64l34 34l-64 64
q23 30 34.5 61t11.5 69q0 35 -11.5 67.5t-33.5 63.5l63 63l-34 34l-63 -63q-31 22 -62 33.5t-69 11.5q-39 0 -69.5 -11t-61.5 -34l-63 63l-34 -34l63 -63q-22 -29 -33.5 -61.5t-11.5 -69.5q0 -38 11.5 -69.5t34.5 -60.5z" />
    <glyph glyph-name="Lslash" unicode="&#x141;" horiz-adv-x="444" 
d="M207 352q7 3 26.5 12t41.5 19.5t41 19.5t24 11q-6 11 -8.5 16t-8.5 20q-25 -16 -50.5 -29.5t-56.5 -27.5q17 79 33.5 147.5t34.5 140.5q-16 -4 -45 -4q-27 0 -43 4q-13 -81 -28.5 -159t-32.5 -159q-20 -10 -35 -17t-27.5 -13t-24 -11t-24.5 -11q3 -5 8 -12t13 -26
q16 9 27 15t19.5 11.5t16.5 10t18 10.5q-7 -34 -16.5 -76.5t-19.5 -86.5t-20.5 -86t-19.5 -72q20 1 47 1h53h47h30h41h70.5t62.5 -1q0 16 1.5 28t6.5 27q-66 -10 -131.5 -12t-131.5 -3q15 79 29.5 156.5t31.5 156.5z" />
    <glyph glyph-name="lslash" unicode="&#x142;" horiz-adv-x="241" 
d="M22 353l11 -37q20 11 39 21t39 19q-20 -94 -39.5 -181.5t-44.5 -175.5q8 1 18.5 1h21.5h23.5t17.5 -1q14 85 35 185.5t42 197.5q25 11 49.5 22t49.5 22l-10 40q-20 -11 -40 -21.5t-40 -21.5q17 81 35.5 160.5t38.5 160.5q-11 -2 -23 -3t-23 -1q-23 0 -38 4
q-12 -88 -29.5 -173.5t-34.5 -173.5q-23 -12 -43 -20.5t-55 -23.5z" />
    <glyph glyph-name="onesuperior" unicode="&#xb9;" horiz-adv-x="363" 
d="M169 584l67 28q-6 -30 -17.5 -79.5t-24 -102t-24 -98.5t-17.5 -68q8 1 15.5 2t18.5 1q9 0 16 -1l14 -2q6 33 15.5 82t21.5 103.5t25.5 110.5t26.5 104l-12 8q-9 -6 -24.5 -13.5t-35 -16t-41.5 -16.5t-43 -14v-9z" />
    <glyph glyph-name="minus" unicode="&#x2212;" horiz-adv-x="593" 
d="M48 265v-48h497v48h-497z" />
    <glyph glyph-name="onequarter" unicode="&#xbc;" horiz-adv-x="874" 
d="M169 584l67 28q-6 -30 -17.5 -79.5t-24 -102t-24 -98.5t-17.5 -68q8 1 15.5 2t18.5 1q9 0 16 -1l14 -2q6 33 15.5 82t21.5 103.5t25.5 110.5t26.5 104l-12 8q-9 -6 -24.5 -13.5t-35 -16t-41.5 -16.5t-43 -14v-9zM246 -35l438 720h-44l-438 -720h44zM704 151h-129
q11 13 33.5 36.5t48 49.5t49.5 50l36 36zM819 152l-64 -1q12 58 27.5 123t31.5 122q-5 -2 -9.5 -2.5t-10.5 -0.5q-10 0 -19 3l-135 -135q-14 -14 -31 -31.5t-34.5 -35.5t-34.5 -35.5t-31 -31.5l-1 -17q23 1 40 1h31h40h30h20t26 -1q-8 -30 -15 -58t-17 -52h16h17h15h13
q2 11 4 20.5t4.5 21t5.5 27.5t8 41q18 0 29.5 -0.5t31.5 -2.5q1 17 2.5 24t9.5 21z" />
    <glyph glyph-name="onehalf" unicode="&#xbd;" horiz-adv-x="874" 
d="M169 584l67 28q-6 -30 -17.5 -79.5t-24 -102t-24 -98.5t-17.5 -68q8 1 15.5 2t18.5 1q9 0 16 -1l14 -2q6 33 15.5 82t21.5 103.5t25.5 110.5t26.5 104l-12 8q-9 -6 -24.5 -13.5t-35 -16t-41.5 -16.5t-43 -14v-9zM507 17l-1 -17h54h55h74h74q-1 13 1 21t10 25
q-26 -2 -70.5 -3t-121.5 -1q9 8 27.5 24.5t39.5 35t41 37t33 30.5q50 45 67.5 77.5t17.5 62.5q0 34 -26 60t-84 26q-26 0 -58.5 -9t-58.5 -43q5 -5 9 -10t10 -19h9q11 28 32.5 41t44.5 13q29 0 44.5 -17t15.5 -45q0 -30 -15.5 -62t-53.5 -72q-17 -18 -42.5 -42t-51 -47
t-46.5 -41t-30 -25zM247 -35l437 720h-44l-438 -720h45z" />
    <glyph glyph-name="Eth" unicode="&#xd0;" horiz-adv-x="778" 
d="M670 407q0 -41 -10 -83.5t-29 -83t-47 -76.5t-63 -63q-54 -42 -115.5 -55t-133.5 -13q-29 0 -58.5 1t-58.5 4q14 79 29.5 159t35.5 171h40h55q29 0 54 -0.5t35 -1.5q2 12 4 20.5t6 20.5q-19 -1 -43 -1.5t-50 -0.5h-50h-43q11 50 18 81.5t12.5 56t11 46.5t13.5 52
q59 3 116 3q55 0 104.5 -7.5t85.5 -33.5q38 -28 59.5 -80.5t21.5 -115.5zM756 407q0 79 -31 142t-88 95q-42 24 -97.5 30.5t-112.5 6.5q-43 0 -84.5 -2t-78.5 -2q-17 0 -31.5 1.5t-27.5 2.5q-6 -36 -11 -63.5t-10.5 -57t-12.5 -66t-18 -89.5q-23 0 -46.5 0.5t-46.5 1.5
q-2 -11 -4 -19t-7 -23q17 1 37.5 1.5t58.5 1.5q-20 -94 -40.5 -186t-45.5 -183q8 1 27.5 1h42.5q26 0 63.5 -0.5t79.5 -0.5q46 0 84 2t71 8.5t62.5 18.5t59.5 30q58 34 97.5 77t64 90t35 94t10.5 88z" />
    <glyph glyph-name="brokenbar" unicode="&#xa6;" horiz-adv-x="222" 
d="M84 675v-350h54v350h-54zM84 175v-348h54v348h-54z" />
    <glyph glyph-name="thorn" unicode="&#xfe;" horiz-adv-x="574" 
d="M143 156q0 12 3.5 37.5t11.5 56.5t22 64t35.5 60t51.5 44.5t70 17.5q21 0 42.5 -7t39 -23.5t28.5 -43t11 -65.5q0 -32 -10.5 -79t-33.5 -90.5t-60.5 -74.5t-91.5 -31q-17 0 -38 5.5t-39 20.5t-30 41t-12 67zM123 87h3q7 -29 22 -48.5t35 -30t43.5 -15.5t47.5 -5
q61 0 109.5 26.5t82.5 70.5t52.5 99.5t18.5 111.5q0 59 -19 95t-46 55.5t-56.5 26t-51.5 6.5q-36 0 -64 -10t-49 -24t-35 -29t-23 -25l-2 2q18 88 37 175.5t41 175.5q-9 -2 -19.5 -3t-20.5 -1t-21 1t-20 3q-4 -22 -13.5 -69.5t-22 -111t-27.5 -139t-31.5 -155.5t-33 -159
t-31.5 -149t-26.5 -127.5t-20.5 -94.5q17 4 39 4t34 -4q15 78 33 169.5t35 178.5z" />
    <glyph glyph-name="yacute" unicode="&#xfd;" horiz-adv-x="500" 
d="M259 538h30l151 93q20 12 28.5 20t8.5 22t-10.5 23t-22.5 9q-11 0 -20.5 -7.5t-26.5 -24.5zM244 89h-5q-32 118 -54 215t-34 166q-15 -4 -39 -4q-11 0 -22 1t-20 3q32 -120 61.5 -233.5t59.5 -236.5q-38 -61 -80 -128t-84 -133q11 4 31 4q21 0 32 -4q43 88 94.5 180
t106.5 186t112 186t112 179q-12 -4 -32 -4t-35 4l-10 -24q-5 -12 -11 -25t-18 -35.5t-31.5 -58t-50.5 -92.5q-20 -37 -41.5 -73.5t-41.5 -72.5z" />
    <glyph glyph-name="eth" unicode="&#xf0;" 
d="M111 163q0 42 11 91.5t35 92t62.5 71.5t92.5 29q32 0 57 -11t42 -30.5t25.5 -46t8.5 -57.5q0 -37 -11 -86t-36 -93t-64 -74.5t-96 -30.5q-68 0 -97.5 41t-29.5 104zM32 187q0 -32 9.5 -67.5t33 -65t64 -47.5t102.5 -18q65 0 117 24.5t89 66.5t57 95.5t20 108.5
t-12.5 101.5t-35 88t-53 79t-66.5 74.5q31 11 61.5 21t65.5 18q-5 8 -8.5 16.5t-5.5 18.5q-35 -15 -69.5 -26t-68.5 -22q-26 25 -54 47.5t-57 43.5q-13 -6 -28 -11t-32 -8q27 -20 53 -45t52 -51q-19 -6 -34 -10.5t-29.5 -8.5t-30.5 -8.5t-38 -10.5q11 -18 14 -35
q22 8 38 13.5t31 10.5t31.5 10t40.5 12q28 -29 55.5 -63.5t51.5 -76.5q-22 11 -42.5 14t-42.5 3q-64 0 -116 -25.5t-88 -67t-55.5 -93.5t-19.5 -106z" />
    <glyph glyph-name="Scaron" unicode="&#x160;" horiz-adv-x="500" 
d="M257 889h-33l99 -167h38l165 167h-34l-143 -106zM458 584h7q8 24 14.5 38.5t19.5 37.5q-17 8 -48 19t-80 11q-53 0 -97.5 -16t-77 -43.5t-50.5 -65t-18 -80.5q0 -34 10 -58.5t26.5 -43t38 -33t44.5 -28.5l40.5 -27t33.5 -28t22.5 -34.5t8.5 -46.5q0 -26 -10.5 -55
t-30.5 -53t-50.5 -39.5t-69.5 -15.5q-15 0 -35 3.5t-39.5 12t-37 22.5t-28.5 35h-7q-6 -19 -14.5 -38.5t-18.5 -38.5q32 -19 68.5 -26.5t74.5 -7.5q67 0 118 21t85.5 55.5t52.5 76.5t18 82q0 34 -9.5 57.5t-25.5 41t-37 31t-44 27.5q-24 14 -44 27t-35 28t-23 34t-8 46
q0 28 10.5 54t30 45.5t46 31.5t57.5 12q40 0 70 -19t42 -52z" />
    <glyph glyph-name="multiply" unicode="&#xd7;" horiz-adv-x="593" 
d="M260 241l-197 -197l37 -36l197 197l196 -197l37 36l-197 198l197 197l-37 36l-197 -197l-196 197l-37 -37z" />
    <glyph glyph-name="twosuperior" unicode="&#xb2;" horiz-adv-x="363" 
d="M47 284l-1 -20q23 2 54.5 2.5t54.5 0.5q37 0 74 -1.5t74 -1.5q-1 16 1 24t10 25q-26 -2 -70.5 -3t-121.5 -1q9 8 27.5 24.5t39.5 35t41 37t33 30.5q50 45 67.5 77.5t17.5 62.5q0 34 -26 60t-84 26q-26 0 -58.5 -9t-58.5 -43q5 -5 9 -10t10 -19h9q11 28 32.5 41t44.5 13
q29 0 44.5 -17t15.5 -45q0 -30 -15.5 -62t-53.5 -72q-17 -18 -42.5 -42t-51 -47t-46.5 -41t-30 -25z" />
    <glyph glyph-name="zcaron" unicode="&#x17e;" horiz-adv-x="500" 
d="M217 706h-33l99 -167h38l165 167h-34l-143 -106zM10 6v-7q45 1 99.5 1h105.5h66h32h35h35t31 -1q2 9 3.5 20.5t4.5 23.5q-27 -3 -72.5 -5t-92 -3.5t-84 -2t-49.5 -0.5l-1 4q8 10 31.5 39t56 68t71 84.5t75.5 88.5t69.5 80t54.5 60l1 14q-28 -2 -71 -3t-97 -1
q-37 0 -92.5 0.5t-115.5 3.5q-1 -18 -2.5 -28.5t-4.5 -21.5q57 6 128 9t140 3l2 -7q-9 -13 -36 -46t-63.5 -75.5t-78 -90.5t-78.5 -90t-65 -74t-38 -43z" />
    <glyph glyph-name="Yacute" unicode="&#xdd;" 
d="M302 721h30l151 93q20 12 28.5 20t8.5 22t-10.5 23t-22.5 9q-11 0 -20.5 -7.5t-26.5 -24.5zM306 332h-4q-10 24 -18 45t-21 54q-19 49 -32 82.5t-22.5 60t-17.5 51t-18 56.5q-10 -2 -19 -3t-23 -1q-31 0 -51 4q22 -50 36.5 -83t27.5 -64t28 -67.5t38 -92.5
q11 -26 21.5 -53t20.5 -54q-9 -42 -17 -77.5t-15.5 -67.5t-15.5 -62.5t-17 -60.5q9 1 19.5 1h23.5h23t19 -1q13 79 27.5 153t29.5 146q10 14 32 43.5t50.5 66.5t59.5 78.5t59.5 79.5t51.5 68.5t34 46.5q-11 -2 -20.5 -3t-16.5 -1q-20 0 -31 4q-19 -33 -43.5 -70.5t-50 -75.5
t-51 -73t-46 -63t-34.5 -46t-17 -21z" />
    <glyph glyph-name="threesuperior" unicode="&#xb3;" horiz-adv-x="363" 
d="M136 620l13 -32h8q12 22 30 34.5t44 12.5t40.5 -15t14.5 -41q0 -9 -4 -25.5t-16.5 -32.5t-35.5 -27.5t-61 -9.5l-10 -36q8 3 19 6.5t28 3.5q30 0 46 -17.5t16 -43.5q0 -21 -8.5 -41.5t-23.5 -36.5t-36 -25.5t-46 -9.5q-49 0 -84 35h-8q-4 -16 -7 -23t-9 -17
q25 -12 47 -17t50 -5q47 0 82 13.5t58 34.5t34.5 46t11.5 49q0 35 -21.5 52.5t-53.5 24.5q10 4 25 12t29.5 21t24.5 31.5t10 43.5q0 30 -24.5 53.5t-78.5 23.5q-42 0 -65 -14t-39 -28z" />
    <glyph glyph-name="Zcaron" unicode="&#x17d;" horiz-adv-x="611" 
d="M297 889h-33l99 -167h38l165 167h-34l-143 -106zM7 11v-12q60 1 124 1h124h62h57h58.5h53.5t43 -1q0 17 1.5 28t7.5 28q-73 -7 -145.5 -9.5t-147.5 -4.5q-28 -1 -56 -1.5t-56 -0.5l-6 6q16 20 45 56t65 81.5t77 97t82.5 103t79.5 99.5t69 86t51 62.5t25 29.5l2 21
q-18 -1 -41.5 -1.5t-49 -1t-52 -1t-51.5 -0.5h-59q-57 0 -114 1t-114 3q-2 -20 -4.5 -30t-7.5 -24q28 2 77 4t103.5 3.5t106 2.5t84.5 1l4 -6q-8 -11 -31 -41t-55.5 -71.5t-72 -91t-81 -101.5t-82 -102.5t-75.5 -93.5t-61.5 -74.5t-39.5 -45.5z" />
    <glyph glyph-name="threequarters" unicode="&#xbe;" horiz-adv-x="874" 
d="M134 620l13 -32h8q12 22 30 34.5t44 12.5t40.5 -15t14.5 -41q0 -9 -4 -25.5t-16.5 -32.5t-35.5 -27.5t-61 -9.5l-10 -36q8 3 19 6.5t28 3.5q30 0 46 -17.5t16 -43.5q0 -21 -8.5 -41.5t-23.5 -36.5t-36 -25.5t-46 -9.5q-49 0 -84 35h-8q-4 -16 -7 -23t-9 -17
q25 -12 47 -17t50 -5q47 0 82 13.5t58 34.5t34.5 46t11.5 49q0 35 -21.5 52.5t-53.5 24.5q10 4 25 12t29.5 21t24.5 31.5t10 43.5q0 30 -24.5 53.5t-78.5 23.5q-42 0 -65 -14t-39 -28zM252 -35l437 720h-44l-438 -720h45zM704 151h-129q11 13 34 37t48.5 50t49 49.5
l35.5 35.5zM820 152l-64 -1q11 58 26.5 123t32.5 122q-10 -3 -20 -3q-11 0 -20 3q-34 -34 -69.5 -70t-64.5 -65q-14 -14 -31 -31.5t-35 -35.5t-35 -35.5t-31 -31.5l-1 -17q23 1 40 1h31h40h30h20t26 -1q-8 -30 -15 -58t-16 -52h14.5h17.5h15h14q2 11 3.5 20.5t3.5 21
t5.5 27.5t9.5 41q17 0 29 -0.5t32 -2.5q0 17 2 24t10 21z" />
    <glyph glyph-name="scaron" unicode="&#x161;" horiz-adv-x="389" 
d="M161 706h-33l99 -167h38l165 167h-34l-143 -106zM318 390h9q2 10 6.5 24t19.5 48q-24 11 -44 15.5t-47 4.5q-50 0 -85 -15.5t-56.5 -39.5t-31.5 -52t-10 -54q0 -27 8 -45.5t21 -31.5t29.5 -22t32.5 -16q40 -18 60 -34t20 -48q0 -16 -6.5 -34.5t-19.5 -33.5t-33.5 -25
t-49.5 -10q-33 0 -60.5 15t-38.5 45h-7q-5 -11 -13 -30t-19 -37q26 -14 51.5 -20t56.5 -6q44 0 81.5 13t65 37t43.5 55.5t16 66.5q0 24 -8 41t-21 29t-29 20.5t-32 15.5q-17 7 -32.5 15t-27.5 18t-19 23.5t-7 31.5q0 17 6.5 34t19 30.5t30 22t39.5 8.5q29 0 51.5 -15.5
t30.5 -43.5z" />
    <glyph glyph-name="Thorn" unicode="&#xde;" 
d="M185 239q3 17 10 50t16 73.5t19.5 85t20.5 83.5q18 2 35.5 3.5t34.5 1.5q20 0 45 -2t47 -12.5t37 -32t15 -60.5q0 -18 -4.5 -39t-13.5 -41.5t-23.5 -40t-35.5 -34.5q-19 -15 -41.5 -22.5t-43.5 -11.5t-37.5 -4.5t-24.5 -0.5q-39 0 -56 4zM196 681q-11 -66 -28 -154
t-37 -182t-41 -185t-40 -161q10 1 20.5 1h24.5h25t19 -1q8 50 18 101t20 105q11 -1 22.5 -1.5t25.5 -0.5q57 0 108 7t89 28q31 17 53.5 40.5t37 49.5t21.5 53.5t7 52.5q0 34 -14.5 63.5t-45.5 47.5q-29 17 -62 21.5t-62 4.5q-25 0 -50 -1t-50 -3q3 13 5.5 24t5.5 23.5t7 28
t10 38.5q-17 -4 -46 -4q-27 0 -43 4z" />
    <glyph glyph-name="gravecmb" unicode="&#x300;" horiz-adv-x="0" 
d="M-13 538h28l-102 131q-17 22 -26 30.5t-23 8.5q-15 0 -24 -9t-9 -23q0 -13 8 -21.5t25 -21.5z" />
    <glyph glyph-name="acutecmb" unicode="&#x301;" horiz-adv-x="0" 
d="M-109 538h30l151 93q20 12 28.5 20t8.5 22t-10.5 23t-22.5 9q-11 0 -20.5 -7.5t-26.5 -24.5z" />
    <glyph glyph-name="circumflexcmb" unicode="&#x302;" horiz-adv-x="0" 
d="M-9 705h-40l-159 -167h35l137 107l83 -107h32z" />
    <glyph glyph-name="tildecmb" unicode="&#x303;" horiz-adv-x="0" 
d="M-210 579h26q8 18 18.5 32.5t32.5 14.5q15 0 34 -7t39 -15q20 -9 40 -16t38 -7q21 0 36.5 9.5t27 24.5t18.5 33t10 36h-26q-5 -16 -15 -31.5t-30 -15.5q-15 0 -33.5 7t-38.5 15t-41.5 15t-42.5 7q-22 0 -37.5 -9t-26 -24t-17.5 -33t-12 -36z" />
    <glyph glyph-name="macroncmb" unicode="&#x304;" horiz-adv-x="0" 
d="M116 634h-296l-11 -48h297z" />
    <glyph glyph-name="brevecmb" unicode="&#x306;" horiz-adv-x="0" 
d="M-140 693h-26q-5 -72 28 -115.5t103 -43.5q46 0 76.5 20t49.5 47t28 53.5t12 38.5h-27q-5 -11 -12 -25.5t-24 -32.5q-26 -29 -51.5 -36t-45.5 -7q-29 0 -49.5 8.5t-33.5 22.5t-19.5 32.5t-8.5 37.5z" />
    <glyph glyph-name="dotaccentcmb" unicode="&#x307;" horiz-adv-x="0" 
d="M-104 610q0 -20 14 -34t34 -14t34 14t14 34t-14 34t-34 14t-34 -14t-14 -34z" />
    <glyph glyph-name="dieresiscmb" unicode="&#x308;" horiz-adv-x="0" 
d="M-9 610q0 -20 13.5 -33.5t32.5 -13.5q20 0 33.5 13.5t13.5 33.5q0 19 -13.5 32.5t-33.5 13.5t-33 -14t-13 -32zM-206 610q0 -20 13.5 -33.5t32.5 -13.5q20 0 33.5 13.5t13.5 33.5q0 19 -13.5 32.5t-33.5 13.5t-33 -14t-13 -32z" />
    <glyph glyph-name="ringcmb" unicode="&#x30a;" horiz-adv-x="0" 
d="M-130 637q0 29 20.5 49t49.5 20t49 -20t20 -49t-20 -49.5t-49 -20.5t-49.5 20.5t-20.5 49.5zM-164 637q0 -21 8 -40t22 -33.5t33 -22.5t41 -8q21 0 40 8t33 22t22 33t8 41q0 21 -8 40t-22.5 33t-33 22t-39.5 8q-22 0 -41 -8t-33 -22.5t-22 -33t-8 -39.5z" />
    <glyph glyph-name="hungarumlautcmb" unicode="&#x30b;" horiz-adv-x="0" 
d="M-30 538h30l133 92q22 16 29 23t7 20q0 14 -9.5 23t-22.5 9q-8 0 -17.5 -5t-29.5 -28zM-148 538h30l122 92q20 15 27.5 23t7.5 21q0 12 -9 21.5t-22 9.5q-14 0 -24.5 -9t-22.5 -24z" />
    <glyph glyph-name="caroncmb" unicode="&#x30c;" horiz-adv-x="0" 
d="M-151 706h-33l99 -167h38l165 167h-34l-143 -106z" />
    <glyph glyph-name="cedillacmb" unicode="&#x327;" horiz-adv-x="0" 
d="M-126 0h-34l-61 -93l6 -7q6 2 14 4t20 2q29 0 39 -14t10 -26q0 -18 -15.5 -31t-41.5 -13q-32 0 -63 14l-18 -28q17 -7 36 -13.5t53 -6.5q24 0 45 5.5t37.5 16t26 26.5t9.5 36q0 32 -23 50t-58 18q-7 0 -12 -0.5t-10 -1.5z" />
    <glyph glyph-name="ogonekcmb" unicode="&#x328;" horiz-adv-x="0" 
d="M-118 -178l-9 27q-8 -4 -20.5 -9t-26.5 -5q-18 0 -32.5 9.5t-14.5 29.5q0 17 16 36.5t37.5 37.5t43.5 32.5t33 19.5h-38q-16 -6 -44 -20t-55 -32.5t-46.5 -40.5t-19.5 -46q0 -18 7.5 -30.5t19.5 -20.5t27 -11.5t31 -3.5q32 0 54.5 9.5t36.5 17.5z" />
    <glyph glyph-name="soliduslongoverlaycmb" unicode="&#x338;" horiz-adv-x="0" 
d="M50 709h-53l-368 -744h53z" />
    </font>
</defs>
</svg>
