<svg version="1.1" xmlns="http://www.w3.org/2000/svg" xmlns:xlink="http://www.w3.org/1999/xlink" x="0px" y="0px" viewBox="0 0 496.6 83.6" enable-background="new 0 0 496.6 83.6" xml:space="preserve">
<path fill="#fff" d="M163.7,2.9H190v80h-22.6c1.7-4.7,2.6-9.7,2.6-15c0-12.2-4.9-23.3-12.7-31.4c4.9-6.6,7.7-14.8,7.7-23.6
  C165,9.5,164.6,6.1,163.7,2.9z M125,52.9h-15v15v15h15c8.3,0,15-6.7,15-15C140,59.7,133.3,52.9,125,52.9z M135,12.9
  c0-5.5-4.5-10-10-10h-15v20h15C130.5,22.9,135,18.5,135,12.9z M0,82.9h80v-80H0V82.9z M273.2,24.9c0,3.7-1.9,6.3-5.6,7.7
  c-1.4,0.5-3.2,0.7-5.3,0.7H250V2.9h12.3c3.4,0,6,0.8,7.8,2.4c1.7,1.5,2.6,3.4,2.6,5.7c0,1.7-0.5,3.2-1.4,4.4c-1,1.2-2.3,2.1-4,2.6
  c1.7,0.3,3.1,1.1,4.3,2.3C272.7,21.5,273.2,23,273.2,24.9z M255.5,15.8h6.5c1.7,0,2.9-0.4,3.7-1.1c0.8-0.7,1.3-1.7,1.3-2.9
  c0-1.2-0.4-2.2-1.2-2.9c-0.8-0.7-2.1-1.1-3.7-1.1h-6.6V15.8z M267.2,24.6c0-1.2-0.4-2.1-1.2-2.9c-0.8-0.7-2.1-1.1-3.8-1.1h-6.6v7.9
  h6.6c1.8,0,3.1-0.4,3.9-1.1C266.8,26.7,267.2,25.8,267.2,24.6z M280.8,33.3h5.5V10.5h-5.5V33.3z M283.6,6.5c1.1,0,1.9-0.3,2.5-0.9
  c0.6-0.6,0.9-1.4,0.9-2.4c0-1-0.3-1.8-0.9-2.4c-0.6-0.6-1.4-0.9-2.5-0.9c-1.1,0-1.9,0.3-2.5,0.9c-0.6,0.6-0.9,1.4-0.9,2.4
  c0,1,0.3,1.8,0.9,2.4C281.6,6.2,282.5,6.5,283.6,6.5z M303.6,34c1.2,0,2.8-0.4,4.9-1.2l-0.8-3.9c-1.4,0.5-2.6,0.7-3.5,0.7
  c-1.8,0-2.7-0.9-2.7-2.8V14.3h6.2v-3.7h-6.2v-6H296v6h-3.2v3.7h3.2V27c0,2.2,0.7,4,2.2,5.3c0.7,0.6,1.5,1,2.4,1.3
  C301.4,33.8,302.5,34,303.6,34z M326.8,25.2c0,1.2-0.3,2.1-1,2.7c-0.6,0.7-1.7,1-3.1,1c-1.4,0-2.6-0.6-3.6-1.8
  c-1-1.2-1.5-2.9-1.5-5.2c0-2.3,0.5-4.1,1.6-5.4c0.5-0.6,1-1,1.6-1.2c0.6-0.3,1.4-0.4,2.2-0.4c0.9,0,1.6,0.3,2.3,1
  c0.7,0.7,1.1,1.5,1.4,2.5l5.6-0.1c-0.3-2.3-1.2-4.2-2.8-5.7c-0.8-0.8-1.7-1.4-2.9-1.9c-1.1-0.5-2.4-0.7-3.9-0.7c-3,0-5.6,1-7.6,3.1
  c-2.2,2.2-3.2,5.2-3.2,8.8c0,3.5,1.1,6.4,3.2,8.8c2,2.2,4.5,3.3,7.5,3.3c3,0,5.4-0.8,7.1-2.5c1.7-1.7,2.5-3.7,2.5-6.2H326.8z
   M358.9,22c0,3.8-1.1,6.8-3.2,9c-1.9,2-4.5,3-7.8,3c-3.2,0-5.9-1-7.9-3c-2.2-2.2-3.2-5.1-3.2-9c0-3.9,1.1-6.9,3.2-9.1
  c2-2,4.6-2.9,7.9-2.9c1.5,0,3,0.2,4.3,0.7c1.3,0.5,2.5,1.2,3.5,2.2C357.8,15.1,358.9,18.1,358.9,22z M353.4,22
  c0-2.4-0.5-4.2-1.4-5.4c-0.9-1.2-2.2-1.8-3.9-1.8c-1.7,0-3,0.6-4.1,1.8c-1.1,1.2-1.6,3-1.6,5.4c0,2.4,0.5,4.2,1.4,5.4
  c1,1.2,2.3,1.8,3.9,1.8c1.7,0,3-0.6,4.1-1.8C352.9,26.2,353.4,24.4,353.4,22z M365.9,33.3h5.5V10.5h-5.5V33.3z M368.7,6.5
  c1.1,0,1.9-0.3,2.5-0.9c0.6-0.6,0.9-1.4,0.9-2.4c0-1-0.3-1.8-0.9-2.4c-0.6-0.6-1.4-0.9-2.5-0.9c-1.1,0-1.9,0.3-2.5,0.9
  c-0.6,0.6-0.9,1.4-0.9,2.4c0,1,0.3,1.8,0.9,2.4C366.8,6.2,367.6,6.5,368.7,6.5z M386.4,22.8c0.1-2.6,0.6-4.6,1.7-5.9
  c1-1.3,2.3-2,3.8-2c1.5,0,2.6,0.4,3.4,1.3c0.8,0.9,1.2,2.1,1.2,3.8v13.3h5.5V20c0-3-0.7-5.5-2.1-7.3c-1.4-1.8-3.5-2.8-6.3-2.8
  c-3.3,0-5.7,1.5-7.2,4.5l-0.6-3.9h-4.8v22.7h5.5V22.8z M250,82.9h5.5V70.1H268v-4.7h-12.5v-8h13.6v-4.8H250V82.9z M290.8,62.5
  c2.2,2.2,3.2,5.2,3.2,9.1c0,3.8-1.1,6.8-3.2,9c-1.9,2-4.5,3-7.8,3c-3.2,0-5.9-1-7.9-3c-2.2-2.2-3.2-5.1-3.2-9c0-3.9,1.1-6.9,3.2-9.1
  c2-2,4.6-2.9,7.9-2.9c1.5,0,3,0.2,4.3,0.7C288.7,60.8,289.9,61.5,290.8,62.5z M288.5,71.6c0-2.4-0.5-4.2-1.4-5.4
  c-0.9-1.2-2.2-1.8-3.9-1.8c-1.7,0-3,0.6-4.1,1.8c-1.1,1.2-1.6,3-1.6,5.4c0,2.4,0.5,4.2,1.4,5.4c1,1.2,2.3,1.8,3.9,1.8
  c1.7,0,3-0.6,4.1-1.8C288,75.8,288.5,74,288.5,71.6z M315.7,71.4c-0.1,2.2-0.7,4-1.8,5.4c-0.5,0.6-1.2,1-1.9,1.3
  c-0.7,0.3-1.6,0.4-2.6,0.4c-1,0-1.9-0.4-2.6-1.1c-0.7-0.7-1.1-1.8-1.1-3.3V60.1h-5.5v14.5c0,1.6,0.2,2.9,0.7,4
  c1.3,3.2,3.9,4.7,8,4.7c3.2,0,5.5-1.5,6.9-4.5v4.1h5.5V60.1h-5.5V71.4z M342.6,59.6c-3.3,0-5.7,1.5-7.2,4.5l-0.6-3.9H330v22.7h5.5
  V72.4c0.1-2.6,0.6-4.6,1.7-5.9c1-1.3,2.3-2,3.8-2c1.5,0,2.6,0.4,3.4,1.3c0.8,0.9,1.2,2.1,1.2,3.8v13.3h5.5V69.6c0-3-0.7-5.5-2.1-7.3
  C347.5,60.5,345.4,59.6,342.6,59.6z M373.6,50.8h5.6v32.1h-4.5l-0.7-3.5c-1.4,2.8-3.6,4.2-6.5,4.2s-5.3-1.1-7.3-3.3
  c-2-2.3-3-5.2-3-8.8c0-3.6,1-6.4,2.9-8.7c1.9-2.2,4.3-3.2,7.1-3.2c2.8,0,5,1.1,6.4,3.4V50.8z M373.6,69.9c-0.1-1.6-0.6-2.9-1.6-4
  c-0.9-0.9-2.2-1.4-3.7-1.4c-1.6,0-2.9,0.6-3.9,1.9c-1,1.3-1.6,3-1.6,5.1c0,2.1,0.5,3.8,1.6,5.1c1.1,1.3,2.4,1.9,4,1.9
  c1.3,0,2.5-0.5,3.6-1.6c1.1-1.1,1.6-2.5,1.6-4.1V69.9z M406.4,64.5c0.5,1.1,0.7,2.5,0.7,4v14.5h-4.8l-0.4-3
  c-1.5,2.5-3.7,3.7-6.7,3.7c-2.9,0-5.2-0.7-6.8-2.2c-1.5-1.4-2.2-3.1-2.2-5.2c0-2.1,0.8-3.7,2.5-4.9c1.7-1.1,3.9-1.7,6.8-1.7
  c1.8,0,3.9,0.3,6.3,0.9v-2.2c0-1.6-0.3-2.8-1-3.5c-0.6-0.8-1.7-1.1-3.1-1.1c-1.5,0-2.6,0.3-3.3,0.9c-0.8,0.6-1.2,1.4-1.2,2.5h-6
  c0-2.6,0.9-4.5,2.7-5.6c1.8-1.2,4.4-1.7,7.7-1.7C402,59.6,405.1,61.2,406.4,64.5z M401.6,74c-1.8-0.5-3.6-0.7-5.1-0.7
  c-3,0-4.5,1-4.5,3c0,0.8,0.3,1.6,1,2.2c0.7,0.6,1.8,0.9,3.3,0.9c1.5,0,2.8-0.5,3.7-1.5C401,76.8,401.6,75.6,401.6,74z M423.7,79.2
  c-1.8,0-2.7-0.9-2.7-2.8V63.9h6.2v-3.7H421v-6h-5.5v6h-3.2v3.7h3.2v12.7c0,2.2,0.7,4,2.2,5.3c0.7,0.6,1.5,1,2.4,1.3
  c0.9,0.3,1.9,0.4,3.1,0.4c1.2,0,2.8-0.4,4.9-1.2l-0.8-3.9C425.8,79,424.6,79.2,423.7,79.2z M434.1,82.9h5.5V60.1h-5.5V82.9z
   M436.9,49.6c-1.1,0-1.9,0.3-2.5,0.9c-0.6,0.6-0.9,1.4-0.9,2.4c0,1,0.3,1.8,0.9,2.4c0.6,0.6,1.4,0.9,2.5,0.9c1.1,0,1.9-0.3,2.5-0.9
  c0.6-0.6,0.9-1.4,0.9-2.4c0-1-0.3-1.8-0.9-2.4C438.8,49.9,438,49.6,436.9,49.6z M465.7,62.5c2.2,2.2,3.2,5.2,3.2,9.1
  c0,3.8-1.1,6.8-3.2,9c-1.9,2-4.5,3-7.8,3c-3.2,0-5.9-1-7.9-3c-2.2-2.2-3.2-5.1-3.2-9c0-3.9,1.1-6.9,3.2-9.1c2-2,4.6-2.9,7.9-2.9
  c1.5,0,3,0.2,4.3,0.7C463.6,60.8,464.8,61.5,465.7,62.5z M463.4,71.6c0-2.4-0.5-4.2-1.4-5.4c-0.9-1.2-2.2-1.8-3.9-1.8
  c-1.7,0-3,0.6-4.1,1.8c-1.1,1.2-1.6,3-1.6,5.4c0,2.4,0.5,4.2,1.4,5.4c1,1.2,2.3,1.8,3.9,1.8c1.7,0,3-0.6,4.1-1.8
  C462.9,75.8,463.4,74,463.4,71.6z M494.5,62.3c-1.4-1.8-3.5-2.8-6.3-2.8c-3.3,0-5.7,1.5-7.2,4.5l-0.6-3.9h-4.8v22.7h5.5V72.4
  c0.1-2.6,0.6-4.6,1.7-5.9c1-1.3,2.3-2,3.8-2c1.5,0,2.6,0.4,3.4,1.3c0.8,0.9,1.2,2.1,1.2,3.8v13.3h5.5V69.6
  C496.6,66.6,495.9,64.2,494.5,62.3z"></path>
</svg>