<?xml version="1.0" encoding="UTF-8" standalone="no"?>
<svg width="1617px" height="407px" viewBox="0 0 1617 407" version="1.1" xmlns="http://www.w3.org/2000/svg" xmlns:xlink="http://www.w3.org/1999/xlink">
    <!-- Generator: Sketch 3.6.1 (26313) - http://www.bohemiancoding.com/sketch -->
    <title>Group 2</title>
    <desc>Created with Sketch.</desc>
    <defs></defs>
    <g id="Page-1" stroke="none" stroke-width="1" fill="none" fill-rule="evenodd">
        <g id="Group-2" transform="translate(1.000000, 4.000000)">
            <g id="Group-3" transform="translate(109.000000, 0.000000)" stroke="#FF9900">
                <path d="M113.970198,33.988452 L113.970198,100.957792 L57.2332491,134.446244 L0.5,100.957792 L0.5,33.988452 L57.2332491,0.5 C76.1443321,11.664078 95.0591145,22.8243741 113.970198,33.988452 L113.970198,33.988452 Z" id="Shape-Copy-9" stroke-width="7"></path>
                <path d="M195.94251,81.9072246 L195.94251,148.876565 L139.205562,182.365017 L82.4723127,148.876565 L82.4723127,81.9072246 L139.205562,48.4187726 C158.116645,59.5828505 177.031427,70.7431466 195.94251,81.9072246 L195.94251,81.9072246 Z" id="Shape-Copy-9" stroke-width="7"></path>
                <g id="Group-5" opacity="0.8" transform="translate(4.000000, 35.000000)">
                    <path d="M0.0554199219,32.0483398 L53.2631836,0.6328125 L106.4375,32.0251465" id="Path-56" transform="translate(53.246460, 16.340576) scale(1, -1) translate(-53.246460, -16.340576) "></path>
                    <path d="M53,31.730011 L53,97.3900146" id="Path-57"></path>
                </g>
                <g id="Group-6" opacity="0.8" transform="translate(86.000000, 83.000000)">
                    <path d="M0.0554199219,32.0483398 L53.2631836,0.6328125 L106.4375,32.0251465" id="Path-56" transform="translate(53.246460, 16.340576) scale(1, -1) translate(-53.246460, -16.340576) "></path>
                    <path d="M53,31.730011 L53,97.3900146" id="Path-57"></path>
                </g>
            </g>
            <g id="text" transform="translate(353.000000, 25.000000)">
                <g id="Group-4" fill="#FFFFFF">
                    <g id="Group" transform="translate(34.695699, 46.809747) rotate(-0.000000) translate(-34.695699, -46.809747) translate(0.195699, 8.309747)">
                        <path d="M42.5026583,0.244012419 C46.3429403,0.244012419 49.8872396,0.821054324 53.1318095,1.97513813 C56.3763795,3.12547492 59.1713555,4.85285361 61.5092442,7.1572742 C63.8471329,9.4616948 65.664242,12.3431573 66.9530781,15.7979147 C68.2456608,19.2526721 68.8938255,23.2882184 68.8938255,27.8933125 C68.8938255,33.6899608 68.0021307,39.4491387 66.2224879,45.1745935 C64.442845,50.9000482 61.8052269,56.0484611 58.3171269,60.623579 C54.8252802,65.19495 50.4604719,68.9157461 45.2264486,71.7784735 C39.9886786,74.6412009 33.8816936,76.0725646 26.8980003,76.0725646 C22.9902792,76.0725646 19.4309934,75.4955227 16.2163964,74.3414389 C13.005546,73.1911021 10.2330497,71.4637234 7.89141439,69.1593028 C5.55352564,66.8548822 3.74016322,63.9734197 2.4475805,60.5186623 C1.15499778,57.0639049 0.510579732,53.0283586 0.510579732,48.4232645 C0.510579732,42.6978097 1.38354139,36.9536198 3.12946472,31.1944419 C4.87164143,25.4352639 7.5092595,20.2681159 11.0348257,15.692998 C14.5603919,11.121627 18.9401867,7.40083085 24.1779566,4.53810348 C29.41198,1.6753761 35.5227116,0.244012419 42.5026583,0.244012419 L42.5026583,0.244012419 Z M27.9470529,67.274549 C32.6228304,67.274549 36.8490139,66.1392003 40.6181102,63.868503 C44.3872065,61.6015526 47.5830704,58.6488967 50.1982088,55.0217761 C52.8170937,51.3909085 54.8252802,47.3066509 56.2227682,42.7652562 C57.6165096,38.2276085 58.3171269,33.6899608 58.3171269,29.152313 C58.3171269,22.935998 56.9720915,18.0311418 54.2820208,14.4377445 C51.5956967,10.8406001 47.3208072,9.04202796 41.4536057,9.04202796 C36.7066425,9.04202796 32.4654725,10.1773766 28.7338424,12.448074 C24.9984657,14.7150243 21.8213348,17.6676803 19.2024498,21.2948009 C16.5835648,24.9256684 14.579125,29.0136731 13.181637,33.5513208 C11.784149,38.0889685 11.0872783,42.6266162 11.0872783,47.1642639 C11.0872783,53.380579 12.4323137,58.2854352 15.1186378,61.8788325 C17.8049618,65.4759769 22.083598,67.274549 27.9470529,67.274549 L27.9470529,67.274549 Z" id="Shape"></path>
                    </g>
                    <g id="Group" transform="translate(98.128031, 55.044874) rotate(-0.000000) translate(-98.128031, -55.044874) translate(72.128031, 27.044874)">
                        <path d="M10.6778572,55.7636871 L0.940400761,55.7636871 L13.5065528,3.39900777 C16.7174032,2.42103415 20.1905167,1.63790585 23.9258935,1.04212882 C27.6612702,0.450098813 30.9920123,0.15408381 33.9256131,0.15408381 C37.0690244,0.15408381 39.7740816,0.588738751 42.0407846,1.46179566 C44.3112342,2.33485257 46.1433297,3.52265961 47.5408177,5.02146975 C48.9345591,6.52402692 49.9648787,8.33758719 50.6280298,10.4696446 C51.2911809,12.597955 51.6246298,14.9211107 51.6246298,17.4316177 C51.6246298,19.0390916 51.4822584,20.7327471 51.2050087,22.5125841 C50.9240125,24.2924212 50.5755772,26.0909933 50.1559561,27.9045536 L43.453259,55.7636871 L33.7158026,55.7636871 L39.8939733,30.0028878 C40.3847801,28.0469406 40.8531071,26.0572701 41.3101944,24.0301294 C41.763535,22.0067357 41.988332,20.0882587 41.988332,18.2709514 C41.988332,15.4794175 41.2202756,13.1562618 39.6841628,11.3052313 C38.14805,9.45794777 35.2856349,8.53243251 31.0969176,8.53243251 C29.3509943,8.53243251 27.6425371,8.63734922 25.9677995,8.84718264 C24.2930619,9.05326903 22.8955739,9.33429594 21.7790822,9.68276929 L10.6778572,55.7636871 L10.6778572,55.7636871 Z" id="Shape"></path>
                    </g>
                    <g id="Group" transform="translate(166.573896, 46.809747) rotate(-0.000000) translate(-166.573896, -46.809747) translate(135.073896, 8.309747)">
                        <path d="M28.2617687,76.0725646 C23.724616,76.0725646 19.7269761,75.4093411 16.2725957,74.0828941 C12.8144686,72.7527001 9.93706704,70.8679463 7.63289784,68.4248858 C5.32872865,65.9818253 3.60153841,63.0329163 2.4475805,59.5744119 C1.29736921,56.1196545 0.72039026,52.2264952 0.72039026,47.8986809 C0.72039026,41.6149194 1.71324365,35.6084377 3.70644367,29.882983 C5.69589707,24.1575282 8.52084597,19.099044 12.185037,14.7000362 C15.8529746,10.3010285 20.2664889,6.79006572 25.4330732,4.17464202 C30.5996575,1.55547129 36.3582071,0.244012419 42.7124688,0.244012419 C48.1563027,0.244012419 52.502378,0.806066222 55.7506945,1.92267978 C58.9952645,3.03929333 61.3181668,4.08471341 62.7156547,5.06268703 L58.5269374,13.4410357 C56.9196389,12.3956157 54.7391081,11.3989069 51.9815983,10.4584035 C49.2240885,9.51415315 45.9570388,9.04202796 42.1879425,9.04202796 C37.3735402,9.04202796 33.0424515,10.1773766 29.2021695,12.448074 C25.3656341,14.7150243 22.1173175,17.6489452 19.464713,21.2460895 C16.8121085,24.8394869 14.7889355,28.8900213 13.3914475,33.3939458 C11.9939595,37.8978702 11.2970889,42.3493364 11.2970889,46.7445971 C11.2970889,60.3612872 17.1942633,67.1696323 28.9961056,67.1696323 C31.5063387,67.1696323 33.7580552,66.9935221 35.7475086,66.6450488 C37.736962,66.2965754 39.5016184,65.8956437 41.0377312,65.4422536 C42.573844,64.9851165 43.9338658,64.4792681 45.1215433,63.9209613 C46.3092208,63.3626546 47.3545268,62.8755413 48.261208,62.4558744 L49.5200712,71.25389 C48.680829,71.7410033 47.5830704,72.2655868 46.219302,72.8238936 C44.8592801,73.3822004 43.2707147,73.9067839 41.4573523,74.3938972 C39.6402433,74.8847575 37.6170703,75.2856892 35.3803402,75.6004394 C33.1473567,75.9151895 30.7757484,76.0725646 28.2617687,76.0725646 L28.2617687,76.0725646 Z" id="Shape"></path>
                    </g>
                    <g id="Group" transform="translate(219.019761, 41.815697) rotate(-0.000000) translate(-219.019761, -41.815697) translate(193.019761, 0.815697)">
                        <path d="M0.581072195,81.9928646 L19.7412694,2.398552 L29.9020935,0.723631664 L23.1993965,28.2680151 C24.8029484,27.7097083 26.4964191,27.2563182 28.2760619,26.9040978 C30.0594514,26.5556245 31.8540808,26.3832613 33.6711898,26.3832613 C36.8108545,26.3832613 39.5159117,26.8179163 41.7863613,27.6909732 C44.0568109,28.5640301 45.8889064,29.7518371 47.2826478,31.2506472 C48.6801358,32.7532044 49.7104554,34.5667647 50.3736065,36.6988221 C51.0367576,38.8271325 51.3664599,41.1502882 51.3664599,43.6607952 C51.3664599,46.733356 50.8793997,50.2255837 49.9015328,54.1337311 L43.1988357,81.9928646 L33.4613793,81.9928646 L39.63955,56.2320653 C40.1266102,54.2761181 40.5986838,52.2864476 41.0520244,50.2593069 C41.5053651,48.2359132 41.7339087,46.3174362 41.7339087,44.5001289 C41.7339087,41.708595 40.9658523,39.3854393 39.4297395,37.5344088 C37.8936267,35.6871253 35.0312116,34.76161 30.8424943,34.76161 C29.1677567,34.76161 27.4405664,34.9189851 25.6609236,35.2299882 C23.8812807,35.5447383 22.3976205,35.9831403 21.2099431,36.5414471 L10.3185287,81.9928646 L0.581072195,81.9928646 L0.581072195,81.9928646 Z" id="Shape"></path>
                    </g>
                    <g id="Group" transform="translate(278.965627, 56.044874) rotate(-0.000000) translate(-278.965627, -56.044874) translate(252.965627, 27.044874)">
                        <path d="M35.7205891,56.3931874 C35.3684071,55.6250472 35.0199718,54.7707254 34.6715364,53.826475 C34.3231011,52.8859717 34.0421048,51.8892629 33.8322943,50.8438428 C32.2961815,52.2377363 30.239289,53.6353767 27.6541236,55.0330172 C25.0727048,56.4269106 21.8955739,57.1276044 18.1264776,57.1276044 C15.054252,57.1276044 12.4203806,56.636744 10.2211166,55.6587704 C8.02185271,54.6807968 6.22347676,53.3206266 4.82598878,51.5745128 C3.42850079,49.828399 2.40192785,47.771282 1.73877672,45.395668 C1.07562558,43.0238009 0.742176708,40.4046302 0.742176708,37.5419028 C0.742176708,32.8618682 1.52896619,28.2904972 3.09879853,23.820296 C4.66863088,19.3538417 7.02525271,15.3745008 10.168664,11.8822732 C13.3083287,8.39004554 17.253516,5.56478843 22.0004792,3.39900777 C26.7474424,1.23322711 32.2961815,0.15408381 38.6504432,0.15408381 C40.5349914,0.15408381 42.7342553,0.36391723 45.248235,0.779837045 C47.7622147,1.19950388 49.9240125,1.8964506 51.7411215,2.87442422 L43.6784027,35.7620658 C43.3299673,37.3657926 43.030238,38.902073 42.7867079,40.370907 C42.5431778,41.8359939 42.4195395,43.3722743 42.4195395,44.9760011 C42.4195395,46.583475 42.5619109,48.205937 42.8391606,49.8471341 C43.1201568,51.4883312 43.607217,53.2494331 44.3040876,55.1379339 L35.7205891,56.3931874 L35.7205891,56.3931874 Z M20.115931,48.8541724 C23.0495318,48.8541724 25.5597649,48.2246721 27.6541236,46.9656716 C29.7484822,45.7104181 31.5655913,44.2453312 33.1017041,42.5704109 C33.1691432,41.3826038 33.2927815,40.1423384 33.4688725,38.8496147 C33.6412169,37.560638 33.8697605,36.2491791 34.1470101,34.9227321 L40.4300861,8.94835232 C40.0816508,8.80971239 39.5046718,8.70479568 38.7028959,8.63734922 C37.9011199,8.56615574 37.1855161,8.53243251 36.5560846,8.53243251 C32.5771778,8.53243251 28.9804258,9.30057271 25.7695754,10.8368531 C22.558725,12.3731335 19.8199483,14.4152623 17.5494987,16.9632396 C15.2827956,19.5112168 13.5368723,22.4788609 12.3154753,25.8624248 C11.0940783,29.2497357 10.4796332,32.7944217 10.4796332,36.4927357 C10.4796332,37.9615697 10.6220046,39.4453917 10.8992542,40.9442018 C11.1802505,42.446759 11.6860437,43.773206 12.4203806,44.9235428 C13.1509708,46.0776266 14.1288377,47.01813 15.3502347,47.7525469 C16.5716317,48.4869639 18.1601972,48.8541724 20.115931,48.8541724 L20.115931,48.8541724 Z" id="Shape"></path>
                    </g>
                    <g id="Group" transform="translate(322.664875, 44.562722) rotate(-0.000000) translate(-322.664875, -44.562722) translate(308.164875, 5.562722)">
                        <path d="M9.94726701,77.2458393 L0.206063912,77.2458393 L13.2967422,22.7865727 L23.0341987,22.7865727 L9.94726701,77.2458393 L9.94726701,77.2458393 Z M21.2545558,12.9431371 C19.6510039,12.9431371 18.3059686,12.4522768 17.2231964,11.4743032 C16.1404242,10.5000766 15.6009114,9.13615936 15.6009114,7.39004554 C15.6009114,5.15681843 16.2977821,3.39571651 17.6952701,2.10299277 C19.0927581,0.810269018 20.6625904,0.165780656 22.4085137,0.165780656 C24.0120656,0.165780656 25.3758341,0.67162908 26.4923258,1.68332593 C27.6088175,2.69502277 28.1670634,4.11139836 28.1670634,5.92495863 C28.1670634,8.0195458 27.4327266,9.71320127 25.9677995,11.005925 C24.5028724,12.2949017 22.9292934,12.9431371 21.2545558,12.9431371 L21.2545558,12.9431371 Z" id="Shape"></path>
                    </g>
                    <g id="Group" transform="translate(359.891191, 55.044874) rotate(-0.000000) translate(-359.891191, -55.044874) translate(334.391191, 27.044874)">
                        <path d="M9.79365573,55.7636871 L0.0561992486,55.7636871 L12.6223512,3.39900777 C15.8332016,2.42103415 19.3063152,1.63790585 23.0416919,1.04212882 C26.7770687,0.450098813 30.1115574,0.15408381 33.0414116,0.15408381 C36.1848229,0.15408381 38.8898801,0.588738751 41.1565831,1.46179566 C43.4270327,2.33485257 45.2591282,3.52265961 46.6566162,5.02146975 C48.0503576,6.52402692 49.0806771,8.33758719 49.7438283,10.4696446 C50.4069794,12.597955 50.7404283,14.9211107 50.7404283,17.4316177 C50.7404283,19.0390916 50.6018035,20.7327471 50.3208072,22.5125841 C50.039811,24.2924212 49.6913756,26.0909933 49.2755012,27.9045536 L42.5728042,55.7636871 L32.8316011,55.7636871 L39.0097718,30.0028878 C39.5005786,28.0469406 39.9726522,26.0572701 40.4259929,24.0301294 C40.8793335,22.0067357 41.1041305,20.0882587 41.1041305,18.2709514 C41.1041305,15.4794175 40.3360741,13.1562618 38.7999613,11.3052313 C37.2675951,9.45794777 34.40518,8.53243251 30.2164627,8.53243251 C28.4705394,8.53243251 26.7583356,8.63734922 25.083598,8.84718264 C23.4088604,9.05326903 22.0113724,9.33429594 20.8948806,9.68276929 L9.79365573,55.7636871 L9.79365573,55.7636871 Z" id="Shape"></path>
                    </g>
                    <g id="Group" transform="translate(452.063373, 46.809747) rotate(-0.000000) translate(-452.063373, -46.809747) translate(420.563373, 8.309747)">
                        <path d="M28.3431544,76.0725646 C23.8022551,76.0725646 19.8083618,75.4093411 16.3502347,74.0828941 C12.8958543,72.7527001 10.0147061,70.8679463 7.71053691,68.4248858 C5.40636772,65.9818253 3.67917748,63.0329163 2.52896619,59.5744119 C1.37500828,56.1196545 0.801775947,52.2264952 0.801775947,47.8986809 C0.801775947,41.6149194 1.79462934,35.6084377 3.78408274,29.882983 C5.77353614,24.1575282 8.60223166,19.099044 12.2664227,14.7000362 C15.9343603,10.3010285 20.3478746,6.79006572 25.5144589,4.17464202 C30.6810431,1.55547129 36.4395928,0.244012419 42.7938545,0.244012419 C48.2376884,0.244012419 52.5837636,0.806066222 55.8320802,1.92267978 C59.0766502,3.03929333 61.3995524,4.08471341 62.7932938,5.06268703 L58.6045765,13.4410357 C57.0010246,12.3956157 54.8167471,11.3989069 52.0592373,10.4584035 C49.3017275,9.51415315 46.0384245,9.04202796 42.2693282,9.04202796 C37.4511793,9.04202796 33.1238371,10.1773766 29.2835552,12.448074 C25.4432732,14.7150243 22.1987032,17.6489452 19.5460987,21.2460895 C16.8934941,24.8394869 14.8665746,28.8900213 13.4728332,33.3939458 C12.0753452,37.8978702 11.3784745,42.3493364 11.3784745,46.7445971 C11.3784745,60.3612872 17.275649,67.1696323 29.0737446,67.1696323 C31.5877244,67.1696323 33.8394409,66.9935221 35.8288943,66.6450488 C37.8183477,66.2965754 39.5830041,65.8956437 41.1191169,65.4422536 C42.6552297,64.9851165 44.0152515,64.4792681 45.202929,63.9209613 C46.3868598,63.3626546 47.4359125,62.8755413 48.3425937,62.4558744 L49.6014568,71.25389 C48.7622147,71.7410033 47.6607095,72.2655868 46.3006876,72.8238936 C44.9406658,73.3822004 43.3521004,73.9067839 41.5349914,74.3938972 C39.7216289,74.8847575 37.698456,75.2856892 35.4617259,75.6004394 C33.2287424,75.9151895 30.8533875,76.0725646 28.3431544,76.0725646 L28.3431544,76.0725646 Z" id="Shape"></path>
                    </g>
                    <g id="Group" transform="translate(504.262621, 55.544874) rotate(-0.000000) translate(-504.262621, -55.544874) translate(478.762621, 26.044874)">
                        <path d="M18.6288709,58.1276044 C12.9040407,58.1276044 8.4193407,56.4339489 5.17102413,53.046638 C1.92645417,49.6593271 0.300422578,45.0017745 0.300422578,39.0664864 C0.300422578,35.015952 0.87740153,30.7555841 2.03135944,26.2891299 C3.18157072,21.8189287 5.01366623,17.7009478 7.52764595,13.9314403 C10.0416257,10.1581857 13.2861956,7.05190172 17.2651024,4.60884119 C21.2440092,2.16578066 26.0621582,0.94425039 31.7158026,0.94425039 C37.4406327,0.94425039 41.9290794,2.63790585 45.1736493,6.02146975 C48.4219659,9.40878067 50.0442509,14.0700802 50.0442509,20.0053684 C50.0442509,24.0521558 49.4672719,28.3125236 48.3170606,32.7827248 C47.1631027,37.2491791 45.3310072,41.370907 42.8170275,45.1404145 C40.3030478,48.909922 37.0584778,52.016206 33.079571,54.4592665 C29.1006642,56.9060741 24.2825153,58.1276044 18.6288709,58.1276044 L18.6288709,58.1276044 Z M20.3036085,49.8541724 C23.4432732,49.8541724 26.2532356,48.9436452 28.7334958,47.1300849 C31.2100093,45.3127776 33.304368,42.9933689 35.0165718,40.1643648 C36.7250289,37.3391077 38.0363447,34.2140885 38.9430259,30.7930544 C39.8497072,27.3720202 40.3030478,24.0521558 40.3030478,20.840955 C40.3030478,17.2812809 39.5349914,14.4522768 37.9988786,12.3576896 C36.4665124,10.2631025 33.8101612,9.21768238 30.041065,9.21768238 C26.9014003,9.21768238 24.0914378,10.1244625 21.6111777,11.9417698 C19.1346641,13.7553301 17.0403054,16.0784858 15.3281017,18.9037429 C13.6196445,21.7327471 12.3083287,24.8577662 11.4016475,28.2788004 C10.4949663,31.6998345 10.0416257,35.015952 10.0416257,38.2271527 C10.0416257,41.7868268 10.8096821,44.6158309 12.3457949,46.7104181 C13.8819077,48.8050053 16.5345122,49.8541724 20.3036085,49.8541724 L20.3036085,49.8541724 Z" id="Shape"></path>
                    </g>
                    <g id="Group" transform="translate(559.961870, 55.044874) rotate(-0.000000) translate(-559.961870, -55.044874) translate(533.961870, 27.044874)">
                        <path d="M10.4459136,55.7636871 L0.708457159,55.7636871 L13.2746092,3.39900777 C16.4854596,2.42103415 19.9585731,1.63790585 23.6939499,1.04212882 C27.4293266,0.450098813 30.7638153,0.15408381 33.6936695,0.15408381 C36.8370808,0.15408381 39.542138,0.588738751 41.8125876,1.46179566 C44.0792906,2.33485257 45.9113861,3.52265961 47.3088741,5.02146975 C48.7063621,6.52402692 49.7329351,8.33758719 50.3960862,10.4696446 C51.0629839,12.597955 51.3926862,14.9211107 51.3926862,17.4316177 C51.3926862,19.0390916 51.2540614,20.7327471 50.9730651,22.5125841 C50.6958155,24.2924212 50.3473802,26.0909933 49.9277591,27.9045536 L43.2250621,55.7636871 L33.483859,55.7636871 L39.6657763,30.0028878 C40.1528365,28.0469406 40.6249102,26.0572701 41.0782508,24.0301294 C41.5315914,22.0067357 41.760135,20.0882587 41.760135,18.2709514 C41.760135,15.4794175 40.9920786,13.1562618 39.4559658,11.3052313 C37.919853,9.45794777 35.0574379,8.53243251 30.8687206,8.53243251 C29.1227973,8.53243251 27.4105935,8.63734922 25.7358559,8.84718264 C24.0611183,9.05326903 22.6636303,9.33429594 21.5471386,9.68276929 L10.4459136,55.7636871 L10.4459136,55.7636871 Z" id="Shape"></path>
                    </g>
                    <g id="Group" transform="translate(612.667885, 51.815697) rotate(-0.000000) translate(-612.667885, -51.815697) translate(581.667885, 0.815697)">
                        <path d="M33.5322184,27.5335981 L51.7520148,27.5335981 L49.8674666,35.7021134 L31.6476702,35.7021134 L23.2702356,70.2646753 C22.4309934,73.8243494 21.6966566,77.0018269 21.0709716,79.7933608 C20.44154,82.5886417 19.6922167,85.2040654 18.8192551,87.6508729 C17.9462934,90.0939335 16.7923355,92.4508124 15.361128,94.7177627 C13.9299204,96.9884601 11.9929197,99.3453391 9.55012565,101.7884 L0.96288046,100.533146 C3.05723913,97.8090587 4.69825719,95.5046381 5.88593464,93.6198843 C7.0736121,91.7351306 8.06646549,89.8129066 8.87198805,87.8607063 C9.673764,85.9047591 10.3706347,83.6527969 10.9663467,81.1048196 C11.5583121,78.5568424 12.3451016,75.255713 13.3192219,71.2051786 L24.9449732,22.6100068 C25.7842153,19.1215262 26.8482544,16.0152421 28.1370905,13.2911547 C29.4296732,10.5670673 31.0706913,8.28138181 33.0601447,6.43035128 C35.0495981,4.57932076 37.4062199,3.1666922 40.1300101,2.18871858 C42.8500538,1.21074496 46.0983703,0.723631664 49.8674666,0.723631664 C52.3102606,0.723631664 54.6331629,0.967188312 56.8324268,1.45430161 C59.0316908,1.94516193 60.6876953,2.46974548 61.804187,3.02805226 L57.9301855,10.7769007 C57.3719396,10.4958738 56.4128058,10.1474004 55.052784,9.73148062 C53.6890155,9.31181378 51.6845757,9.10198036 49.0319711,9.10198036 C46.7278019,9.10198036 44.7720681,9.43171859 43.1647696,10.0949421 C41.5612177,10.7581656 40.1974492,11.6836808 39.0809575,12.8714879 C37.9644658,14.0592949 37.0765176,15.4906586 36.4133665,17.1655789 C35.7464688,18.8404993 35.1732364,20.725253 34.6824296,22.8198402 L33.5322184,27.5335981 L33.5322184,27.5335981 Z" id="Shape"></path>
                    </g>
                    <g id="Group" transform="translate(657.873901, 56.044874) rotate(-0.000000) translate(-657.873901, -56.044874) translate(633.373901, 27.044874)">
                        <path d="M10.9374137,27.1738837 C14.9875062,27.0352437 18.6854167,26.7729519 22.0386386,26.3870083 C25.3881138,26.0048117 28.287995,25.3415883 30.730789,24.3973379 C33.173583,23.4568345 35.0768643,22.1828459 36.4368861,20.575372 C37.7969079,18.9678981 38.4787921,16.873311 38.4787921,14.2916105 C38.4787921,13.6621102 38.3551538,12.9988867 38.1116237,12.30194 C37.8680936,11.6049933 37.4484726,10.9567579 36.8565071,10.3647279 C36.2607951,9.76895088 35.4402861,9.28183758 34.39498,8.89589397 C33.3459274,8.51369738 32.0570913,8.32259909 30.5209785,8.32259909 C28.0781845,8.32259909 25.7890018,8.84718264 23.6609236,9.89260271 C21.5328453,10.9417698 19.6295641,12.3206751 17.9548265,14.0293187 C16.2800889,15.7417093 14.8488814,17.7313798 13.6612039,19.9983301 C12.4735265,22.2690275 11.5668452,24.6596296 10.9374137,27.1738837 L10.9374137,27.1738837 Z M20.8846807,57.1276044 C17.3253949,57.1276044 14.2531693,56.6217559 11.6717505,55.6063121 C9.08658507,54.5946152 6.92478731,53.2007218 5.17886399,51.4171377 C3.43294066,49.6373007 2.14035794,47.5614486 1.30486245,45.1858346 C0.465620333,42.8139675 0.0459992762,40.2997135 0.0459992762,37.6468195 C0.0459992762,32.7606985 0.780336125,28.0469406 2.24526321,23.5092929 C3.7139369,18.9678981 5.80829557,14.954834 8.5283392,11.4626063 C11.2521295,7.97412573 14.5678851,5.19757994 18.4793528,3.13671599 C22.3870739,1.07959907 26.8193213,0.0491671 31.7760951,0.0491671 C34.6385101,0.0491671 37.1000372,0.416375585 39.1606763,1.14704553 C41.2175688,1.8814625 42.8960531,2.87442422 44.1848892,4.13342474 C45.4774719,5.38867823 46.4366057,6.83877705 47.0660373,8.47997415 C47.6954689,10.1211713 48.0101847,11.8110797 48.0101847,13.5571935 C48.0101847,16.8395877 47.4144726,19.6161335 46.2267952,21.8830839 C45.0428644,24.1537812 43.4692854,26.0572701 41.5172982,27.5935505 C39.5615643,29.1298309 37.2761282,30.3138909 34.6572432,31.1532246 C32.0383582,31.9925583 29.314568,32.6557818 26.4896191,33.1428951 C23.6609236,33.6300084 20.7985085,33.9634936 17.9023739,34.1396038 C15.0024926,34.311967 12.2637159,34.469342 9.68229711,34.607982 C9.61111139,35.1662887 9.57739185,35.6234258 9.57739185,35.9718992 L9.57739185,36.8074859 C9.57739185,38.4149597 9.76846929,39.932505 10.1506242,41.3638687 C10.5365257,42.7952324 11.2521295,44.0542329 12.2974355,45.1333762 C13.3464881,46.2162665 14.7964287,47.0705883 16.6435107,47.7000886 C18.4943393,48.3295888 20.9221468,48.644339 23.9231867,48.644339 C25.249489,48.644339 26.6282439,48.5206871 28.0594514,48.2771305 C29.4906589,48.0335738 30.8506808,47.7188237 32.1432635,47.3328801 C33.4358462,46.9506835 34.5860575,46.5647399 35.597644,46.1825433 C36.6129771,45.7965997 37.3285808,45.4331382 37.7444553,45.0809178 L38.5836974,53.3543498 C37.1862094,54.12249 34.9344928,54.9430886 31.8285477,55.8161455 C28.7226025,56.6892024 25.073398,57.1276044 20.8846807,57.1276044 L20.8846807,57.1276044 Z" id="Shape"></path>
                    </g>
                    <g id="Group" transform="translate(706.326533, 55.044874) rotate(-0.000000) translate(-706.326533, -55.044874) translate(684.826533, 27.044874)">
                        <path d="M31.5322184,0.15408381 C32.3714605,0.15408381 33.3118612,0.187807038 34.3609139,0.25900052 C35.4062199,0.326446976 36.4365395,0.450098813 37.4481259,0.62246198 C38.4597124,0.798572171 39.3851267,0.974682363 40.2243688,1.14704553 C41.0598643,1.32315572 41.6892959,1.51425401 42.1089169,1.72408743 L39.2802214,10.2073528 C37.8864801,9.64904606 36.2791816,9.22937923 34.4658191,8.94835232 C32.6487101,8.67107245 30.9027868,8.53243251 29.2280492,8.53243251 C27.7631221,8.53243251 26.3131815,8.63734922 24.8819739,8.84718264 C23.4507664,9.05326903 22.2106363,9.33429594 21.1653303,9.68276929 L10.0641054,55.7636871 L0.326648894,55.7636871 L12.8928009,3.39900777 C15.6840302,2.42103415 18.6850701,1.63790585 21.8996671,1.04212882 C25.1105175,0.450098813 28.3213679,0.15408381 31.5322184,0.15408381 L31.5322184,0.15408381 Z" id="Shape"></path>
                    </g>
                    <g id="Group" transform="translate(750.539315, 56.044874) rotate(-0.000000) translate(-750.539315, -56.044874) translate(726.039315, 27.044874)">
                        <path d="M10.9483069,27.1738837 C14.9983994,27.0352437 18.7000566,26.7729519 22.0495318,26.3870083 C25.399007,26.0048117 28.2988882,25.3415883 30.7416823,24.3973379 C33.1844763,23.4568345 35.0877575,22.1828459 36.4477793,20.575372 C37.8078011,18.9678981 38.4896853,16.873311 38.4896853,14.2916105 C38.4896853,13.6621102 38.3697936,12.9988867 38.1225169,12.30194 C37.8789868,11.6049933 37.4593658,10.9567579 36.8674004,10.3647279 C36.2754349,9.76895088 35.4549259,9.28183758 34.4058733,8.89589397 C33.3605672,8.51369738 32.0679845,8.32259909 30.5318717,8.32259909 C28.0890777,8.32259909 25.8036416,8.84718264 23.6718168,9.89260271 C21.5437386,10.9417698 19.6404573,12.3206751 17.9657197,14.0293187 C16.2909821,15.7417093 14.8597746,17.7313798 13.6720971,19.9983301 C12.4844197,22.2690275 11.5777385,24.6596296 10.9483069,27.1738837 L10.9483069,27.1738837 Z M20.8955739,57.1276044 C17.3362881,57.1276044 14.2640626,56.6217559 11.6826437,55.6063121 C9.0974783,54.5946152 6.93568053,53.2007218 5.18975721,51.4171377 C3.44383388,49.6373007 2.15125117,47.5614486 1.31575567,45.1858346 C0.476513557,42.8139675 0.0568925002,40.2997135 0.0568925002,37.6468195 C0.0568925002,32.7606985 0.791229349,28.0469406 2.25615643,23.5092929 C3.72483013,18.9678981 5.81918879,14.954834 8.53923243,11.4626063 C11.2630227,7.97412573 14.5787783,5.19757994 18.4902461,3.13671599 C22.3979671,1.07959907 26.8302146,0.0491671 31.7869883,0.0491671 C34.6494033,0.0491671 37.1109304,0.416375585 39.1715696,1.14704553 C41.2322087,1.8814625 42.9069463,2.87442422 44.1957824,4.13342474 C45.4883651,5.38867823 46.4474989,6.83877705 47.0769305,8.47997415 C47.7063621,10.1211713 48.0210779,11.8110797 48.0210779,13.5571935 C48.0210779,16.8395877 47.4253659,19.6161335 46.2376884,21.8830839 C45.0537576,24.1537812 43.4801786,26.0572701 41.5281914,27.5935505 C39.5724575,29.1298309 37.2870214,30.3138909 34.6681364,31.1532246 C32.0492514,31.9925583 29.3254612,32.6557818 26.5005123,33.1428951 C23.6718168,33.6300084 20.8094017,33.9634936 17.9132671,34.1396038 C15.0171325,34.311967 12.2746092,34.469342 9.69319033,34.607982 C9.62200462,35.1662887 9.58828507,35.6234258 9.58828507,35.9718992 L9.58828507,36.8074859 C9.58828507,38.4149597 9.77936251,39.932505 10.165264,41.3638687 C10.5474189,42.7952324 11.2630227,44.0542329 12.3120753,45.1333762 C13.3573813,46.2162665 14.807322,47.0705883 16.6544039,47.7000886 C18.5052325,48.3295888 20.9330401,48.644339 23.9340799,48.644339 C25.2603822,48.644339 26.6391371,48.5206871 28.0703446,48.2771305 C29.5015522,48.0335738 30.861574,47.7188237 32.1541567,47.3328801 C33.4467394,46.9506835 34.5969507,46.5647399 35.6122838,46.1825433 C36.6238703,45.7965997 37.339474,45.4331382 37.7590951,45.0809178 L38.5945906,53.3543498 C37.1971026,54.12249 34.9491327,54.9430886 31.8394409,55.8161455 C28.7334958,56.6892024 25.0880378,57.1276044 20.8955739,57.1276044 L20.8955739,57.1276044 Z" id="Shape"></path>
                    </g>
                    <g id="Group" transform="translate(803.491947, 55.044874) rotate(-0.000000) translate(-803.491947, -55.044874) translate(777.491947, 27.044874)">
                        <path d="M10.0749986,55.7636871 L0.337542118,55.7636871 L12.9036941,3.39900777 C16.1145445,2.42103415 19.5876581,1.63790585 23.3230348,1.04212882 C27.0584115,0.450098813 30.3929003,0.15408381 33.3227545,0.15408381 C36.4661658,0.15408381 39.1712229,0.588738751 41.437926,1.46179566 C43.7083756,2.33485257 45.5404711,3.52265961 46.9379591,5.02146975 C48.3317005,6.52402692 49.36202,8.33758719 50.0251711,10.4696446 C50.6883223,12.597955 51.0217712,14.9211107 51.0217712,17.4316177 C51.0217712,19.0390916 50.8831463,20.7327471 50.6021501,22.5125841 C50.3249005,24.2924212 49.9727185,26.0909933 49.5568441,27.9045536 L42.854147,55.7636871 L33.1129439,55.7636871 L39.2911147,30.0028878 C39.7819214,28.0469406 40.2539951,26.0572701 40.7073357,24.0301294 C41.1606763,22.0067357 41.3854733,20.0882587 41.3854733,18.2709514 C41.3854733,15.4794175 40.6174169,13.1562618 39.0850507,11.3052313 C37.5489379,9.45794777 34.6865229,8.53243251 30.4978056,8.53243251 C28.7518822,8.53243251 27.0396785,8.63734922 25.3649408,8.84718264 C23.6902032,9.05326903 22.2927153,9.33429594 21.1762235,9.68276929 L10.0749986,55.7636871 L10.0749986,55.7636871 Z" id="Shape"></path>
                    </g>
                    <g id="Group" transform="translate(860.437812, 55.544874) rotate(-0.000000) translate(-860.437812, -55.544874) translate(837.437812, 26.044874)">
                        <path d="M0.603551894,37.2866493 C0.603551894,32.5354212 1.31915566,27.9640502 2.75036319,23.5650425 C4.18157072,19.1660347 6.29466247,15.2916105 9.08589182,11.9417698 C11.8808678,8.58818212 15.3015287,5.91655304 19.3478746,3.92688257 C23.3979671,1.93721211 28.0400251,0.94425039 33.2777951,0.94425039 C35.5819642,0.94425039 37.7812282,1.10162545 39.8755868,1.41637559 C41.9699455,1.72737869 43.9593989,2.33814382 45.843947,3.24867098 L42.179756,11.4171863 C41.0632643,10.787686 39.7519485,10.3005727 38.2533019,9.94835232 C36.7509086,9.59987897 34.8139078,9.4275158 32.4385529,9.4275158 C29.017892,9.4275158 25.9456664,10.1769209 23.2256228,11.679478 C20.5018325,13.1782882 18.1789303,15.1679586 16.2606626,17.6484894 C14.3423949,20.1252732 12.8737212,22.9880006 11.8621347,26.2366716 C10.8505482,29.4815955 10.344755,32.8501713 10.344755,36.3423989 C10.344755,38.1559592 10.5358324,39.8683498 10.9179873,41.4758237 C11.3038888,43.0795505 11.9857731,44.4921791 12.9598934,45.7174564 C13.9377603,46.9389866 15.2490761,47.8982251 16.8900941,48.5951719 C18.5311122,49.2958656 20.6067378,49.644339 23.1207175,49.644339 C24.3758341,49.644339 25.7021363,49.5206871 27.0996243,49.2771305 C28.4933657,49.0335738 29.7859484,48.7338118 30.9736259,48.3853384 C32.1613033,48.0368651 33.2253424,47.6696566 34.1657432,47.28746 C35.1098906,46.9015164 35.7917748,46.5343079 36.2076492,46.1858346 L37.0468913,54.4592665 C35.7205891,55.2986002 33.6599499,56.1191988 30.8687206,56.9210622 C28.0774912,57.7266727 24.9003604,58.1276044 21.3410746,58.1276044 C17.9878528,58.1276044 15.0205325,57.6217559 12.4391137,56.6063121 C9.85394822,55.5946152 7.69215046,54.1632515 5.94622713,52.312221 C4.20030381,50.4649375 2.87400154,48.2654336 1.96732033,45.7174564 C1.0568925,43.1657321 0.603551894,40.3554631 0.603551894,37.2866493 L0.603551894,37.2866493 Z" id="Shape"></path>
                    </g>
                    <g id="Group" transform="translate(907.897211, 56.044874) rotate(-0.000000) translate(-907.897211, -56.044874) translate(883.397211, 27.044874)">
                        <path d="M11.7163633,27.1738837 C15.7664558,27.0352437 19.468113,26.7729519 22.8175882,26.3870083 C26.1670634,26.0048117 29.0669446,25.3415883 31.5097387,24.3973379 C33.9525327,23.4568345 35.8558139,22.1828459 37.2158357,20.575372 C38.5796041,18.9678981 39.2577417,16.873311 39.2577417,14.2916105 C39.2577417,13.6621102 39.13785,12.9988867 38.8905733,12.30194 C38.6470432,11.6049933 38.2274222,10.9567579 37.6354568,10.3647279 C37.0434913,9.76895088 36.2229823,9.28183758 35.1739297,8.89589397 C34.1286236,8.51369738 32.8360409,8.32259909 31.2999281,8.32259909 C28.8571341,8.32259909 26.571698,8.84718264 24.4398732,9.89260271 C22.311795,10.9417698 20.4085137,12.3206751 18.7337761,14.0293187 C17.0590385,15.7417093 15.627831,17.7313798 14.4401535,19.9983301 C13.2524761,22.2690275 12.3457949,24.6596296 11.7163633,27.1738837 L11.7163633,27.1738837 Z M21.6673769,57.1276044 C18.1043445,57.1276044 15.032119,56.6217559 12.4507001,55.6063121 C9.86928131,54.5946152 7.70373693,53.2007218 5.95781361,51.4171377 C4.21189028,49.6373007 2.91930756,47.5614486 2.08381207,45.1858346 C1.24456995,42.8139675 0.824948898,40.2997135 0.824948898,37.6468195 C0.824948898,32.7606985 1.55928575,28.0469406 3.02421283,23.5092929 C4.49288653,18.9678981 6.58724519,14.954834 9.30728883,11.4626063 C12.0310791,7.97412573 15.3468347,5.19757994 19.2583025,3.13671599 C23.1660235,1.07959907 27.5982709,0.0491671 32.5550447,0.0491671 C35.4174597,0.0491671 37.8789868,0.416375585 39.939626,1.14704553 C42.0002651,1.8814625 43.6750027,2.87442422 44.9675854,4.13342474 C46.2564215,5.38867823 47.219302,6.83877705 47.8449869,8.47997415 C48.4744185,10.1211713 48.7891343,11.8110797 48.7891343,13.5571935 C48.7891343,16.8395877 48.1934223,19.6161335 47.0094914,21.8830839 C45.821814,24.1537812 44.2519816,26.0572701 42.2962478,27.5935505 C40.3405139,29.1298309 38.0550778,30.3138909 35.4361928,31.1532246 C32.8173078,31.9925583 30.0972642,32.6557818 27.2685687,33.1428951 C24.4398732,33.6300084 21.5774581,33.9634936 18.6813235,34.1396038 C15.7851889,34.311967 13.0426656,34.469342 10.4612467,34.607982 C10.390061,35.1662887 10.3563415,35.6234258 10.3563415,35.9718992 L10.3563415,36.8074859 C10.3563415,38.4149597 10.5474189,39.932505 10.9333204,41.3638687 C11.3154753,42.7952324 12.0310791,44.0542329 13.0801317,45.1333762 C14.1254377,46.2162665 15.5753784,47.0705883 17.4262069,47.7000886 C19.2732889,48.3295888 21.7010965,48.644339 24.7021363,48.644339 C26.0284386,48.644339 27.4071935,48.5206871 28.838401,48.2771305 C30.2696086,48.0335738 31.633377,47.7188237 32.9222131,47.3328801 C34.2147958,46.9506835 35.3650071,46.5647399 36.3803402,46.1825433 C37.3919267,45.7965997 38.1075304,45.4331382 38.5271515,45.0809178 L39.362647,53.3543498 C37.9689056,54.12249 35.7171891,54.9430886 32.6074973,55.8161455 C29.5015522,56.6892024 25.8560942,57.1276044 21.6673769,57.1276044 L21.6673769,57.1276044 Z" id="Shape"></path>
                    </g>
                    <g id="Group" transform="translate(954.603227, 55.544874) rotate(-0.000000) translate(-954.603227, -55.544874) translate(931.103227, 26.044874)">
                        <path d="M18.4674197,49.9590891 C19.9323468,49.9590891 21.416007,49.8167021 22.9146536,49.5394222 C24.4170469,49.2583953 25.7433491,48.8050053 26.897307,48.175505 C28.0475183,47.5497518 28.9916657,46.691683 29.7222559,45.6125397 C30.4565928,44.5296493 30.8237612,43.1844672 30.8237612,41.5769934 C30.8237612,40.5315733 30.6476702,39.606058 30.2992349,38.8041946 C29.9507995,38.0023312 29.3925537,37.2491791 28.6244973,36.5522324 C27.8564409,35.8552856 26.897307,35.173327 25.7433491,34.5101035 C24.5931378,33.8468801 23.2143829,33.097475 21.6070844,32.2581413 C19.9997859,31.4900011 18.5348588,30.7218609 17.2085566,29.9537207 C15.8822543,29.1855805 14.7133099,28.2788004 13.7017234,27.2296333 C12.690137,26.1842132 11.9033475,24.9439478 11.3451016,23.5125841 C10.7868557,22.0812204 10.5058595,20.3538417 10.5058595,18.330448 C10.5058595,13.0921066 12.3904076,8.88419712 16.1632505,5.70671962 C19.9323468,2.53298914 25.4136469,0.94425039 32.6034041,0.94425039 C35.9528793,0.94425039 38.9052131,1.27398862 41.4529124,1.93721211 C44.0006117,2.6004356 45.7615215,3.21120073 46.7393884,3.76950751 L43.0751974,11.7319364 C42.0973305,11.1736296 40.5274981,10.5778526 38.3619537,9.94835232 C36.1964094,9.32259909 33.7910815,9.00784896 31.138477,9.00784896 C29.8084281,9.00784896 28.4821258,9.1464889 27.1558236,9.4275158 C25.8295213,9.70479568 24.6268574,10.1769209 23.5440852,10.8401444 C22.461313,11.5033678 21.5883513,12.3764248 20.9252002,13.4593151 C20.2620491,14.5422054 19.9323468,15.8499173 19.9323468,17.3861977 C19.9323468,19.2709514 20.662937,20.8259669 22.1316107,22.0474972 C23.5965378,23.2690275 25.7958018,24.5430161 28.7294025,25.8694631 C30.542765,26.7087967 32.1650499,27.5631185 33.5962575,28.4361754 C35.027465,29.3092323 36.248862,30.287206 37.2641951,31.3663493 C38.2757816,32.4492396 39.043838,33.7232282 39.5683643,35.1920622 C40.089144,36.6571491 40.3514071,38.4032629 40.3514071,40.4266566 C40.3514071,43.3605774 39.7931613,45.9422779 38.6766695,48.175505 C37.5601778,50.4124792 36.0053319,52.2597627 34.0158785,53.7285966 C32.0264251,55.1936835 29.6698033,56.295309 26.9497597,57.0259789 C24.2259694,57.7603959 21.2586491,58.1276044 18.0477987,58.1276044 C15.6724438,58.1276044 13.5256325,57.9702293 11.6073648,57.6554792 C9.68535047,57.340729 8.01061286,56.9735206 6.57940533,56.5538537 C5.1481978,56.1379339 3.96052035,55.6995319 3.02011959,55.2461419 C2.07597221,54.7927518 1.36036844,54.4255433 0.873308288,54.1482634 L4.64240456,46.1858346 C5.13321133,46.4668615 5.81134893,46.8153348 6.6843106,47.2350017 C7.55727226,47.6546685 8.6063249,48.0705883 9.8277219,48.4902551 C11.0491189,48.909922 12.3904076,49.2583953 13.8590813,49.5394222 C15.3240084,49.8167021 16.8601212,49.9590891 18.4674197,49.9590891 L18.4674197,49.9590891 Z" id="Shape"></path>
                    </g>
                </g>
                <g id="Group" transform="translate(787.944463, 134.974216) rotate(-0.000000) translate(-787.944463, -134.974216) translate(605.269460, 120.766160)" fill="#0276DD">
                    <path d="M0.561556491,27.2645825 L0.561556491,1.05545557 L18.1105351,1.05545557 L18.1105351,6.00933103 L6.46128252,6.00933103 L6.46128252,11.4936406 L16.8250444,11.4936406 L16.8250444,16.447516 L6.46128252,16.447516 L6.46128252,27.2645825 L0.561556491,27.2645825 L0.561556491,27.2645825 Z" id="Shape"></path>
                    <path d="M32.52021,27.7950166 C30.6799285,27.7950166 29.0913325,27.5365653 27.7557753,27.0196627 C26.4188649,26.5027601 25.3160491,25.7842384 24.4459749,24.8627445 C23.5759006,23.9426037 22.9331552,22.8465537 22.5163856,21.5732413 C22.1009691,20.2999289 21.8925843,18.8940079 21.8925843,17.3554784 L21.8925843,1.05545557 L27.7923103,1.05545557 L27.7923103,16.8642857 C27.7923103,17.9238007 27.9127405,18.8249974 28.1522477,19.5678757 C28.3917549,20.3121072 28.7192168,20.9169644 29.1359864,21.3838005 C29.5514029,21.8506367 30.0561272,22.1848643 30.6488061,22.3864833 C31.241485,22.5881024 31.8896429,22.6882354 32.5959863,22.6882354 C34.0330296,22.6882354 35.1994434,22.2471091 36.0952275,21.3648565 C36.9896584,20.4826039 37.4375504,18.9819625 37.4375504,16.8642857 L37.4375504,1.05545557 L43.3372765,1.05545557 L43.3372765,17.3554784 C43.3372765,18.8940079 43.1234791,20.3053415 42.6945311,21.5921854 C42.2655831,22.8776761 41.6106594,23.9804919 40.7284068,24.9006326 C39.844801,25.8221265 38.7230412,26.5338825 37.3617741,27.0386067 C36.0005071,27.5419779 34.3862013,27.7950166 32.52021,27.7950166 L32.52021,27.7950166 Z" id="Shape"></path>
                    <path d="M68.4503534,1.05545557 L68.4503534,6.08510732 L60.5466149,6.08510732 L60.5466149,27.2645825 L54.6455357,27.2645825 L54.6455357,6.08510732 L46.7417973,6.08510732 L46.7417973,1.05545557 L68.4503534,1.05545557 L68.4503534,1.05545557 Z" id="Shape"></path>
                    <path d="M82.4824999,27.7950166 C80.6408652,27.7950166 79.0536224,27.5365653 77.716712,27.0196627 C76.3798016,26.5027601 75.2769859,25.7842384 74.4069116,24.8627445 C73.5368373,23.9426037 72.894092,22.8465537 72.4786755,21.5732413 C72.0619058,20.2999289 71.8548742,18.8940079 71.8548742,17.3554784 L71.8548742,1.05545557 L77.7546002,1.05545557 L77.7546002,16.8642857 C77.7546002,17.9238007 77.8736772,18.8249974 78.1131845,19.5678757 C78.3526917,20.3121072 78.6815067,20.9169644 79.0969232,21.3838005 C79.5136928,21.8506367 80.0170639,22.1848643 80.6097428,22.3864833 C81.2024217,22.5881024 81.8519328,22.6882354 82.5582762,22.6882354 C83.9953196,22.6882354 85.1617333,22.2471091 86.0561642,21.3648565 C86.9519483,20.4826039 87.3984872,18.9819625 87.3984872,16.8642857 L87.3984872,1.05545557 L93.2995664,1.05545557 L93.2995664,17.3554784 C93.2995664,18.8940079 93.0844158,20.3053415 92.6554678,21.5921854 C92.227873,22.8776761 91.5715962,23.9804919 90.6893436,24.9006326 C89.8070909,25.8221265 88.6853311,26.5338825 87.3227109,27.0386067 C85.9614438,27.5419779 84.3484912,27.7950166 82.4824999,27.7950166 L82.4824999,27.7950166 Z" id="Shape"></path>
                    <path d="M106.649726,0.752350383 C110.583328,0.752350383 113.596789,1.45192799 115.688756,2.8510832 C117.782076,4.2502384 118.82806,6.42610066 118.82806,9.37596368 C118.82806,11.2162452 118.405878,12.7101208 117.561513,13.8575904 C116.717149,15.0050601 115.499315,15.9062567 113.912072,16.5611805 C114.441153,17.2174573 114.995944,17.9671014 115.575092,18.8114659 C116.155592,19.6571835 116.729327,20.5394361 117.296296,21.4595768 C117.863265,22.3797176 118.412643,23.3377465 118.941724,24.3336636 C119.470805,25.3295806 119.963351,26.3065536 120.416656,27.2645825 L113.798408,27.2645825 C113.319394,26.4080397 112.833613,25.5379654 112.342421,24.6557128 C111.849875,23.7734602 111.346504,22.9155643 110.829601,22.0833781 C110.312698,21.251192 109.801208,20.4636598 109.297837,19.7194283 C108.793113,18.9765499 108.288389,18.301329 107.785018,17.6964718 L104.87169,17.6964718 L104.87169,27.2645825 L98.9719635,27.2645825 L98.9719635,1.43298391 C100.257454,1.18129835 101.587599,1.00403594 102.962397,0.903902978 C104.335843,0.802416865 105.565855,0.752350383 106.649726,0.752350383 L106.649726,0.752350383 Z M106.99072,5.78200213 C106.561772,5.78200213 106.177478,5.79553362 105.836484,5.81989028 C105.496844,5.8456001 105.174795,5.87130991 104.87169,5.89566658 L104.87169,13.0064602 L106.536062,13.0064602 C108.755225,13.0064602 110.343821,12.7290648 111.30185,12.1742741 C112.259879,11.6194833 112.738893,10.6736328 112.738893,9.33807553 C112.738893,8.05123162 112.253113,7.1378566 111.282906,6.59524418 C110.312698,6.05398492 108.881068,5.78200213 106.99072,5.78200213 L106.99072,5.78200213 Z" id="Shape"></path>
                    <path d="M124.198705,27.2645825 L124.198705,1.05545557 L141.899236,1.05545557 L141.899236,6.00933103 L130.098431,6.00933103 L130.098431,11.1526472 L140.575857,11.1526472 L140.575857,15.9942114 L130.098431,15.9942114 L130.098431,22.310707 L142.76931,22.310707 L142.76931,27.2645825 L124.198705,27.2645825 L124.198705,27.2645825 Z" id="Shape"></path>
                    <path d="M161.150475,14.1417515 C161.150475,15.4272423 161.30744,16.5868903 161.622724,17.6206955 C161.938007,18.6545007 162.391312,19.543519 162.983991,20.2863974 C163.57667,21.0306289 164.301957,21.6043637 165.1585,22.0076018 C166.016396,22.41084 167.000135,22.6124591 168.108363,22.6124591 C169.193588,22.6124591 170.170561,22.41084 171.040635,22.0076018 C171.909356,21.6043637 172.641409,21.0306289 173.234088,20.2863974 C173.826767,19.543519 174.280072,18.6545007 174.595355,17.6206955 C174.910639,16.5868903 175.067604,15.4272423 175.067604,14.1417515 C175.067604,12.8549076 174.910639,11.6884939 174.595355,10.6425104 C174.280072,9.59652683 173.826767,8.70074274 173.234088,7.95786439 C172.641409,7.2136329 171.909356,6.63989807 171.040635,6.23665992 C170.170561,5.83342176 169.193588,5.63180269 168.108363,5.63180269 C167.000135,5.63180269 166.016396,5.83883436 165.1585,6.25560399 C164.301957,6.67102048 163.57667,7.25152105 162.983991,7.99575254 C162.391312,8.73863089 161.938007,9.63441498 161.622724,10.6803985 C161.30744,11.726382 161.150475,12.8806174 161.150475,14.1417515 L161.150475,14.1417515 Z M181.156771,14.1417515 C181.156771,16.3852712 180.822543,18.3581612 180.155441,20.0604216 C179.486986,21.762682 178.572258,23.1861939 177.41261,24.3336636 C176.252962,25.4811332 174.872751,26.3444417 173.271976,26.9249423 C171.669849,27.5040897 169.949998,27.7950166 168.108363,27.7950166 C166.318148,27.7950166 164.629419,27.5040897 163.040823,26.9249423 C161.452227,26.3444417 160.06525,25.4811332 158.881246,24.3336636 C157.695888,23.1861939 156.762216,21.762682 156.081582,20.0604216 C155.400949,18.3581612 155.061308,16.3852712 155.061308,14.1417515 C155.061308,11.8968787 155.413127,9.92398868 156.11947,8.22172829 C156.825814,6.52082103 157.777077,5.08919027 158.974613,3.92954229 C160.173502,2.76989431 161.559126,1.89982003 163.135543,1.31931947 C164.711961,0.740172049 166.369568,0.449245193 168.108363,0.449245193 C169.898578,0.449245193 171.58866,0.740172049 173.177256,1.31931947 C174.765852,1.89982003 176.152829,2.76989431 177.336834,3.92954229 C178.522191,5.08919027 179.455864,6.52082103 180.136497,8.22172829 C180.817131,9.92398868 181.156771,11.8968787 181.156771,14.1417515 L181.156771,14.1417515 Z" id="Shape"></path>
                    <path d="M186.074111,27.2645825 L186.074111,1.05545557 L203.62309,1.05545557 L203.62309,6.00933103 L191.973837,6.00933103 L191.973837,11.4936406 L202.337599,11.4936406 L202.337599,16.447516 L191.973837,16.447516 L191.973837,27.2645825 L186.074111,27.2645825 L186.074111,27.2645825 Z" id="Shape"></path>
                    <path d="M225.596863,27.6055758 C224.15982,27.6055758 222.729542,27.5609219 221.304677,27.4729673 C219.879812,27.3850127 218.398115,27.1766279 216.860938,26.849166 L216.860938,1.43298391 C218.070653,1.20565502 219.394032,1.0365115 220.831075,0.922847052 C222.268119,0.809182606 223.605029,0.752350383 224.840453,0.752350383 C226.504825,0.752350383 228.036589,0.87278057 229.435744,1.1122878 C230.8349,1.35179502 232.039201,1.76044577 233.047297,2.34094634 C234.056745,2.9214469 234.844278,3.68326932 235.411247,4.62911989 C235.978216,5.57497046 236.262377,6.74138419 236.262377,8.12700791 C236.262377,10.2203281 235.254282,11.8711689 233.236738,13.0822365 C234.90111,13.7128036 236.035048,14.5693464 236.641258,15.6545712 C237.246116,16.7384429 237.547868,17.9616888 237.547868,19.3229559 C237.547868,22.0711998 236.546538,24.1388102 234.541172,25.5257871 C232.53716,26.9114108 229.556175,27.6055758 225.596863,27.6055758 L225.596863,27.6055758 Z M222.609112,15.8426588 L222.609112,22.6124591 C223.03806,22.6638787 223.504896,22.7017669 224.008267,22.7261235 C224.512991,22.7518333 225.067782,22.7640117 225.672639,22.7640117 C227.437145,22.7640117 228.86201,22.5123261 229.945881,22.0076018 C231.031106,21.5042307 231.572365,20.5705585 231.572365,19.2092914 C231.572365,17.9982238 231.119061,17.1349153 230.211098,16.6180127 C229.303136,16.1011101 228.005467,15.8426588 226.315385,15.8426588 L222.609112,15.8426588 L222.609112,15.8426588 Z M222.609112,11.342088 L225.483199,11.342088 C227.299123,11.342088 228.596793,11.1093465 229.378912,10.6425104 C230.161032,10.1756742 230.552092,9.42603016 230.552092,8.39222496 C230.552092,7.33270994 230.1475,6.58983159 229.341024,6.16088362 C228.534548,5.73193565 227.34919,5.51813824 225.786304,5.51813824 C225.28158,5.51813824 224.74032,5.52355083 224.15982,5.53708231 C223.579319,5.54926065 223.062417,5.58038306 222.609112,5.63180269 L222.609112,11.342088 L222.609112,11.342088 Z" id="Shape"></path>
                    <rect id="Rectangle-path" x="242.275767" y="1.05545557" width="5.89972602" height="26.2104801"></rect>
                    <path d="M273.667452,1.05545557 L273.667452,6.08510732 L265.76236,6.08510732 L265.76236,27.2645825 L259.862634,27.2645825 L259.862634,6.08510732 L251.958896,6.08510732 L251.958896,1.05545557 L273.667452,1.05545557 L273.667452,1.05545557 Z" id="Shape"></path>
                    <path d="M288.531784,27.7950166 C284.269368,27.7950166 281.023165,26.6096588 278.791824,24.2389432 C276.560483,21.8695807 275.445488,18.5029481 275.445488,14.1417515 C275.445488,11.972655 275.785129,10.0376531 276.465762,8.33539273 C277.146396,6.63313233 278.080068,5.19608898 279.265426,4.02426266 C280.44943,2.8510832 281.862117,1.96206485 283.50078,1.35720762 C285.139442,0.752350383 286.917479,0.449245193 288.833536,0.449245193 C289.943118,0.449245193 290.951213,0.531787231 291.859176,0.69551816 C292.767138,0.859249088 293.561436,1.04868983 294.24207,1.26248724 C294.922703,1.4776378 295.489672,1.69820095 295.94433,1.92552985 C296.397635,2.15150559 296.725097,2.328768 296.928069,2.45461078 L295.225808,7.22039864 C294.419332,6.79145067 293.478894,6.42610066 292.407201,6.12299547 C291.336861,5.81989028 290.119027,5.66969084 288.75776,5.66969084 C287.849798,5.66969084 286.962133,5.81989028 286.092058,6.12299547 C285.221984,6.42610066 284.453396,6.91052771 283.784941,7.5789829 C283.116485,8.2474381 282.580639,9.11074663 282.177401,10.1702617 C281.774162,11.2284235 281.572543,12.5152674 281.572543,14.0280871 C281.572543,15.2378016 281.705152,16.3663271 281.969016,17.4123107 C282.234233,18.4596473 282.663181,19.360844 283.254507,20.1172539 C283.847185,20.8736637 284.622539,21.4717552 285.580568,21.9128815 C286.53995,22.3540078 287.699598,22.5745709 289.060865,22.5745709 C289.917408,22.5745709 290.687349,22.5245045 291.367983,22.4243715 C292.048617,22.3228854 292.653474,22.2038083 293.182555,22.0644341 C293.712989,21.926413 294.178472,21.7680946 294.583063,21.5921854 C294.986301,21.414923 295.351651,21.251192 295.679113,21.0996394 L297.305597,25.8275391 C296.473411,26.3322634 295.301585,26.785568 293.788765,27.1888062 C292.275945,27.5933975 290.523619,27.7950166 288.531784,27.7950166 L288.531784,27.7950166 Z" id="Shape"></path>
                    <path d="M305.097024,14.1417515 C305.097024,15.4272423 305.25399,16.5868903 305.569273,17.6206955 C305.884557,18.6545007 306.339214,19.543519 306.93054,20.2863974 C307.523219,21.0306289 308.248506,21.6043637 309.106402,22.0076018 C309.962945,22.41084 310.946684,22.6124591 312.056265,22.6124591 C313.140137,22.6124591 314.11711,22.41084 314.987184,22.0076018 C315.857259,21.6043637 316.587959,21.0306289 317.180638,20.2863974 C317.773316,19.543519 318.226621,18.6545007 318.541905,17.6206955 C318.857188,16.5868903 319.015506,15.4272423 319.015506,14.1417515 C319.015506,12.8549076 318.857188,11.6884939 318.541905,10.6425104 C318.226621,9.59652683 317.773316,8.70074274 317.180638,7.95786439 C316.587959,7.2136329 315.857259,6.63989807 314.987184,6.23665992 C314.11711,5.83342176 313.140137,5.63180269 312.056265,5.63180269 C310.946684,5.63180269 309.962945,5.83883436 309.106402,6.25560399 C308.248506,6.67102048 307.523219,7.25152105 306.93054,7.99575254 C306.339214,8.73863089 305.884557,9.63441498 305.569273,10.6803985 C305.25399,11.726382 305.097024,12.8806174 305.097024,14.1417515 L305.097024,14.1417515 Z M325.104673,14.1417515 C325.104673,16.3852712 324.770446,18.3581612 324.10199,20.0604216 C323.433535,21.762682 322.52016,23.1861939 321.360512,24.3336636 C320.199511,25.4811332 318.8193,26.3444417 317.218526,26.9249423 C315.617751,27.5040897 313.896547,27.7950166 312.056265,27.7950166 C310.26605,27.7950166 308.575968,27.5040897 306.987372,26.9249423 C305.398776,26.3444417 304.013153,25.4811332 302.827795,24.3336636 C301.642437,23.1861939 300.710118,21.762682 300.028131,20.0604216 C299.347498,18.3581612 299.007858,16.3852712 299.007858,14.1417515 C299.007858,11.8968787 299.361029,9.92398868 300.066019,8.22172829 C300.772363,6.52082103 301.724979,5.08919027 302.922515,3.92954229 C304.120051,2.76989431 305.507028,1.89982003 307.082093,1.31931947 C308.65851,0.740172049 310.316117,0.449245193 312.056265,0.449245193 C313.84648,0.449245193 315.535209,0.740172049 317.123805,1.31931947 C318.712401,1.89982003 320.099378,2.76989431 321.284736,3.92954229 C322.468741,5.08919027 323.402413,6.52082103 324.083046,8.22172829 C324.76368,9.92398868 325.104673,11.8968787 325.104673,14.1417515 L325.104673,14.1417515 Z" id="Shape"></path>
                    <rect id="Rectangle-path" x="330.020661" y="1.05545557" width="5.89972602" height="26.2104801"></rect>
                    <path d="M359.558532,27.2645825 C357.869803,24.264653 356.0417,21.3012585 354.075576,18.3771053 C352.108098,15.451599 350.016131,12.6911767 347.796968,10.0944854 L347.796968,27.2645825 L341.971665,27.2645825 L341.971665,1.05545557 L346.775341,1.05545557 C347.607527,1.8876417 348.527668,2.90791542 349.537117,4.11898303 C350.545212,5.3286975 351.572251,6.620954 352.619588,7.99575254 C353.665572,9.36919793 354.704789,10.794063 355.738595,12.2689945 C356.7724,13.743926 357.74396,15.1620253 358.651923,16.5232923 L358.651923,1.05545557 L364.513761,1.05545557 L364.513761,27.2645825 L359.558532,27.2645825 L359.558532,27.2645825 Z" id="Shape"></path>
                </g>
            </g>
            <path d="M807.015186,373.806972 L823.556884,401.974744 L1580.89364,401.974751 L1614.74101,346.811004 L1580.89364,292 L823.556885,292 L807.015186,319.987661 L789.731997,292 L32.3952463,292 L1.13686838e-13,346.811004 L32.3952448,401.974744 L789.731997,401.974751 L807.015186,373.806972 Z" id="Shape-Copy-8" stroke="#FF9900" fill-opacity="0.772475091" fill="#FF9900"></path>
            <path d="M807.084624,373.496283 L791.231077,346.500316 L807.084624,319.676972 L823.648813,346.500316 L807.084624,373.496283 Z" id="Shape-Copy-8" stroke="#FF9900" fill="#FF9900"></path>
            <text id="we-organize-events-m" font-family="AvenirNext-MediumItalic, Avenir Next" font-size="32" font-style="italic" font-weight="500" fill="#FFFFFF">
                <tspan x="844" y="357">we organize events matching speakers with topics</tspan>
            </text>
            <text id="you-identify-topics-" font-family="AvenirNext-MediumItalic, Avenir Next" font-size="32" font-style="italic" font-weight="500" fill="#FFFFFF">
                <tspan x="56" y="357">you identify topics you want to learn more about</tspan>
            </text>
        </g>
    </g>
</svg>