<?xml version="1.0" encoding="UTF-8" standalone="no"?>
<svg width="283px" height="56px" viewBox="0 0 283 56" version="1.1" xmlns="http://www.w3.org/2000/svg" xmlns:xlink="http://www.w3.org/1999/xlink">
    <!-- Generator: Sketch 3.7.2 (28276) - http://www.bohemiancoding.com/sketch -->
    <title>DPD Logo</title>
    <desc>Created with Sketch.</desc>
    <defs>
        <polygon id="path-1" points="0.0797183099 0.434464789 282.97077 0.434464789 282.97077 55.7230986 0.0797183099 55.7230986"></polygon>
    </defs>
    <g id="Page-1" stroke="none" stroke-width="1" fill="none" fill-rule="evenodd">
        <g id="DPD-Logo">
            <g id="Page-1">
                <g id="DPD-Logo">
                    <g id="Group">
                        <g id="Group-3">
                            <g id="mask-2" fill="#FFFFFF">
                                <polygon id="path-1" points="0.0797183099 0.434464789 282.97077 0.434464789 282.97077 55.7230986 0.0797183099 55.7230986"></polygon>
                            </g>
                            <g id="Clip-2"></g>
                            <g id="Fill-1-Clipped">
                                <mask id="mask-2" fill="white">
                                    <use xlink:href="#path-1"></use>
                                </mask>
                                <g id="path-1"></g>
                                <path d="M26.5767559,44.353939 C36.1389671,44.353939 43.8397559,36.6531502 43.8397559,27.153385 C43.8397559,23.3202629 42.5855211,19.78077 40.4663427,16.9215399 L53.2850469,29.1543146 C52.2606667,42.9774695 40.72277,53.8736338 26.6405305,53.8736338 C18.442831,53.8736338 11.1087465,50.1813474 6.20739906,44.3725399 L26.5740986,44.3725399 L26.5767559,44.353939 L26.5767559,44.353939 L26.5767559,44.353939 Z M0,24.9651174 C1.11074178,11.2296526 12.6167512,0.434464789 26.6405305,0.434464789 C34.8780892,0.434464789 42.2427324,4.09353521 47.1440798,9.95283099 C47.1440798,9.95283099 26.6299014,10.0232488 26.6405305,9.95283099 C17.1394366,9.95283099 9.43864789,17.6536197 9.43864789,27.153385 C9.43864789,30.832385 10.5945634,34.243 12.562277,37.0411127 L0,24.9637887 C0,24.9637887 0.131535211,24.9637887 0,24.9651174 L0,24.9651174 L0,24.9651174 Z" id="Fill-1" fill="#0072AD" mask="url(#mask-2)"></path>
                            </g>
                        </g>
                        <path d="M30.6915493,42.089939 C30.1335211,42.2374178 29.5635352,42.3530094 28.9829202,42.4367136 L28.9829202,28.1591643 C29.5768216,28.5444695 30.1680657,28.8819437 30.6915493,29.1317277 L30.6915493,42.089939" id="Fill-4" fill="#1A1918"></path>
                        <path d="M39.2253944,36.2638592 C38.3564648,37.4503333 37.322784,38.5092582 36.1575681,39.4047606 L36.1575681,26.0904742 C37.2922254,28.333216 38.5823333,32.4267512 39.2253944,36.2638592" id="Fill-5" fill="#1A1918"></path>
                        <path d="M41.9823192,29.7375869 C41.7577793,31.0715399 41.3618451,32.3470329 40.8197606,33.5401502 C39.697061,29.2366901 38.1438826,25.9416667 36.1575681,23.6564085 L36.1575681,20.2949531 C37.9578732,21.2927606 40.3534085,24.9744178 41.9823192,29.7375869" id="Fill-6" fill="#1A1918"></path>
                        <path d="M36.1575681,14.8993521 C39.3024554,17.3174742 41.4893944,20.9180845 42.0540657,25.0355352 C40.3786526,22.011554 37.9618592,19.464554 36.1575681,18.2581502 L36.1575681,14.8993521" id="Fill-7" fill="#1A1918"></path>
                        <path d="M32.4108075,12.7761878 C33.1136573,13.0525446 33.7899343,13.3793897 34.4356526,13.7514085 L34.4356526,40.5513756 C33.7899343,40.924723 33.1136573,41.2502394 32.4108075,41.5265962 L32.4108075,12.7761878" id="Fill-8" fill="#1A1918"></path>
                        <path d="M26.7016479,11.7079624 C28.1139906,11.7079624 29.4333286,11.8833427 30.6915493,12.2141737 L30.6915493,20.2404789 C28.031615,18.8892535 26.7029765,16.0340094 26.7016479,11.7079624" id="Fill-9" fill="#1A1918"></path>
                        <path d="M24.9677746,11.8102676 C24.8641408,16.5920376 26.5568263,20.4729906 30.6915493,22.2228075 L30.6915493,27.1653427 C23.9938826,23.5913052 24.5505822,14.4981033 23.2697746,14.4223709 C20.4650188,14.4648873 18.3670986,17.9339624 17.3918779,18.6275117 C16.3409249,19.3755352 18.2315775,19.4844836 18.6846432,20.0996432 C19.5934319,21.3379343 21.7365258,21.3937371 21.2063991,21.8640751 C20.6563427,22.3583286 19.6917512,21.9995962 19.339662,22.1271455 C18.4521315,22.1377746 18.2966808,23.6019343 17.8635446,23.6338216 C17.3613192,23.3083052 18.0096948,22.4247606 17.6443192,21.6289061 C17.4078216,21.1080798 16.6876995,20.6510282 16.1814883,21.5252723 C14.8568357,23.8224883 13.7952535,25.3225211 13.89623,26.050615 C14.010493,26.8610845 15.6394038,26.4930516 15.6686338,26.9022723 C15.5437418,27.498831 15.2421408,27.4111408 15.1066197,27.6781972 C15.1066197,27.6781972 15.0654319,27.8349765 15.3577324,28.3279014 C15.0694178,28.5524413 15.1504648,28.7623662 15.0959906,29.0931972 C15.6394038,30.1401643 15.517169,30.6105023 15.1982958,31.1964319 C14.6070516,32.2859155 15.1185775,33.8922394 17.138108,33.7142019 C19.8751033,33.471061 24.5997418,34.1845399 24.93323,30.8921737 C25.0448357,29.7960469 24.4296761,27.8960939 25.4261549,24.6635164 C26.0532723,25.7689437 27.4682723,27.0603803 27.4682723,27.0603803 L27.4682723,36.6664366 C27.5679202,39.778108 27.311493,41.4827512 26.6710892,42.4114695 C25.2614038,42.4114695 24.5213521,42.2706338 23.3056479,42.0447653 C25.1830141,39.7980376 25.3185352,37.6695587 24.040385,34.9950094 C22.1205023,34.5725023 20.3321549,34.526 18.7896056,35.0534695 C19.4685399,35.9476432 19.0473615,36.5415446 19.2626009,36.7846854 C20.6496995,38.3166056 21.5531737,40.248446 20.9552864,41.4721221 C15.8360423,39.5668545 11.6255869,34.1739108 11.3226573,27.9704977 C10.8895211,19.1523239 17.6376761,12.4785728 24.9279155,11.8102676 L24.9677746,11.8102676" id="Fill-10" fill="#1A1918"></path>
                    </g>
                    <text id="HALA-team" fill="#000000" font-family="MyriadPro-Regular, Myriad Pro" font-size="16" font-weight="normal">
                        <tspan x="66.6445" y="21.1362676">HALA team</tspan>
                    </text>
                    <text id="City-of-Seattle" fill="#000000" font-family="MyriadPro-Regular, Myriad Pro" font-size="16" font-weight="normal">
                        <tspan x="66.6445" y="45.3362676">City of Seattle</tspan>
                    </text>
                </g>
            </g>
        </g>
    </g>
</svg>