<?xml version="1.0" encoding="UTF-8" standalone="no"?>
<svg width="686px" height="672px" viewBox="0 0 686 672" version="1.1" xmlns="http://www.w3.org/2000/svg" xmlns:xlink="http://www.w3.org/1999/xlink" xmlns:sketch="http://www.bohemiancoding.com/sketch/ns">
    <!-- Generator: Sketch 3.3.3 (12072) - http://www.bohemiancoding.com/sketch -->
    <title>Group 11</title>
    <desc>Created with Sketch.</desc>
    <defs></defs>
    <g id="Page-1" stroke="none" stroke-width="1" fill="none" fill-rule="evenodd" sketch:type="MSPage">
        <g id="Group-11" sketch:type="MSLayerGroup" transform="translate(-4.000000, 0.000000)">
            <g id="Group" transform="translate(78.000000, 0.000000)" sketch:type="MSShapeGroup">
                <path d="M472.016,91.999 L469.859,94.173 L257.204,93.131 C195.471,95.056 139.021,133.376 109.748,188.649 C81.706,242.682 87.952,316.449 121.954,365.795 C79.322,324.166 39.464,284.707 0.226,243.68 C5.692,142.757 76.898,48.548 171.313,16.05 C277.164,-21.702 399.115,8.731 472.016,91.999" id="Fill-1" fill="#006DAB"></path>
                <path d="M261.55,118.137 C264.972,156.412 280.131,189.72 311.339,214.38 C313.49,232.904 313.51,254.817 311.391,272.106 C282.648,257.301 270.289,229.25 256.684,202.718 L254.22,203.32 L257.307,201.771 C251.112,182.024 245.85,161.661 242.431,140.364 C237.487,133.286 229.77,140.696 223.914,142.552 C203.543,150.296 195.855,170.362 177.962,182.718 L177.967,186.413 C193.714,192.28 203.29,207.396 219.661,210.783 C220.273,212.918 218.422,213.865 217.188,215.414 C209.168,217.249 200.521,211.082 194.349,217.58 C189.416,220.668 188.188,230.873 182.637,227.797 C182.629,220.983 188.172,212.947 181.683,207.099 C178.906,202.79 173.347,202.793 169.949,205.559 C157.931,218.549 151.456,236.135 143.145,251.574 C142.529,256.508 146.853,260.524 150.563,262.053 C153.032,261.77 157.039,259.91 158.898,262.674 C159.517,268.541 153.04,273.174 157.368,279.026 C147.189,286.758 163.559,294.774 155.843,304.358 C151.528,309.612 151.534,317.619 153.09,324.102 C154.328,329.045 158.652,333.045 163.279,334.574 C191.988,330.238 226.262,341.637 249.385,321.862 C258.941,307.342 251.515,284.821 255.819,268.451 C258.585,257.947 258.572,245.918 264.743,236.658 L267.831,238.201 L281.746,261.932 L281.232,384.801 C279.394,397.742 280.022,412.27 271.7,421.85 C260.588,422.168 249.788,421.553 239.593,419.09 C252.244,400.571 257.768,369.379 243.238,349.932 C228.413,343.487 208.983,346.881 192.312,347.217 C188.299,351.531 194.784,354.922 193.869,359.873 C196.042,374.076 209.325,383.922 208.713,399.674 L207.8,408.613 C196.993,407.395 188.962,400 179.696,395.379 C133.064,363.932 107.399,309.028 112.274,250.071 C117.157,191.097 161.251,137.037 218.029,120.325 C230.68,115.364 244.564,112.9 259.371,112.886 L261.55,118.137" id="Fill-3" fill="#1A1918"></path>
                <path d="M305.371,118.095 C307.554,146.173 310.355,174.563 311.326,201.723 C281.672,182.941 271.448,147.738 266.171,114.427 L267.714,112.876 C280.979,112.557 293.957,113.477 305.371,118.095" id="Fill-4" fill="#1A1918"></path>
                <path d="M345.515,134.411 L346.203,213.748 L345.765,401.721 C337.745,406.358 329.41,410.672 320.461,412.854 L318.923,408.508 L318.772,246.184 C315.367,244.012 319.998,242.459 318.765,239.688 L318.03,122.712 C328.218,123.625 337.177,128.244 345.515,134.411" id="Fill-5" fill="#1A1918"></path>
                <path d="M386.91,167.092 C408.222,193.921 423.686,225.703 423.4,261.799 C410.116,224.783 387.534,190.847 351.417,169.896 C352.637,159.093 348.613,148.921 351.987,138.716 C365.881,144.876 375.468,155.367 386.91,167.092" id="Fill-6" fill="#1A1918"></path>
                <path d="M538.251,292.278 C535.509,339.801 518.589,383.953 492.996,422.553 C431.977,511.522 324.609,553.893 216.248,534.559 C158.211,522.262 105.395,492.67 64.921,447.334 L64.921,445.186 C142.087,443.887 215.243,447.821 292.399,444.346 C362.148,435.334 424.74,380.627 440.421,311.496 C453.356,259.946 439.103,208.712 411.292,168.614 L538.251,292.278" id="Fill-7" fill="#006DAB"></path>
                <path d="M422.517,290.528 C417.891,311.821 412.996,334.662 398.192,350.735 C392.276,300.737 384.509,250.75 352.059,212.196 C351.143,201.991 350.494,189.959 352.976,180.383 C395.572,203.19 411.983,248.553 422.517,290.528" id="Fill-8" fill="#1A1918"></path>
                <path d="M388.639,366.174 C379.076,376.363 367.366,390.576 353.775,395.844 L352.226,392.139 L351.47,225.465 L353.016,223.916 C383.292,262.461 387.353,314.305 388.639,366.174" id="Fill-9" fill="#1A1918"></path>
                <path d="M312.314,286.91 C312.675,332.299 315.168,372.11 309.978,415.949 C302.875,419.035 294.86,419.961 286.522,420.291 C290.48,372.76 287.348,319.668 289.157,269.967 L312.314,286.91" id="Fill-10" fill="#1A1918"></path>
            </g>
            <text id="City-of-Seattle" sketch:type="MSTextLayer" font-family="Times New Roman" font-size="120" font-weight="normal" fill="#000000">
                <tspan x="0" y="646">City of Seattle</tspan>
            </text>
        </g>
    </g>
</svg>