<?xml version="1.0" encoding="UTF-8" standalone="no"?>
<svg width="135px" height="133px" viewBox="0 0 135 133" version="1.1" xmlns="http://www.w3.org/2000/svg" xmlns:xlink="http://www.w3.org/1999/xlink" xmlns:sketch="http://www.bohemiancoding.com/sketch/ns">
    <!-- Generator: Sketch 3.0.4 (8053) - http://www.bohemiancoding.com/sketch -->
    <title>Untitled 3</title>
    <desc>Created with Sketch.</desc>
    <defs></defs>
    <g id="Page-1" stroke="none" stroke-width="1" fill="none" fill-rule="evenodd" sketch:type="MSPage">
        <circle id="Oval-1" fill="#FFFEF5" sketch:type="MSShapeGroup" cx="67.75" cy="66.25" r="58.25"></circle>
        <g id="logo" sketch:type="MSLayerGroup">
            <g id="g10" transform="translate(67.518497, 66.792200) scale(1, -1) translate(-67.518497, -66.792200) translate(0.018497, 0.292200)" sketch:type="MSShapeGroup">
                <path d="M67.6592538,133.2922 C65.8233788,133.29345 63.2978787,129.5322 61.4717538,129.3547 C59.6455038,129.17345 56.4585038,132.3672 54.6592537,132.01095 C52.8575037,131.65345 51.1045037,127.48095 49.3467537,126.94845 C47.5913787,126.41595 43.8247537,128.9322 42.1280037,128.2297 C40.4336287,127.52845 39.5278787,123.0622 37.9092537,122.19845 C36.2906287,121.3347 32.0913787,123.06095 30.5655037,122.0422 C29.0396287,121.0222 29.0152537,116.48845 27.5967537,115.32345 C26.1758787,114.15845 21.7393787,115.05845 20.4405037,113.76095 C19.1416287,112.46345 20.0112537,107.9922 18.8467537,106.57345 C17.6821288,105.15595 13.1485037,105.16095 12.1280037,103.63595 C11.1075041,102.11095 12.8385037,97.91095 11.9717537,96.2922 C11.1050041,94.6747 6.64362912,93.7997 5.94050412,92.1047 C5.49362912,91.02845 6.36525412,89.0922 6.90925412,87.38595 L12.9092537,87.38595 C21.2794263,109.367262 42.5203387,125.01095 67.4405037,125.01095 C92.3588338,125.01095 113.601671,109.367262 121.971759,87.38595 L128.409263,87.38595 C128.953012,89.0772 129.786763,90.97595 129.346763,92.0422 C128.645512,93.7397 124.211762,94.6422 123.346759,96.26095 C122.485509,97.88095 124.211762,102.04845 123.190509,103.57345 C122.173009,105.1022 117.634259,105.12345 116.471759,106.5422 C115.306759,107.9597 116.178009,112.40095 114.878009,113.69845 C113.581759,114.9972 109.140509,114.12595 107.721759,115.2922 C106.303009,116.45595 106.307009,120.99095 104.784259,122.01095 C103.255885,123.0322 99.059125,121.3022 97.4405037,122.1672 C95.8217537,123.0347 94.9185037,127.49345 93.2217537,128.19845 C91.5273837,128.8997 87.7583737,126.38595 86.0030037,126.9172 C84.2476337,127.4522 82.4922537,131.6522 80.6905037,132.01095 C78.8911287,132.3697 75.6730037,129.17345 73.8467537,129.3547 C72.0206287,129.5347 69.4927537,133.29095 67.6592537,133.2922 L67.6592538,133.2922 Z M6.90925413,45.7922063 C6.36675412,44.0583312 5.48487913,42.0807062 5.94050413,40.9797063 C6.64362913,39.2828313 11.0762541,38.3790813 11.9405037,36.7609563 C12.8047537,35.1393313 11.0762541,30.9430763 12.0967537,29.4172063 C13.1147537,27.8913363 17.6510038,27.8982063 18.8155037,26.4797063 C19.9776288,25.0588363 19.1128788,20.5915763 20.4092537,19.2922063 C21.7081287,17.9934563 26.1470037,18.8937063 27.5655037,17.7297063 C28.9838787,16.5647063 28.9771287,12.0002063 30.5030038,10.9797063 C32.0288788,9.96108625 36.2306288,11.6907063 37.8467538,10.8234563 C39.4655037,9.95920625 40.3712537,5.52707625 42.0655037,4.82345625 C43.7622537,4.12083625 47.5263787,6.63832625 49.2842538,6.10470625 C51.0396287,5.57245625 52.7975037,1.369325 54.5967537,1.010955 C56.3985038,0.651955 59.6142537,3.848325 61.4405037,3.667205 C63.2691288,3.487085 65.7921288,-0.270295 67.6280038,-0.270295 C69.4640038,-0.270295 71.9868787,3.489455 73.8155038,3.667205 C75.6416288,3.845955 78.8575038,0.653085 80.6592538,1.010955 C82.4585038,1.366955 84.1851338,5.54133625 85.9405038,6.07345625 C87.6982538,6.60620625 91.4625038,4.091085 93.1592538,4.79220625 C94.8560038,5.49482625 95.7593838,9.95970625 97.3780038,10.8234563 C98.996625,11.6877063 103.195885,9.92983625 104.721759,10.9484563 C106.249509,11.9659563 106.271759,16.5339563 107.690509,17.6984563 C109.109259,18.8605763 113.550509,17.9645863 114.846759,19.2609563 C116.145509,20.5603263 115.275509,25.0012063 116.440509,26.4172063 C117.604259,27.8352063 122.138009,27.8595863 123.159259,29.3859563 C124.179263,30.9118263 122.450509,35.1139563 123.315509,36.7297063 C124.181763,38.3488313 128.644263,39.2234563 129.346763,40.9172063 C129.808013,42.0310813 128.886763,44.0435813 128.346763,45.7922063 L121.940509,45.7922063 C113.546084,23.8593563 92.3239437,8.29220625 67.4405038,8.29220625 C42.5552325,8.29220625 21.33502,23.8593563 12.9405038,45.7922063 L6.90925413,45.7922063 L6.90925413,45.7922063 Z" id="path98" fill="#184286"></path>
                <path d="M65.0890025,109.49595 L65.7970025,112.20595 L63.6290025,113.97845 L66.4243775,114.1447 L67.4425025,116.7547 L68.4630025,114.1472 L71.2583775,113.9872 L69.0928775,112.2097 L69.8057525,109.50095 L67.4448775,111.0097 L65.0890025,109.49595" id="path102" fill="#F14A57"></path>
                <path d="M69.7960025,22.5419575 L69.0903775,19.8368325 L71.2583775,18.0624575 L68.4630025,17.8964575 L67.4473775,15.2865825 L66.4268775,17.8934575 L63.6290025,18.0545825 L65.7945025,19.8324575 L65.0816275,22.5419575 L67.4425025,21.0312075 L69.7960025,22.5419575" id="path104" fill="#F14A57"></path>
                <g id="g3018" transform="translate(31.250000, 90.000000)" fill="#88BE1D">
                    <path d="M2.5527525,2.3972 L5.8418775,2.3972 L5.8418775,0.55595 L0.2286275,0.55595 L0.2286275,11.3997 L2.5527525,11.3997 L2.5527525,2.3972" id="path106"></path>
                    <path d="M12.7452525,0.55595 L15.0694775,0.55595 L15.0694775,11.3992125 L12.7452525,11.3992125 L12.7452525,0.55595 L12.7452525,0.55595 Z" id="path108"></path>
                    <path d="M25.3946275,4.09345 L25.4258775,4.09345 L28.0826275,11.3997 L30.5806275,11.3997 L25.9478775,0.26845 L24.5880025,0.26845 L20.0337525,11.3997 L22.5317525,11.3997 L25.3946275,4.09345" id="path110"></path>
                    <path d="M35.7197525,0.55595 L38.0439775,0.55595 L38.0439775,11.3992125 L35.7197525,11.3992125 L35.7197525,0.55595 L35.7197525,0.55595 Z" id="path112"></path>
                    <path d="M45.2696275,11.6872 L46.9468775,11.6872 L53.2237525,4.10845 L53.2555025,4.10845 L53.2555025,11.3997 L55.5796275,11.3997 L55.5796275,0.34095 L53.9033775,0.34095 L47.6255025,7.9197 L47.5938775,7.9197 L47.5938775,0.55595 L45.2696275,0.55595 L45.2696275,11.6872" id="path114"></path>
                    <path d="M72.7110025,6.32345 L72.7110025,6.0497 C72.7110025,2.98595 70.9883775,0.26845 67.2886275,0.26845 C63.8096275,0.26845 61.6123775,2.94345 61.6123775,5.9347 C61.6123775,9.02595 63.8731275,11.6872 67.4302525,11.6872 C69.4541275,11.6872 71.2251275,10.7522 72.1421275,9.09845 L70.0865025,8.0922 C69.6128775,9.0697 68.6006275,9.8172 67.3667525,9.8172 C65.1231275,9.8172 64.0147525,7.7322 64.0147525,5.9347 C64.0147525,4.1372 65.1377525,2.13845 67.3838775,2.13845 C68.8375025,2.13845 70.0547525,3.28845 70.1036275,4.5972 L67.5728775,4.5972 L67.5728775,6.32345 L72.7110025,6.32345" id="path116"></path>
                </g>
                <path d="M-0.018497175,47.8080825 L135.307762,47.8080825 L135.307762,85.3764625 L-0.018497175,85.3764625 L-0.018497175,47.8080825 L-0.018497175,47.8080825 Z" id="path118" fill="#184286"></path>
                <path d="M30.8516275,64.6854575 L36.2862525,78.2884625 L42.6118775,78.2884625 L33.0493775,55.8964575 L28.5357525,55.8964575 L19.1211275,78.2884625 L25.4473775,78.2884625 L30.8516275,64.6854575" id="path120" fill="#A6D832"></path>
                <path d="M45.9996275,63.4994575 C45.9996275,61.5683325 47.2768775,60.0839575 49.4742525,60.0839575 C51.6720025,60.0839575 52.9487525,61.5683325 52.9487525,63.4994575 C52.9487525,65.3700825 51.6720025,66.9433325 49.4742525,66.9433325 C47.2768775,66.9433325 45.9996275,65.3700825 45.9996275,63.4994575 L45.9996275,63.4994575 Z M58.6510025,63.4994575 C58.6510025,58.3304575 54.3741275,55.3910825 49.4742525,55.3910825 C44.6041275,55.3910825 40.2973775,58.3017075 40.2973775,63.4994575 C40.2973775,68.6947075 44.5742525,71.6359625 49.4742525,71.6359625 C54.3741275,71.6359625 58.6510025,68.6947075 58.6510025,63.4994575 L58.6510025,63.4994575 Z" id="path122" fill="#A6D832"></path>
                <path d="M66.9981275,55.8964575 L61.5933775,55.8964575 L61.5933775,66.6762075 L59.8408775,66.6762075 L59.8408775,71.1322125 L61.5933775,71.1322125 L61.5933775,75.7047125 L66.9981275,75.7047125 L66.9981275,71.1322125 L70.0572525,71.1322125 L70.0572525,66.6762075 L66.9981275,66.6762075 L66.9981275,55.8964575" id="path124" fill="#A6D832"></path>
                <path d="M82.4117525,65.7264575 C82.1446275,67.1815825 80.8091275,68.1312075 79.3541275,68.1312075 C77.7793775,68.1312075 76.4732525,67.2997075 76.1461275,65.7264575 L82.4117525,65.7264575 L82.4117525,65.7264575 Z M87.4302525,62.6078325 L76.0567525,62.6078325 C76.0567525,60.4110825 77.2153775,59.2215825 79.4420025,59.2215825 C80.6001275,59.2215825 81.4317525,59.6073325 82.0260025,60.6180825 L87.2227525,60.6180825 C86.3618775,57.0243325 82.9463775,55.3910825 79.4712525,55.3910825 C74.4233775,55.3910825 70.6515025,58.2425825 70.6515025,63.4994575 C70.6515025,68.5765825 74.1270025,71.6359625 79.0855025,71.6359625 C84.3721275,71.6359625 87.4302525,68.3690825 87.4302525,63.1723325 L87.4302525,62.6078325 L87.4302525,62.6078325 Z" id="path126" fill="#A6D832"></path>
                <path d="M94.6773775,68.6372075 L94.7373775,68.6372075 C95.7760025,70.5072125 97.5572525,71.3397125 99.6666275,71.3397125 L100.706627,71.3397125 L100.706627,66.1415825 C99.9643775,66.5575825 99.2515025,66.6469575 98.4190025,66.6469575 C95.4195025,66.6469575 94.6773775,64.6567075 94.6773775,62.0438325 L94.6773775,55.8964575 L89.2720025,55.8964575 L89.2720025,71.1322125 L94.6773775,71.1322125 L94.6773775,68.6372075" id="path128" fill="#A6D832"></path>
                <path d="M111.934259,67.2108325 C111.101759,67.6562075 109.944259,67.9530825 109.024259,67.9530825 C108.399259,67.9530825 107.330509,67.6869575 107.330509,66.9129575 C107.330509,65.8739575 109.024259,65.7264575 109.766759,65.5775825 C112.290509,65.0712075 114.190509,63.8852075 114.190509,61.0629575 C114.190509,57.0535825 110.538009,55.3910825 107.004259,55.3910825 C104.836009,55.3910825 102.698753,56.0135825 100.856503,57.1439575 L102.816003,60.9134575 C103.915628,60.1419575 105.756759,59.3705825 107.093009,59.3705825 C107.776759,59.3705825 108.785509,59.6982075 108.785509,60.5277075 C108.785509,61.7167075 107.093009,61.7758325 105.400509,62.2220825 C103.707128,62.6669575 102.015253,63.4994575 102.015253,66.2303325 C102.015253,69.9722075 105.400509,71.6359625 108.726759,71.6359625 C110.449259,71.6359625 112.171759,71.3684625 113.745509,70.6559625 L111.934259,67.2108325" id="path130" fill="#A6D832"></path>
                <g id="g3011" transform="translate(35.000000, 28.750000)" fill="#F14A57">
                    <path d="M12.3725,7.36735375 L12.3725,7.06281875 C12.3725,3.62424875 10.4380513,0.574745 6.2829,0.574745 C2.37704625,0.574745 -0.09026875,3.57438875 -0.09026875,6.93313 C-0.09026875,10.4032837 2.44894625,13.390295 6.44403625,13.390295 C8.717155,13.390295 10.70415,12.339345 11.73306,10.4829788 L9.42580625,9.35166 C8.89199875,10.4520675 7.75799375,11.2930975 6.370525,11.2930975 C3.85066125,11.2930975 2.60806625,8.95009625 2.60806625,6.93313 C2.60806625,4.9156275 3.86907375,2.671405 6.39054875,2.671405 C8.02315125,2.671405 9.3891175,3.9629175 9.44314375,5.4302175 L6.601545,5.4302175 L6.601545,7.36735375 L12.3725,7.36735375" id="path132"></path>
                    <path d="M17.3701287,13.0685588 L19.9792275,13.0685588 L19.9792275,6.2543125 C19.9792275,4.75556625 20.1235662,2.640495 22.3415825,2.640495 C24.5595988,2.640495 24.7039362,4.75556625 24.7039362,6.2543125 L24.7039362,13.0685588 L27.3115575,13.0685588 L27.3115575,5.7877025 C27.3115575,2.81843125 25.9297313,0.574745 22.3415825,0.574745 C18.7534325,0.574745 17.3701288,2.81843125 17.3701288,5.7877025 L17.3701288,13.0685588" id="path134"></path>
                    <path d="M32.9300787,0.89446625 L35.5402412,0.89446625 L35.5402412,13.068545 L32.9300787,13.068545 L32.9300787,0.89446625 L32.9300787,0.89446625 Z" id="path136"></path>
                    <path d="M43.8241863,2.9616925 L44.249405,2.9616925 C47.4621963,2.9616925 48.7053275,4.57763 48.7053275,6.98151125 C48.7053275,9.62998875 47.21451,11.002675 44.249405,11.002675 L43.8241863,11.002675 L43.8241863,2.9616925 L43.8241863,2.9616925 Z M41.2140112,13.0685587 L44.9413925,13.0685587 C48.8140513,13.0685587 51.4063512,10.4347312 51.4063512,6.96471375 C51.4063512,3.54294125 48.7405387,0.89446625 44.9240562,0.89446625 L41.2140112,0.89446625 L41.2140112,13.0685587 L41.2140112,13.0685587 Z" id="path138"></path>
                    <path d="M59.0654925,11.002675 L59.0654925,8.32019625 L63.2191663,8.32019625 L63.2191663,6.2543125 L59.0654925,6.2543125 L59.0654925,2.9616925 L63.3792275,2.9616925 L63.3792275,0.89446625 L56.4563925,0.89446625 L56.4563925,13.0685587 L63.3792275,13.0685587 L63.3792275,11.002675 L59.0654925,11.002675" id="path140"></path>
                </g>
            </g>
        </g>
    </g>
</svg>